  0
SECTION
  2
HEADER
  9
$ACADVER
  1
AC1009
  9
$INSBASE
 10
0.0
 20
0.0
 30
0.0
  9
$EXTMIN
 10
0.0
 20
0.0
 30
0.0
  9
$EXTMAX
 10
0.0
 20
0.0
 30
0.0
  0
ENDSEC
  0
SECTION
  2
TABLES
  0
TABLE
  2
VPORT
 70
0
  0
ENDTAB
  0
TABLE
  2
LTYPE
 70
1
  0
LTYPE
  2
CONTINUOUS
 70
0
  3
Solid line
 72
65
 73
0
 40
0.0
  0
ENDTAB
  0
TABLE
  2
LAYER
 70
1
  0
LAYER
  2
0
 70
64
 62
7
  6
continuous
  0
ENDTAB
  0
TABLE
  2
STYLE
 70
1
  0
STYLE
  2
STANDARD
 70
0
 40
0
 41
1.0
 50
0.0
 71
0
 42
1
 3
ARIAL.TTF
 4

  0
ENDTAB
  0
TABLE
  2
VIEW
 70
0
  0
ENDTAB
  0
ENDSEC
  0
SECTION
  2
BLOCKS
  0
BLOCK
  8
0
  2
CUT044
 70
0
 10
0.0
 20
0.0
 30
0.0
  3
CUT044
  0
LINE
  8
0
 62
0
 10
139.84597102726673
 20
182.57016216290359
 30
0.0
 11
84.73595054329229
 21
194.9190120431666
 31
0.0
  0
ARC
  8
0
 62
0
 10
139.40866262668226
 20
180.61855734563702
 30
0.0
 40
2.0
 50
-0.0
 51
77.36999999999948
  0
ARC
  8
0
 62
0
 10
83.64267954183117
 20
190.04000000000002
 30
0.0
 40
4.9999999999999964
 50
77.37000000000006
 51
90.0
  0
LINE
  8
0
 62
0
 10
141.4086626266823
 20
87.62
 30
0.0
 11
141.40866262668226
 21
180.618557345637
 31
0.0
  0
LINE
  8
0
 62
0
 10
83.64267954183117
 20
195.04000000000005
 30
0.0
 11
46.41039130888347
 21
195.04000000000005
 31
0.0
  0
ARC
  8
0
 62
0
 10
139.9086626266823
 20
87.62
 30
0.0
 40
1.5
 50
-90.0
 51
-0.0
  0
ARC
  8
0
 62
0
 10
46.41039130888346
 20
192.54000000000002
 30
0.0
 40
2.5
 50
89.99999999999983
 51
124.98999999999965
  0
LINE
  8
0
 62
0
 10
47.24853560776008
 20
86.12
 30
0.0
 11
139.9086626266823
 21
86.12
 31
0.0
  0
LINE
  8
0
 62
0
 10
44.97680766235039
 20
194.5881303494634
 30
0.0
 11
33.98132431334979
 21
186.89186965053665
 31
0.0
  0
ARC
  8
0
 62
0
 10
47.24853560776008
 20
83.62
 30
0.0
 40
2.5
 50
90.0
 51
119.99999999999976
  0
ARC
  8
0
 62
0
 10
32.5477406668167
 20
188.94
 30
0.0
 40
2.5
 50
-89.99999999999983
 51
-55.009999999999444
  0
LINE
  8
0
 62
0
 10
8.646749940923808
 20
64.22
 30
0.0
 11
45.99853560776009
 21
85.78506350946111
 31
0.0
  0
LINE
  8
0
 62
0
 10
32.54774066681671
 20
186.43999999999997
 30
0.0
 11
15.89332204087313
 21
186.43999999999997
 31
0.0
  0
ARC
  8
0
 62
0
 10
8.146749940923804
 20
65.08602540378443
 30
0.0
 40
1.0000000000000013
 50
-150.00000000000006
 51
-59.9999999999996
  0
ARC
  8
0
 62
0
 10
15.893322040873123
 20
185.44
 30
0.0
 40
1.0
 50
89.99999999999959
 51
146.1399999999995
  0
LINE
  8
0
 62
0
 10
-10.696009906615188
 20
95.72264281454083
 30
0.0
 11
7.280724537139381
 21
64.58602540378445
 31
0.0
  0
LINE
  8
0
 62
0
 10
15.062920578536797
 20
185.9971655152194
 30
0.0
 11
7.498261164345937
 21
174.72277026276575
 31
0.0
  0
ARC
  8
0
 62
0
 10
-8.963959099046328
 20
96.72264281454083
 30
0.0
 40
2.0000000000000013
 50
138.47999999999985
 51
-149.99999999999957
  0
ARC
  8
0
 62
0
 10
8.32866262668226
 20
174.16560474754635
 30
0.0
 40
1.0000000000000007
 50
146.13999999999953
 51
-180.0
  0
LINE
  8
0
 62
0
 10
7.0773870038163516
 20
117.85846887122706
 30
0.0
 11
-10.461407853314501
 21
98.04840569995463
 31
0.0
  0
LINE
  8
0
 62
0
 10
7.328662626682263
 20
174.16560474754635
 30
0.0
 11
7.3286626266822665
 21
118.52135031393395
 31
0.0
  0
ARC
  8
0
 62
0
 10
6.3286626266822665
 20
118.52135031393395
 30
0.0
 40
0.9999999999999972
 50
-41.51999999999976
 51
-0.0
  0
LINE
  8
0
 62
0
 10
29.141900000000007
 20
124.3047
 30
0.0
 11
43.15389999999999
 21
124.3047
 31
0.0
  0
LINE
  8
0
 62
0
 10
29.141900000000007
 20
110.31280000000001
 30
0.0
 11
29.141900000000007
 21
124.3047
 31
0.0
  0
LINE
  8
0
 62
0
 10
43.15389999999999
 20
124.3047
 30
0.0
 11
43.15389999999999
 21
110.31280000000001
 31
0.0
  0
LINE
  8
0
 62
0
 10
43.15389999999999
 20
110.31280000000001
 30
0.0
 11
29.141900000000007
 21
110.31280000000001
 31
0.0
  0
LINE
  8
0
 62
0
 10
62.203900000000004
 20
112.68379999999999
 30
0.0
 11
62.203900000000004
 21
126.69630000000001
 31
0.0
  0
LINE
  8
0
 62
0
 10
48.191900000000004
 20
112.68379999999999
 30
0.0
 11
62.203900000000004
 21
112.68379999999999
 31
0.0
  0
LINE
  8
0
 62
0
 10
62.203900000000004
 20
126.69630000000001
 30
0.0
 11
48.191900000000004
 21
126.69630000000001
 31
0.0
  0
LINE
  8
0
 62
0
 10
48.191900000000004
 20
126.69630000000001
 30
0.0
 11
48.191900000000004
 21
112.68379999999999
 31
0.0
  0
LINE
  8
0
 62
0
 10
81.2542
 20
115.076
 30
0.0
 11
81.2542
 21
129.0665
 31
0.0
  0
LINE
  8
0
 62
0
 10
67.24189999999999
 20
115.076
 30
0.0
 11
81.2542
 21
115.076
 31
0.0
  0
LINE
  8
0
 62
0
 10
81.2542
 20
129.0665
 30
0.0
 11
67.24189999999999
 21
129.0665
 31
0.0
  0
LINE
  8
0
 62
0
 10
67.24189999999999
 20
129.0665
 30
0.0
 11
67.24189999999999
 21
115.076
 31
0.0
  0
LINE
  8
0
 62
0
 10
73.63419656677246
 20
93.61469233398437
 30
0.0
 11
59.62159656677245
 21
93.61469233398437
 31
0.0
  0
LINE
  8
0
 62
0
 10
73.63419656677246
 20
107.62649233398439
 30
0.0
 11
73.63419656677246
 21
93.61469233398437
 31
0.0
  0
LINE
  8
0
 62
0
 10
59.62159656677246
 20
107.62649233398439
 30
0.0
 11
73.63419656677246
 21
107.62649233398439
 31
0.0
  0
LINE
  8
0
 62
0
 10
59.62159656677246
 20
93.61469233398437
 30
0.0
 11
59.62159656677246
 21
107.62649233398439
 31
0.0
  0
LINE
  8
0
 62
0
 10
46.66780000000001
 20
105.44489999999999
 30
0.0
 11
34.53909999999999
 21
98.4383
 31
0.0
  0
LINE
  8
0
 62
0
 10
53.65280000000001
 20
93.3161
 30
0.0
 11
46.66780000000001
 21
105.44489999999999
 31
0.0
  0
LINE
  8
0
 62
0
 10
34.53909999999999
 20
98.4383
 30
0.0
 11
41.5453
 21
86.31020000000001
 31
0.0
  0
LINE
  8
0
 62
0
 10
41.5453
 20
86.31020000000001
 30
0.0
 11
53.65280000000001
 21
93.3161
 31
0.0
  0
LINE
  8
0
 62
0
 10
29.141900000000007
 20
162.404
 30
0.0
 11
43.15389999999999
 21
162.404
 31
0.0
  0
LINE
  8
0
 62
0
 10
29.141900000000007
 20
148.4128
 30
0.0
 11
29.141900000000007
 21
162.404
 31
0.0
  0
LINE
  8
0
 62
0
 10
43.15389999999999
 20
162.404
 30
0.0
 11
43.15389999999999
 21
148.4128
 31
0.0
  0
LINE
  8
0
 62
0
 10
43.15389999999999
 20
148.4128
 30
0.0
 11
29.141900000000007
 21
148.4128
 31
0.0
  0
LINE
  8
0
 62
0
 10
62.203900000000004
 20
131.7337
 30
0.0
 11
62.203900000000004
 21
145.7463
 31
0.0
  0
LINE
  8
0
 62
0
 10
48.191900000000004
 20
131.7337
 30
0.0
 11
62.203900000000004
 21
131.7337
 31
0.0
  0
LINE
  8
0
 62
0
 10
62.203900000000004
 20
145.7463
 30
0.0
 11
48.191900000000004
 21
145.7463
 31
0.0
  0
LINE
  8
0
 62
0
 10
48.191900000000004
 20
145.7463
 30
0.0
 11
48.191900000000004
 21
131.7337
 31
0.0
  0
LINE
  8
0
 62
0
 10
67.24189999999999
 20
134.1253
 30
0.0
 11
81.2542
 21
134.1253
 31
0.0
  0
LINE
  8
0
 62
0
 10
67.24189999999999
 20
148.1165
 30
0.0
 11
67.24189999999999
 21
134.1253
 31
0.0
  0
LINE
  8
0
 62
0
 10
81.2542
 20
134.1253
 30
0.0
 11
81.2542
 21
148.1165
 31
0.0
  0
LINE
  8
0
 62
0
 10
81.2542
 20
148.1165
 30
0.0
 11
67.24189999999999
 21
148.1165
 31
0.0
  0
LINE
  8
0
 62
0
 10
119.35419999999999
 20
146.0212
 30
0.0
 11
119.35419999999999
 21
160.0338
 31
0.0
  0
LINE
  8
0
 62
0
 10
105.3416
 20
146.0212
 30
0.0
 11
119.35419999999999
 21
146.0212
 31
0.0
  0
LINE
  8
0
 62
0
 10
119.35419999999999
 20
160.0338
 30
0.0
 11
105.3416
 21
160.0338
 31
0.0
  0
LINE
  8
0
 62
0
 10
105.3416
 20
160.0338
 30
0.0
 11
105.3416
 21
146.0212
 31
0.0
  0
LINE
  8
0
 62
0
 10
119.35419999999999
 20
140.9838
 30
0.0
 11
105.3416
 21
140.9838
 31
0.0
  0
LINE
  8
0
 62
0
 10
119.35419999999999
 20
126.97120000000001
 30
0.0
 11
119.35419999999999
 21
140.9838
 31
0.0
  0
LINE
  8
0
 62
0
 10
105.3416
 20
140.9838
 30
0.0
 11
105.3416
 21
126.97120000000001
 31
0.0
  0
LINE
  8
0
 62
0
 10
105.3416
 20
126.97120000000001
 30
0.0
 11
119.35419999999999
 21
126.97120000000001
 31
0.0
  0
LINE
  8
0
 62
0
 10
100.3042
 20
131.7337
 30
0.0
 11
100.30420000000001
 21
145.7463
 31
0.0
  0
LINE
  8
0
 62
0
 10
86.29159999999999
 20
131.7337
 30
0.0
 11
100.3042
 21
131.7337
 31
0.0
  0
LINE
  8
0
 62
0
 10
100.30420000000001
 20
145.7463
 30
0.0
 11
86.2916
 21
145.7463
 31
0.0
  0
LINE
  8
0
 62
0
 10
86.2916
 20
145.7463
 30
0.0
 11
86.29159999999999
 21
131.7337
 31
0.0
  0
LINE
  8
0
 62
0
 10
86.29159999999999
 20
107.6456
 30
0.0
 11
100.3042
 21
107.6456
 31
0.0
  0
LINE
  8
0
 62
0
 10
86.2916
 20
93.6337
 30
0.0
 11
86.29159999999999
 21
107.6456
 31
0.0
  0
LINE
  8
0
 62
0
 10
100.3042
 20
107.6456
 30
0.0
 11
100.30420000000001
 21
93.6337
 31
0.0
  0
LINE
  8
0
 62
0
 10
100.30420000000001
 20
93.6337
 30
0.0
 11
86.2916
 21
93.6337
 31
0.0
  0
LINE
  8
0
 62
0
 10
86.29159999999999
 20
112.68379999999999
 30
0.0
 11
100.3042
 21
112.68379999999999
 31
0.0
  0
LINE
  8
0
 62
0
 10
86.2916
 20
126.69630000000001
 30
0.0
 11
86.29159999999999
 21
112.68379999999999
 31
0.0
  0
LINE
  8
0
 62
0
 10
100.3042
 20
112.68379999999999
 30
0.0
 11
100.30420000000001
 21
126.69630000000001
 31
0.0
  0
LINE
  8
0
 62
0
 10
100.30420000000001
 20
126.69630000000001
 30
0.0
 11
86.2916
 21
126.69630000000001
 31
0.0
  0
LINE
  8
0
 62
0
 10
105.3416
 20
121.93379999999999
 30
0.0
 11
105.3416
 21
107.9212
 31
0.0
  0
LINE
  8
0
 62
0
 10
119.35419999999999
 20
121.93379999999999
 30
0.0
 11
105.3416
 21
121.93379999999999
 31
0.0
  0
LINE
  8
0
 62
0
 10
105.3416
 20
107.9212
 30
0.0
 11
119.35419999999999
 21
107.9212
 31
0.0
  0
LINE
  8
0
 62
0
 10
119.35419999999999
 20
107.9212
 30
0.0
 11
119.35419999999999
 21
121.93379999999999
 31
0.0
  0
LINE
  8
0
 62
0
 10
119.35419999999999
 20
88.87129999999999
 30
0.0
 11
119.35419999999999
 21
102.88310000000001
 31
0.0
  0
LINE
  8
0
 62
0
 10
105.3416
 20
88.87129999999999
 30
0.0
 11
119.35419999999999
 21
88.87129999999999
 31
0.0
  0
LINE
  8
0
 62
0
 10
119.35419999999999
 20
102.88310000000001
 30
0.0
 11
105.3416
 21
102.88310000000001
 31
0.0
  0
LINE
  8
0
 62
0
 10
105.3416
 20
102.88310000000001
 30
0.0
 11
105.3416
 21
88.87129999999999
 31
0.0
  0
CIRCLE
  8
0
 62
0
 10
83.27186525799334
 20
112.72134579718113
 30
0.0
 40
0.75
  0
CIRCLE
  8
0
 62
0
 10
83.78815401531756
 20
148.2902087122202
 30
0.0
 40
0.75
  0
LINE
  8
0
 62
0
 10
105.3416
 20
165.0712
 30
0.0
 11
105.3416
 21
179.0838
 31
0.0
  0
LINE
  8
0
 62
0
 10
119.35419999999999
 20
165.0712
 30
0.0
 11
105.3416
 21
165.0712
 31
0.0
  0
LINE
  8
0
 62
0
 10
105.3416
 20
179.0838
 30
0.0
 11
119.35419999999999
 21
179.0838
 31
0.0
  0
LINE
  8
0
 62
0
 10
119.35419999999999
 20
179.0838
 30
0.0
 11
119.35419999999999
 21
165.0712
 31
0.0
  0
LINE
  8
0
 62
0
 10
5.5124881384057955
 20
100.06277809229111
 30
0.0
 11
4.599988138405811
 21
101.64327445419767
 31
0.0
  0
LINE
  8
0
 62
0
 10
6.55171862294712
 20
100.66277809229109
 30
0.0
 11
5.512488138405796
 21
100.06277809229111
 31
0.0
  0
LINE
  8
0
 62
0
 10
4.599988138405812
 20
101.64327445419767
 30
0.0
 11
-0.8299911433226193
 21
98.50827445419766
 31
0.0
  0
LINE
  8
0
 62
0
 10
8.051718622947138
 20
98.06470188093775
 30
0.0
 11
6.551718622947121
 21
100.66277809229109
 31
0.0
  0
LINE
  8
0
 62
0
 10
-0.8299911433226193
 20
98.50827445419768
 30
0.0
 11
-1.26749114332262
 21
99.26604668250906
 31
0.0
  0
LINE
  8
0
 62
0
 10
7.0124881384058115
 20
97.46470188093775
 30
0.0
 11
8.051718622947138
 21
98.06470188093775
 31
0.0
  0
LINE
  8
0
 62
0
 10
-1.2674911433226201
 20
99.26604668250906
 30
0.0
 11
-3.6923622739190485
 21
97.86604668250905
 31
0.0
  0
LINE
  8
0
 62
0
 10
7.92498813840581
 20
95.88420551903116
 30
0.0
 11
7.012488138405811
 21
97.46470188093775
 31
0.0
  0
LINE
  8
0
 62
0
 10
-3.6923622739190485
 20
97.86604668250905
 30
0.0
 11
-3.2548622739190476
 21
97.10827445419767
 31
0.0
  0
LINE
  8
0
 62
0
 10
7.232167815378259
 20
95.48420551903115
 30
0.0
 11
7.924988138405809
 21
95.88420551903116
 31
0.0
  0
LINE
  8
0
 62
0
 10
-3.2548622739190485
 20
97.10827445419767
 30
0.0
 11
-6.052124328142787
 21
95.49327445419767
 31
0.0
  0
LINE
  8
0
 62
0
 10
8.01966781537826
 20
94.12021550807066
 30
0.0
 11
7.23216781537826
 21
95.48420551903115
 31
0.0
  0
LINE
  8
0
 62
0
 10
-6.052124328142785
 20
95.49327445419767
 30
0.0
 11
-2.727124328142786
 21
89.73420551903115
 31
0.0
  0
LINE
  8
0
 62
0
 10
8.91167398127623
 20
94.63521550807066
 30
0.0
 11
8.019667815378257
 21
94.12021550807066
 31
0.0
  0
LINE
  8
0
 62
0
 10
-2.7271243281427875
 20
89.73420551903115
 30
0.0
 11
-2.034304005115237
 21
90.13420551903116
 31
0.0
  0
LINE
  8
0
 62
0
 10
15.911673981276227
 20
82.51085985508851
 30
0.0
 11
8.91167398127623
 21
94.63521550807066
 31
0.0
  0
LINE
  8
0
 62
0
 10
-2.034304005115237
 20
90.13420551903116
 30
0.0
 11
-1.2468040051152376
 21
88.77021550807066
 31
0.0
  0
LINE
  8
0
 62
0
 10
15.019667815378256
 20
81.99585985508853
 30
0.0
 11
15.911673981276229
 21
82.51085985508853
 31
0.0
  0
LINE
  8
0
 62
0
 10
-1.2468040051152371
 20
88.77021550807066
 30
0.0
 11
-3.212681671705913
 21
87.63521550807066
 31
0.0
  0
LINE
  8
0
 62
0
 10
15.807167815378254
 20
80.63186984412803
 30
0.0
 11
15.019667815378254
 21
81.99585985508853
 31
0.0
  0
LINE
  8
0
 62
0
 10
-3.212681671705912
 20
87.63521550807067
 30
0.0
 11
3.7873183282940843
 21
75.51085985508853
 31
0.0
  0
LINE
  8
0
 62
0
 10
16.499988138405804
 20
81.03186984412802
 30
0.0
 11
15.807167815378254
 21
80.63186984412802
 31
0.0
  0
LINE
  8
0
 62
0
 10
3.7873183282940843
 20
75.51085985508853
 30
0.0
 11
5.75319599488476
 21
76.64585985508853
 31
0.0
  0
LINE
  8
0
 62
0
 10
17.412488138405806
 20
79.45137348222143
 30
0.0
 11
16.499988138405808
 21
81.03186984412802
 31
0.0
  0
LINE
  8
0
 62
0
 10
5.753195994884759
 20
76.64585985508852
 30
0.0
 11
6.540695994884759
 21
75.28186984412802
 31
0.0
  0
LINE
  8
0
 62
0
 10
18.45171862294713
 20
80.05137348222142
 30
0.0
 11
17.412488138405802
 21
79.45137348222143
 31
0.0
  0
LINE
  8
0
 62
0
 10
6.540695994884759
 20
75.28186984412804
 30
0.0
 11
5.847875671857208
 21
74.88186984412803
 31
0.0
  0
LINE
  8
0
 62
0
 10
19.951718622947133
 20
77.4532972708681
 30
0.0
 11
18.451718622947133
 21
80.05137348222142
 31
0.0
  0
LINE
  8
0
 62
0
 10
5.847875671857208
 20
74.88186984412803
 30
0.0
 11
9.172875671857208
 21
69.12280090896151
 31
0.0
  0
LINE
  8
0
 62
0
 10
18.912488138405806
 20
76.85329727086811
 30
0.0
 11
19.951718622947133
 21
77.4532972708681
 31
0.0
  0
LINE
  8
0
 62
0
 10
9.172875671857206
 20
69.12280090896151
 30
0.0
 11
11.970137726080944
 21
70.7378009089615
 31
0.0
  0
LINE
  8
0
 62
0
 10
19.824988138405804
 20
75.27280090896151
 30
0.0
 11
18.912488138405806
 21
76.85329727086811
 31
0.0
  0
LINE
  8
0
 62
0
 10
11.970137726080944
 20
70.7378009089615
 30
0.0
 11
12.407637726080944
 21
69.98002868065012
 31
0.0
  0
LINE
  8
0
 62
0
 10
14.395008856677373
 20
72.13780090896151
 30
0.0
 11
19.824988138405804
 21
75.27280090896151
 31
0.0
  0
LINE
  8
0
 62
0
 10
12.407637726080946
 20
69.98002868065012
 30
0.0
 11
14.832508856677375
 21
71.38002868065013
 31
0.0
  0
LINE
  8
0
 62
0
 10
14.832508856677373
 20
71.38002868065013
 30
0.0
 11
14.395008856677373
 21
72.13780090896151
 31
0.0
  0
LINE
  8
0
 62
0
 10
22.012488138405796
 20
109.58277809229111
 30
0.0
 11
21.099988138405813
 21
111.16327445419766
 31
0.0
  0
LINE
  8
0
 62
0
 10
23.051718622947128
 20
110.18277809229109
 30
0.0
 11
22.012488138405796
 21
109.58277809229112
 31
0.0
  0
LINE
  8
0
 62
0
 10
21.099988138405813
 20
111.16327445419768
 30
0.0
 11
15.67000885667738
 21
108.02827445419767
 31
0.0
  0
LINE
  8
0
 62
0
 10
24.55171862294714
 20
107.58470188093774
 30
0.0
 11
23.051718622947128
 21
110.18277809229107
 31
0.0
  0
LINE
  8
0
 62
0
 10
15.67000885667738
 20
108.02827445419767
 30
0.0
 11
15.23250885667738
 21
108.78604668250905
 31
0.0
  0
LINE
  8
0
 62
0
 10
23.51248813840581
 20
106.98470188093775
 30
0.0
 11
24.55171862294714
 21
107.58470188093774
 31
0.0
  0
LINE
  8
0
 62
0
 10
15.23250885667738
 20
108.78604668250905
 30
0.0
 11
12.807637726080952
 21
107.38604668250905
 31
0.0
  0
LINE
  8
0
 62
0
 10
24.42498813840581
 20
105.40420551903115
 30
0.0
 11
23.51248813840581
 21
106.98470188093775
 31
0.0
  0
LINE
  8
0
 62
0
 10
12.807637726080952
 20
107.38604668250906
 30
0.0
 11
13.245137726080952
 21
106.62827445419768
 31
0.0
  0
LINE
  8
0
 62
0
 10
23.732167815378258
 20
105.00420551903115
 30
0.0
 11
24.42498813840581
 21
105.40420551903115
 31
0.0
  0
LINE
  8
0
 62
0
 10
13.245137726080952
 20
106.62827445419767
 30
0.0
 11
10.447875671857213
 21
105.01327445419767
 31
0.0
  0
LINE
  8
0
 62
0
 10
24.51966781537826
 20
103.64021550807065
 30
0.0
 11
23.73216781537826
 21
105.00420551903115
 31
0.0
  0
LINE
  8
0
 62
0
 10
10.447875671857215
 20
105.01327445419767
 30
0.0
 11
13.772875671857214
 21
99.25420551903115
 31
0.0
  0
LINE
  8
0
 62
0
 10
25.41167398127623
 20
104.15521550807065
 30
0.0
 11
24.51966781537826
 21
103.64021550807065
 31
0.0
  0
LINE
  8
0
 62
0
 10
13.772875671857213
 20
99.25420551903115
 30
0.0
 11
14.465695994884763
 21
99.65420551903115
 31
0.0
  0
LINE
  8
0
 62
0
 10
32.41167398127622
 20
92.03085985508852
 30
0.0
 11
25.411673981276227
 21
104.15521550807067
 31
0.0
  0
LINE
  8
0
 62
0
 10
14.465695994884763
 20
99.65420551903115
 30
0.0
 11
15.253195994884763
 21
98.29021550807066
 31
0.0
  0
LINE
  8
0
 62
0
 10
31.519667815378256
 20
91.51585985508852
 30
0.0
 11
32.41167398127623
 21
92.03085985508852
 31
0.0
  0
LINE
  8
0
 62
0
 10
15.253195994884763
 20
98.29021550807066
 30
0.0
 11
13.287318328294088
 21
97.15521550807065
 31
0.0
  0
LINE
  8
0
 62
0
 10
32.30716781537825
 20
90.15186984412803
 30
0.0
 11
31.519667815378252
 21
91.51585985508852
 31
0.0
  0
LINE
  8
0
 62
0
 10
13.287318328294088
 20
97.15521550807065
 30
0.0
 11
20.287318328294084
 21
85.03085985508851
 31
0.0
  0
LINE
  8
0
 62
0
 10
32.999988138405804
 20
90.55186984412802
 30
0.0
 11
32.30716781537825
 21
90.15186984412802
 31
0.0
  0
LINE
  8
0
 62
0
 10
20.287318328294084
 20
85.03085985508852
 30
0.0
 11
22.25319599488476
 21
86.16585985508853
 31
0.0
  0
LINE
  8
0
 62
0
 10
33.912488138405806
 20
88.97137348222142
 30
0.0
 11
32.999988138405804
 21
90.55186984412802
 31
0.0
  0
LINE
  8
0
 62
0
 10
22.25319599488476
 20
86.16585985508851
 30
0.0
 11
23.040695994884757
 21
84.80186984412802
 31
0.0
  0
LINE
  8
0
 62
0
 10
34.951718622947126
 20
89.57137348222142
 30
0.0
 11
33.9124881384058
 21
88.97137348222142
 31
0.0
  0
LINE
  8
0
 62
0
 10
23.040695994884757
 20
84.80186984412802
 30
0.0
 11
22.347875671857206
 21
84.40186984412802
 31
0.0
  0
LINE
  8
0
 62
0
 10
36.45171862294713
 20
86.9732972708681
 30
0.0
 11
34.95171862294713
 21
89.57137348222142
 31
0.0
  0
LINE
  8
0
 62
0
 10
22.34787567185721
 20
84.40186984412803
 30
0.0
 11
25.67287567185721
 21
78.6428009089615
 31
0.0
  0
LINE
  8
0
 62
0
 10
35.412488138405806
 20
86.37329727086811
 30
0.0
 11
36.45171862294713
 21
86.9732972708681
 31
0.0
  0
LINE
  8
0
 62
0
 10
25.672875671857206
 20
78.6428009089615
 30
0.0
 11
28.470137726080942
 21
80.2578009089615
 31
0.0
  0
LINE
  8
0
 62
0
 10
36.3249881384058
 20
84.79280090896151
 30
0.0
 11
35.4124881384058
 21
86.37329727086811
 31
0.0
  0
LINE
  8
0
 62
0
 10
28.470137726080942
 20
80.25780090896151
 30
0.0
 11
28.907637726080942
 21
79.50002868065013
 31
0.0
  0
LINE
  8
0
 62
0
 10
30.89500885667737
 20
81.6578009089615
 30
0.0
 11
36.3249881384058
 21
84.79280090896151
 31
0.0
  0
LINE
  8
0
 62
0
 10
28.907637726080946
 20
79.50002868065012
 30
0.0
 11
31.332508856677375
 21
80.90002868065012
 31
0.0
  0
LINE
  8
0
 62
0
 10
31.33250885667737
 20
80.90002868065012
 30
0.0
 11
30.89500885667737
 21
81.6578009089615
 31
0.0
  0
CIRCLE
  8
0
 62
0
 10
32.59261644817889
 20
105.3593768030405
 30
0.0
 40
0.75
  0
CIRCLE
  8
0
 62
0
 10
4.153440842404962
 20
107.95451535284519
 30
0.0
 40
0.75
  0
LINE
  8
0
 62
0
 10
24.103899999999996
 20
152.879
 30
0.0
 11
10.091899999999995
 21
152.879
 31
0.0
  0
LINE
  8
0
 62
0
 10
24.103899999999996
 20
138.8878
 30
0.0
 11
24.103899999999996
 21
152.879
 31
0.0
  0
LINE
  8
0
 62
0
 10
10.091899999999995
 20
152.879
 30
0.0
 11
10.091899999999995
 21
138.8878
 31
0.0
  0
LINE
  8
0
 62
0
 10
10.091899999999995
 20
138.8878
 30
0.0
 11
24.103899999999996
 21
138.8878
 31
0.0
  0
LINE
  8
0
 62
0
 10
24.103899999999996
 20
119.83850000000001
 30
0.0
 11
24.103899999999996
 21
133.829
 31
0.0
  0
LINE
  8
0
 62
0
 10
10.091899999999995
 20
119.83850000000001
 30
0.0
 11
24.103899999999996
 21
119.83850000000001
 31
0.0
  0
LINE
  8
0
 62
0
 10
24.103899999999996
 20
133.829
 30
0.0
 11
10.091899999999995
 21
133.829
 31
0.0
  0
LINE
  8
0
 62
0
 10
10.091899999999995
 20
133.829
 30
0.0
 11
10.091899999999995
 21
119.83850000000001
 31
0.0
  0
LINE
  8
0
 62
0
 10
29.141900000000007
 20
143.354
 30
0.0
 11
43.15389999999999
 21
143.354
 31
0.0
  0
LINE
  8
0
 62
0
 10
29.141900000000007
 20
129.3628
 30
0.0
 11
29.141900000000007
 21
143.354
 31
0.0
  0
LINE
  8
0
 62
0
 10
43.15389999999999
 20
143.354
 30
0.0
 11
43.15389999999999
 21
129.3628
 31
0.0
  0
LINE
  8
0
 62
0
 10
43.15389999999999
 20
129.3628
 30
0.0
 11
29.141900000000007
 21
129.3628
 31
0.0
  0
LINE
  8
0
 62
0
 10
10.091899999999995
 20
157.9378
 30
0.0
 11
24.103899999999996
 21
157.9378
 31
0.0
  0
LINE
  8
0
 62
0
 10
10.091899999999995
 20
171.929
 30
0.0
 11
10.091899999999995
 21
157.9378
 31
0.0
  0
LINE
  8
0
 62
0
 10
24.103899999999996
 20
157.9378
 30
0.0
 11
24.103899999999996
 21
171.929
 31
0.0
  0
LINE
  8
0
 62
0
 10
24.103899999999996
 20
171.929
 30
0.0
 11
10.091899999999995
 21
171.929
 31
0.0
  0
CIRCLE
  8
0
 62
0
 10
90.01397646404803
 20
187.39882077276707
 30
0.0
 40
0.75
  0
LINE
  8
0
 62
0
 10
100.3042
 20
169.8337
 30
0.0
 11
100.30420000000001
 21
183.84629999999999
 31
0.0
  0
LINE
  8
0
 62
0
 10
86.29159999999999
 20
169.83369999999996
 30
0.0
 11
100.3042
 21
169.8337
 31
0.0
  0
LINE
  8
0
 62
0
 10
100.30420000000001
 20
183.84629999999999
 30
0.0
 11
86.2916
 21
183.84629999999999
 31
0.0
  0
LINE
  8
0
 62
0
 10
86.2916
 20
183.84629999999999
 30
0.0
 11
86.29159999999999
 21
169.83369999999996
 31
0.0
  0
LINE
  8
0
 62
0
 10
81.2542
 20
186.2165
 30
0.0
 11
81.2542
 21
172.2253
 31
0.0
  0
LINE
  8
0
 62
0
 10
67.24189999999999
 20
186.2165
 30
0.0
 11
81.2542
 21
186.2165
 31
0.0
  0
LINE
  8
0
 62
0
 10
81.2542
 20
172.2253
 30
0.0
 11
67.24189999999999
 21
172.2253
 31
0.0
  0
LINE
  8
0
 62
0
 10
67.24189999999999
 20
172.2253
 30
0.0
 11
67.24189999999999
 21
186.2165
 31
0.0
  0
LINE
  8
0
 62
0
 10
29.141900000000007
 20
181.454
 30
0.0
 11
29.141900000000007
 21
167.4628
 31
0.0
  0
LINE
  8
0
 62
0
 10
43.15389999999999
 20
181.454
 30
0.0
 11
29.141900000000007
 21
181.454
 31
0.0
  0
LINE
  8
0
 62
0
 10
29.141900000000007
 20
167.4628
 30
0.0
 11
43.15389999999999
 21
167.4628
 31
0.0
  0
LINE
  8
0
 62
0
 10
43.15389999999999
 20
167.4628
 30
0.0
 11
43.15389999999999
 21
181.454
 31
0.0
  0
LINE
  8
0
 62
0
 10
62.203900000000004
 20
183.84629999999999
 30
0.0
 11
48.191900000000004
 21
183.84629999999999
 31
0.0
  0
LINE
  8
0
 62
0
 10
62.203900000000004
 20
169.8337
 30
0.0
 11
62.203900000000004
 21
183.84629999999999
 31
0.0
  0
LINE
  8
0
 62
0
 10
48.191900000000004
 20
183.84629999999999
 30
0.0
 11
48.191900000000004
 21
169.83369999999996
 31
0.0
  0
LINE
  8
0
 62
0
 10
48.191900000000004
 20
169.83369999999996
 30
0.0
 11
62.203900000000004
 21
169.8337
 31
0.0
  0
CIRCLE
  8
0
 62
0
 10
26.6339582297951
 20
165.0452135950327
 30
0.0
 40
0.75
  0
LINE
  8
0
 62
0
 10
81.2542
 20
153.1753
 30
0.0
 11
81.2542
 21
167.1665
 31
0.0
  0
LINE
  8
0
 62
0
 10
67.24189999999999
 20
153.1753
 30
0.0
 11
81.2542
 21
153.1753
 31
0.0
  0
LINE
  8
0
 62
0
 10
81.2542
 20
167.1665
 30
0.0
 11
67.24189999999999
 21
167.1665
 31
0.0
  0
LINE
  8
0
 62
0
 10
67.24189999999999
 20
167.1665
 30
0.0
 11
67.24189999999999
 21
153.1753
 31
0.0
  0
LINE
  8
0
 62
0
 10
48.191900000000004
 20
164.7963
 30
0.0
 11
48.191900000000004
 21
150.7837
 31
0.0
  0
LINE
  8
0
 62
0
 10
62.203900000000004
 20
164.7963
 30
0.0
 11
48.191900000000004
 21
164.7963
 31
0.0
  0
LINE
  8
0
 62
0
 10
48.191900000000004
 20
150.7837
 30
0.0
 11
62.203900000000004
 21
150.7837
 31
0.0
  0
LINE
  8
0
 62
0
 10
62.203900000000004
 20
150.7837
 30
0.0
 11
62.203900000000004
 21
164.7963
 31
0.0
  0
LINE
  8
0
 62
0
 10
86.29159999999999
 20
164.7963
 30
0.0
 11
100.3042
 21
164.7963
 31
0.0
  0
LINE
  8
0
 62
0
 10
86.2916
 20
150.7837
 30
0.0
 11
86.29159999999999
 21
164.7963
 31
0.0
  0
LINE
  8
0
 62
0
 10
100.3042
 20
164.7963
 30
0.0
 11
100.30420000000001
 21
150.7837
 31
0.0
  0
LINE
  8
0
 62
0
 10
100.30420000000001
 20
150.7837
 30
0.0
 11
86.2916
 21
150.7837
 31
0.0
  0
CIRCLE
  8
0
 62
0
 10
121.89279116131365
 20
105.11314572393894
 30
0.0
 40
0.75
  0
CIRCLE
  8
0
 62
0
 10
121.88312471844256
 20
162.49803341925144
 30
0.0
 40
0.75
  0
LINE
  8
0
 62
0
 10
124.39160000000001
 20
121.93379999999999
 30
0.0
 11
138.4042
 21
121.93379999999999
 31
0.0
  0
LINE
  8
0
 62
0
 10
124.39160000000001
 20
107.9212
 30
0.0
 11
124.39160000000001
 21
121.93379999999999
 31
0.0
  0
LINE
  8
0
 62
0
 10
138.4042
 20
121.93379999999999
 30
0.0
 11
138.4042
 21
107.9212
 31
0.0
  0
LINE
  8
0
 62
0
 10
138.4042
 20
107.9212
 30
0.0
 11
124.39160000000001
 21
107.9212
 31
0.0
  0
LINE
  8
0
 62
0
 10
138.4042
 20
88.87129999999999
 30
0.0
 11
124.39160000000001
 21
88.87129999999999
 31
0.0
  0
LINE
  8
0
 62
0
 10
138.4042
 20
102.88310000000001
 30
0.0
 11
138.4042
 21
88.87129999999999
 31
0.0
  0
LINE
  8
0
 62
0
 10
124.39160000000001
 20
88.87129999999999
 30
0.0
 11
124.39160000000001
 21
102.88310000000001
 31
0.0
  0
LINE
  8
0
 62
0
 10
124.39160000000001
 20
102.88310000000001
 30
0.0
 11
138.4042
 21
102.88310000000001
 31
0.0
  0
LINE
  8
0
 62
0
 10
124.39160000000001
 20
140.9838
 30
0.0
 11
138.4042
 21
140.9838
 31
0.0
  0
LINE
  8
0
 62
0
 10
124.39160000000001
 20
126.97120000000001
 30
0.0
 11
124.39160000000001
 21
140.9838
 31
0.0
  0
LINE
  8
0
 62
0
 10
138.4042
 20
140.9838
 30
0.0
 11
138.4042
 21
126.97120000000001
 31
0.0
  0
LINE
  8
0
 62
0
 10
138.4042
 20
126.97120000000001
 30
0.0
 11
124.39160000000001
 21
126.97120000000001
 31
0.0
  0
LINE
  8
0
 62
0
 10
138.4042
 20
179.0838
 30
0.0
 11
138.4042
 21
165.0712
 31
0.0
  0
LINE
  8
0
 62
0
 10
124.39160000000001
 20
179.0838
 30
0.0
 11
138.4042
 21
179.0838
 31
0.0
  0
LINE
  8
0
 62
0
 10
138.4042
 20
165.0712
 30
0.0
 11
124.39160000000001
 21
165.0712
 31
0.0
  0
LINE
  8
0
 62
0
 10
124.39160000000001
 20
165.0712
 30
0.0
 11
124.39160000000001
 21
179.0838
 31
0.0
  0
LINE
  8
0
 62
0
 10
124.39160000000001
 20
160.0338
 30
0.0
 11
138.4042
 21
160.0338
 31
0.0
  0
LINE
  8
0
 62
0
 10
124.39160000000001
 20
146.0212
 30
0.0
 11
124.39160000000001
 21
160.0338
 31
0.0
  0
LINE
  8
0
 62
0
 10
138.4042
 20
160.0338
 30
0.0
 11
138.4042
 21
146.0212
 31
0.0
  0
LINE
  8
0
 62
0
 10
138.4042
 20
146.0212
 30
0.0
 11
124.39160000000001
 21
146.0212
 31
0.0
  0
ENDBLK
  0
ENDSEC
  0
SECTION
  2
ENTITIES
  0
INSERT
  2
CUT044
  8
0
 62
0
 10
0.0
 20
0.0
 30
0.0
  0
ENDSEC
  0
EOF
