  0
SECTION
  2
HEADER
  9
$ACADVER
  1
AC1009
  9
$INSBASE
 10
0.0
 20
0.0
 30
0.0
  9
$EXTMIN
 10
0.0
 20
0.0
 30
0.0
  9
$EXTMAX
 10
0.0
 20
0.0
 30
0.0
  0
ENDSEC
  0
SECTION
  2
TABLES
  0
TABLE
  2
VPORT
 70
0
  0
ENDTAB
  0
TABLE
  2
LTYPE
 70
1
  0
LTYPE
  2
CONTINUOUS
 70
0
  3
Solid line
 72
65
 73
0
 40
0.0
  0
ENDTAB
  0
TABLE
  2
LAYER
 70
1
  0
LAYER
  2
0
 70
64
 62
7
  6
continuous
  0
ENDTAB
  0
TABLE
  2
STYLE
 70
1
  0
STYLE
  2
STANDARD
 70
0
 40
0
 41
1.0
 50
0.0
 71
0
 42
1
 3
ARIAL.TTF
 4

  0
ENDTAB
  0
TABLE
  2
VIEW
 70
0
  0
ENDTAB
  0
ENDSEC
  0
SECTION
  2
BLOCKS
  0
BLOCK
  8
0
  2
EXTRUDE
 70
0
 10
0.0
 20
0.0
 30
0.0
  3
EXTRUDE
  0
LINE
  8
0
 62
0
 10
-44.39937375640869
 20
-129.6792212890625
 30
0.0
 11
-44.39937375640869
 21
-130.7796212890625
 31
0.0
  0
LINE
  8
0
 62
0
 10
-43.52117375640869
 20
-128.5820212890625
 30
0.0
 11
-44.39937375640869
 21
-129.6792212890625
 31
0.0
  0
LINE
  8
0
 62
0
 10
-44.39937375640869
 20
-130.7796212890625
 30
0.0
 11
-44.39937375640869
 21
-161.3938212890625
 31
0.0
  0
LINE
  8
0
 62
0
 10
-42.44807375640869
 20
-128.3404212890625
 30
0.0
 11
-43.52117375640869
 21
-128.5820212890625
 31
0.0
  0
LINE
  8
0
 62
0
 10
-44.39937375640869
 20
-161.3938212890625
 30
0.0
 11
-44.39937375640869
 21
-222.8783212890625
 31
0.0
  0
LINE
  8
0
 62
0
 10
10.67222624359131
 20
-116.3991212890625
 30
0.0
 11
-42.4480737564087
 21
-128.3404212890625
 31
0.0
  0
LINE
  8
0
 62
0
 10
-44.39937375640869
 20
-222.8783212890625
 30
0.0
 11
-44.39937375640869
 21
-223.9784212890625
 31
0.0
  0
LINE
  8
0
 62
0
 10
11.745426243591309
 20
-116.1579212890625
 30
0.0
 11
10.67222624359131
 21
-116.3991212890625
 31
0.0
  0
LINE
  8
0
 62
0
 10
-44.39937375640869
 20
-223.9784212890625
 30
0.0
 11
-43.49927375640869
 21
-224.8782212890625
 31
0.0
  0
LINE
  8
0
 62
0
 10
13.52352624359131
 20
-115.9601212890625
 30
0.0
 11
11.745426243591309
 21
-116.1579212890625
 31
0.0
  0
LINE
  8
0
 62
0
 10
-43.49927375640869
 20
-224.8782212890625
 30
0.0
 11
-42.39927375640869
 21
-224.8782212890625
 31
0.0
  0
LINE
  8
0
 62
0
 10
14.623626243591309
 20
-115.9601212890625
 30
0.0
 11
13.52352624359131
 21
-115.9601212890625
 31
0.0
  0
LINE
  8
0
 62
0
 10
-42.39927375640869
 20
-224.8782212890625
 30
0.0
 11
48.31252624359131
 21
-224.8782212890625
 31
0.0
  0
LINE
  8
0
 62
0
 10
49.45382624359131
 20
-115.9601212890625
 30
0.0
 11
14.62362624359131
 21
-115.9601212890625
 31
0.0
  0
LINE
  8
0
 62
0
 10
48.31252624359131
 20
-224.8782212890625
 30
0.0
 11
48.31302624359131
 21
-224.8789212890625
 31
0.0
  0
LINE
  8
0
 62
0
 10
50.553926243591306
 20
-115.9601212890625
 30
0.0
 11
49.45382624359131
 21
-115.9601212890625
 31
0.0
  0
LINE
  8
0
 62
0
 10
48.31302624359131
 20
-224.8789212890625
 30
0.0
 11
49.41302624359131
 21
-224.8789212890625
 31
0.0
  0
LINE
  8
0
 62
0
 10
52.18862624359131
 20
-116.4803212890625
 30
0.0
 11
50.553926243591306
 21
-115.9601212890625
 31
0.0
  0
LINE
  8
0
 62
0
 10
49.41302624359131
 20
-224.8789212890625
 30
0.0
 11
51.09252624359131
 21
-225.3288212890625
 31
0.0
  0
LINE
  8
0
 62
0
 10
53.08652624359131
 20
-117.1156212890625
 30
0.0
 11
52.18862624359131
 21
-116.4803212890625
 31
0.0
  0
LINE
  8
0
 62
0
 10
51.09252624359131
 20
-225.3288212890625
 30
0.0
 11
52.04542624359131
 21
-225.8780212890625
 31
0.0
  0
LINE
  8
0
 62
0
 10
62.005526243591305
 20
-123.4253212890625
 30
0.0
 11
53.08652624359131
 21
-117.1156212890625
 31
0.0
  0
LINE
  8
0
 62
0
 10
52.04542624359131
 20
-225.8780212890625
 30
0.0
 11
87.43892624359131
 21
-246.2978212890625
 31
0.0
  0
LINE
  8
0
 62
0
 10
62.90352624359131
 20
-124.0606212890625
 30
0.0
 11
62.005526243591305
 21
-123.4253212890625
 31
0.0
  0
LINE
  8
0
 62
0
 10
87.43892624359131
 20
-246.2978212890625
 30
0.0
 11
88.39182624359131
 21
-246.8476212890625
 31
0.0
  0
LINE
  8
0
 62
0
 10
64.53822624359131
 20
-124.5805212890625
 30
0.0
 11
62.90352624359131
 21
-124.0606212890625
 31
0.0
  0
LINE
  8
0
 62
0
 10
88.39182624359131
 20
-246.8476212890625
 30
0.0
 11
89.6224262435913
 21
-246.5183212890625
 31
0.0
  0
LINE
  8
0
 62
0
 10
65.6382262435913
 20
-124.5805212890625
 30
0.0
 11
64.53822624359131
 21
-124.5805212890625
 31
0.0
  0
LINE
  8
0
 62
0
 10
89.6224262435913
 20
-246.5183212890625
 30
0.0
 11
90.1737262435913
 21
-245.5667212890625
 31
0.0
  0
LINE
  8
0
 62
0
 10
79.6377262435913
 20
-124.5805212890625
 30
0.0
 11
65.6382262435913
 21
-124.5805212890625
 31
0.0
  0
LINE
  8
0
 62
0
 10
90.1737262435913
 20
-245.5667212890625
 30
0.0
 11
107.41312624359131
 21
-215.7894212890625
 31
0.0
  0
LINE
  8
0
 62
0
 10
80.73772624359131
 20
-124.5805212890625
 30
0.0
 11
79.6377262435913
 21
-124.5805212890625
 31
0.0
  0
LINE
  8
0
 62
0
 10
107.41312624359131
 20
-215.7894212890625
 30
0.0
 11
107.9643262435913
 21
-214.8371212890625
 31
0.0
  0
LINE
  8
0
 62
0
 10
82.1407262435913
 20
-125.3267212890625
 30
0.0
 11
80.73772624359131
 21
-124.5805212890625
 31
0.0
  0
LINE
  8
0
 62
0
 10
107.9643262435913
 20
-214.8371212890625
 30
0.0
 11
107.81822624359131
 21
-213.3854212890625
 31
0.0
  0
LINE
  8
0
 62
0
 10
82.7555262435913
 20
-126.2390212890625
 30
0.0
 11
82.1407262435913
 21
-125.3267212890625
 31
0.0
  0
LINE
  8
0
 62
0
 10
107.81822624359131
 20
-213.3854212890625
 30
0.0
 11
107.08792624359131
 21
-212.5627212890625
 31
0.0
  0
LINE
  8
0
 62
0
 10
88.5649262435913
 20
-134.8600212890625
 30
0.0
 11
82.7555262435913
 21
-126.2390212890625
 31
0.0
  0
LINE
  8
0
 62
0
 10
107.08792624359131
 20
-212.5627212890625
 30
0.0
 11
91.0080262435913
 21
-194.4408212890625
 31
0.0
  0
LINE
  8
0
 62
0
 10
89.1797262435913
 20
-135.7722212890625
 30
0.0
 11
88.5649262435913
 21
-134.8600212890625
 31
0.0
  0
LINE
  8
0
 62
0
 10
91.0080262435913
 20
-194.4408212890625
 30
0.0
 11
90.54602624359131
 21
-193.9201212890625
 31
0.0
  0
LINE
  8
0
 62
0
 10
89.6827262435913
 20
-137.4183212890625
 30
0.0
 11
89.1797262435913
 21
-135.7722212890625
 31
0.0
  0
LINE
  8
0
 62
0
 10
90.54602624359131
 20
-193.9201212890625
 30
0.0
 11
90.13722624359131
 21
-193.0990212890625
 31
0.0
  0
LINE
  8
0
 62
0
 10
89.6827262435913
 20
-138.5186212890625
 30
0.0
 11
89.6827262435913
 21
-137.4183212890625
 31
0.0
  0
LINE
  8
0
 62
0
 10
90.13722624359131
 20
-193.0990212890625
 30
0.0
 11
89.89922624359131
 21
-192.2874212890625
 31
0.0
  0
LINE
  8
0
 62
0
 10
89.6806262435913
 20
-190.9454212890625
 30
0.0
 11
89.6827262435913
 21
-138.5186212890625
 31
0.0
  0
LINE
  8
0
 62
0
 10
89.89922624359131
 20
-192.2874212890625
 30
0.0
 11
89.78142624359131
 21
-191.8857212890625
 31
0.0
  0
LINE
  8
0
 62
0
 10
89.6806262435913
 20
-191.0046212890625
 30
0.0
 11
89.6806262435913
 21
-190.9454212890625
 31
0.0
  0
LINE
  8
0
 62
0
 10
89.78142624359131
 20
-191.8857212890625
 30
0.0
 11
89.70552624359131
 21
-191.4864212890625
 31
0.0
  0
LINE
  8
0
 62
0
 10
89.68242624359131
 20
-191.0652212890625
 30
0.0
 11
89.6806262435913
 21
-191.0046212890625
 31
0.0
  0
LINE
  8
0
 62
0
 10
89.70552624359131
 20
-191.4864212890625
 30
0.0
 11
89.68582624359131
 21
-191.1270212890625
 31
0.0
  0
LINE
  8
0
 62
0
 10
89.68582624359131
 20
-191.1270212890625
 30
0.0
 11
89.68242624359131
 21
-191.0652212890625
 31
0.0
  0
LINE
  8
0
 62
0
 10
-22.3542
 20
-189.0662
 30
0.0
 11
-8.3416
 21
-189.0662
 31
0.0
  0
LINE
  8
0
 62
0
 10
-22.3542
 20
-203.0788
 30
0.0
 11
-22.3542
 21
-189.0662
 31
0.0
  0
LINE
  8
0
 62
0
 10
-8.3416
 20
-189.0662
 30
0.0
 11
-8.3416
 21
-203.0788
 31
0.0
  0
LINE
  8
0
 62
0
 10
-8.3416
 20
-203.0788
 30
0.0
 11
-22.3542
 21
-203.0788
 31
0.0
  0
LINE
  8
0
 62
0
 10
-22.3542
 20
-170.0162
 30
0.0
 11
-8.3416
 21
-170.0162
 31
0.0
  0
LINE
  8
0
 62
0
 10
-22.3542
 20
-184.0288
 30
0.0
 11
-22.3542
 21
-170.0162
 31
0.0
  0
LINE
  8
0
 62
0
 10
-8.3416
 20
-170.0162
 30
0.0
 11
-8.3416
 21
-184.0288
 31
0.0
  0
LINE
  8
0
 62
0
 10
-8.3416
 20
-184.0288
 30
0.0
 11
-22.3542
 21
-184.0288
 31
0.0
  0
LINE
  8
0
 62
0
 10
-22.3542
 20
-150.9662
 30
0.0
 11
-8.3416
 21
-150.9662
 31
0.0
  0
LINE
  8
0
 62
0
 10
-22.3542
 20
-164.9788
 30
0.0
 11
-22.3542
 21
-150.9662
 31
0.0
  0
LINE
  8
0
 62
0
 10
-8.3416
 20
-150.9662
 30
0.0
 11
-8.3416
 21
-164.9788
 31
0.0
  0
LINE
  8
0
 62
0
 10
-8.3416
 20
-164.9788
 30
0.0
 11
-22.3542
 21
-164.9788
 31
0.0
  0
CIRCLE
  8
0
 62
0
 10
13.725850105285645
 20
-198.28404235839844
 30
0.0
 40
1.0
  0
LINE
  8
0
 62
0
 10
-3.3042
 20
-184.3037
 30
0.0
 11
10.7084
 21
-184.3037
 31
0.0
  0
LINE
  8
0
 62
0
 10
-3.3042
 20
-198.3162
 30
0.0
 11
-3.3042
 21
-184.3037
 31
0.0
  0
LINE
  8
0
 62
0
 10
10.7084
 20
-184.3037
 30
0.0
 11
10.7084
 21
-198.3162
 31
0.0
  0
LINE
  8
0
 62
0
 10
10.7084
 20
-198.3162
 30
0.0
 11
-3.3042
 21
-198.3162
 31
0.0
  0
LINE
  8
0
 62
0
 10
-3.3042
 20
-165.2537
 30
0.0
 11
10.7084
 21
-165.2537
 31
0.0
  0
LINE
  8
0
 62
0
 10
-3.3042
 20
-179.2663
 30
0.0
 11
-3.3042
 21
-165.2537
 31
0.0
  0
LINE
  8
0
 62
0
 10
10.7084
 20
-165.2537
 30
0.0
 11
10.7084
 21
-179.2663
 31
0.0
  0
LINE
  8
0
 62
0
 10
10.7084
 20
-179.2663
 30
0.0
 11
-3.3042
 21
-179.2663
 31
0.0
  0
LINE
  8
0
 62
0
 10
15.745803433227536
 20
-200.9835076660156
 30
0.0
 11
15.745803433227536
 21
-214.99530766601563
 31
0.0
  0
LINE
  8
0
 62
0
 10
29.75840343322754
 20
-200.9835076660156
 30
0.0
 11
15.745803433227536
 21
-200.9835076660156
 31
0.0
  0
LINE
  8
0
 62
0
 10
15.745803433227536
 20
-214.99530766601563
 30
0.0
 11
29.75840343322754
 21
-214.99530766601563
 31
0.0
  0
LINE
  8
0
 62
0
 10
29.75840343322754
 20
-214.99530766601563
 30
0.0
 11
29.75840343322754
 21
-200.9835076660156
 31
0.0
  0
LINE
  8
0
 62
0
 10
15.7458
 20
-181.9335
 30
0.0
 11
29.7581
 21
-181.9335
 31
0.0
  0
LINE
  8
0
 62
0
 10
15.7458
 20
-195.924
 30
0.0
 11
15.7458
 21
-181.9335
 31
0.0
  0
LINE
  8
0
 62
0
 10
29.7581
 20
-181.9335
 30
0.0
 11
29.7581
 21
-195.924
 31
0.0
  0
LINE
  8
0
 62
0
 10
29.7581
 20
-195.924
 30
0.0
 11
15.7458
 21
-195.924
 31
0.0
  0
LINE
  8
0
 62
0
 10
15.7458
 20
-138.7747
 30
0.0
 11
29.7581
 21
-138.7747
 31
0.0
  0
LINE
  8
0
 62
0
 10
29.7581
 20
-138.7747
 30
0.0
 11
29.7581
 21
-124.7835
 31
0.0
  0
LINE
  8
0
 62
0
 10
29.7581
 20
-124.7835
 30
0.0
 11
15.7458
 21
-124.7835
 31
0.0
  0
LINE
  8
0
 62
0
 10
15.7458
 20
-124.7835
 30
0.0
 11
15.7458
 21
-138.7747
 31
0.0
  0
LINE
  8
0
 62
0
 10
15.7458
 20
-143.8335
 30
0.0
 11
29.7581
 21
-143.8335
 31
0.0
  0
LINE
  8
0
 62
0
 10
15.7458
 20
-157.8247
 30
0.0
 11
15.7458
 21
-143.8335
 31
0.0
  0
LINE
  8
0
 62
0
 10
29.7581
 20
-143.8335
 30
0.0
 11
29.7581
 21
-157.8247
 31
0.0
  0
LINE
  8
0
 62
0
 10
29.7581
 20
-157.8247
 30
0.0
 11
15.7458
 21
-157.8247
 31
0.0
  0
LINE
  8
0
 62
0
 10
15.7458
 20
-162.8835
 30
0.0
 11
29.7581
 21
-162.8835
 31
0.0
  0
LINE
  8
0
 62
0
 10
15.7458
 20
-176.8747
 30
0.0
 11
15.7458
 21
-162.8835
 31
0.0
  0
LINE
  8
0
 62
0
 10
29.7581
 20
-162.8835
 30
0.0
 11
29.7581
 21
-176.8747
 31
0.0
  0
LINE
  8
0
 62
0
 10
29.7581
 20
-176.8747
 30
0.0
 11
15.7458
 21
-176.8747
 31
0.0
  0
CIRCLE
  8
0
 62
0
 10
13.21735954284668
 20
-162.72254943847656
 30
0.0
 40
1.0
  0
LINE
  8
0
 62
0
 10
10.7084
 20
-141.1663
 30
0.0
 11
-3.3042
 21
-141.1663
 31
0.0
  0
LINE
  8
0
 62
0
 10
10.7084
 20
-127.1537
 30
0.0
 11
10.7084
 21
-141.1663
 31
0.0
  0
LINE
  8
0
 62
0
 10
-3.3042
 20
-141.1663
 30
0.0
 11
-3.3042
 21
-127.1537
 31
0.0
  0
LINE
  8
0
 62
0
 10
-3.3042
 20
-127.1537
 30
0.0
 11
10.7084
 21
-127.1537
 31
0.0
  0
LINE
  8
0
 62
0
 10
-3.3042
 20
-146.2037
 30
0.0
 11
-3.3042
 21
-160.2163
 31
0.0
  0
LINE
  8
0
 62
0
 10
10.7084
 20
-146.2037
 30
0.0
 11
-3.3042
 21
-146.2037
 31
0.0
  0
LINE
  8
0
 62
0
 10
-3.3042
 20
-160.2163
 30
0.0
 11
10.7084
 21
-160.2163
 31
0.0
  0
LINE
  8
0
 62
0
 10
10.7084
 20
-160.2163
 30
0.0
 11
10.7084
 21
-146.2037
 31
0.0
  0
LINE
  8
0
 62
0
 10
-22.3542
 20
-145.9288
 30
0.0
 11
-8.3416
 21
-145.9288
 31
0.0
  0
LINE
  8
0
 62
0
 10
-22.3542
 20
-131.9162
 30
0.0
 11
-22.3542
 21
-145.9288
 31
0.0
  0
LINE
  8
0
 62
0
 10
-8.3416
 20
-145.9288
 30
0.0
 11
-8.3416
 21
-131.9162
 31
0.0
  0
LINE
  8
0
 62
0
 10
-8.3416
 20
-131.9162
 30
0.0
 11
-22.3542
 21
-131.9162
 31
0.0
  0
CIRCLE
  8
0
 62
0
 10
6.993383884429932
 20
-123.61183166503906
 30
0.0
 40
1.0
  0
LINE
  8
0
 62
0
 10
-3.3042
 20
-203.3544
 30
0.0
 11
-3.3042
 21
-217.3663
 31
0.0
  0
LINE
  8
0
 62
0
 10
10.7084
 20
-203.3544
 30
0.0
 11
-3.3042
 21
-203.3544
 31
0.0
  0
LINE
  8
0
 62
0
 10
-3.3042
 20
-217.3663
 30
0.0
 11
10.7084
 21
-217.3663
 31
0.0
  0
LINE
  8
0
 62
0
 10
10.7084
 20
-217.3663
 30
0.0
 11
10.7084
 21
-203.3544
 31
0.0
  0
LINE
  8
0
 62
0
 10
-22.3542
 20
-208.1169
 30
0.0
 11
-8.3416
 21
-208.1169
 31
0.0
  0
LINE
  8
0
 62
0
 10
-22.3542
 20
-222.1287
 30
0.0
 11
-22.3542
 21
-208.1169
 31
0.0
  0
LINE
  8
0
 62
0
 10
-8.3416
 20
-208.1169
 30
0.0
 11
-8.3416
 21
-222.1287
 31
0.0
  0
LINE
  8
0
 62
0
 10
-8.3416
 20
-222.1287
 30
0.0
 11
-22.3542
 21
-222.1287
 31
0.0
  0
LINE
  8
0
 62
0
 10
34.7961
 20
-127.1537
 30
0.0
 11
48.8081
 21
-127.1537
 31
0.0
  0
LINE
  8
0
 62
0
 10
34.7961
 20
-141.1663
 30
0.0
 11
34.7961
 21
-127.1537
 31
0.0
  0
LINE
  8
0
 62
0
 10
48.8081
 20
-127.1537
 30
0.0
 11
48.8081
 21
-141.1663
 31
0.0
  0
LINE
  8
0
 62
0
 10
48.8081
 20
-141.1663
 30
0.0
 11
34.7961
 21
-141.1663
 31
0.0
  0
LINE
  8
0
 62
0
 10
34.7961
 20
-146.2037
 30
0.0
 11
48.8081
 21
-146.2037
 31
0.0
  0
LINE
  8
0
 62
0
 10
34.7961
 20
-160.2163
 30
0.0
 11
34.7961
 21
-146.2037
 31
0.0
  0
LINE
  8
0
 62
0
 10
48.8081
 20
-146.2037
 30
0.0
 11
48.8081
 21
-160.2163
 31
0.0
  0
LINE
  8
0
 62
0
 10
48.8081
 20
-160.2163
 30
0.0
 11
34.7961
 21
-160.2163
 31
0.0
  0
LINE
  8
0
 62
0
 10
34.7961
 20
-184.3037
 30
0.0
 11
48.8081
 21
-184.3037
 31
0.0
  0
LINE
  8
0
 62
0
 10
34.7961
 20
-198.3162
 30
0.0
 11
34.7961
 21
-184.3037
 31
0.0
  0
LINE
  8
0
 62
0
 10
48.8081
 20
-184.3037
 30
0.0
 11
48.8081
 21
-198.3162
 31
0.0
  0
LINE
  8
0
 62
0
 10
48.8081
 20
-198.3162
 30
0.0
 11
34.7961
 21
-198.3162
 31
0.0
  0
LINE
  8
0
 62
0
 10
34.7961
 20
-165.2537
 30
0.0
 11
48.8081
 21
-165.2537
 31
0.0
  0
LINE
  8
0
 62
0
 10
34.7961
 20
-179.2663
 30
0.0
 11
34.7961
 21
-165.2537
 31
0.0
  0
LINE
  8
0
 62
0
 10
48.8081
 20
-165.2537
 30
0.0
 11
48.8081
 21
-179.2663
 31
0.0
  0
LINE
  8
0
 62
0
 10
48.8081
 20
-179.2663
 30
0.0
 11
34.7961
 21
-179.2663
 31
0.0
  0
LINE
  8
0
 62
0
 10
91.3664
 20
-210.7007
 30
0.0
 11
92.8539
 21
-208.1238
 31
0.0
  0
LINE
  8
0
 62
0
 10
91.366
 20
-210.7014
 30
0.0
 11
91.3664
 21
-210.7007
 31
0.0
  0
LINE
  8
0
 62
0
 10
92.8539
 20
-208.1238
 30
0.0
 11
104.9753
 21
-215.1215
 31
0.0
  0
LINE
  8
0
 62
0
 10
90.7121
 20
-210.3238
 30
0.0
 11
91.366
 21
-210.7014
 31
0.0
  0
LINE
  8
0
 62
0
 10
104.9753
 20
-215.1215
 30
0.0
 11
88.4559
 21
-243.7336
 31
0.0
  0
LINE
  8
0
 62
0
 10
89.0623
 20
-213.1818
 30
0.0
 11
90.7121
 21
-210.3238
 31
0.0
  0
LINE
  8
0
 62
0
 10
88.4559
 20
-243.7336
 30
0.0
 11
76.3351
 21
-236.7353
 31
0.0
  0
LINE
  8
0
 62
0
 10
89.7158
 20
-213.5594
 30
0.0
 11
89.0623
 21
-213.1818
 31
0.0
  0
LINE
  8
0
 62
0
 10
76.3351
 20
-236.7353
 30
0.0
 11
77.8164
 21
-234.17
 31
0.0
  0
LINE
  8
0
 62
0
 10
79.466
 20
-231.3127
 30
0.0
 11
89.7158
 21
-213.5594
 31
0.0
  0
LINE
  8
0
 62
0
 10
77.8164
 20
-234.17
 30
0.0
 11
77.8161
 21
-234.17
 31
0.0
  0
LINE
  8
0
 62
0
 10
78.812
 20
-230.9351
 30
0.0
 11
79.466
 21
-231.3127
 31
0.0
  0
LINE
  8
0
 62
0
 10
77.8161
 20
-234.17
 30
0.0
 11
77.1626
 21
-233.7925
 31
0.0
  0
LINE
  8
0
 62
0
 10
77.1626
 20
-233.7925
 30
0.0
 11
78.812
 21
-230.9351
 31
0.0
  0
LINE
  8
0
 62
0
 10
74.8668
 20
-201.1757
 30
0.0
 11
76.3543
 21
-198.5988
 31
0.0
  0
LINE
  8
0
 62
0
 10
74.8664
 20
-201.1764
 30
0.0
 11
74.8668
 21
-201.1757
 31
0.0
  0
LINE
  8
0
 62
0
 10
76.3543
 20
-198.5988
 30
0.0
 11
88.4755
 21
-205.5965
 31
0.0
  0
LINE
  8
0
 62
0
 10
74.2125
 20
-200.7988
 30
0.0
 11
74.8664
 21
-201.1764
 31
0.0
  0
LINE
  8
0
 62
0
 10
88.4755
 20
-205.5965
 30
0.0
 11
71.9563
 21
-234.2086
 31
0.0
  0
LINE
  8
0
 62
0
 10
72.5627
 20
-203.6568
 30
0.0
 11
74.2125
 21
-200.7988
 31
0.0
  0
LINE
  8
0
 62
0
 10
71.9563
 20
-234.2086
 30
0.0
 11
59.8355
 21
-227.2103
 31
0.0
  0
LINE
  8
0
 62
0
 10
73.2162
 20
-204.0344
 30
0.0
 11
72.5627
 21
-203.6568
 31
0.0
  0
LINE
  8
0
 62
0
 10
59.8355
 20
-227.2103
 30
0.0
 11
61.3168
 21
-224.645
 31
0.0
  0
LINE
  8
0
 62
0
 10
73.2165
 20
-204.0344
 30
0.0
 11
73.2162
 21
-204.0344
 31
0.0
  0
LINE
  8
0
 62
0
 10
61.3168
 20
-224.645
 30
0.0
 11
61.3165
 21
-224.645
 31
0.0
  0
LINE
  8
0
 62
0
 10
62.9664
 20
-221.7877
 30
0.0
 11
73.2165
 21
-204.0344
 31
0.0
  0
LINE
  8
0
 62
0
 10
61.3165
 20
-224.645
 30
0.0
 11
60.663
 21
-224.2675
 31
0.0
  0
LINE
  8
0
 62
0
 10
62.3125
 20
-221.4101
 30
0.0
 11
62.9664
 21
-221.7877
 31
0.0
  0
LINE
  8
0
 62
0
 10
60.663
 20
-224.2675
 30
0.0
 11
62.3125
 21
-221.4101
 31
0.0
  0
LINE
  8
0
 62
0
 10
43.3472
 20
-217.6839
 30
0.0
 11
50.3322
 21
-205.5551
 31
0.0
  0
LINE
  8
0
 62
0
 10
55.4547
 20
-224.6898
 30
0.0
 11
43.3472
 21
-217.6839
 31
0.0
  0
LINE
  8
0
 62
0
 10
50.3322
 20
-205.5551
 30
0.0
 11
62.4609
 21
-212.5617
 31
0.0
  0
LINE
  8
0
 62
0
 10
62.4609
 20
-212.5617
 30
0.0
 11
55.4547
 21
-224.6898
 31
0.0
  0
CIRCLE
  8
0
 62
0
 10
64.40453147888184
 20
-205.6511993408203
 30
0.0
 40
1.0
  0
CIRCLE
  8
0
 62
0
 10
92.83745956420898
 20
-203.06689453125
 30
0.0
 40
1.0
  0
LINE
  8
0
 62
0
 10
53.8461
 20
-129.546
 30
0.0
 11
67.8581
 21
-129.546
 31
0.0
  0
LINE
  8
0
 62
0
 10
53.8461
 20
-143.5372
 30
0.0
 11
53.8461
 21
-129.546
 31
0.0
  0
LINE
  8
0
 62
0
 10
67.8581
 20
-129.546
 30
0.0
 11
67.8581
 21
-143.5372
 31
0.0
  0
LINE
  8
0
 62
0
 10
67.8581
 20
-143.5372
 30
0.0
 11
53.8461
 21
-143.5372
 31
0.0
  0
LINE
  8
0
 62
0
 10
53.8461
 20
-148.596
 30
0.0
 11
53.8461
 21
-162.5872
 31
0.0
  0
LINE
  8
0
 62
0
 10
67.8581
 20
-148.596
 30
0.0
 11
53.8461
 21
-148.596
 31
0.0
  0
LINE
  8
0
 62
0
 10
53.8461
 20
-162.5872
 30
0.0
 11
67.8581
 21
-162.5872
 31
0.0
  0
LINE
  8
0
 62
0
 10
67.8581
 20
-162.5872
 30
0.0
 11
67.8581
 21
-148.596
 31
0.0
  0
LINE
  8
0
 62
0
 10
53.8461
 20
-186.6953
 30
0.0
 11
53.8461
 21
-200.6872
 31
0.0
  0
LINE
  8
0
 62
0
 10
67.8581
 20
-186.6953
 30
0.0
 11
53.8461
 21
-186.6953
 31
0.0
  0
LINE
  8
0
 62
0
 10
53.8461
 20
-200.6872
 30
0.0
 11
67.8581
 21
-200.6872
 31
0.0
  0
LINE
  8
0
 62
0
 10
67.8581
 20
-200.6872
 30
0.0
 11
67.8581
 21
-186.6953
 31
0.0
  0
LINE
  8
0
 62
0
 10
53.8461
 20
-167.646
 30
0.0
 11
53.8461
 21
-181.6372
 31
0.0
  0
LINE
  8
0
 62
0
 10
67.8581
 20
-167.646
 30
0.0
 11
53.8461
 21
-167.646
 31
0.0
  0
LINE
  8
0
 62
0
 10
53.8461
 20
-181.6372
 30
0.0
 11
67.8581
 21
-181.6372
 31
0.0
  0
LINE
  8
0
 62
0
 10
67.8581
 20
-181.6372
 30
0.0
 11
67.8581
 21
-167.646
 31
0.0
  0
LINE
  8
0
 62
0
 10
72.8961
 20
-158.121
 30
0.0
 11
86.9081
 21
-158.121
 31
0.0
  0
LINE
  8
0
 62
0
 10
72.8961
 20
-172.1122
 30
0.0
 11
72.8961
 21
-158.121
 31
0.0
  0
LINE
  8
0
 62
0
 10
86.9081
 20
-158.121
 30
0.0
 11
86.9081
 21
-172.1122
 31
0.0
  0
LINE
  8
0
 62
0
 10
86.9081
 20
-172.1122
 30
0.0
 11
72.8961
 21
-172.1122
 31
0.0
  0
CIRCLE
  8
0
 62
0
 10
70.36444091796875
 20
-145.96336364746094
 30
0.0
 40
1.0
  0
LINE
  8
0
 62
0
 10
72.8961
 20
-139.071
 30
0.0
 11
86.9081
 21
-139.071
 31
0.0
  0
LINE
  8
0
 62
0
 10
72.8961
 20
-153.0622
 30
0.0
 11
72.8961
 21
-139.071
 31
0.0
  0
LINE
  8
0
 62
0
 10
86.9081
 20
-139.071
 30
0.0
 11
86.9081
 21
-153.0622
 31
0.0
  0
LINE
  8
0
 62
0
 10
86.9081
 20
-153.0622
 30
0.0
 11
72.8961
 21
-153.0622
 31
0.0
  0
LINE
  8
0
 62
0
 10
72.8961
 20
-177.171
 30
0.0
 11
86.9081
 21
-177.171
 31
0.0
  0
LINE
  8
0
 62
0
 10
72.8961
 20
-191.1615
 30
0.0
 11
72.8961
 21
-177.171
 31
0.0
  0
LINE
  8
0
 62
0
 10
86.9081
 20
-177.171
 30
0.0
 11
86.9081
 21
-191.1615
 31
0.0
  0
LINE
  8
0
 62
0
 10
86.9081
 20
-191.1615
 30
0.0
 11
72.8961
 21
-191.1615
 31
0.0
  0
LINE
  8
0
 62
0
 10
-41.4042
 20
-208.1169
 30
0.0
 11
-41.4042
 21
-222.1287
 31
0.0
  0
LINE
  8
0
 62
0
 10
-27.3916
 20
-208.1169
 30
0.0
 11
-41.4042
 21
-208.1169
 31
0.0
  0
LINE
  8
0
 62
0
 10
-41.4042
 20
-222.1287
 30
0.0
 11
-27.3916
 21
-222.1287
 31
0.0
  0
LINE
  8
0
 62
0
 10
-27.3916
 20
-222.1287
 30
0.0
 11
-27.3916
 21
-208.1169
 31
0.0
  0
LINE
  8
0
 62
0
 10
-41.4042
 20
-189.0662
 30
0.0
 11
-41.4042
 21
-203.0788
 31
0.0
  0
LINE
  8
0
 62
0
 10
-27.3916
 20
-189.0662
 30
0.0
 11
-41.4042
 21
-189.0662
 31
0.0
  0
LINE
  8
0
 62
0
 10
-41.4042
 20
-203.0788
 30
0.0
 11
-27.3916
 21
-203.0788
 31
0.0
  0
LINE
  8
0
 62
0
 10
-27.3916
 20
-203.0788
 30
0.0
 11
-27.3916
 21
-189.0662
 31
0.0
  0
CIRCLE
  8
0
 62
0
 10
-24.887046813964844
 20
-205.89755249023438
 30
0.0
 40
1.0
  0
CIRCLE
  8
0
 62
0
 10
-24.88408660888672
 20
-148.49905395507812
 30
0.0
 40
1.0
  0
LINE
  8
0
 62
0
 10
-41.4042
 20
-150.9662
 30
0.0
 11
-41.4042
 21
-164.9788
 31
0.0
  0
LINE
  8
0
 62
0
 10
-27.3916
 20
-150.9662
 30
0.0
 11
-41.4042
 21
-150.9662
 31
0.0
  0
LINE
  8
0
 62
0
 10
-41.4042
 20
-164.9788
 30
0.0
 11
-27.3916
 21
-164.9788
 31
0.0
  0
LINE
  8
0
 62
0
 10
-27.3916
 20
-164.9788
 30
0.0
 11
-27.3916
 21
-150.9662
 31
0.0
  0
LINE
  8
0
 62
0
 10
-41.4042
 20
-170.0162
 30
0.0
 11
-41.4042
 21
-184.0288
 31
0.0
  0
LINE
  8
0
 62
0
 10
-27.3916
 20
-170.0162
 30
0.0
 11
-41.4042
 21
-170.0162
 31
0.0
  0
LINE
  8
0
 62
0
 10
-41.4042
 20
-184.0288
 30
0.0
 11
-27.3916
 21
-184.0288
 31
0.0
  0
LINE
  8
0
 62
0
 10
-27.3916
 20
-184.0288
 30
0.0
 11
-27.3916
 21
-170.0162
 31
0.0
  0
LINE
  8
0
 62
0
 10
-41.4042
 20
-131.9162
 30
0.0
 11
-41.4042
 21
-145.9288
 31
0.0
  0
LINE
  8
0
 62
0
 10
-27.3916
 20
-131.9162
 30
0.0
 11
-41.4042
 21
-131.9162
 31
0.0
  0
LINE
  8
0
 62
0
 10
-41.4042
 20
-145.9288
 30
0.0
 11
-27.3916
 21
-145.9288
 31
0.0
  0
LINE
  8
0
 62
0
 10
-27.3916
 20
-145.9288
 30
0.0
 11
-27.3916
 21
-131.9162
 31
0.0
  0
ENDBLK
  0
ENDSEC
  0
SECTION
  2
ENTITIES
  0
INSERT
  2
EXTRUDE
  8
0
 62
0
 10
0.0
 20
0.0
 30
0.0
  0
ENDSEC
  0
EOF
