999
FreeCAD v0.20 29410 (Git)
  0
SECTION
  2
HEADER
  9
$ACADVER
  1
AC1014
  9
$ACADMAINTVER
 70
     9
  9
$DWGCODEPAGE
  3
ANSI_1252
  9
$TEXTSTYLE
  7
STANDARD
  9
$DIMSTYLE
  2
STANDARD
  9
$DIMTXSTY
  7
STANDARD
  9
$CMLSTYLE
  2
STANDARD
  9
$LUNITS
 70
2
  9
$INSUNITS
 70
4
  9
$PEXTMAX
 10
50
 20
50
 30
50
  9
$PEXTMIN
 10
0
 20
0
 30
0
  9
$HANDSEED
  5
FFFF
  0
ENDSEC
  0
SECTION
  2
CLASSES
  0
CLASS
  1
ACDBDICTIONARYWDFLT
  2
AcDbDictionaryWithDefault
  3
ObjectDBX Classes
 90
        0
280
     0
281
     0
  0
CLASS
  1
XRECORD
  2
AcDbXrecord
  3
ObjectDBX Classes
 90
        0
280
     0
281
     0
  0
CLASS
  1
LWPOLYLINE
  2
AcDbPolyline
  3
ObjectDBX Classes
 90
        0
280
     0
281
     1
  0
ENDSEC
  0
SECTION
  2
TABLES
  0
TABLE
  2
VPORT
  5
20
330
0
100
AcDbSymbolTable
 70
     1
  0
VPORT
  5
21
330
20
100
AcDbSymbolTableRecord
100
AcDbViewportTableRecord
  2
*ACTIVE
 70
     0
  0
ENDTAB
  0
TABLE
  2
LTYPE
  5
22
330
0
100
AcDbSymbolTable
 70
     1
  0
LTYPE
  5
23
330
21
100
AcDbSymbolTableRecord
100
AcDbLinetypeTableRecord
  2
BYBLOCK
 70
     0
  3

 72
    65
 73
     0
 40
0.0
  0
LTYPE
  5
24
330
21
100
AcDbSymbolTableRecord
100
AcDbLinetypeTableRecord
  2
BYLAYER
 70
     0
  3

 72
    65
 73
     0
 40
0.0
  0
LTYPE
  5
25
330
21
100
AcDbSymbolTableRecord
100
AcDbLinetypeTableRecord
  2
CONTINUOUS
 70
     0
  3
Solid line
 72
    65
 73
     0
 40
0.0
  0
ENDTAB
  0
TABLE
  2
LAYER
  5
FC4
330
0
100
AcDbSymbolTable
 70
3
  0
LAYER
  5
FC5
330
FC4
100
AcDbSymbolTableRecord
100
AcDbLayerTableRecord
  2
0
 70
   0
 62
   7
  6
CONTINUOUS
  0
LAYER
  5
FC6
330
FC4
100
AcDbSymbolTableRecord
100
AcDbLayerTableRecord
  2
none
 70
    0
 62
    7
  6
CONTINUOUS
  0
LAYER
  5
FC7
330
FC4
100
AcDbSymbolTableRecord
100
AcDbLayerTableRecord
  2
Fillet
 70
    0
 62
    7
  6
CONTINUOUS
  0
ENDTAB
  0
TABLE
  2
STYLE
  5
70
330
0
100
AcDbSymbolTable
 70
     2
  0
STYLE
  5
71
330
70
100
AcDbSymbolTableRecord
100
AcDbTextStyleTableRecord
  2
STANDARD
 70
     0
 40
0.0
 41
1.0
 50
0.0
 71
     0
 42
2.5
  3
arial.ttf
  4

  0
STYLE
  5
72
330
70
100
AcDbSymbolTableRecord
100
AcDbTextStyleTableRecord
  2
ANNOTATIVE
 70
     0
 40
0.0
 41
1.0
 50
0.0
 71
     0
 42
2.5
  3
arial.ttf
  4

  0
ENDTAB
  0
TABLE
  2
VIEW
  5
73
330
0
100
AcDbSymbolTable
 70
     0
  0
ENDTAB
  0
TABLE
  2
UCS
  5
74
330
0
100
AcDbSymbolTable
 70
     0
  0
ENDTAB
  0
TABLE
  2
APPID
  5
75
330
0
100
AcDbSymbolTable
 70
     2
  0
APPID
  5
76
330
75
100
AcDbSymbolTableRecord
100
AcDbRegAppTableRecord
  2
ACAD
 70
     0
  0
APPID
  5
77
330
75
100
AcDbSymbolTableRecord
100
AcDbRegAppTableRecord
  2
ACADANNOTATIVE
 70
     0
  0
ENDTAB
  0
TABLE
  2
DIMSTYLE
  5
78
330
0
100
AcDbSymbolTable
 70
     2
  0
DIMSTYLE
105
79
330
78
100
AcDbSymbolTableRecord
100
AcDbDimStyleTableRecord
  2
STANDARD
 70
     0
  3

  4

  5

  6

  7

 40
0.0
 41
2.5
 42
0.625
 43
3.75
 44
1.25
 45
0.0
 46
0.0
 47
0.0
 48
0.0
140
2.5
141
2.5
142
0.0
143
0.03937007874016
144
1.0
145
0.0
146
1.0
147
0.625
 71
     0
 72
     0
 73
     0
 74
     0
 75
     0
 76
     0
 77
     1
 78
     8
170
     0
171
     3
172
     1
173
     0
174
     0
175
     0
176
     0
177
     0
178
     0
270
     2
271
     2
272
     2
273
     2
274
     3
340
71
275
     0
280
     0
281
     0
282
     0
283
     0
284
     8
285
     0
286
     0
287
     3
288
     0
  0
ENDTAB
  0
TABLE
  2
BLOCK_RECORD
  5
A01
330
0
100
AcDbSymbolTable
  70
5
  0
BLOCK_RECORD
  5
A02
330
A01
100
AcDbSymbolTableRecord
100
AcDbBlockTableRecord
  2
*MODEL_SPACE
  0
BLOCK_RECORD
  5
A03
330
A01
100
AcDbSymbolTableRecord
100
AcDbBlockTableRecord
  2
*PAPER_SPACE
  0
ENDTAB
  0
ENDSEC
  0
SECTION
  2
BLOCKS
  0
BLOCK
  5
A04
330
A02
100
AcDbEntity
  8
0
100
AcDbBlockBegin
  2
*MODEL_SPACE
 70
   0
 10
0
 20
0
 30
0
  3
*MODEL_SPACE
  1
 
  0
ENDBLK
  5
A05
330
A02
100
AcDbEntity
  8
0
100
AcDbBlockEnd
  0
BLOCK
  5
A06
330
A03
100
AcDbEntity
 67
1
  8
0
100
AcDbBlockBegin
  2
*PAPER_SPACE
 70
   0
 10
0
 20
0
 30
0
  3
*PAPER_SPACE
  1
 
  0
ENDBLK
  5
A07
330
A03
100
AcDbEntity
 67
    1
  8
0
100
AcDbBlockEnd
  0
ENDSEC
  0
SECTION
  2
ENTITIES
  0
LINE
  5
A08
330
A02
100
AcDbEntity
  8
Fillet
100
AcDbLine
 10
139.846
 20
182.57
 30
0
 11
139.846
 21
182.57
 31
1.3
  0
LINE
  5
A09
330
A02
100
AcDbEntity
  8
Fillet
100
AcDbLine
 10
139.846
 20
182.57
 30
1.3
 11
84.736
 21
194.919
 31
1.3
  0
LINE
  5
A0A
330
A02
100
AcDbEntity
  8
Fillet
100
AcDbLine
 10
84.736
 20
194.919
 30
0
 11
84.736
 21
194.919
 31
1.3
  0
LINE
  5
A0B
330
A02
100
AcDbEntity
  8
Fillet
100
AcDbLine
 10
139.846
 20
182.57
 30
0
 11
84.736
 21
194.919
 31
0
  0
LINE
  5
A0C
330
A02
100
AcDbEntity
  8
Fillet
100
AcDbLine
 10
141.409
 20
180.619
 30
0
 11
141.409
 21
180.619
 31
1.3
  0
ARC
  5
A0D
330
A02
100
AcDbEntity
  8
Fillet
100
AcDbCircle
 10
139.409
 20
180.619
 30
1.3
 40
2
100
AcDbArc
 50
0
 51
77.37
  0
LINE
  5
A0E
330
A02
100
AcDbEntity
  8
Fillet
100
AcDbLine
 10
139.846
 20
182.57
 30
0
 11
139.846
 21
182.57
 31
1.3
  0
ARC
  5
A0F
330
A02
100
AcDbEntity
  8
Fillet
100
AcDbCircle
 10
139.409
 20
180.619
 30
0
 40
2
100
AcDbArc
 50
0
 51
77.37
  0
ARC
  5
A10
330
A02
100
AcDbEntity
  8
Fillet
100
AcDbCircle
 10
139.802
 20
182.375
 30
1.3
 40
0.2
100
AcDbArc
 50
77.37
 51
0
  0
LINE
  5
A11
330
A02
100
AcDbEntity
  8
Fillet
100
AcDbLine
 10
139.802
 20
182.375
 30
1.5
 11
84.6922
 21
194.724
 31
1.5
  0
ARC
  5
A12
330
A02
100
AcDbEntity
  8
Fillet
100
AcDbCircle
 10
84.6922
 20
194.724
 30
1.3
 40
0.2
100
AcDbArc
 50
0
 51
77.37
  0
LINE
  5
A13
330
A02
100
AcDbEntity
  8
Fillet
100
AcDbLine
 10
139.846
 20
182.57
 30
1.3
 11
84.736
 21
194.919
 31
1.3
  0
LINE
  5
A14
330
A02
100
AcDbEntity
  8
Fillet
100
AcDbLine
 10
139.846
 20
182.57
 30
0
 11
84.736
 21
194.919
 31
0
  0
ARC
  5
A15
330
A02
100
AcDbEntity
  8
Fillet
100
AcDbCircle
 10
83.6427
 20
190.04
 30
0
 40
5
100
AcDbArc
 50
77.37
 51
90
  0
LINE
  5
A16
330
A02
100
AcDbEntity
  8
Fillet
100
AcDbLine
 10
83.6427
 20
195.04
 30
0
 11
46.4104
 21
195.04
 31
0
  0
ARC
  5
A17
330
A02
100
AcDbEntity
  8
Fillet
100
AcDbCircle
 10
46.4104
 20
192.54
 30
0
 40
2.5
100
AcDbArc
 50
90
 51
124.99
  0
LINE
  5
A18
330
A02
100
AcDbEntity
  8
Fillet
100
AcDbLine
 10
44.9768
 20
194.588
 30
0
 11
33.9813
 21
186.892
 31
0
  0
ARC
  5
A19
330
A02
100
AcDbEntity
  8
Fillet
100
AcDbCircle
 10
32.5477
 20
188.94
 30
0
 40
2.5
100
AcDbArc
 50
-90
 51
-55.01
  0
LINE
  5
A1A
330
A02
100
AcDbEntity
  8
Fillet
100
AcDbLine
 10
32.5477
 20
186.44
 30
0
 11
15.8933
 21
186.44
 31
0
  0
ARC
  5
A1B
330
A02
100
AcDbEntity
  8
Fillet
100
AcDbCircle
 10
15.8933
 20
185.44
 30
0
 40
1
100
AcDbArc
 50
90
 51
146.14
  0
LINE
  5
A1C
330
A02
100
AcDbEntity
  8
Fillet
100
AcDbLine
 10
15.0629
 20
185.997
 30
0
 11
7.49826
 21
174.723
 31
0
  0
ARC
  5
A1D
330
A02
100
AcDbEntity
  8
Fillet
100
AcDbCircle
 10
8.32866
 20
174.166
 30
0
 40
1
100
AcDbArc
 50
146.14
 51
180
  0
LINE
  5
A1E
330
A02
100
AcDbEntity
  8
Fillet
100
AcDbLine
 10
7.32866
 20
174.166
 30
0
 11
7.32866
 21
118.521
 31
0
  0
ARC
  5
A1F
330
A02
100
AcDbEntity
  8
Fillet
100
AcDbCircle
 10
6.32866
 20
118.521
 30
0
 40
1
100
AcDbArc
 50
-41.52
 51
0
  0
LINE
  5
A20
330
A02
100
AcDbEntity
  8
Fillet
100
AcDbLine
 10
7.07739
 20
117.858
 30
0
 11
-10.4614
 21
98.0484
 31
0
  0
ARC
  5
A21
330
A02
100
AcDbEntity
  8
Fillet
100
AcDbCircle
 10
-8.96396
 20
96.7226
 30
0
 40
2
100
AcDbArc
 50
138.48
 51
-150
  0
LINE
  5
A22
330
A02
100
AcDbEntity
  8
Fillet
100
AcDbLine
 10
-10.696
 20
95.7226
 30
0
 11
7.28072
 21
64.586
 31
0
  0
ARC
  5
A23
330
A02
100
AcDbEntity
  8
Fillet
100
AcDbCircle
 10
8.14675
 20
65.086
 30
0
 40
1
100
AcDbArc
 50
-150
 51
-60
  0
LINE
  5
A24
330
A02
100
AcDbEntity
  8
Fillet
100
AcDbLine
 10
8.64675
 20
64.22
 30
0
 11
45.9985
 21
85.7851
 31
0
  0
ARC
  5
A25
330
A02
100
AcDbEntity
  8
Fillet
100
AcDbCircle
 10
47.2485
 20
83.62
 30
0
 40
2.5
100
AcDbArc
 50
90
 51
120
  0
LINE
  5
A26
330
A02
100
AcDbEntity
  8
Fillet
100
AcDbLine
 10
47.2485
 20
86.12
 30
0
 11
139.909
 21
86.12
 31
0
  0
ARC
  5
A27
330
A02
100
AcDbEntity
  8
Fillet
100
AcDbCircle
 10
139.909
 20
87.62
 30
0
 40
1.5
100
AcDbArc
 50
-90
 51
0
  0
LINE
  5
A28
330
A02
100
AcDbEntity
  8
Fillet
100
AcDbLine
 10
141.409
 20
87.62
 30
0
 11
141.409
 21
180.619
 31
0
  0
ARC
  5
A29
330
A02
100
AcDbEntity
  8
Fillet
100
AcDbCircle
 10
139.409
 20
180.619
 30
0
 40
2
100
AcDbArc
 50
0
 51
77.37
  0
LINE
  5
A2A
330
A02
100
AcDbEntity
  8
Fillet
100
AcDbLine
 10
5.51249
 20
100.063
 30
0
 11
4.59999
 21
101.643
 31
0
  0
LINE
  5
A2B
330
A02
100
AcDbEntity
  8
Fillet
100
AcDbLine
 10
6.55172
 20
100.663
 30
0
 11
5.51249
 21
100.063
 31
0
  0
LINE
  5
A2C
330
A02
100
AcDbEntity
  8
Fillet
100
AcDbLine
 10
8.05172
 20
98.0647
 30
0
 11
6.55172
 21
100.663
 31
0
  0
LINE
  5
A2D
330
A02
100
AcDbEntity
  8
Fillet
100
AcDbLine
 10
7.01249
 20
97.4647
 30
0
 11
8.05172
 21
98.0647
 31
0
  0
LINE
  5
A2E
330
A02
100
AcDbEntity
  8
Fillet
100
AcDbLine
 10
7.92499
 20
95.8842
 30
0
 11
7.01249
 21
97.4647
 31
0
  0
LINE
  5
A2F
330
A02
100
AcDbEntity
  8
Fillet
100
AcDbLine
 10
7.23217
 20
95.4842
 30
0
 11
7.92499
 21
95.8842
 31
0
  0
LINE
  5
A30
330
A02
100
AcDbEntity
  8
Fillet
100
AcDbLine
 10
8.01967
 20
94.1202
 30
0
 11
7.23217
 21
95.4842
 31
0
  0
LINE
  5
A31
330
A02
100
AcDbEntity
  8
Fillet
100
AcDbLine
 10
8.91167
 20
94.6352
 30
0
 11
8.01967
 21
94.1202
 31
0
  0
LINE
  5
A32
330
A02
100
AcDbEntity
  8
Fillet
100
AcDbLine
 10
15.9117
 20
82.5109
 30
0
 11
8.91167
 21
94.6352
 31
0
  0
LINE
  5
A33
330
A02
100
AcDbEntity
  8
Fillet
100
AcDbLine
 10
15.0197
 20
81.9959
 30
0
 11
15.9117
 21
82.5109
 31
0
  0
LINE
  5
A34
330
A02
100
AcDbEntity
  8
Fillet
100
AcDbLine
 10
15.8072
 20
80.6319
 30
0
 11
15.0197
 21
81.9959
 31
0
  0
LINE
  5
A35
330
A02
100
AcDbEntity
  8
Fillet
100
AcDbLine
 10
16.5
 20
81.0319
 30
0
 11
15.8072
 21
80.6319
 31
0
  0
LINE
  5
A36
330
A02
100
AcDbEntity
  8
Fillet
100
AcDbLine
 10
17.4125
 20
79.4514
 30
0
 11
16.5
 21
81.0319
 31
0
  0
LINE
  5
A37
330
A02
100
AcDbEntity
  8
Fillet
100
AcDbLine
 10
18.4517
 20
80.0514
 30
0
 11
17.4125
 21
79.4514
 31
0
  0
LINE
  5
A38
330
A02
100
AcDbEntity
  8
Fillet
100
AcDbLine
 10
19.9517
 20
77.4533
 30
0
 11
18.4517
 21
80.0514
 31
0
  0
LINE
  5
A39
330
A02
100
AcDbEntity
  8
Fillet
100
AcDbLine
 10
18.9125
 20
76.8533
 30
0
 11
19.9517
 21
77.4533
 31
0
  0
LINE
  5
A3A
330
A02
100
AcDbEntity
  8
Fillet
100
AcDbLine
 10
19.825
 20
75.2728
 30
0
 11
18.9125
 21
76.8533
 31
0
  0
LINE
  5
A3B
330
A02
100
AcDbEntity
  8
Fillet
100
AcDbLine
 10
14.395
 20
72.1378
 30
0
 11
19.825
 21
75.2728
 31
0
  0
LINE
  5
A3C
330
A02
100
AcDbEntity
  8
Fillet
100
AcDbLine
 10
14.8325
 20
71.38
 30
0
 11
14.395
 21
72.1378
 31
0
  0
LINE
  5
A3D
330
A02
100
AcDbEntity
  8
Fillet
100
AcDbLine
 10
12.4076
 20
69.98
 30
0
 11
14.8325
 21
71.38
 31
0
  0
LINE
  5
A3E
330
A02
100
AcDbEntity
  8
Fillet
100
AcDbLine
 10
11.9701
 20
70.7378
 30
0
 11
12.4076
 21
69.98
 31
0
  0
LINE
  5
A3F
330
A02
100
AcDbEntity
  8
Fillet
100
AcDbLine
 10
9.17288
 20
69.1228
 30
0
 11
11.9701
 21
70.7378
 31
0
  0
LINE
  5
A40
330
A02
100
AcDbEntity
  8
Fillet
100
AcDbLine
 10
5.84788
 20
74.8819
 30
0
 11
9.17288
 21
69.1228
 31
0
  0
LINE
  5
A41
330
A02
100
AcDbEntity
  8
Fillet
100
AcDbLine
 10
6.5407
 20
75.2819
 30
0
 11
5.84788
 21
74.8819
 31
0
  0
LINE
  5
A42
330
A02
100
AcDbEntity
  8
Fillet
100
AcDbLine
 10
5.7532
 20
76.6459
 30
0
 11
6.5407
 21
75.2819
 31
0
  0
LINE
  5
A43
330
A02
100
AcDbEntity
  8
Fillet
100
AcDbLine
 10
3.78732
 20
75.5109
 30
0
 11
5.7532
 21
76.6459
 31
0
  0
LINE
  5
A44
330
A02
100
AcDbEntity
  8
Fillet
100
AcDbLine
 10
-3.21268
 20
87.6352
 30
0
 11
3.78732
 21
75.5109
 31
0
  0
LINE
  5
A45
330
A02
100
AcDbEntity
  8
Fillet
100
AcDbLine
 10
-1.2468
 20
88.7702
 30
0
 11
-3.21268
 21
87.6352
 31
0
  0
LINE
  5
A46
330
A02
100
AcDbEntity
  8
Fillet
100
AcDbLine
 10
-2.0343
 20
90.1342
 30
0
 11
-1.2468
 21
88.7702
 31
0
  0
LINE
  5
A47
330
A02
100
AcDbEntity
  8
Fillet
100
AcDbLine
 10
-2.72712
 20
89.7342
 30
0
 11
-2.0343
 21
90.1342
 31
0
  0
LINE
  5
A48
330
A02
100
AcDbEntity
  8
Fillet
100
AcDbLine
 10
-6.05212
 20
95.4933
 30
0
 11
-2.72712
 21
89.7342
 31
0
  0
LINE
  5
A49
330
A02
100
AcDbEntity
  8
Fillet
100
AcDbLine
 10
-3.25486
 20
97.1083
 30
0
 11
-6.05212
 21
95.4933
 31
0
  0
LINE
  5
A4A
330
A02
100
AcDbEntity
  8
Fillet
100
AcDbLine
 10
-3.69236
 20
97.866
 30
0
 11
-3.25486
 21
97.1083
 31
0
  0
LINE
  5
A4B
330
A02
100
AcDbEntity
  8
Fillet
100
AcDbLine
 10
-1.26749
 20
99.266
 30
0
 11
-3.69236
 21
97.866
 31
0
  0
LINE
  5
A4C
330
A02
100
AcDbEntity
  8
Fillet
100
AcDbLine
 10
-0.829991
 20
98.5083
 30
0
 11
-1.26749
 21
99.266
 31
0
  0
LINE
  5
A4D
330
A02
100
AcDbEntity
  8
Fillet
100
AcDbLine
 10
4.59999
 20
101.643
 30
0
 11
-0.829991
 21
98.5083
 31
0
  0
LINE
  5
A4E
330
A02
100
AcDbEntity
  8
Fillet
100
AcDbLine
 10
22.0125
 20
109.583
 30
0
 11
21.1
 21
111.163
 31
0
  0
LINE
  5
A4F
330
A02
100
AcDbEntity
  8
Fillet
100
AcDbLine
 10
23.0517
 20
110.183
 30
0
 11
22.0125
 21
109.583
 31
0
  0
LINE
  5
A50
330
A02
100
AcDbEntity
  8
Fillet
100
AcDbLine
 10
24.5517
 20
107.585
 30
0
 11
23.0517
 21
110.183
 31
0
  0
LINE
  5
A51
330
A02
100
AcDbEntity
  8
Fillet
100
AcDbLine
 10
23.5125
 20
106.985
 30
0
 11
24.5517
 21
107.585
 31
0
  0
LINE
  5
A52
330
A02
100
AcDbEntity
  8
Fillet
100
AcDbLine
 10
24.425
 20
105.404
 30
0
 11
23.5125
 21
106.985
 31
0
  0
LINE
  5
A53
330
A02
100
AcDbEntity
  8
Fillet
100
AcDbLine
 10
23.7322
 20
105.004
 30
0
 11
24.425
 21
105.404
 31
0
  0
LINE
  5
A54
330
A02
100
AcDbEntity
  8
Fillet
100
AcDbLine
 10
24.5197
 20
103.64
 30
0
 11
23.7322
 21
105.004
 31
0
  0
LINE
  5
A55
330
A02
100
AcDbEntity
  8
Fillet
100
AcDbLine
 10
25.4117
 20
104.155
 30
0
 11
24.5197
 21
103.64
 31
0
  0
LINE
  5
A56
330
A02
100
AcDbEntity
  8
Fillet
100
AcDbLine
 10
32.4117
 20
92.0309
 30
0
 11
25.4117
 21
104.155
 31
0
  0
LINE
  5
A57
330
A02
100
AcDbEntity
  8
Fillet
100
AcDbLine
 10
31.5197
 20
91.5159
 30
0
 11
32.4117
 21
92.0309
 31
0
  0
LINE
  5
A58
330
A02
100
AcDbEntity
  8
Fillet
100
AcDbLine
 10
32.3072
 20
90.1519
 30
0
 11
31.5197
 21
91.5159
 31
0
  0
LINE
  5
A59
330
A02
100
AcDbEntity
  8
Fillet
100
AcDbLine
 10
33
 20
90.5519
 30
0
 11
32.3072
 21
90.1519
 31
0
  0
LINE
  5
A5A
330
A02
100
AcDbEntity
  8
Fillet
100
AcDbLine
 10
33.9125
 20
88.9714
 30
0
 11
33
 21
90.5519
 31
0
  0
LINE
  5
A5B
330
A02
100
AcDbEntity
  8
Fillet
100
AcDbLine
 10
34.9517
 20
89.5714
 30
0
 11
33.9125
 21
88.9714
 31
0
  0
LINE
  5
A5C
330
A02
100
AcDbEntity
  8
Fillet
100
AcDbLine
 10
36.4517
 20
86.9733
 30
0
 11
34.9517
 21
89.5714
 31
0
  0
LINE
  5
A5D
330
A02
100
AcDbEntity
  8
Fillet
100
AcDbLine
 10
35.4125
 20
86.3733
 30
0
 11
36.4517
 21
86.9733
 31
0
  0
LINE
  5
A5E
330
A02
100
AcDbEntity
  8
Fillet
100
AcDbLine
 10
36.325
 20
84.7928
 30
0
 11
35.4125
 21
86.3733
 31
0
  0
LINE
  5
A5F
330
A02
100
AcDbEntity
  8
Fillet
100
AcDbLine
 10
30.895
 20
81.6578
 30
0
 11
36.325
 21
84.7928
 31
0
  0
LINE
  5
A60
330
A02
100
AcDbEntity
  8
Fillet
100
AcDbLine
 10
31.3325
 20
80.9
 30
0
 11
30.895
 21
81.6578
 31
0
  0
LINE
  5
A61
330
A02
100
AcDbEntity
  8
Fillet
100
AcDbLine
 10
28.9076
 20
79.5
 30
0
 11
31.3325
 21
80.9
 31
0
  0
LINE
  5
A62
330
A02
100
AcDbEntity
  8
Fillet
100
AcDbLine
 10
28.4701
 20
80.2578
 30
0
 11
28.9076
 21
79.5
 31
0
  0
LINE
  5
A63
330
A02
100
AcDbEntity
  8
Fillet
100
AcDbLine
 10
25.6729
 20
78.6428
 30
0
 11
28.4701
 21
80.2578
 31
0
  0
LINE
  5
A64
330
A02
100
AcDbEntity
  8
Fillet
100
AcDbLine
 10
22.3479
 20
84.4019
 30
0
 11
25.6729
 21
78.6428
 31
0
  0
LINE
  5
A65
330
A02
100
AcDbEntity
  8
Fillet
100
AcDbLine
 10
23.0407
 20
84.8019
 30
0
 11
22.3479
 21
84.4019
 31
0
  0
LINE
  5
A66
330
A02
100
AcDbEntity
  8
Fillet
100
AcDbLine
 10
22.2532
 20
86.1659
 30
0
 11
23.0407
 21
84.8019
 31
0
  0
LINE
  5
A67
330
A02
100
AcDbEntity
  8
Fillet
100
AcDbLine
 10
20.2873
 20
85.0309
 30
0
 11
22.2532
 21
86.1659
 31
0
  0
LINE
  5
A68
330
A02
100
AcDbEntity
  8
Fillet
100
AcDbLine
 10
13.2873
 20
97.1552
 30
0
 11
20.2873
 21
85.0309
 31
0
  0
LINE
  5
A69
330
A02
100
AcDbEntity
  8
Fillet
100
AcDbLine
 10
15.2532
 20
98.2902
 30
0
 11
13.2873
 21
97.1552
 31
0
  0
LINE
  5
A6A
330
A02
100
AcDbEntity
  8
Fillet
100
AcDbLine
 10
14.4657
 20
99.6542
 30
0
 11
15.2532
 21
98.2902
 31
0
  0
LINE
  5
A6B
330
A02
100
AcDbEntity
  8
Fillet
100
AcDbLine
 10
13.7729
 20
99.2542
 30
0
 11
14.4657
 21
99.6542
 31
0
  0
LINE
  5
A6C
330
A02
100
AcDbEntity
  8
Fillet
100
AcDbLine
 10
10.4479
 20
105.013
 30
0
 11
13.7729
 21
99.2542
 31
0
  0
LINE
  5
A6D
330
A02
100
AcDbEntity
  8
Fillet
100
AcDbLine
 10
13.2451
 20
106.628
 30
0
 11
10.4479
 21
105.013
 31
0
  0
LINE
  5
A6E
330
A02
100
AcDbEntity
  8
Fillet
100
AcDbLine
 10
12.8076
 20
107.386
 30
0
 11
13.2451
 21
106.628
 31
0
  0
LINE
  5
A6F
330
A02
100
AcDbEntity
  8
Fillet
100
AcDbLine
 10
15.2325
 20
108.786
 30
0
 11
12.8076
 21
107.386
 31
0
  0
LINE
  5
A70
330
A02
100
AcDbEntity
  8
Fillet
100
AcDbLine
 10
15.67
 20
108.028
 30
0
 11
15.2325
 21
108.786
 31
0
  0
LINE
  5
A71
330
A02
100
AcDbEntity
  8
Fillet
100
AcDbLine
 10
21.1
 20
111.163
 30
0
 11
15.67
 21
108.028
 31
0
  0
LINE
  5
A72
330
A02
100
AcDbEntity
  8
Fillet
100
AcDbLine
 10
46.6678
 20
105.445
 30
0
 11
34.5391
 21
98.4383
 31
0
  0
LINE
  5
A73
330
A02
100
AcDbEntity
  8
Fillet
100
AcDbLine
 10
53.6528
 20
93.3161
 30
0
 11
46.6678
 21
105.445
 31
0
  0
LINE
  5
A74
330
A02
100
AcDbEntity
  8
Fillet
100
AcDbLine
 10
41.5453
 20
86.3102
 30
0
 11
53.6528
 21
93.3161
 31
0
  0
LINE
  5
A75
330
A02
100
AcDbEntity
  8
Fillet
100
AcDbLine
 10
34.5391
 20
98.4383
 30
0
 11
41.5453
 21
86.3102
 31
0
  0
CIRCLE
  5
A76
330
A02
100
AcDbEntity
  8
Fillet
100
AcDbCircle
 10
4.15344
 20
107.955
 40
1.2
  0
LINE
  5
A77
330
A02
100
AcDbEntity
  8
Fillet
100
AcDbLine
 10
24.1039
 20
119.839
 30
0
 11
24.1039
 21
133.829
 31
0
  0
LINE
  5
A78
330
A02
100
AcDbEntity
  8
Fillet
100
AcDbLine
 10
10.0919
 20
119.839
 30
0
 11
24.1039
 21
119.839
 31
0
  0
LINE
  5
A79
330
A02
100
AcDbEntity
  8
Fillet
100
AcDbLine
 10
10.0919
 20
133.829
 30
0
 11
10.0919
 21
119.839
 31
0
  0
LINE
  5
A7A
330
A02
100
AcDbEntity
  8
Fillet
100
AcDbLine
 10
24.1039
 20
133.829
 30
0
 11
10.0919
 21
133.829
 31
0
  0
CIRCLE
  5
A7B
330
A02
100
AcDbEntity
  8
Fillet
100
AcDbCircle
 10
32.5926
 20
105.359
 40
1.2
  0
LINE
  5
A7C
330
A02
100
AcDbEntity
  8
Fillet
100
AcDbLine
 10
29.1419
 20
124.305
 30
0
 11
43.1539
 21
124.305
 31
0
  0
LINE
  5
A7D
330
A02
100
AcDbEntity
  8
Fillet
100
AcDbLine
 10
43.1539
 20
124.305
 30
0
 11
43.1539
 21
110.313
 31
0
  0
LINE
  5
A7E
330
A02
100
AcDbEntity
  8
Fillet
100
AcDbLine
 10
43.1539
 20
110.313
 30
0
 11
29.1419
 21
110.313
 31
0
  0
LINE
  5
A7F
330
A02
100
AcDbEntity
  8
Fillet
100
AcDbLine
 10
29.1419
 20
110.313
 30
0
 11
29.1419
 21
124.305
 31
0
  0
LINE
  5
A80
330
A02
100
AcDbEntity
  8
Fillet
100
AcDbLine
 10
62.2039
 20
112.684
 30
0
 11
62.2039
 21
126.696
 31
0
  0
LINE
  5
A81
330
A02
100
AcDbEntity
  8
Fillet
100
AcDbLine
 10
48.1919
 20
112.684
 30
0
 11
62.2039
 21
112.684
 31
0
  0
LINE
  5
A82
330
A02
100
AcDbEntity
  8
Fillet
100
AcDbLine
 10
48.1919
 20
126.696
 30
0
 11
48.1919
 21
112.684
 31
0
  0
LINE
  5
A83
330
A02
100
AcDbEntity
  8
Fillet
100
AcDbLine
 10
62.2039
 20
126.696
 30
0
 11
48.1919
 21
126.696
 31
0
  0
LINE
  5
A84
330
A02
100
AcDbEntity
  8
Fillet
100
AcDbLine
 10
119.354
 20
88.8713
 30
0
 11
119.354
 21
102.883
 31
0
  0
LINE
  5
A85
330
A02
100
AcDbEntity
  8
Fillet
100
AcDbLine
 10
105.342
 20
88.8713
 30
0
 11
119.354
 21
88.8713
 31
0
  0
LINE
  5
A86
330
A02
100
AcDbEntity
  8
Fillet
100
AcDbLine
 10
105.342
 20
102.883
 30
0
 11
105.342
 21
88.8713
 31
0
  0
LINE
  5
A87
330
A02
100
AcDbEntity
  8
Fillet
100
AcDbLine
 10
119.354
 20
102.883
 30
0
 11
105.342
 21
102.883
 31
0
  0
LINE
  5
A88
330
A02
100
AcDbEntity
  8
Fillet
100
AcDbLine
 10
138.404
 20
88.8713
 30
0
 11
124.392
 21
88.8713
 31
0
  0
LINE
  5
A89
330
A02
100
AcDbEntity
  8
Fillet
100
AcDbLine
 10
124.392
 20
88.8713
 30
0
 11
124.392
 21
102.883
 31
0
  0
LINE
  5
A8A
330
A02
100
AcDbEntity
  8
Fillet
100
AcDbLine
 10
124.392
 20
102.883
 30
0
 11
138.404
 21
102.883
 31
0
  0
LINE
  5
A8B
330
A02
100
AcDbEntity
  8
Fillet
100
AcDbLine
 10
138.404
 20
102.883
 30
0
 11
138.404
 21
88.8713
 31
0
  0
LINE
  5
A8C
330
A02
100
AcDbEntity
  8
Fillet
100
AcDbLine
 10
73.6342
 20
93.6147
 30
0
 11
59.6216
 21
93.6147
 31
0
  0
LINE
  5
A8D
330
A02
100
AcDbEntity
  8
Fillet
100
AcDbLine
 10
59.6216
 20
93.6147
 30
0
 11
59.6216
 21
107.626
 31
0
  0
LINE
  5
A8E
330
A02
100
AcDbEntity
  8
Fillet
100
AcDbLine
 10
59.6216
 20
107.626
 30
0
 11
73.6342
 21
107.626
 31
0
  0
LINE
  5
A8F
330
A02
100
AcDbEntity
  8
Fillet
100
AcDbLine
 10
73.6342
 20
107.626
 30
0
 11
73.6342
 21
93.6147
 31
0
  0
CIRCLE
  5
A90
330
A02
100
AcDbEntity
  8
Fillet
100
AcDbCircle
 10
83.2719
 20
112.721
 40
1.2
  0
LINE
  5
A91
330
A02
100
AcDbEntity
  8
Fillet
100
AcDbLine
 10
86.2916
 20
107.646
 30
0
 11
100.304
 21
107.646
 31
0
  0
LINE
  5
A92
330
A02
100
AcDbEntity
  8
Fillet
100
AcDbLine
 10
100.304
 20
107.646
 30
0
 11
100.304
 21
93.6337
 31
0
  0
LINE
  5
A93
330
A02
100
AcDbEntity
  8
Fillet
100
AcDbLine
 10
100.304
 20
93.6337
 30
0
 11
86.2916
 21
93.6337
 31
0
  0
LINE
  5
A94
330
A02
100
AcDbEntity
  8
Fillet
100
AcDbLine
 10
86.2916
 20
93.6337
 30
0
 11
86.2916
 21
107.646
 31
0
  0
LINE
  5
A95
330
A02
100
AcDbEntity
  8
Fillet
100
AcDbLine
 10
81.2542
 20
115.076
 30
0
 11
81.2542
 21
129.066
 31
0
  0
LINE
  5
A96
330
A02
100
AcDbEntity
  8
Fillet
100
AcDbLine
 10
67.2419
 20
115.076
 30
0
 11
81.2542
 21
115.076
 31
0
  0
LINE
  5
A97
330
A02
100
AcDbEntity
  8
Fillet
100
AcDbLine
 10
67.2419
 20
129.066
 30
0
 11
67.2419
 21
115.076
 31
0
  0
LINE
  5
A98
330
A02
100
AcDbEntity
  8
Fillet
100
AcDbLine
 10
81.2542
 20
129.066
 30
0
 11
67.2419
 21
129.066
 31
0
  0
LINE
  5
A99
330
A02
100
AcDbEntity
  8
Fillet
100
AcDbLine
 10
86.2916
 20
112.684
 30
0
 11
100.304
 21
112.684
 31
0
  0
LINE
  5
A9A
330
A02
100
AcDbEntity
  8
Fillet
100
AcDbLine
 10
86.2916
 20
126.696
 30
0
 11
86.2916
 21
112.684
 31
0
  0
LINE
  5
A9B
330
A02
100
AcDbEntity
  8
Fillet
100
AcDbLine
 10
100.304
 20
126.696
 30
0
 11
86.2916
 21
126.696
 31
0
  0
LINE
  5
A9C
330
A02
100
AcDbEntity
  8
Fillet
100
AcDbLine
 10
100.304
 20
112.684
 30
0
 11
100.304
 21
126.696
 31
0
  0
CIRCLE
  5
A9D
330
A02
100
AcDbEntity
  8
Fillet
100
AcDbCircle
 10
121.893
 20
105.113
 40
1.2
  0
LINE
  5
A9E
330
A02
100
AcDbEntity
  8
Fillet
100
AcDbLine
 10
105.342
 20
121.934
 30
0
 11
105.342
 21
107.921
 31
0
  0
LINE
  5
A9F
330
A02
100
AcDbEntity
  8
Fillet
100
AcDbLine
 10
119.354
 20
121.934
 30
0
 11
105.342
 21
121.934
 31
0
  0
LINE
  5
AA0
330
A02
100
AcDbEntity
  8
Fillet
100
AcDbLine
 10
119.354
 20
107.921
 30
0
 11
119.354
 21
121.934
 31
0
  0
LINE
  5
AA1
330
A02
100
AcDbEntity
  8
Fillet
100
AcDbLine
 10
105.342
 20
107.921
 30
0
 11
119.354
 21
107.921
 31
0
  0
LINE
  5
AA2
330
A02
100
AcDbEntity
  8
Fillet
100
AcDbLine
 10
124.392
 20
121.934
 30
0
 11
138.404
 21
121.934
 31
0
  0
LINE
  5
AA3
330
A02
100
AcDbEntity
  8
Fillet
100
AcDbLine
 10
138.404
 20
121.934
 30
0
 11
138.404
 21
107.921
 31
0
  0
LINE
  5
AA4
330
A02
100
AcDbEntity
  8
Fillet
100
AcDbLine
 10
138.404
 20
107.921
 30
0
 11
124.392
 21
107.921
 31
0
  0
LINE
  5
AA5
330
A02
100
AcDbEntity
  8
Fillet
100
AcDbLine
 10
124.392
 20
107.921
 30
0
 11
124.392
 21
121.934
 31
0
  0
LINE
  5
AA6
330
A02
100
AcDbEntity
  8
Fillet
100
AcDbLine
 10
24.1039
 20
152.879
 30
0
 11
10.0919
 21
152.879
 31
0
  0
LINE
  5
AA7
330
A02
100
AcDbEntity
  8
Fillet
100
AcDbLine
 10
24.1039
 20
138.888
 30
0
 11
24.1039
 21
152.879
 31
0
  0
LINE
  5
AA8
330
A02
100
AcDbEntity
  8
Fillet
100
AcDbLine
 10
10.0919
 20
138.888
 30
0
 11
24.1039
 21
138.888
 31
0
  0
LINE
  5
AA9
330
A02
100
AcDbEntity
  8
Fillet
100
AcDbLine
 10
10.0919
 20
152.879
 30
0
 11
10.0919
 21
138.888
 31
0
  0
LINE
  5
AAA
330
A02
100
AcDbEntity
  8
Fillet
100
AcDbLine
 10
29.1419
 20
143.354
 30
0
 11
43.1539
 21
143.354
 31
0
  0
LINE
  5
AAB
330
A02
100
AcDbEntity
  8
Fillet
100
AcDbLine
 10
43.1539
 20
143.354
 30
0
 11
43.1539
 21
129.363
 31
0
  0
LINE
  5
AAC
330
A02
100
AcDbEntity
  8
Fillet
100
AcDbLine
 10
43.1539
 20
129.363
 30
0
 11
29.1419
 21
129.363
 31
0
  0
LINE
  5
AAD
330
A02
100
AcDbEntity
  8
Fillet
100
AcDbLine
 10
29.1419
 20
129.363
 30
0
 11
29.1419
 21
143.354
 31
0
  0
LINE
  5
AAE
330
A02
100
AcDbEntity
  8
Fillet
100
AcDbLine
 10
62.2039
 20
131.734
 30
0
 11
62.2039
 21
145.746
 31
0
  0
LINE
  5
AAF
330
A02
100
AcDbEntity
  8
Fillet
100
AcDbLine
 10
48.1919
 20
131.734
 30
0
 11
62.2039
 21
131.734
 31
0
  0
LINE
  5
AB0
330
A02
100
AcDbEntity
  8
Fillet
100
AcDbLine
 10
48.1919
 20
145.746
 30
0
 11
48.1919
 21
131.734
 31
0
  0
LINE
  5
AB1
330
A02
100
AcDbEntity
  8
Fillet
100
AcDbLine
 10
62.2039
 20
145.746
 30
0
 11
48.1919
 21
145.746
 31
0
  0
LINE
  5
AB2
330
A02
100
AcDbEntity
  8
Fillet
100
AcDbLine
 10
29.1419
 20
162.404
 30
0
 11
43.1539
 21
162.404
 31
0
  0
LINE
  5
AB3
330
A02
100
AcDbEntity
  8
Fillet
100
AcDbLine
 10
43.1539
 20
162.404
 30
0
 11
43.1539
 21
148.413
 31
0
  0
LINE
  5
AB4
330
A02
100
AcDbEntity
  8
Fillet
100
AcDbLine
 10
43.1539
 20
148.413
 30
0
 11
29.1419
 21
148.413
 31
0
  0
LINE
  5
AB5
330
A02
100
AcDbEntity
  8
Fillet
100
AcDbLine
 10
29.1419
 20
148.413
 30
0
 11
29.1419
 21
162.404
 31
0
  0
LINE
  5
AB6
330
A02
100
AcDbEntity
  8
Fillet
100
AcDbLine
 10
48.1919
 20
164.796
 30
0
 11
48.1919
 21
150.784
 31
0
  0
LINE
  5
AB7
330
A02
100
AcDbEntity
  8
Fillet
100
AcDbLine
 10
62.2039
 20
164.796
 30
0
 11
48.1919
 21
164.796
 31
0
  0
LINE
  5
AB8
330
A02
100
AcDbEntity
  8
Fillet
100
AcDbLine
 10
62.2039
 20
150.784
 30
0
 11
62.2039
 21
164.796
 31
0
  0
LINE
  5
AB9
330
A02
100
AcDbEntity
  8
Fillet
100
AcDbLine
 10
48.1919
 20
150.784
 30
0
 11
62.2039
 21
150.784
 31
0
  0
LINE
  5
ABA
330
A02
100
AcDbEntity
  8
Fillet
100
AcDbLine
 10
10.0919
 20
157.938
 30
0
 11
24.1039
 21
157.938
 31
0
  0
LINE
  5
ABB
330
A02
100
AcDbEntity
  8
Fillet
100
AcDbLine
 10
10.0919
 20
171.929
 30
0
 11
10.0919
 21
157.938
 31
0
  0
LINE
  5
ABC
330
A02
100
AcDbEntity
  8
Fillet
100
AcDbLine
 10
24.1039
 20
171.929
 30
0
 11
10.0919
 21
171.929
 31
0
  0
LINE
  5
ABD
330
A02
100
AcDbEntity
  8
Fillet
100
AcDbLine
 10
24.1039
 20
157.938
 30
0
 11
24.1039
 21
171.929
 31
0
  0
CIRCLE
  5
ABE
330
A02
100
AcDbEntity
  8
Fillet
100
AcDbCircle
 10
26.634
 20
165.045
 40
1.2
  0
LINE
  5
ABF
330
A02
100
AcDbEntity
  8
Fillet
100
AcDbLine
 10
29.1419
 20
181.454
 30
0
 11
29.1419
 21
167.463
 31
0
  0
LINE
  5
AC0
330
A02
100
AcDbEntity
  8
Fillet
100
AcDbLine
 10
43.1539
 20
181.454
 30
0
 11
29.1419
 21
181.454
 31
0
  0
LINE
  5
AC1
330
A02
100
AcDbEntity
  8
Fillet
100
AcDbLine
 10
43.1539
 20
167.463
 30
0
 11
43.1539
 21
181.454
 31
0
  0
LINE
  5
AC2
330
A02
100
AcDbEntity
  8
Fillet
100
AcDbLine
 10
29.1419
 20
167.463
 30
0
 11
43.1539
 21
167.463
 31
0
  0
LINE
  5
AC3
330
A02
100
AcDbEntity
  8
Fillet
100
AcDbLine
 10
62.2039
 20
183.846
 30
0
 11
48.1919
 21
183.846
 31
0
  0
LINE
  5
AC4
330
A02
100
AcDbEntity
  8
Fillet
100
AcDbLine
 10
62.2039
 20
169.834
 30
0
 11
62.2039
 21
183.846
 31
0
  0
LINE
  5
AC5
330
A02
100
AcDbEntity
  8
Fillet
100
AcDbLine
 10
48.1919
 20
169.834
 30
0
 11
62.2039
 21
169.834
 31
0
  0
LINE
  5
AC6
330
A02
100
AcDbEntity
  8
Fillet
100
AcDbLine
 10
48.1919
 20
183.846
 30
0
 11
48.1919
 21
169.834
 31
0
  0
LINE
  5
AC7
330
A02
100
AcDbEntity
  8
Fillet
100
AcDbLine
 10
67.2419
 20
134.125
 30
0
 11
81.2542
 21
134.125
 31
0
  0
LINE
  5
AC8
330
A02
100
AcDbEntity
  8
Fillet
100
AcDbLine
 10
67.2419
 20
148.117
 30
0
 11
67.2419
 21
134.125
 31
0
  0
LINE
  5
AC9
330
A02
100
AcDbEntity
  8
Fillet
100
AcDbLine
 10
81.2542
 20
148.117
 30
0
 11
67.2419
 21
148.117
 31
0
  0
LINE
  5
ACA
330
A02
100
AcDbEntity
  8
Fillet
100
AcDbLine
 10
81.2542
 20
134.125
 30
0
 11
81.2542
 21
148.117
 31
0
  0
LINE
  5
ACB
330
A02
100
AcDbEntity
  8
Fillet
100
AcDbLine
 10
100.304
 20
131.734
 30
0
 11
100.304
 21
145.746
 31
0
  0
LINE
  5
ACC
330
A02
100
AcDbEntity
  8
Fillet
100
AcDbLine
 10
86.2916
 20
131.734
 30
0
 11
100.304
 21
131.734
 31
0
  0
LINE
  5
ACD
330
A02
100
AcDbEntity
  8
Fillet
100
AcDbLine
 10
86.2916
 20
145.746
 30
0
 11
86.2916
 21
131.734
 31
0
  0
LINE
  5
ACE
330
A02
100
AcDbEntity
  8
Fillet
100
AcDbLine
 10
100.304
 20
145.746
 30
0
 11
86.2916
 21
145.746
 31
0
  0
CIRCLE
  5
ACF
330
A02
100
AcDbEntity
  8
Fillet
100
AcDbCircle
 10
83.7882
 20
148.29
 40
1.2
  0
LINE
  5
AD0
330
A02
100
AcDbEntity
  8
Fillet
100
AcDbLine
 10
86.2916
 20
164.796
 30
0
 11
100.304
 21
164.796
 31
0
  0
LINE
  5
AD1
330
A02
100
AcDbEntity
  8
Fillet
100
AcDbLine
 10
100.304
 20
164.796
 30
0
 11
100.304
 21
150.784
 31
0
  0
LINE
  5
AD2
330
A02
100
AcDbEntity
  8
Fillet
100
AcDbLine
 10
100.304
 20
150.784
 30
0
 11
86.2916
 21
150.784
 31
0
  0
LINE
  5
AD3
330
A02
100
AcDbEntity
  8
Fillet
100
AcDbLine
 10
86.2916
 20
150.784
 30
0
 11
86.2916
 21
164.796
 31
0
  0
LINE
  5
AD4
330
A02
100
AcDbEntity
  8
Fillet
100
AcDbLine
 10
119.354
 20
140.984
 30
0
 11
105.342
 21
140.984
 31
0
  0
LINE
  5
AD5
330
A02
100
AcDbEntity
  8
Fillet
100
AcDbLine
 10
119.354
 20
126.971
 30
0
 11
119.354
 21
140.984
 31
0
  0
LINE
  5
AD6
330
A02
100
AcDbEntity
  8
Fillet
100
AcDbLine
 10
105.342
 20
126.971
 30
0
 11
119.354
 21
126.971
 31
0
  0
LINE
  5
AD7
330
A02
100
AcDbEntity
  8
Fillet
100
AcDbLine
 10
105.342
 20
140.984
 30
0
 11
105.342
 21
126.971
 31
0
  0
LINE
  5
AD8
330
A02
100
AcDbEntity
  8
Fillet
100
AcDbLine
 10
124.392
 20
140.984
 30
0
 11
138.404
 21
140.984
 31
0
  0
LINE
  5
AD9
330
A02
100
AcDbEntity
  8
Fillet
100
AcDbLine
 10
138.404
 20
140.984
 30
0
 11
138.404
 21
126.971
 31
0
  0
LINE
  5
ADA
330
A02
100
AcDbEntity
  8
Fillet
100
AcDbLine
 10
138.404
 20
126.971
 30
0
 11
124.392
 21
126.971
 31
0
  0
LINE
  5
ADB
330
A02
100
AcDbEntity
  8
Fillet
100
AcDbLine
 10
124.392
 20
126.971
 30
0
 11
124.392
 21
140.984
 31
0
  0
LINE
  5
ADC
330
A02
100
AcDbEntity
  8
Fillet
100
AcDbLine
 10
119.354
 20
146.021
 30
0
 11
119.354
 21
160.034
 31
0
  0
LINE
  5
ADD
330
A02
100
AcDbEntity
  8
Fillet
100
AcDbLine
 10
105.342
 20
146.021
 30
0
 11
119.354
 21
146.021
 31
0
  0
LINE
  5
ADE
330
A02
100
AcDbEntity
  8
Fillet
100
AcDbLine
 10
105.342
 20
160.034
 30
0
 11
105.342
 21
146.021
 31
0
  0
LINE
  5
ADF
330
A02
100
AcDbEntity
  8
Fillet
100
AcDbLine
 10
119.354
 20
160.034
 30
0
 11
105.342
 21
160.034
 31
0
  0
LINE
  5
AE0
330
A02
100
AcDbEntity
  8
Fillet
100
AcDbLine
 10
124.392
 20
160.034
 30
0
 11
138.404
 21
160.034
 31
0
  0
LINE
  5
AE1
330
A02
100
AcDbEntity
  8
Fillet
100
AcDbLine
 10
138.404
 20
160.034
 30
0
 11
138.404
 21
146.021
 31
0
  0
LINE
  5
AE2
330
A02
100
AcDbEntity
  8
Fillet
100
AcDbLine
 10
138.404
 20
146.021
 30
0
 11
124.392
 21
146.021
 31
0
  0
LINE
  5
AE3
330
A02
100
AcDbEntity
  8
Fillet
100
AcDbLine
 10
124.392
 20
146.021
 30
0
 11
124.392
 21
160.034
 31
0
  0
LINE
  5
AE4
330
A02
100
AcDbEntity
  8
Fillet
100
AcDbLine
 10
81.2542
 20
153.175
 30
0
 11
81.2542
 21
167.167
 31
0
  0
LINE
  5
AE5
330
A02
100
AcDbEntity
  8
Fillet
100
AcDbLine
 10
67.2419
 20
153.175
 30
0
 11
81.2542
 21
153.175
 31
0
  0
LINE
  5
AE6
330
A02
100
AcDbEntity
  8
Fillet
100
AcDbLine
 10
67.2419
 20
167.167
 30
0
 11
67.2419
 21
153.175
 31
0
  0
LINE
  5
AE7
330
A02
100
AcDbEntity
  8
Fillet
100
AcDbLine
 10
81.2542
 20
167.167
 30
0
 11
67.2419
 21
167.167
 31
0
  0
LINE
  5
AE8
330
A02
100
AcDbEntity
  8
Fillet
100
AcDbLine
 10
81.2542
 20
186.216
 30
0
 11
81.2542
 21
172.225
 31
0
  0
LINE
  5
AE9
330
A02
100
AcDbEntity
  8
Fillet
100
AcDbLine
 10
81.2542
 20
172.225
 30
0
 11
67.2419
 21
172.225
 31
0
  0
LINE
  5
AEA
330
A02
100
AcDbEntity
  8
Fillet
100
AcDbLine
 10
67.2419
 20
172.225
 30
0
 11
67.2419
 21
186.216
 31
0
  0
LINE
  5
AEB
330
A02
100
AcDbEntity
  8
Fillet
100
AcDbLine
 10
67.2419
 20
186.216
 30
0
 11
81.2542
 21
186.216
 31
0
  0
LINE
  5
AEC
330
A02
100
AcDbEntity
  8
Fillet
100
AcDbLine
 10
100.304
 20
169.834
 30
0
 11
100.304
 21
183.846
 31
0
  0
LINE
  5
AED
330
A02
100
AcDbEntity
  8
Fillet
100
AcDbLine
 10
86.2916
 20
169.834
 30
0
 11
100.304
 21
169.834
 31
0
  0
LINE
  5
AEE
330
A02
100
AcDbEntity
  8
Fillet
100
AcDbLine
 10
86.2916
 20
183.846
 30
0
 11
86.2916
 21
169.834
 31
0
  0
LINE
  5
AEF
330
A02
100
AcDbEntity
  8
Fillet
100
AcDbLine
 10
100.304
 20
183.846
 30
0
 11
86.2916
 21
183.846
 31
0
  0
CIRCLE
  5
AF0
330
A02
100
AcDbEntity
  8
Fillet
100
AcDbCircle
 10
90.014
 20
187.399
 40
1.2
  0
LINE
  5
AF1
330
A02
100
AcDbEntity
  8
Fillet
100
AcDbLine
 10
105.342
 20
165.071
 30
0
 11
105.342
 21
179.084
 31
0
  0
LINE
  5
AF2
330
A02
100
AcDbEntity
  8
Fillet
100
AcDbLine
 10
105.342
 20
179.084
 30
0
 11
119.354
 21
179.084
 31
0
  0
LINE
  5
AF3
330
A02
100
AcDbEntity
  8
Fillet
100
AcDbLine
 10
119.354
 20
179.084
 30
0
 11
119.354
 21
165.071
 31
0
  0
LINE
  5
AF4
330
A02
100
AcDbEntity
  8
Fillet
100
AcDbLine
 10
119.354
 20
165.071
 30
0
 11
105.342
 21
165.071
 31
0
  0
CIRCLE
  5
AF5
330
A02
100
AcDbEntity
  8
Fillet
100
AcDbCircle
 10
121.883
 20
162.498
 40
1.2
  0
LINE
  5
AF6
330
A02
100
AcDbEntity
  8
Fillet
100
AcDbLine
 10
138.404
 20
179.084
 30
0
 11
138.404
 21
165.071
 31
0
  0
LINE
  5
AF7
330
A02
100
AcDbEntity
  8
Fillet
100
AcDbLine
 10
138.404
 20
165.071
 30
0
 11
124.392
 21
165.071
 31
0
  0
LINE
  5
AF8
330
A02
100
AcDbEntity
  8
Fillet
100
AcDbLine
 10
124.392
 20
165.071
 30
0
 11
124.392
 21
179.084
 31
0
  0
LINE
  5
AF9
330
A02
100
AcDbEntity
  8
Fillet
100
AcDbLine
 10
124.392
 20
179.084
 30
0
 11
138.404
 21
179.084
 31
0
  0
LINE
  5
AFA
330
A02
100
AcDbEntity
  8
Fillet
100
AcDbLine
 10
84.736
 20
194.919
 30
0
 11
84.736
 21
194.919
 31
1.3
  0
ARC
  5
AFB
330
A02
100
AcDbEntity
  8
Fillet
100
AcDbCircle
 10
83.6427
 20
190.04
 30
1.3
 40
5
100
AcDbArc
 50
77.37
 51
90
  0
LINE
  5
AFC
330
A02
100
AcDbEntity
  8
Fillet
100
AcDbLine
 10
83.6427
 20
195.04
 30
0
 11
83.6427
 21
195.04
 31
1.3
  0
ARC
  5
AFD
330
A02
100
AcDbEntity
  8
Fillet
100
AcDbCircle
 10
83.6427
 20
190.04
 30
0
 40
5
100
AcDbArc
 50
77.37
 51
90
  0
LINE
  5
AFE
330
A02
100
AcDbEntity
  8
Fillet
100
AcDbLine
 10
141.409
 20
87.62
 30
0
 11
141.409
 21
87.62
 31
1.3
  0
LINE
  5
AFF
330
A02
100
AcDbEntity
  8
Fillet
100
AcDbLine
 10
141.409
 20
87.62
 30
1.3
 11
141.409
 21
180.619
 31
1.3
  0
LINE
  5
B00
330
A02
100
AcDbEntity
  8
Fillet
100
AcDbLine
 10
141.409
 20
180.619
 30
0
 11
141.409
 21
180.619
 31
1.3
  0
LINE
  5
B01
330
A02
100
AcDbEntity
  8
Fillet
100
AcDbLine
 10
141.409
 20
87.62
 30
0
 11
141.409
 21
180.619
 31
0
  0
ARC
  5
B02
330
A02
100
AcDbEntity
  8
Fillet
100
AcDbCircle
 10
141.209
 20
180.619
 30
1.3
 40
0.2
100
AcDbArc
 50
0
 51
0
  0
ARC
  5
B03
330
A02
100
AcDbEntity
  8
Fillet
100
AcDbCircle
 10
139.409
 20
180.619
 30
1.3
 40
2
100
AcDbArc
 50
0
 51
77.37
  0
ARC
  5
B04
330
A02
100
AcDbEntity
  8
Fillet
100
AcDbCircle
 10
139.802
 20
182.375
 30
1.3
 40
0.2
100
AcDbArc
 50
77.37
 51
0
  0
ARC
  5
B05
330
A02
100
AcDbEntity
  8
Fillet
100
AcDbCircle
 10
139.409
 20
180.619
 30
1.5
 40
1.8
100
AcDbArc
 50
0
 51
77.37
  0
LINE
  5
B06
330
A02
100
AcDbEntity
  8
Fillet
100
AcDbLine
 10
139.802
 20
182.375
 30
1.5
 11
84.6922
 21
194.724
 31
1.5
  0
ARC
  5
B07
330
A02
100
AcDbEntity
  8
Fillet
100
AcDbCircle
 10
83.6427
 20
190.04
 30
1.5
 40
4.8
100
AcDbArc
 50
77.37
 51
90
  0
LINE
  5
B08
330
A02
100
AcDbEntity
  8
Fillet
100
AcDbLine
 10
83.6427
 20
194.84
 30
1.5
 11
46.4104
 21
194.84
 31
1.5
  0
ARC
  5
B09
330
A02
100
AcDbEntity
  8
Fillet
100
AcDbCircle
 10
46.4104
 20
192.54
 30
1.5
 40
2.3
100
AcDbArc
 50
90
 51
124.99
  0
LINE
  5
B0A
330
A02
100
AcDbEntity
  8
Fillet
100
AcDbLine
 10
45.0915
 20
194.424
 30
1.5
 11
34.096
 21
186.728
 31
1.5
  0
ARC
  5
B0B
330
A02
100
AcDbEntity
  8
Fillet
100
AcDbCircle
 10
32.5477
 20
188.94
 30
1.5
 40
2.7
100
AcDbArc
 50
-90
 51
-55.01
  0
LINE
  5
B0C
330
A02
100
AcDbEntity
  8
Fillet
100
AcDbLine
 10
32.5477
 20
186.24
 30
1.5
 11
15.8933
 21
186.24
 31
1.5
  0
ARC
  5
B0D
330
A02
100
AcDbEntity
  8
Fillet
100
AcDbCircle
 10
15.8933
 20
185.44
 30
1.5
 40
0.8
100
AcDbArc
 50
90
 51
146.14
  0
LINE
  5
B0E
330
A02
100
AcDbEntity
  8
Fillet
100
AcDbLine
 10
15.229
 20
185.886
 30
1.5
 11
7.66434
 21
174.611
 31
1.5
  0
ARC
  5
B0F
330
A02
100
AcDbEntity
  8
Fillet
100
AcDbCircle
 10
8.32866
 20
174.166
 30
1.5
 40
0.8
100
AcDbArc
 50
146.14
 51
180
  0
LINE
  5
B10
330
A02
100
AcDbEntity
  8
Fillet
100
AcDbLine
 10
7.52866
 20
174.166
 30
1.5
 11
7.52866
 21
118.521
 31
1.5
  0
ARC
  5
B11
330
A02
100
AcDbEntity
  8
Fillet
100
AcDbCircle
 10
6.32866
 20
118.521
 30
1.5
 40
1.2
100
AcDbArc
 50
-41.52
 51
0
  0
LINE
  5
B12
330
A02
100
AcDbEntity
  8
Fillet
100
AcDbLine
 10
7.22713
 20
117.726
 30
1.5
 11
-10.3117
 21
97.9158
 31
1.5
  0
ARC
  5
B13
330
A02
100
AcDbEntity
  8
Fillet
100
AcDbCircle
 10
-8.96396
 20
96.7226
 30
1.5
 40
1.8
100
AcDbArc
 50
138.48
 51
-150
  0
LINE
  5
B14
330
A02
100
AcDbEntity
  8
Fillet
100
AcDbLine
 10
-10.5228
 20
95.8226
 30
1.5
 11
7.45393
 21
64.686
 31
1.5
  0
ARC
  5
B15
330
A02
100
AcDbEntity
  8
Fillet
100
AcDbCircle
 10
8.14675
 20
65.086
 30
1.5
 40
0.8
100
AcDbArc
 50
-150
 51
-60
  0
LINE
  5
B16
330
A02
100
AcDbEntity
  8
Fillet
100
AcDbLine
 10
8.54675
 20
64.3932
 30
1.5
 11
45.8985
 21
85.9583
 31
1.5
  0
ARC
  5
B17
330
A02
100
AcDbEntity
  8
Fillet
100
AcDbCircle
 10
47.2485
 20
83.62
 30
1.5
 40
2.7
100
AcDbArc
 50
90
 51
120
  0
LINE
  5
B18
330
A02
100
AcDbEntity
  8
Fillet
100
AcDbLine
 10
47.2485
 20
86.32
 30
1.5
 11
139.909
 21
86.32
 31
1.5
  0
ARC
  5
B19
330
A02
100
AcDbEntity
  8
Fillet
100
AcDbCircle
 10
139.909
 20
87.62
 30
1.5
 40
1.3
100
AcDbArc
 50
-90
 51
0
  0
LINE
  5
B1A
330
A02
100
AcDbEntity
  8
Fillet
100
AcDbLine
 10
141.209
 20
87.62
 30
1.5
 11
141.209
 21
180.619
 31
1.5
  0
ARC
  5
B1B
330
A02
100
AcDbEntity
  8
Fillet
100
AcDbCircle
 10
139.409
 20
180.619
 30
1.5
 40
1.8
100
AcDbArc
 50
0
 51
77.37
  0
LINE
  5
B1C
330
A02
100
AcDbEntity
  8
Fillet
100
AcDbLine
 10
5.51249
 20
100.063
 30
1.5
 11
4.59999
 21
101.643
 31
1.5
  0
LINE
  5
B1D
330
A02
100
AcDbEntity
  8
Fillet
100
AcDbLine
 10
6.55172
 20
100.663
 30
1.5
 11
5.51249
 21
100.063
 31
1.5
  0
LINE
  5
B1E
330
A02
100
AcDbEntity
  8
Fillet
100
AcDbLine
 10
8.05172
 20
98.0647
 30
1.5
 11
6.55172
 21
100.663
 31
1.5
  0
LINE
  5
B1F
330
A02
100
AcDbEntity
  8
Fillet
100
AcDbLine
 10
7.01249
 20
97.4647
 30
1.5
 11
8.05172
 21
98.0647
 31
1.5
  0
LINE
  5
B20
330
A02
100
AcDbEntity
  8
Fillet
100
AcDbLine
 10
7.92499
 20
95.8842
 30
1.5
 11
7.01249
 21
97.4647
 31
1.5
  0
LINE
  5
B21
330
A02
100
AcDbEntity
  8
Fillet
100
AcDbLine
 10
7.23217
 20
95.4842
 30
1.5
 11
7.92499
 21
95.8842
 31
1.5
  0
LINE
  5
B22
330
A02
100
AcDbEntity
  8
Fillet
100
AcDbLine
 10
8.01967
 20
94.1202
 30
1.5
 11
7.23217
 21
95.4842
 31
1.5
  0
LINE
  5
B23
330
A02
100
AcDbEntity
  8
Fillet
100
AcDbLine
 10
8.91167
 20
94.6352
 30
1.5
 11
8.01967
 21
94.1202
 31
1.5
  0
LINE
  5
B24
330
A02
100
AcDbEntity
  8
Fillet
100
AcDbLine
 10
15.9117
 20
82.5109
 30
1.5
 11
8.91167
 21
94.6352
 31
1.5
  0
LINE
  5
B25
330
A02
100
AcDbEntity
  8
Fillet
100
AcDbLine
 10
15.0197
 20
81.9959
 30
1.5
 11
15.9117
 21
82.5109
 31
1.5
  0
LINE
  5
B26
330
A02
100
AcDbEntity
  8
Fillet
100
AcDbLine
 10
15.8072
 20
80.6319
 30
1.5
 11
15.0197
 21
81.9959
 31
1.5
  0
LINE
  5
B27
330
A02
100
AcDbEntity
  8
Fillet
100
AcDbLine
 10
16.5
 20
81.0319
 30
1.5
 11
15.8072
 21
80.6319
 31
1.5
  0
LINE
  5
B28
330
A02
100
AcDbEntity
  8
Fillet
100
AcDbLine
 10
17.4125
 20
79.4514
 30
1.5
 11
16.5
 21
81.0319
 31
1.5
  0
LINE
  5
B29
330
A02
100
AcDbEntity
  8
Fillet
100
AcDbLine
 10
18.4517
 20
80.0514
 30
1.5
 11
17.4125
 21
79.4514
 31
1.5
  0
LINE
  5
B2A
330
A02
100
AcDbEntity
  8
Fillet
100
AcDbLine
 10
19.9517
 20
77.4533
 30
1.5
 11
18.4517
 21
80.0514
 31
1.5
  0
LINE
  5
B2B
330
A02
100
AcDbEntity
  8
Fillet
100
AcDbLine
 10
18.9125
 20
76.8533
 30
1.5
 11
19.9517
 21
77.4533
 31
1.5
  0
LINE
  5
B2C
330
A02
100
AcDbEntity
  8
Fillet
100
AcDbLine
 10
19.825
 20
75.2728
 30
1.5
 11
18.9125
 21
76.8533
 31
1.5
  0
LINE
  5
B2D
330
A02
100
AcDbEntity
  8
Fillet
100
AcDbLine
 10
14.395
 20
72.1378
 30
1.5
 11
19.825
 21
75.2728
 31
1.5
  0
LINE
  5
B2E
330
A02
100
AcDbEntity
  8
Fillet
100
AcDbLine
 10
14.8325
 20
71.38
 30
1.5
 11
14.395
 21
72.1378
 31
1.5
  0
LINE
  5
B2F
330
A02
100
AcDbEntity
  8
Fillet
100
AcDbLine
 10
12.4076
 20
69.98
 30
1.5
 11
14.8325
 21
71.38
 31
1.5
  0
LINE
  5
B30
330
A02
100
AcDbEntity
  8
Fillet
100
AcDbLine
 10
11.9701
 20
70.7378
 30
1.5
 11
12.4076
 21
69.98
 31
1.5
  0
LINE
  5
B31
330
A02
100
AcDbEntity
  8
Fillet
100
AcDbLine
 10
9.17288
 20
69.1228
 30
1.5
 11
11.9701
 21
70.7378
 31
1.5
  0
LINE
  5
B32
330
A02
100
AcDbEntity
  8
Fillet
100
AcDbLine
 10
5.84788
 20
74.8819
 30
1.5
 11
9.17288
 21
69.1228
 31
1.5
  0
LINE
  5
B33
330
A02
100
AcDbEntity
  8
Fillet
100
AcDbLine
 10
6.5407
 20
75.2819
 30
1.5
 11
5.84788
 21
74.8819
 31
1.5
  0
LINE
  5
B34
330
A02
100
AcDbEntity
  8
Fillet
100
AcDbLine
 10
5.7532
 20
76.6459
 30
1.5
 11
6.5407
 21
75.2819
 31
1.5
  0
LINE
  5
B35
330
A02
100
AcDbEntity
  8
Fillet
100
AcDbLine
 10
3.78732
 20
75.5109
 30
1.5
 11
5.7532
 21
76.6459
 31
1.5
  0
LINE
  5
B36
330
A02
100
AcDbEntity
  8
Fillet
100
AcDbLine
 10
-3.21268
 20
87.6352
 30
1.5
 11
3.78732
 21
75.5109
 31
1.5
  0
LINE
  5
B37
330
A02
100
AcDbEntity
  8
Fillet
100
AcDbLine
 10
-1.2468
 20
88.7702
 30
1.5
 11
-3.21268
 21
87.6352
 31
1.5
  0
LINE
  5
B38
330
A02
100
AcDbEntity
  8
Fillet
100
AcDbLine
 10
-2.0343
 20
90.1342
 30
1.5
 11
-1.2468
 21
88.7702
 31
1.5
  0
LINE
  5
B39
330
A02
100
AcDbEntity
  8
Fillet
100
AcDbLine
 10
-2.72712
 20
89.7342
 30
1.5
 11
-2.0343
 21
90.1342
 31
1.5
  0
LINE
  5
B3A
330
A02
100
AcDbEntity
  8
Fillet
100
AcDbLine
 10
-6.05212
 20
95.4933
 30
1.5
 11
-2.72712
 21
89.7342
 31
1.5
  0
LINE
  5
B3B
330
A02
100
AcDbEntity
  8
Fillet
100
AcDbLine
 10
-3.25486
 20
97.1083
 30
1.5
 11
-6.05212
 21
95.4933
 31
1.5
  0
LINE
  5
B3C
330
A02
100
AcDbEntity
  8
Fillet
100
AcDbLine
 10
-3.69236
 20
97.866
 30
1.5
 11
-3.25486
 21
97.1083
 31
1.5
  0
LINE
  5
B3D
330
A02
100
AcDbEntity
  8
Fillet
100
AcDbLine
 10
-1.26749
 20
99.266
 30
1.5
 11
-3.69236
 21
97.866
 31
1.5
  0
LINE
  5
B3E
330
A02
100
AcDbEntity
  8
Fillet
100
AcDbLine
 10
-0.829991
 20
98.5083
 30
1.5
 11
-1.26749
 21
99.266
 31
1.5
  0
LINE
  5
B3F
330
A02
100
AcDbEntity
  8
Fillet
100
AcDbLine
 10
4.59999
 20
101.643
 30
1.5
 11
-0.829991
 21
98.5083
 31
1.5
  0
LINE
  5
B40
330
A02
100
AcDbEntity
  8
Fillet
100
AcDbLine
 10
22.0125
 20
109.583
 30
1.5
 11
21.1
 21
111.163
 31
1.5
  0
LINE
  5
B41
330
A02
100
AcDbEntity
  8
Fillet
100
AcDbLine
 10
23.0517
 20
110.183
 30
1.5
 11
22.0125
 21
109.583
 31
1.5
  0
LINE
  5
B42
330
A02
100
AcDbEntity
  8
Fillet
100
AcDbLine
 10
24.5517
 20
107.585
 30
1.5
 11
23.0517
 21
110.183
 31
1.5
  0
LINE
  5
B43
330
A02
100
AcDbEntity
  8
Fillet
100
AcDbLine
 10
23.5125
 20
106.985
 30
1.5
 11
24.5517
 21
107.585
 31
1.5
  0
LINE
  5
B44
330
A02
100
AcDbEntity
  8
Fillet
100
AcDbLine
 10
24.425
 20
105.404
 30
1.5
 11
23.5125
 21
106.985
 31
1.5
  0
LINE
  5
B45
330
A02
100
AcDbEntity
  8
Fillet
100
AcDbLine
 10
23.7322
 20
105.004
 30
1.5
 11
24.425
 21
105.404
 31
1.5
  0
LINE
  5
B46
330
A02
100
AcDbEntity
  8
Fillet
100
AcDbLine
 10
24.5197
 20
103.64
 30
1.5
 11
23.7322
 21
105.004
 31
1.5
  0
LINE
  5
B47
330
A02
100
AcDbEntity
  8
Fillet
100
AcDbLine
 10
25.4117
 20
104.155
 30
1.5
 11
24.5197
 21
103.64
 31
1.5
  0
LINE
  5
B48
330
A02
100
AcDbEntity
  8
Fillet
100
AcDbLine
 10
32.4117
 20
92.0309
 30
1.5
 11
25.4117
 21
104.155
 31
1.5
  0
LINE
  5
B49
330
A02
100
AcDbEntity
  8
Fillet
100
AcDbLine
 10
31.5197
 20
91.5159
 30
1.5
 11
32.4117
 21
92.0309
 31
1.5
  0
LINE
  5
B4A
330
A02
100
AcDbEntity
  8
Fillet
100
AcDbLine
 10
32.3072
 20
90.1519
 30
1.5
 11
31.5197
 21
91.5159
 31
1.5
  0
LINE
  5
B4B
330
A02
100
AcDbEntity
  8
Fillet
100
AcDbLine
 10
33
 20
90.5519
 30
1.5
 11
32.3072
 21
90.1519
 31
1.5
  0
LINE
  5
B4C
330
A02
100
AcDbEntity
  8
Fillet
100
AcDbLine
 10
33.9125
 20
88.9714
 30
1.5
 11
33
 21
90.5519
 31
1.5
  0
LINE
  5
B4D
330
A02
100
AcDbEntity
  8
Fillet
100
AcDbLine
 10
34.9517
 20
89.5714
 30
1.5
 11
33.9125
 21
88.9714
 31
1.5
  0
LINE
  5
B4E
330
A02
100
AcDbEntity
  8
Fillet
100
AcDbLine
 10
36.4517
 20
86.9733
 30
1.5
 11
34.9517
 21
89.5714
 31
1.5
  0
LINE
  5
B4F
330
A02
100
AcDbEntity
  8
Fillet
100
AcDbLine
 10
35.4125
 20
86.3733
 30
1.5
 11
36.4517
 21
86.9733
 31
1.5
  0
LINE
  5
B50
330
A02
100
AcDbEntity
  8
Fillet
100
AcDbLine
 10
36.325
 20
84.7928
 30
1.5
 11
35.4125
 21
86.3733
 31
1.5
  0
LINE
  5
B51
330
A02
100
AcDbEntity
  8
Fillet
100
AcDbLine
 10
30.895
 20
81.6578
 30
1.5
 11
36.325
 21
84.7928
 31
1.5
  0
LINE
  5
B52
330
A02
100
AcDbEntity
  8
Fillet
100
AcDbLine
 10
31.3325
 20
80.9
 30
1.5
 11
30.895
 21
81.6578
 31
1.5
  0
LINE
  5
B53
330
A02
100
AcDbEntity
  8
Fillet
100
AcDbLine
 10
28.9076
 20
79.5
 30
1.5
 11
31.3325
 21
80.9
 31
1.5
  0
LINE
  5
B54
330
A02
100
AcDbEntity
  8
Fillet
100
AcDbLine
 10
28.4701
 20
80.2578
 30
1.5
 11
28.9076
 21
79.5
 31
1.5
  0
LINE
  5
B55
330
A02
100
AcDbEntity
  8
Fillet
100
AcDbLine
 10
25.6729
 20
78.6428
 30
1.5
 11
28.4701
 21
80.2578
 31
1.5
  0
LINE
  5
B56
330
A02
100
AcDbEntity
  8
Fillet
100
AcDbLine
 10
22.3479
 20
84.4019
 30
1.5
 11
25.6729
 21
78.6428
 31
1.5
  0
LINE
  5
B57
330
A02
100
AcDbEntity
  8
Fillet
100
AcDbLine
 10
23.0407
 20
84.8019
 30
1.5
 11
22.3479
 21
84.4019
 31
1.5
  0
LINE
  5
B58
330
A02
100
AcDbEntity
  8
Fillet
100
AcDbLine
 10
22.2532
 20
86.1659
 30
1.5
 11
23.0407
 21
84.8019
 31
1.5
  0
LINE
  5
B59
330
A02
100
AcDbEntity
  8
Fillet
100
AcDbLine
 10
20.2873
 20
85.0309
 30
1.5
 11
22.2532
 21
86.1659
 31
1.5
  0
LINE
  5
B5A
330
A02
100
AcDbEntity
  8
Fillet
100
AcDbLine
 10
13.2873
 20
97.1552
 30
1.5
 11
20.2873
 21
85.0309
 31
1.5
  0
LINE
  5
B5B
330
A02
100
AcDbEntity
  8
Fillet
100
AcDbLine
 10
15.2532
 20
98.2902
 30
1.5
 11
13.2873
 21
97.1552
 31
1.5
  0
LINE
  5
B5C
330
A02
100
AcDbEntity
  8
Fillet
100
AcDbLine
 10
14.4657
 20
99.6542
 30
1.5
 11
15.2532
 21
98.2902
 31
1.5
  0
LINE
  5
B5D
330
A02
100
AcDbEntity
  8
Fillet
100
AcDbLine
 10
13.7729
 20
99.2542
 30
1.5
 11
14.4657
 21
99.6542
 31
1.5
  0
LINE
  5
B5E
330
A02
100
AcDbEntity
  8
Fillet
100
AcDbLine
 10
10.4479
 20
105.013
 30
1.5
 11
13.7729
 21
99.2542
 31
1.5
  0
LINE
  5
B5F
330
A02
100
AcDbEntity
  8
Fillet
100
AcDbLine
 10
13.2451
 20
106.628
 30
1.5
 11
10.4479
 21
105.013
 31
1.5
  0
LINE
  5
B60
330
A02
100
AcDbEntity
  8
Fillet
100
AcDbLine
 10
12.8076
 20
107.386
 30
1.5
 11
13.2451
 21
106.628
 31
1.5
  0
LINE
  5
B61
330
A02
100
AcDbEntity
  8
Fillet
100
AcDbLine
 10
15.2325
 20
108.786
 30
1.5
 11
12.8076
 21
107.386
 31
1.5
  0
LINE
  5
B62
330
A02
100
AcDbEntity
  8
Fillet
100
AcDbLine
 10
15.67
 20
108.028
 30
1.5
 11
15.2325
 21
108.786
 31
1.5
  0
LINE
  5
B63
330
A02
100
AcDbEntity
  8
Fillet
100
AcDbLine
 10
21.1
 20
111.163
 30
1.5
 11
15.67
 21
108.028
 31
1.5
  0
LINE
  5
B64
330
A02
100
AcDbEntity
  8
Fillet
100
AcDbLine
 10
46.6678
 20
105.445
 30
1.5
 11
34.5391
 21
98.4383
 31
1.5
  0
LINE
  5
B65
330
A02
100
AcDbEntity
  8
Fillet
100
AcDbLine
 10
53.6528
 20
93.3161
 30
1.5
 11
46.6678
 21
105.445
 31
1.5
  0
LINE
  5
B66
330
A02
100
AcDbEntity
  8
Fillet
100
AcDbLine
 10
41.5453
 20
86.3102
 30
1.5
 11
53.6528
 21
93.3161
 31
1.5
  0
LINE
  5
B67
330
A02
100
AcDbEntity
  8
Fillet
100
AcDbLine
 10
34.5391
 20
98.4383
 30
1.5
 11
41.5453
 21
86.3102
 31
1.5
  0
CIRCLE
  5
B68
330
A02
100
AcDbEntity
  8
Fillet
100
AcDbCircle
 10
4.15344
 20
107.955
 40
1.2
  0
LINE
  5
B69
330
A02
100
AcDbEntity
  8
Fillet
100
AcDbLine
 10
24.1039
 20
119.839
 30
1.5
 11
24.1039
 21
133.829
 31
1.5
  0
LINE
  5
B6A
330
A02
100
AcDbEntity
  8
Fillet
100
AcDbLine
 10
10.0919
 20
119.839
 30
1.5
 11
24.1039
 21
119.839
 31
1.5
  0
LINE
  5
B6B
330
A02
100
AcDbEntity
  8
Fillet
100
AcDbLine
 10
10.0919
 20
133.829
 30
1.5
 11
10.0919
 21
119.839
 31
1.5
  0
LINE
  5
B6C
330
A02
100
AcDbEntity
  8
Fillet
100
AcDbLine
 10
24.1039
 20
133.829
 30
1.5
 11
10.0919
 21
133.829
 31
1.5
  0
CIRCLE
  5
B6D
330
A02
100
AcDbEntity
  8
Fillet
100
AcDbCircle
 10
32.5926
 20
105.359
 40
1.2
  0
LINE
  5
B6E
330
A02
100
AcDbEntity
  8
Fillet
100
AcDbLine
 10
29.1419
 20
124.305
 30
1.5
 11
43.1539
 21
124.305
 31
1.5
  0
LINE
  5
B6F
330
A02
100
AcDbEntity
  8
Fillet
100
AcDbLine
 10
43.1539
 20
124.305
 30
1.5
 11
43.1539
 21
110.313
 31
1.5
  0
LINE
  5
B70
330
A02
100
AcDbEntity
  8
Fillet
100
AcDbLine
 10
43.1539
 20
110.313
 30
1.5
 11
29.1419
 21
110.313
 31
1.5
  0
LINE
  5
B71
330
A02
100
AcDbEntity
  8
Fillet
100
AcDbLine
 10
29.1419
 20
110.313
 30
1.5
 11
29.1419
 21
124.305
 31
1.5
  0
LINE
  5
B72
330
A02
100
AcDbEntity
  8
Fillet
100
AcDbLine
 10
62.2039
 20
112.684
 30
1.5
 11
62.2039
 21
126.696
 31
1.5
  0
LINE
  5
B73
330
A02
100
AcDbEntity
  8
Fillet
100
AcDbLine
 10
48.1919
 20
112.684
 30
1.5
 11
62.2039
 21
112.684
 31
1.5
  0
LINE
  5
B74
330
A02
100
AcDbEntity
  8
Fillet
100
AcDbLine
 10
48.1919
 20
126.696
 30
1.5
 11
48.1919
 21
112.684
 31
1.5
  0
LINE
  5
B75
330
A02
100
AcDbEntity
  8
Fillet
100
AcDbLine
 10
62.2039
 20
126.696
 30
1.5
 11
48.1919
 21
126.696
 31
1.5
  0
LINE
  5
B76
330
A02
100
AcDbEntity
  8
Fillet
100
AcDbLine
 10
119.354
 20
88.8713
 30
1.5
 11
119.354
 21
102.883
 31
1.5
  0
LINE
  5
B77
330
A02
100
AcDbEntity
  8
Fillet
100
AcDbLine
 10
105.342
 20
88.8713
 30
1.5
 11
119.354
 21
88.8713
 31
1.5
  0
LINE
  5
B78
330
A02
100
AcDbEntity
  8
Fillet
100
AcDbLine
 10
105.342
 20
102.883
 30
1.5
 11
105.342
 21
88.8713
 31
1.5
  0
LINE
  5
B79
330
A02
100
AcDbEntity
  8
Fillet
100
AcDbLine
 10
119.354
 20
102.883
 30
1.5
 11
105.342
 21
102.883
 31
1.5
  0
LINE
  5
B7A
330
A02
100
AcDbEntity
  8
Fillet
100
AcDbLine
 10
138.404
 20
88.8713
 30
1.5
 11
124.392
 21
88.8713
 31
1.5
  0
LINE
  5
B7B
330
A02
100
AcDbEntity
  8
Fillet
100
AcDbLine
 10
124.392
 20
88.8713
 30
1.5
 11
124.392
 21
102.883
 31
1.5
  0
LINE
  5
B7C
330
A02
100
AcDbEntity
  8
Fillet
100
AcDbLine
 10
124.392
 20
102.883
 30
1.5
 11
138.404
 21
102.883
 31
1.5
  0
LINE
  5
B7D
330
A02
100
AcDbEntity
  8
Fillet
100
AcDbLine
 10
138.404
 20
102.883
 30
1.5
 11
138.404
 21
88.8713
 31
1.5
  0
LINE
  5
B7E
330
A02
100
AcDbEntity
  8
Fillet
100
AcDbLine
 10
73.6342
 20
93.6147
 30
1.5
 11
59.6216
 21
93.6147
 31
1.5
  0
LINE
  5
B7F
330
A02
100
AcDbEntity
  8
Fillet
100
AcDbLine
 10
59.6216
 20
93.6147
 30
1.5
 11
59.6216
 21
107.626
 31
1.5
  0
LINE
  5
B80
330
A02
100
AcDbEntity
  8
Fillet
100
AcDbLine
 10
59.6216
 20
107.626
 30
1.5
 11
73.6342
 21
107.626
 31
1.5
  0
LINE
  5
B81
330
A02
100
AcDbEntity
  8
Fillet
100
AcDbLine
 10
73.6342
 20
107.626
 30
1.5
 11
73.6342
 21
93.6147
 31
1.5
  0
CIRCLE
  5
B82
330
A02
100
AcDbEntity
  8
Fillet
100
AcDbCircle
 10
83.2719
 20
112.721
 40
1.2
  0
LINE
  5
B83
330
A02
100
AcDbEntity
  8
Fillet
100
AcDbLine
 10
86.2916
 20
107.646
 30
1.5
 11
100.304
 21
107.646
 31
1.5
  0
LINE
  5
B84
330
A02
100
AcDbEntity
  8
Fillet
100
AcDbLine
 10
100.304
 20
107.646
 30
1.5
 11
100.304
 21
93.6337
 31
1.5
  0
LINE
  5
B85
330
A02
100
AcDbEntity
  8
Fillet
100
AcDbLine
 10
100.304
 20
93.6337
 30
1.5
 11
86.2916
 21
93.6337
 31
1.5
  0
LINE
  5
B86
330
A02
100
AcDbEntity
  8
Fillet
100
AcDbLine
 10
86.2916
 20
93.6337
 30
1.5
 11
86.2916
 21
107.646
 31
1.5
  0
LINE
  5
B87
330
A02
100
AcDbEntity
  8
Fillet
100
AcDbLine
 10
81.2542
 20
115.076
 30
1.5
 11
81.2542
 21
129.066
 31
1.5
  0
LINE
  5
B88
330
A02
100
AcDbEntity
  8
Fillet
100
AcDbLine
 10
67.2419
 20
115.076
 30
1.5
 11
81.2542
 21
115.076
 31
1.5
  0
LINE
  5
B89
330
A02
100
AcDbEntity
  8
Fillet
100
AcDbLine
 10
67.2419
 20
129.066
 30
1.5
 11
67.2419
 21
115.076
 31
1.5
  0
LINE
  5
B8A
330
A02
100
AcDbEntity
  8
Fillet
100
AcDbLine
 10
81.2542
 20
129.066
 30
1.5
 11
67.2419
 21
129.066
 31
1.5
  0
LINE
  5
B8B
330
A02
100
AcDbEntity
  8
Fillet
100
AcDbLine
 10
86.2916
 20
112.684
 30
1.5
 11
100.304
 21
112.684
 31
1.5
  0
LINE
  5
B8C
330
A02
100
AcDbEntity
  8
Fillet
100
AcDbLine
 10
86.2916
 20
126.696
 30
1.5
 11
86.2916
 21
112.684
 31
1.5
  0
LINE
  5
B8D
330
A02
100
AcDbEntity
  8
Fillet
100
AcDbLine
 10
100.304
 20
126.696
 30
1.5
 11
86.2916
 21
126.696
 31
1.5
  0
LINE
  5
B8E
330
A02
100
AcDbEntity
  8
Fillet
100
AcDbLine
 10
100.304
 20
112.684
 30
1.5
 11
100.304
 21
126.696
 31
1.5
  0
CIRCLE
  5
B8F
330
A02
100
AcDbEntity
  8
Fillet
100
AcDbCircle
 10
121.893
 20
105.113
 40
1.2
  0
LINE
  5
B90
330
A02
100
AcDbEntity
  8
Fillet
100
AcDbLine
 10
105.342
 20
121.934
 30
1.5
 11
105.342
 21
107.921
 31
1.5
  0
LINE
  5
B91
330
A02
100
AcDbEntity
  8
Fillet
100
AcDbLine
 10
119.354
 20
121.934
 30
1.5
 11
105.342
 21
121.934
 31
1.5
  0
LINE
  5
B92
330
A02
100
AcDbEntity
  8
Fillet
100
AcDbLine
 10
119.354
 20
107.921
 30
1.5
 11
119.354
 21
121.934
 31
1.5
  0
LINE
  5
B93
330
A02
100
AcDbEntity
  8
Fillet
100
AcDbLine
 10
105.342
 20
107.921
 30
1.5
 11
119.354
 21
107.921
 31
1.5
  0
LINE
  5
B94
330
A02
100
AcDbEntity
  8
Fillet
100
AcDbLine
 10
124.392
 20
121.934
 30
1.5
 11
138.404
 21
121.934
 31
1.5
  0
LINE
  5
B95
330
A02
100
AcDbEntity
  8
Fillet
100
AcDbLine
 10
138.404
 20
121.934
 30
1.5
 11
138.404
 21
107.921
 31
1.5
  0
LINE
  5
B96
330
A02
100
AcDbEntity
  8
Fillet
100
AcDbLine
 10
138.404
 20
107.921
 30
1.5
 11
124.392
 21
107.921
 31
1.5
  0
LINE
  5
B97
330
A02
100
AcDbEntity
  8
Fillet
100
AcDbLine
 10
124.392
 20
107.921
 30
1.5
 11
124.392
 21
121.934
 31
1.5
  0
LINE
  5
B98
330
A02
100
AcDbEntity
  8
Fillet
100
AcDbLine
 10
24.1039
 20
152.879
 30
1.5
 11
10.0919
 21
152.879
 31
1.5
  0
LINE
  5
B99
330
A02
100
AcDbEntity
  8
Fillet
100
AcDbLine
 10
24.1039
 20
138.888
 30
1.5
 11
24.1039
 21
152.879
 31
1.5
  0
LINE
  5
B9A
330
A02
100
AcDbEntity
  8
Fillet
100
AcDbLine
 10
10.0919
 20
138.888
 30
1.5
 11
24.1039
 21
138.888
 31
1.5
  0
LINE
  5
B9B
330
A02
100
AcDbEntity
  8
Fillet
100
AcDbLine
 10
10.0919
 20
152.879
 30
1.5
 11
10.0919
 21
138.888
 31
1.5
  0
LINE
  5
B9C
330
A02
100
AcDbEntity
  8
Fillet
100
AcDbLine
 10
29.1419
 20
143.354
 30
1.5
 11
43.1539
 21
143.354
 31
1.5
  0
LINE
  5
B9D
330
A02
100
AcDbEntity
  8
Fillet
100
AcDbLine
 10
43.1539
 20
143.354
 30
1.5
 11
43.1539
 21
129.363
 31
1.5
  0
LINE
  5
B9E
330
A02
100
AcDbEntity
  8
Fillet
100
AcDbLine
 10
43.1539
 20
129.363
 30
1.5
 11
29.1419
 21
129.363
 31
1.5
  0
LINE
  5
B9F
330
A02
100
AcDbEntity
  8
Fillet
100
AcDbLine
 10
29.1419
 20
129.363
 30
1.5
 11
29.1419
 21
143.354
 31
1.5
  0
LINE
  5
BA0
330
A02
100
AcDbEntity
  8
Fillet
100
AcDbLine
 10
62.2039
 20
131.734
 30
1.5
 11
62.2039
 21
145.746
 31
1.5
  0
LINE
  5
BA1
330
A02
100
AcDbEntity
  8
Fillet
100
AcDbLine
 10
48.1919
 20
131.734
 30
1.5
 11
62.2039
 21
131.734
 31
1.5
  0
LINE
  5
BA2
330
A02
100
AcDbEntity
  8
Fillet
100
AcDbLine
 10
48.1919
 20
145.746
 30
1.5
 11
48.1919
 21
131.734
 31
1.5
  0
LINE
  5
BA3
330
A02
100
AcDbEntity
  8
Fillet
100
AcDbLine
 10
62.2039
 20
145.746
 30
1.5
 11
48.1919
 21
145.746
 31
1.5
  0
LINE
  5
BA4
330
A02
100
AcDbEntity
  8
Fillet
100
AcDbLine
 10
29.1419
 20
162.404
 30
1.5
 11
43.1539
 21
162.404
 31
1.5
  0
LINE
  5
BA5
330
A02
100
AcDbEntity
  8
Fillet
100
AcDbLine
 10
43.1539
 20
162.404
 30
1.5
 11
43.1539
 21
148.413
 31
1.5
  0
LINE
  5
BA6
330
A02
100
AcDbEntity
  8
Fillet
100
AcDbLine
 10
43.1539
 20
148.413
 30
1.5
 11
29.1419
 21
148.413
 31
1.5
  0
LINE
  5
BA7
330
A02
100
AcDbEntity
  8
Fillet
100
AcDbLine
 10
29.1419
 20
148.413
 30
1.5
 11
29.1419
 21
162.404
 31
1.5
  0
LINE
  5
BA8
330
A02
100
AcDbEntity
  8
Fillet
100
AcDbLine
 10
48.1919
 20
164.796
 30
1.5
 11
48.1919
 21
150.784
 31
1.5
  0
LINE
  5
BA9
330
A02
100
AcDbEntity
  8
Fillet
100
AcDbLine
 10
62.2039
 20
164.796
 30
1.5
 11
48.1919
 21
164.796
 31
1.5
  0
LINE
  5
BAA
330
A02
100
AcDbEntity
  8
Fillet
100
AcDbLine
 10
62.2039
 20
150.784
 30
1.5
 11
62.2039
 21
164.796
 31
1.5
  0
LINE
  5
BAB
330
A02
100
AcDbEntity
  8
Fillet
100
AcDbLine
 10
48.1919
 20
150.784
 30
1.5
 11
62.2039
 21
150.784
 31
1.5
  0
LINE
  5
BAC
330
A02
100
AcDbEntity
  8
Fillet
100
AcDbLine
 10
10.0919
 20
157.938
 30
1.5
 11
24.1039
 21
157.938
 31
1.5
  0
LINE
  5
BAD
330
A02
100
AcDbEntity
  8
Fillet
100
AcDbLine
 10
10.0919
 20
171.929
 30
1.5
 11
10.0919
 21
157.938
 31
1.5
  0
LINE
  5
BAE
330
A02
100
AcDbEntity
  8
Fillet
100
AcDbLine
 10
24.1039
 20
171.929
 30
1.5
 11
10.0919
 21
171.929
 31
1.5
  0
LINE
  5
BAF
330
A02
100
AcDbEntity
  8
Fillet
100
AcDbLine
 10
24.1039
 20
157.938
 30
1.5
 11
24.1039
 21
171.929
 31
1.5
  0
CIRCLE
  5
BB0
330
A02
100
AcDbEntity
  8
Fillet
100
AcDbCircle
 10
26.634
 20
165.045
 40
1.2
  0
LINE
  5
BB1
330
A02
100
AcDbEntity
  8
Fillet
100
AcDbLine
 10
29.1419
 20
181.454
 30
1.5
 11
29.1419
 21
167.463
 31
1.5
  0
LINE
  5
BB2
330
A02
100
AcDbEntity
  8
Fillet
100
AcDbLine
 10
43.1539
 20
181.454
 30
1.5
 11
29.1419
 21
181.454
 31
1.5
  0
LINE
  5
BB3
330
A02
100
AcDbEntity
  8
Fillet
100
AcDbLine
 10
43.1539
 20
167.463
 30
1.5
 11
43.1539
 21
181.454
 31
1.5
  0
LINE
  5
BB4
330
A02
100
AcDbEntity
  8
Fillet
100
AcDbLine
 10
29.1419
 20
167.463
 30
1.5
 11
43.1539
 21
167.463
 31
1.5
  0
LINE
  5
BB5
330
A02
100
AcDbEntity
  8
Fillet
100
AcDbLine
 10
62.2039
 20
183.846
 30
1.5
 11
48.1919
 21
183.846
 31
1.5
  0
LINE
  5
BB6
330
A02
100
AcDbEntity
  8
Fillet
100
AcDbLine
 10
62.2039
 20
169.834
 30
1.5
 11
62.2039
 21
183.846
 31
1.5
  0
LINE
  5
BB7
330
A02
100
AcDbEntity
  8
Fillet
100
AcDbLine
 10
48.1919
 20
169.834
 30
1.5
 11
62.2039
 21
169.834
 31
1.5
  0
LINE
  5
BB8
330
A02
100
AcDbEntity
  8
Fillet
100
AcDbLine
 10
48.1919
 20
183.846
 30
1.5
 11
48.1919
 21
169.834
 31
1.5
  0
LINE
  5
BB9
330
A02
100
AcDbEntity
  8
Fillet
100
AcDbLine
 10
67.2419
 20
134.125
 30
1.5
 11
81.2542
 21
134.125
 31
1.5
  0
LINE
  5
BBA
330
A02
100
AcDbEntity
  8
Fillet
100
AcDbLine
 10
67.2419
 20
148.117
 30
1.5
 11
67.2419
 21
134.125
 31
1.5
  0
LINE
  5
BBB
330
A02
100
AcDbEntity
  8
Fillet
100
AcDbLine
 10
81.2542
 20
148.117
 30
1.5
 11
67.2419
 21
148.117
 31
1.5
  0
LINE
  5
BBC
330
A02
100
AcDbEntity
  8
Fillet
100
AcDbLine
 10
81.2542
 20
134.125
 30
1.5
 11
81.2542
 21
148.117
 31
1.5
  0
LINE
  5
BBD
330
A02
100
AcDbEntity
  8
Fillet
100
AcDbLine
 10
100.304
 20
131.734
 30
1.5
 11
100.304
 21
145.746
 31
1.5
  0
LINE
  5
BBE
330
A02
100
AcDbEntity
  8
Fillet
100
AcDbLine
 10
86.2916
 20
131.734
 30
1.5
 11
100.304
 21
131.734
 31
1.5
  0
LINE
  5
BBF
330
A02
100
AcDbEntity
  8
Fillet
100
AcDbLine
 10
86.2916
 20
145.746
 30
1.5
 11
86.2916
 21
131.734
 31
1.5
  0
LINE
  5
BC0
330
A02
100
AcDbEntity
  8
Fillet
100
AcDbLine
 10
100.304
 20
145.746
 30
1.5
 11
86.2916
 21
145.746
 31
1.5
  0
CIRCLE
  5
BC1
330
A02
100
AcDbEntity
  8
Fillet
100
AcDbCircle
 10
83.7882
 20
148.29
 40
1.2
  0
LINE
  5
BC2
330
A02
100
AcDbEntity
  8
Fillet
100
AcDbLine
 10
86.2916
 20
164.796
 30
1.5
 11
100.304
 21
164.796
 31
1.5
  0
LINE
  5
BC3
330
A02
100
AcDbEntity
  8
Fillet
100
AcDbLine
 10
100.304
 20
164.796
 30
1.5
 11
100.304
 21
150.784
 31
1.5
  0
LINE
  5
BC4
330
A02
100
AcDbEntity
  8
Fillet
100
AcDbLine
 10
100.304
 20
150.784
 30
1.5
 11
86.2916
 21
150.784
 31
1.5
  0
LINE
  5
BC5
330
A02
100
AcDbEntity
  8
Fillet
100
AcDbLine
 10
86.2916
 20
150.784
 30
1.5
 11
86.2916
 21
164.796
 31
1.5
  0
LINE
  5
BC6
330
A02
100
AcDbEntity
  8
Fillet
100
AcDbLine
 10
119.354
 20
140.984
 30
1.5
 11
105.342
 21
140.984
 31
1.5
  0
LINE
  5
BC7
330
A02
100
AcDbEntity
  8
Fillet
100
AcDbLine
 10
119.354
 20
126.971
 30
1.5
 11
119.354
 21
140.984
 31
1.5
  0
LINE
  5
BC8
330
A02
100
AcDbEntity
  8
Fillet
100
AcDbLine
 10
105.342
 20
126.971
 30
1.5
 11
119.354
 21
126.971
 31
1.5
  0
LINE
  5
BC9
330
A02
100
AcDbEntity
  8
Fillet
100
AcDbLine
 10
105.342
 20
140.984
 30
1.5
 11
105.342
 21
126.971
 31
1.5
  0
LINE
  5
BCA
330
A02
100
AcDbEntity
  8
Fillet
100
AcDbLine
 10
124.392
 20
140.984
 30
1.5
 11
138.404
 21
140.984
 31
1.5
  0
LINE
  5
BCB
330
A02
100
AcDbEntity
  8
Fillet
100
AcDbLine
 10
138.404
 20
140.984
 30
1.5
 11
138.404
 21
126.971
 31
1.5
  0
LINE
  5
BCC
330
A02
100
AcDbEntity
  8
Fillet
100
AcDbLine
 10
138.404
 20
126.971
 30
1.5
 11
124.392
 21
126.971
 31
1.5
  0
LINE
  5
BCD
330
A02
100
AcDbEntity
  8
Fillet
100
AcDbLine
 10
124.392
 20
126.971
 30
1.5
 11
124.392
 21
140.984
 31
1.5
  0
LINE
  5
BCE
330
A02
100
AcDbEntity
  8
Fillet
100
AcDbLine
 10
119.354
 20
146.021
 30
1.5
 11
119.354
 21
160.034
 31
1.5
  0
LINE
  5
BCF
330
A02
100
AcDbEntity
  8
Fillet
100
AcDbLine
 10
105.342
 20
146.021
 30
1.5
 11
119.354
 21
146.021
 31
1.5
  0
LINE
  5
BD0
330
A02
100
AcDbEntity
  8
Fillet
100
AcDbLine
 10
105.342
 20
160.034
 30
1.5
 11
105.342
 21
146.021
 31
1.5
  0
LINE
  5
BD1
330
A02
100
AcDbEntity
  8
Fillet
100
AcDbLine
 10
119.354
 20
160.034
 30
1.5
 11
105.342
 21
160.034
 31
1.5
  0
LINE
  5
BD2
330
A02
100
AcDbEntity
  8
Fillet
100
AcDbLine
 10
124.392
 20
160.034
 30
1.5
 11
138.404
 21
160.034
 31
1.5
  0
LINE
  5
BD3
330
A02
100
AcDbEntity
  8
Fillet
100
AcDbLine
 10
138.404
 20
160.034
 30
1.5
 11
138.404
 21
146.021
 31
1.5
  0
LINE
  5
BD4
330
A02
100
AcDbEntity
  8
Fillet
100
AcDbLine
 10
138.404
 20
146.021
 30
1.5
 11
124.392
 21
146.021
 31
1.5
  0
LINE
  5
BD5
330
A02
100
AcDbEntity
  8
Fillet
100
AcDbLine
 10
124.392
 20
146.021
 30
1.5
 11
124.392
 21
160.034
 31
1.5
  0
LINE
  5
BD6
330
A02
100
AcDbEntity
  8
Fillet
100
AcDbLine
 10
81.2542
 20
153.175
 30
1.5
 11
81.2542
 21
167.167
 31
1.5
  0
LINE
  5
BD7
330
A02
100
AcDbEntity
  8
Fillet
100
AcDbLine
 10
67.2419
 20
153.175
 30
1.5
 11
81.2542
 21
153.175
 31
1.5
  0
LINE
  5
BD8
330
A02
100
AcDbEntity
  8
Fillet
100
AcDbLine
 10
67.2419
 20
167.167
 30
1.5
 11
67.2419
 21
153.175
 31
1.5
  0
LINE
  5
BD9
330
A02
100
AcDbEntity
  8
Fillet
100
AcDbLine
 10
81.2542
 20
167.167
 30
1.5
 11
67.2419
 21
167.167
 31
1.5
  0
LINE
  5
BDA
330
A02
100
AcDbEntity
  8
Fillet
100
AcDbLine
 10
81.2542
 20
186.216
 30
1.5
 11
81.2542
 21
172.225
 31
1.5
  0
LINE
  5
BDB
330
A02
100
AcDbEntity
  8
Fillet
100
AcDbLine
 10
81.2542
 20
172.225
 30
1.5
 11
67.2419
 21
172.225
 31
1.5
  0
LINE
  5
BDC
330
A02
100
AcDbEntity
  8
Fillet
100
AcDbLine
 10
67.2419
 20
172.225
 30
1.5
 11
67.2419
 21
186.216
 31
1.5
  0
LINE
  5
BDD
330
A02
100
AcDbEntity
  8
Fillet
100
AcDbLine
 10
67.2419
 20
186.216
 30
1.5
 11
81.2542
 21
186.216
 31
1.5
  0
LINE
  5
BDE
330
A02
100
AcDbEntity
  8
Fillet
100
AcDbLine
 10
100.304
 20
169.834
 30
1.5
 11
100.304
 21
183.846
 31
1.5
  0
LINE
  5
BDF
330
A02
100
AcDbEntity
  8
Fillet
100
AcDbLine
 10
86.2916
 20
169.834
 30
1.5
 11
100.304
 21
169.834
 31
1.5
  0
LINE
  5
BE0
330
A02
100
AcDbEntity
  8
Fillet
100
AcDbLine
 10
86.2916
 20
183.846
 30
1.5
 11
86.2916
 21
169.834
 31
1.5
  0
LINE
  5
BE1
330
A02
100
AcDbEntity
  8
Fillet
100
AcDbLine
 10
100.304
 20
183.846
 30
1.5
 11
86.2916
 21
183.846
 31
1.5
  0
CIRCLE
  5
BE2
330
A02
100
AcDbEntity
  8
Fillet
100
AcDbCircle
 10
90.014
 20
187.399
 40
1.2
  0
LINE
  5
BE3
330
A02
100
AcDbEntity
  8
Fillet
100
AcDbLine
 10
105.342
 20
165.071
 30
1.5
 11
105.342
 21
179.084
 31
1.5
  0
LINE
  5
BE4
330
A02
100
AcDbEntity
  8
Fillet
100
AcDbLine
 10
105.342
 20
179.084
 30
1.5
 11
119.354
 21
179.084
 31
1.5
  0
LINE
  5
BE5
330
A02
100
AcDbEntity
  8
Fillet
100
AcDbLine
 10
119.354
 20
179.084
 30
1.5
 11
119.354
 21
165.071
 31
1.5
  0
LINE
  5
BE6
330
A02
100
AcDbEntity
  8
Fillet
100
AcDbLine
 10
119.354
 20
165.071
 30
1.5
 11
105.342
 21
165.071
 31
1.5
  0
CIRCLE
  5
BE7
330
A02
100
AcDbEntity
  8
Fillet
100
AcDbCircle
 10
121.883
 20
162.498
 40
1.2
  0
LINE
  5
BE8
330
A02
100
AcDbEntity
  8
Fillet
100
AcDbLine
 10
138.404
 20
179.084
 30
1.5
 11
138.404
 21
165.071
 31
1.5
  0
LINE
  5
BE9
330
A02
100
AcDbEntity
  8
Fillet
100
AcDbLine
 10
138.404
 20
165.071
 30
1.5
 11
124.392
 21
165.071
 31
1.5
  0
LINE
  5
BEA
330
A02
100
AcDbEntity
  8
Fillet
100
AcDbLine
 10
124.392
 20
165.071
 30
1.5
 11
124.392
 21
179.084
 31
1.5
  0
LINE
  5
BEB
330
A02
100
AcDbEntity
  8
Fillet
100
AcDbLine
 10
124.392
 20
179.084
 30
1.5
 11
138.404
 21
179.084
 31
1.5
  0
ARC
  5
BEC
330
A02
100
AcDbEntity
  8
Fillet
100
AcDbCircle
 10
84.6922
 20
194.724
 30
1.3
 40
0.2
100
AcDbArc
 50
0
 51
77.37
  0
ARC
  5
BED
330
A02
100
AcDbEntity
  8
Fillet
100
AcDbCircle
 10
83.6427
 20
190.04
 30
1.3
 40
5
100
AcDbArc
 50
77.37
 51
90
  0
ARC
  5
BEE
330
A02
100
AcDbEntity
  8
Fillet
100
AcDbCircle
 10
83.6427
 20
194.84
 30
1.3
 40
0.2
100
AcDbArc
 50
0
 51
90
  0
ARC
  5
BEF
330
A02
100
AcDbEntity
  8
Fillet
100
AcDbCircle
 10
83.6427
 20
190.04
 30
1.5
 40
4.8
100
AcDbArc
 50
77.37
 51
90
  0
LINE
  5
BF0
330
A02
100
AcDbEntity
  8
Fillet
100
AcDbLine
 10
83.6427
 20
195.04
 30
0
 11
83.6427
 21
195.04
 31
1.3
  0
LINE
  5
BF1
330
A02
100
AcDbEntity
  8
Fillet
100
AcDbLine
 10
83.6427
 20
195.04
 30
1.3
 11
46.4104
 21
195.04
 31
1.3
  0
LINE
  5
BF2
330
A02
100
AcDbEntity
  8
Fillet
100
AcDbLine
 10
46.4104
 20
195.04
 30
0
 11
46.4104
 21
195.04
 31
1.3
  0
LINE
  5
BF3
330
A02
100
AcDbEntity
  8
Fillet
100
AcDbLine
 10
83.6427
 20
195.04
 30
0
 11
46.4104
 21
195.04
 31
0
  0
LINE
  5
BF4
330
A02
100
AcDbEntity
  8
Fillet
100
AcDbLine
 10
139.909
 20
86.12
 30
0
 11
139.909
 21
86.12
 31
1.3
  0
ARC
  5
BF5
330
A02
100
AcDbEntity
  8
Fillet
100
AcDbCircle
 10
139.909
 20
87.62
 30
1.3
 40
1.5
100
AcDbArc
 50
-90
 51
0
  0
LINE
  5
BF6
330
A02
100
AcDbEntity
  8
Fillet
100
AcDbLine
 10
141.409
 20
87.62
 30
0
 11
141.409
 21
87.62
 31
1.3
  0
ARC
  5
BF7
330
A02
100
AcDbEntity
  8
Fillet
100
AcDbCircle
 10
139.909
 20
87.62
 30
0
 40
1.5
100
AcDbArc
 50
-90
 51
0
  0
LINE
  5
BF8
330
A02
100
AcDbEntity
  8
Fillet
100
AcDbLine
 10
46.4104
 20
195.04
 30
0
 11
46.4104
 21
195.04
 31
1.3
  0
ARC
  5
BF9
330
A02
100
AcDbEntity
  8
Fillet
100
AcDbCircle
 10
46.4104
 20
192.54
 30
1.3
 40
2.5
100
AcDbArc
 50
90
 51
124.99
  0
LINE
  5
BFA
330
A02
100
AcDbEntity
  8
Fillet
100
AcDbLine
 10
44.9768
 20
194.588
 30
0
 11
44.9768
 21
194.588
 31
1.3
  0
ARC
  5
BFB
330
A02
100
AcDbEntity
  8
Fillet
100
AcDbCircle
 10
46.4104
 20
192.54
 30
0
 40
2.5
100
AcDbArc
 50
90
 51
124.99
  0
LINE
  5
BFC
330
A02
100
AcDbEntity
  8
Fillet
100
AcDbLine
 10
47.2485
 20
86.12
 30
0
 11
47.2485
 21
86.12
 31
1.3
  0
LINE
  5
BFD
330
A02
100
AcDbEntity
  8
Fillet
100
AcDbLine
 10
47.2485
 20
86.12
 30
1.3
 11
139.909
 21
86.12
 31
1.3
  0
LINE
  5
BFE
330
A02
100
AcDbEntity
  8
Fillet
100
AcDbLine
 10
139.909
 20
86.12
 30
0
 11
139.909
 21
86.12
 31
1.3
  0
LINE
  5
BFF
330
A02
100
AcDbEntity
  8
Fillet
100
AcDbLine
 10
47.2485
 20
86.12
 30
0
 11
139.909
 21
86.12
 31
0
  0
LINE
  5
C00
330
A02
100
AcDbEntity
  8
Fillet
100
AcDbLine
 10
44.9768
 20
194.588
 30
0
 11
44.9768
 21
194.588
 31
1.3
  0
LINE
  5
C01
330
A02
100
AcDbEntity
  8
Fillet
100
AcDbLine
 10
44.9768
 20
194.588
 30
1.3
 11
33.9813
 21
186.892
 31
1.3
  0
LINE
  5
C02
330
A02
100
AcDbEntity
  8
Fillet
100
AcDbLine
 10
33.9813
 20
186.892
 30
0
 11
33.9813
 21
186.892
 31
1.3
  0
LINE
  5
C03
330
A02
100
AcDbEntity
  8
Fillet
100
AcDbLine
 10
44.9768
 20
194.588
 30
0
 11
33.9813
 21
186.892
 31
0
  0
LINE
  5
C04
330
A02
100
AcDbEntity
  8
Fillet
100
AcDbLine
 10
45.9985
 20
85.7851
 30
0
 11
45.9985
 21
85.7851
 31
1.3
  0
ARC
  5
C05
330
A02
100
AcDbEntity
  8
Fillet
100
AcDbCircle
 10
47.2485
 20
83.62
 30
1.3
 40
2.5
100
AcDbArc
 50
90
 51
120
  0
LINE
  5
C06
330
A02
100
AcDbEntity
  8
Fillet
100
AcDbLine
 10
47.2485
 20
86.12
 30
0
 11
47.2485
 21
86.12
 31
1.3
  0
ARC
  5
C07
330
A02
100
AcDbEntity
  8
Fillet
100
AcDbCircle
 10
47.2485
 20
83.62
 30
0
 40
2.5
100
AcDbArc
 50
90
 51
120
  0
LINE
  5
C08
330
A02
100
AcDbEntity
  8
Fillet
100
AcDbLine
 10
33.9813
 20
186.892
 30
0
 11
33.9813
 21
186.892
 31
1.3
  0
ARC
  5
C09
330
A02
100
AcDbEntity
  8
Fillet
100
AcDbCircle
 10
32.5477
 20
188.94
 30
1.3
 40
2.5
100
AcDbArc
 50
-90
 51
-55.01
  0
LINE
  5
C0A
330
A02
100
AcDbEntity
  8
Fillet
100
AcDbLine
 10
32.5477
 20
186.44
 30
0
 11
32.5477
 21
186.44
 31
1.3
  0
ARC
  5
C0B
330
A02
100
AcDbEntity
  8
Fillet
100
AcDbCircle
 10
32.5477
 20
188.94
 30
0
 40
2.5
100
AcDbArc
 50
-90
 51
-55.01
  0
LINE
  5
C0C
330
A02
100
AcDbEntity
  8
Fillet
100
AcDbLine
 10
8.64675
 20
64.22
 30
0
 11
8.64675
 21
64.22
 31
1.3
  0
LINE
  5
C0D
330
A02
100
AcDbEntity
  8
Fillet
100
AcDbLine
 10
8.64675
 20
64.22
 30
1.3
 11
45.9985
 21
85.7851
 31
1.3
  0
LINE
  5
C0E
330
A02
100
AcDbEntity
  8
Fillet
100
AcDbLine
 10
45.9985
 20
85.7851
 30
0
 11
45.9985
 21
85.7851
 31
1.3
  0
LINE
  5
C0F
330
A02
100
AcDbEntity
  8
Fillet
100
AcDbLine
 10
8.64675
 20
64.22
 30
0
 11
45.9985
 21
85.7851
 31
0
  0
LINE
  5
C10
330
A02
100
AcDbEntity
  8
Fillet
100
AcDbLine
 10
32.5477
 20
186.44
 30
0
 11
32.5477
 21
186.44
 31
1.3
  0
LINE
  5
C11
330
A02
100
AcDbEntity
  8
Fillet
100
AcDbLine
 10
32.5477
 20
186.44
 30
1.3
 11
15.8933
 21
186.44
 31
1.3
  0
LINE
  5
C12
330
A02
100
AcDbEntity
  8
Fillet
100
AcDbLine
 10
15.8933
 20
186.44
 30
0
 11
15.8933
 21
186.44
 31
1.3
  0
LINE
  5
C13
330
A02
100
AcDbEntity
  8
Fillet
100
AcDbLine
 10
32.5477
 20
186.44
 30
0
 11
15.8933
 21
186.44
 31
0
  0
LINE
  5
C14
330
A02
100
AcDbEntity
  8
Fillet
100
AcDbLine
 10
7.28072
 20
64.586
 30
0
 11
7.28072
 21
64.586
 31
1.3
  0
ARC
  5
C15
330
A02
100
AcDbEntity
  8
Fillet
100
AcDbCircle
 10
8.14675
 20
65.086
 30
1.3
 40
1
100
AcDbArc
 50
-150
 51
-60
  0
LINE
  5
C16
330
A02
100
AcDbEntity
  8
Fillet
100
AcDbLine
 10
8.64675
 20
64.22
 30
0
 11
8.64675
 21
64.22
 31
1.3
  0
ARC
  5
C17
330
A02
100
AcDbEntity
  8
Fillet
100
AcDbCircle
 10
8.14675
 20
65.086
 30
0
 40
1
100
AcDbArc
 50
-150
 51
-60
  0
LINE
  5
C18
330
A02
100
AcDbEntity
  8
Fillet
100
AcDbLine
 10
15.8933
 20
186.44
 30
0
 11
15.8933
 21
186.44
 31
1.3
  0
ARC
  5
C19
330
A02
100
AcDbEntity
  8
Fillet
100
AcDbCircle
 10
15.8933
 20
185.44
 30
1.3
 40
1
100
AcDbArc
 50
90
 51
146.14
  0
LINE
  5
C1A
330
A02
100
AcDbEntity
  8
Fillet
100
AcDbLine
 10
15.0629
 20
185.997
 30
0
 11
15.0629
 21
185.997
 31
1.3
  0
ARC
  5
C1B
330
A02
100
AcDbEntity
  8
Fillet
100
AcDbCircle
 10
15.8933
 20
185.44
 30
0
 40
1
100
AcDbArc
 50
90
 51
146.14
  0
LINE
  5
C1C
330
A02
100
AcDbEntity
  8
Fillet
100
AcDbLine
 10
-10.696
 20
95.7226
 30
0
 11
-10.696
 21
95.7226
 31
1.3
  0
LINE
  5
C1D
330
A02
100
AcDbEntity
  8
Fillet
100
AcDbLine
 10
-10.696
 20
95.7226
 30
1.3
 11
7.28072
 21
64.586
 31
1.3
  0
LINE
  5
C1E
330
A02
100
AcDbEntity
  8
Fillet
100
AcDbLine
 10
7.28072
 20
64.586
 30
0
 11
7.28072
 21
64.586
 31
1.3
  0
LINE
  5
C1F
330
A02
100
AcDbEntity
  8
Fillet
100
AcDbLine
 10
-10.696
 20
95.7226
 30
0
 11
7.28072
 21
64.586
 31
0
  0
LINE
  5
C20
330
A02
100
AcDbEntity
  8
Fillet
100
AcDbLine
 10
15.0629
 20
185.997
 30
0
 11
15.0629
 21
185.997
 31
1.3
  0
LINE
  5
C21
330
A02
100
AcDbEntity
  8
Fillet
100
AcDbLine
 10
15.0629
 20
185.997
 30
1.3
 11
7.49826
 21
174.723
 31
1.3
  0
LINE
  5
C22
330
A02
100
AcDbEntity
  8
Fillet
100
AcDbLine
 10
7.49826
 20
174.723
 30
0
 11
7.49826
 21
174.723
 31
1.3
  0
LINE
  5
C23
330
A02
100
AcDbEntity
  8
Fillet
100
AcDbLine
 10
15.0629
 20
185.997
 30
0
 11
7.49826
 21
174.723
 31
0
  0
LINE
  5
C24
330
A02
100
AcDbEntity
  8
Fillet
100
AcDbLine
 10
-10.4614
 20
98.0484
 30
0
 11
-10.4614
 21
98.0484
 31
1.3
  0
ARC
  5
C25
330
A02
100
AcDbEntity
  8
Fillet
100
AcDbCircle
 10
-8.96396
 20
96.7226
 30
1.3
 40
2
100
AcDbArc
 50
138.48
 51
-150
  0
LINE
  5
C26
330
A02
100
AcDbEntity
  8
Fillet
100
AcDbLine
 10
-10.696
 20
95.7226
 30
0
 11
-10.696
 21
95.7226
 31
1.3
  0
ARC
  5
C27
330
A02
100
AcDbEntity
  8
Fillet
100
AcDbCircle
 10
-8.96396
 20
96.7226
 30
0
 40
2
100
AcDbArc
 50
138.48
 51
-150
  0
LINE
  5
C28
330
A02
100
AcDbEntity
  8
Fillet
100
AcDbLine
 10
7.49826
 20
174.723
 30
0
 11
7.49826
 21
174.723
 31
1.3
  0
ARC
  5
C29
330
A02
100
AcDbEntity
  8
Fillet
100
AcDbCircle
 10
8.32866
 20
174.166
 30
1.3
 40
1
100
AcDbArc
 50
146.14
 51
180
  0
LINE
  5
C2A
330
A02
100
AcDbEntity
  8
Fillet
100
AcDbLine
 10
7.32866
 20
174.166
 30
0
 11
7.32866
 21
174.166
 31
1.3
  0
ARC
  5
C2B
330
A02
100
AcDbEntity
  8
Fillet
100
AcDbCircle
 10
8.32866
 20
174.166
 30
0
 40
1
100
AcDbArc
 50
146.14
 51
180
  0
LINE
  5
C2C
330
A02
100
AcDbEntity
  8
Fillet
100
AcDbLine
 10
7.07739
 20
117.858
 30
0
 11
7.07739
 21
117.858
 31
1.3
  0
LINE
  5
C2D
330
A02
100
AcDbEntity
  8
Fillet
100
AcDbLine
 10
7.07739
 20
117.858
 30
1.3
 11
-10.4614
 21
98.0484
 31
1.3
  0
LINE
  5
C2E
330
A02
100
AcDbEntity
  8
Fillet
100
AcDbLine
 10
-10.4614
 20
98.0484
 30
0
 11
-10.4614
 21
98.0484
 31
1.3
  0
LINE
  5
C2F
330
A02
100
AcDbEntity
  8
Fillet
100
AcDbLine
 10
7.07739
 20
117.858
 30
0
 11
-10.4614
 21
98.0484
 31
0
  0
LINE
  5
C30
330
A02
100
AcDbEntity
  8
Fillet
100
AcDbLine
 10
7.32866
 20
174.166
 30
0
 11
7.32866
 21
174.166
 31
1.3
  0
LINE
  5
C31
330
A02
100
AcDbEntity
  8
Fillet
100
AcDbLine
 10
7.32866
 20
174.166
 30
1.3
 11
7.32866
 21
118.521
 31
1.3
  0
LINE
  5
C32
330
A02
100
AcDbEntity
  8
Fillet
100
AcDbLine
 10
7.32866
 20
118.521
 30
0
 11
7.32866
 21
118.521
 31
1.3
  0
LINE
  5
C33
330
A02
100
AcDbEntity
  8
Fillet
100
AcDbLine
 10
7.32866
 20
174.166
 30
0
 11
7.32866
 21
118.521
 31
0
  0
LINE
  5
C34
330
A02
100
AcDbEntity
  8
Fillet
100
AcDbLine
 10
7.32866
 20
118.521
 30
0
 11
7.32866
 21
118.521
 31
1.3
  0
ARC
  5
C35
330
A02
100
AcDbEntity
  8
Fillet
100
AcDbCircle
 10
6.32866
 20
118.521
 30
1.3
 40
1
100
AcDbArc
 50
-41.52
 51
0
  0
LINE
  5
C36
330
A02
100
AcDbEntity
  8
Fillet
100
AcDbLine
 10
7.07739
 20
117.858
 30
0
 11
7.07739
 21
117.858
 31
1.3
  0
ARC
  5
C37
330
A02
100
AcDbEntity
  8
Fillet
100
AcDbCircle
 10
6.32866
 20
118.521
 30
0
 40
1
100
AcDbArc
 50
-41.52
 51
0
  0
LINE
  5
C38
330
A02
100
AcDbEntity
  8
Fillet
100
AcDbLine
 10
5.51249
 20
100.063
 30
0
 11
5.51249
 21
100.063
 31
1.5
  0
LINE
  5
C39
330
A02
100
AcDbEntity
  8
Fillet
100
AcDbLine
 10
5.51249
 20
100.063
 30
1.5
 11
4.59999
 21
101.643
 31
1.5
  0
LINE
  5
C3A
330
A02
100
AcDbEntity
  8
Fillet
100
AcDbLine
 10
4.59999
 20
101.643
 30
0
 11
4.59999
 21
101.643
 31
1.5
  0
LINE
  5
C3B
330
A02
100
AcDbEntity
  8
Fillet
100
AcDbLine
 10
5.51249
 20
100.063
 30
0
 11
4.59999
 21
101.643
 31
0
  0
LINE
  5
C3C
330
A02
100
AcDbEntity
  8
Fillet
100
AcDbLine
 10
6.55172
 20
100.663
 30
0
 11
6.55172
 21
100.663
 31
1.5
  0
LINE
  5
C3D
330
A02
100
AcDbEntity
  8
Fillet
100
AcDbLine
 10
6.55172
 20
100.663
 30
1.5
 11
5.51249
 21
100.063
 31
1.5
  0
LINE
  5
C3E
330
A02
100
AcDbEntity
  8
Fillet
100
AcDbLine
 10
5.51249
 20
100.063
 30
0
 11
5.51249
 21
100.063
 31
1.5
  0
LINE
  5
C3F
330
A02
100
AcDbEntity
  8
Fillet
100
AcDbLine
 10
6.55172
 20
100.663
 30
0
 11
5.51249
 21
100.063
 31
0
  0
LINE
  5
C40
330
A02
100
AcDbEntity
  8
Fillet
100
AcDbLine
 10
4.59999
 20
101.643
 30
0
 11
4.59999
 21
101.643
 31
1.5
  0
LINE
  5
C41
330
A02
100
AcDbEntity
  8
Fillet
100
AcDbLine
 10
4.59999
 20
101.643
 30
1.5
 11
-0.829991
 21
98.5083
 31
1.5
  0
LINE
  5
C42
330
A02
100
AcDbEntity
  8
Fillet
100
AcDbLine
 10
-0.829991
 20
98.5083
 30
0
 11
-0.829991
 21
98.5083
 31
1.5
  0
LINE
  5
C43
330
A02
100
AcDbEntity
  8
Fillet
100
AcDbLine
 10
4.59999
 20
101.643
 30
0
 11
-0.829991
 21
98.5083
 31
0
  0
LINE
  5
C44
330
A02
100
AcDbEntity
  8
Fillet
100
AcDbLine
 10
8.05172
 20
98.0647
 30
0
 11
8.05172
 21
98.0647
 31
1.5
  0
LINE
  5
C45
330
A02
100
AcDbEntity
  8
Fillet
100
AcDbLine
 10
8.05172
 20
98.0647
 30
1.5
 11
6.55172
 21
100.663
 31
1.5
  0
LINE
  5
C46
330
A02
100
AcDbEntity
  8
Fillet
100
AcDbLine
 10
6.55172
 20
100.663
 30
0
 11
6.55172
 21
100.663
 31
1.5
  0
LINE
  5
C47
330
A02
100
AcDbEntity
  8
Fillet
100
AcDbLine
 10
8.05172
 20
98.0647
 30
0
 11
6.55172
 21
100.663
 31
0
  0
LINE
  5
C48
330
A02
100
AcDbEntity
  8
Fillet
100
AcDbLine
 10
-0.829991
 20
98.5083
 30
0
 11
-0.829991
 21
98.5083
 31
1.5
  0
LINE
  5
C49
330
A02
100
AcDbEntity
  8
Fillet
100
AcDbLine
 10
-0.829991
 20
98.5083
 30
1.5
 11
-1.26749
 21
99.266
 31
1.5
  0
LINE
  5
C4A
330
A02
100
AcDbEntity
  8
Fillet
100
AcDbLine
 10
-1.26749
 20
99.266
 30
0
 11
-1.26749
 21
99.266
 31
1.5
  0
LINE
  5
C4B
330
A02
100
AcDbEntity
  8
Fillet
100
AcDbLine
 10
-0.829991
 20
98.5083
 30
0
 11
-1.26749
 21
99.266
 31
0
  0
LINE
  5
C4C
330
A02
100
AcDbEntity
  8
Fillet
100
AcDbLine
 10
7.01249
 20
97.4647
 30
0
 11
7.01249
 21
97.4647
 31
1.5
  0
LINE
  5
C4D
330
A02
100
AcDbEntity
  8
Fillet
100
AcDbLine
 10
7.01249
 20
97.4647
 30
1.5
 11
8.05172
 21
98.0647
 31
1.5
  0
LINE
  5
C4E
330
A02
100
AcDbEntity
  8
Fillet
100
AcDbLine
 10
8.05172
 20
98.0647
 30
0
 11
8.05172
 21
98.0647
 31
1.5
  0
LINE
  5
C4F
330
A02
100
AcDbEntity
  8
Fillet
100
AcDbLine
 10
7.01249
 20
97.4647
 30
0
 11
8.05172
 21
98.0647
 31
0
  0
LINE
  5
C50
330
A02
100
AcDbEntity
  8
Fillet
100
AcDbLine
 10
-1.26749
 20
99.266
 30
0
 11
-1.26749
 21
99.266
 31
1.5
  0
LINE
  5
C51
330
A02
100
AcDbEntity
  8
Fillet
100
AcDbLine
 10
-1.26749
 20
99.266
 30
1.5
 11
-3.69236
 21
97.866
 31
1.5
  0
LINE
  5
C52
330
A02
100
AcDbEntity
  8
Fillet
100
AcDbLine
 10
-3.69236
 20
97.866
 30
0
 11
-3.69236
 21
97.866
 31
1.5
  0
LINE
  5
C53
330
A02
100
AcDbEntity
  8
Fillet
100
AcDbLine
 10
-1.26749
 20
99.266
 30
0
 11
-3.69236
 21
97.866
 31
0
  0
LINE
  5
C54
330
A02
100
AcDbEntity
  8
Fillet
100
AcDbLine
 10
7.92499
 20
95.8842
 30
0
 11
7.92499
 21
95.8842
 31
1.5
  0
LINE
  5
C55
330
A02
100
AcDbEntity
  8
Fillet
100
AcDbLine
 10
7.92499
 20
95.8842
 30
1.5
 11
7.01249
 21
97.4647
 31
1.5
  0
LINE
  5
C56
330
A02
100
AcDbEntity
  8
Fillet
100
AcDbLine
 10
7.01249
 20
97.4647
 30
0
 11
7.01249
 21
97.4647
 31
1.5
  0
LINE
  5
C57
330
A02
100
AcDbEntity
  8
Fillet
100
AcDbLine
 10
7.92499
 20
95.8842
 30
0
 11
7.01249
 21
97.4647
 31
0
  0
LINE
  5
C58
330
A02
100
AcDbEntity
  8
Fillet
100
AcDbLine
 10
-3.69236
 20
97.866
 30
0
 11
-3.69236
 21
97.866
 31
1.5
  0
LINE
  5
C59
330
A02
100
AcDbEntity
  8
Fillet
100
AcDbLine
 10
-3.69236
 20
97.866
 30
1.5
 11
-3.25486
 21
97.1083
 31
1.5
  0
LINE
  5
C5A
330
A02
100
AcDbEntity
  8
Fillet
100
AcDbLine
 10
-3.25486
 20
97.1083
 30
0
 11
-3.25486
 21
97.1083
 31
1.5
  0
LINE
  5
C5B
330
A02
100
AcDbEntity
  8
Fillet
100
AcDbLine
 10
-3.69236
 20
97.866
 30
0
 11
-3.25486
 21
97.1083
 31
0
  0
LINE
  5
C5C
330
A02
100
AcDbEntity
  8
Fillet
100
AcDbLine
 10
7.23217
 20
95.4842
 30
0
 11
7.23217
 21
95.4842
 31
1.5
  0
LINE
  5
C5D
330
A02
100
AcDbEntity
  8
Fillet
100
AcDbLine
 10
7.23217
 20
95.4842
 30
1.5
 11
7.92499
 21
95.8842
 31
1.5
  0
LINE
  5
C5E
330
A02
100
AcDbEntity
  8
Fillet
100
AcDbLine
 10
7.92499
 20
95.8842
 30
0
 11
7.92499
 21
95.8842
 31
1.5
  0
LINE
  5
C5F
330
A02
100
AcDbEntity
  8
Fillet
100
AcDbLine
 10
7.23217
 20
95.4842
 30
0
 11
7.92499
 21
95.8842
 31
0
  0
LINE
  5
C60
330
A02
100
AcDbEntity
  8
Fillet
100
AcDbLine
 10
-3.25486
 20
97.1083
 30
0
 11
-3.25486
 21
97.1083
 31
1.5
  0
LINE
  5
C61
330
A02
100
AcDbEntity
  8
Fillet
100
AcDbLine
 10
-3.25486
 20
97.1083
 30
1.5
 11
-6.05212
 21
95.4933
 31
1.5
  0
LINE
  5
C62
330
A02
100
AcDbEntity
  8
Fillet
100
AcDbLine
 10
-6.05212
 20
95.4933
 30
0
 11
-6.05212
 21
95.4933
 31
1.5
  0
LINE
  5
C63
330
A02
100
AcDbEntity
  8
Fillet
100
AcDbLine
 10
-3.25486
 20
97.1083
 30
0
 11
-6.05212
 21
95.4933
 31
0
  0
LINE
  5
C64
330
A02
100
AcDbEntity
  8
Fillet
100
AcDbLine
 10
8.01967
 20
94.1202
 30
0
 11
8.01967
 21
94.1202
 31
1.5
  0
LINE
  5
C65
330
A02
100
AcDbEntity
  8
Fillet
100
AcDbLine
 10
8.01967
 20
94.1202
 30
1.5
 11
7.23217
 21
95.4842
 31
1.5
  0
LINE
  5
C66
330
A02
100
AcDbEntity
  8
Fillet
100
AcDbLine
 10
7.23217
 20
95.4842
 30
0
 11
7.23217
 21
95.4842
 31
1.5
  0
LINE
  5
C67
330
A02
100
AcDbEntity
  8
Fillet
100
AcDbLine
 10
8.01967
 20
94.1202
 30
0
 11
7.23217
 21
95.4842
 31
0
  0
LINE
  5
C68
330
A02
100
AcDbEntity
  8
Fillet
100
AcDbLine
 10
-6.05212
 20
95.4933
 30
0
 11
-6.05212
 21
95.4933
 31
1.5
  0
LINE
  5
C69
330
A02
100
AcDbEntity
  8
Fillet
100
AcDbLine
 10
-6.05212
 20
95.4933
 30
1.5
 11
-2.72712
 21
89.7342
 31
1.5
  0
LINE
  5
C6A
330
A02
100
AcDbEntity
  8
Fillet
100
AcDbLine
 10
-2.72712
 20
89.7342
 30
0
 11
-2.72712
 21
89.7342
 31
1.5
  0
LINE
  5
C6B
330
A02
100
AcDbEntity
  8
Fillet
100
AcDbLine
 10
-6.05212
 20
95.4933
 30
0
 11
-2.72712
 21
89.7342
 31
0
  0
LINE
  5
C6C
330
A02
100
AcDbEntity
  8
Fillet
100
AcDbLine
 10
8.91167
 20
94.6352
 30
0
 11
8.91167
 21
94.6352
 31
1.5
  0
LINE
  5
C6D
330
A02
100
AcDbEntity
  8
Fillet
100
AcDbLine
 10
8.91167
 20
94.6352
 30
1.5
 11
8.01967
 21
94.1202
 31
1.5
  0
LINE
  5
C6E
330
A02
100
AcDbEntity
  8
Fillet
100
AcDbLine
 10
8.01967
 20
94.1202
 30
0
 11
8.01967
 21
94.1202
 31
1.5
  0
LINE
  5
C6F
330
A02
100
AcDbEntity
  8
Fillet
100
AcDbLine
 10
8.91167
 20
94.6352
 30
0
 11
8.01967
 21
94.1202
 31
0
  0
LINE
  5
C70
330
A02
100
AcDbEntity
  8
Fillet
100
AcDbLine
 10
-2.72712
 20
89.7342
 30
0
 11
-2.72712
 21
89.7342
 31
1.5
  0
LINE
  5
C71
330
A02
100
AcDbEntity
  8
Fillet
100
AcDbLine
 10
-2.72712
 20
89.7342
 30
1.5
 11
-2.0343
 21
90.1342
 31
1.5
  0
LINE
  5
C72
330
A02
100
AcDbEntity
  8
Fillet
100
AcDbLine
 10
-2.0343
 20
90.1342
 30
0
 11
-2.0343
 21
90.1342
 31
1.5
  0
LINE
  5
C73
330
A02
100
AcDbEntity
  8
Fillet
100
AcDbLine
 10
-2.72712
 20
89.7342
 30
0
 11
-2.0343
 21
90.1342
 31
0
  0
LINE
  5
C74
330
A02
100
AcDbEntity
  8
Fillet
100
AcDbLine
 10
15.9117
 20
82.5109
 30
0
 11
15.9117
 21
82.5109
 31
1.5
  0
LINE
  5
C75
330
A02
100
AcDbEntity
  8
Fillet
100
AcDbLine
 10
15.9117
 20
82.5109
 30
1.5
 11
8.91167
 21
94.6352
 31
1.5
  0
LINE
  5
C76
330
A02
100
AcDbEntity
  8
Fillet
100
AcDbLine
 10
8.91167
 20
94.6352
 30
0
 11
8.91167
 21
94.6352
 31
1.5
  0
LINE
  5
C77
330
A02
100
AcDbEntity
  8
Fillet
100
AcDbLine
 10
15.9117
 20
82.5109
 30
0
 11
8.91167
 21
94.6352
 31
0
  0
LINE
  5
C78
330
A02
100
AcDbEntity
  8
Fillet
100
AcDbLine
 10
-2.0343
 20
90.1342
 30
0
 11
-2.0343
 21
90.1342
 31
1.5
  0
LINE
  5
C79
330
A02
100
AcDbEntity
  8
Fillet
100
AcDbLine
 10
-2.0343
 20
90.1342
 30
1.5
 11
-1.2468
 21
88.7702
 31
1.5
  0
LINE
  5
C7A
330
A02
100
AcDbEntity
  8
Fillet
100
AcDbLine
 10
-1.2468
 20
88.7702
 30
0
 11
-1.2468
 21
88.7702
 31
1.5
  0
LINE
  5
C7B
330
A02
100
AcDbEntity
  8
Fillet
100
AcDbLine
 10
-2.0343
 20
90.1342
 30
0
 11
-1.2468
 21
88.7702
 31
0
  0
LINE
  5
C7C
330
A02
100
AcDbEntity
  8
Fillet
100
AcDbLine
 10
15.0197
 20
81.9959
 30
0
 11
15.0197
 21
81.9959
 31
1.5
  0
LINE
  5
C7D
330
A02
100
AcDbEntity
  8
Fillet
100
AcDbLine
 10
15.0197
 20
81.9959
 30
1.5
 11
15.9117
 21
82.5109
 31
1.5
  0
LINE
  5
C7E
330
A02
100
AcDbEntity
  8
Fillet
100
AcDbLine
 10
15.9117
 20
82.5109
 30
0
 11
15.9117
 21
82.5109
 31
1.5
  0
LINE
  5
C7F
330
A02
100
AcDbEntity
  8
Fillet
100
AcDbLine
 10
15.0197
 20
81.9959
 30
0
 11
15.9117
 21
82.5109
 31
0
  0
LINE
  5
C80
330
A02
100
AcDbEntity
  8
Fillet
100
AcDbLine
 10
-1.2468
 20
88.7702
 30
0
 11
-1.2468
 21
88.7702
 31
1.5
  0
LINE
  5
C81
330
A02
100
AcDbEntity
  8
Fillet
100
AcDbLine
 10
-1.2468
 20
88.7702
 30
1.5
 11
-3.21268
 21
87.6352
 31
1.5
  0
LINE
  5
C82
330
A02
100
AcDbEntity
  8
Fillet
100
AcDbLine
 10
-3.21268
 20
87.6352
 30
0
 11
-3.21268
 21
87.6352
 31
1.5
  0
LINE
  5
C83
330
A02
100
AcDbEntity
  8
Fillet
100
AcDbLine
 10
-1.2468
 20
88.7702
 30
0
 11
-3.21268
 21
87.6352
 31
0
  0
LINE
  5
C84
330
A02
100
AcDbEntity
  8
Fillet
100
AcDbLine
 10
15.8072
 20
80.6319
 30
0
 11
15.8072
 21
80.6319
 31
1.5
  0
LINE
  5
C85
330
A02
100
AcDbEntity
  8
Fillet
100
AcDbLine
 10
15.8072
 20
80.6319
 30
1.5
 11
15.0197
 21
81.9959
 31
1.5
  0
LINE
  5
C86
330
A02
100
AcDbEntity
  8
Fillet
100
AcDbLine
 10
15.0197
 20
81.9959
 30
0
 11
15.0197
 21
81.9959
 31
1.5
  0
LINE
  5
C87
330
A02
100
AcDbEntity
  8
Fillet
100
AcDbLine
 10
15.8072
 20
80.6319
 30
0
 11
15.0197
 21
81.9959
 31
0
  0
LINE
  5
C88
330
A02
100
AcDbEntity
  8
Fillet
100
AcDbLine
 10
-3.21268
 20
87.6352
 30
0
 11
-3.21268
 21
87.6352
 31
1.5
  0
LINE
  5
C89
330
A02
100
AcDbEntity
  8
Fillet
100
AcDbLine
 10
-3.21268
 20
87.6352
 30
1.5
 11
3.78732
 21
75.5109
 31
1.5
  0
LINE
  5
C8A
330
A02
100
AcDbEntity
  8
Fillet
100
AcDbLine
 10
3.78732
 20
75.5109
 30
0
 11
3.78732
 21
75.5109
 31
1.5
  0
LINE
  5
C8B
330
A02
100
AcDbEntity
  8
Fillet
100
AcDbLine
 10
-3.21268
 20
87.6352
 30
0
 11
3.78732
 21
75.5109
 31
0
  0
LINE
  5
C8C
330
A02
100
AcDbEntity
  8
Fillet
100
AcDbLine
 10
16.5
 20
81.0319
 30
0
 11
16.5
 21
81.0319
 31
1.5
  0
LINE
  5
C8D
330
A02
100
AcDbEntity
  8
Fillet
100
AcDbLine
 10
16.5
 20
81.0319
 30
1.5
 11
15.8072
 21
80.6319
 31
1.5
  0
LINE
  5
C8E
330
A02
100
AcDbEntity
  8
Fillet
100
AcDbLine
 10
15.8072
 20
80.6319
 30
0
 11
15.8072
 21
80.6319
 31
1.5
  0
LINE
  5
C8F
330
A02
100
AcDbEntity
  8
Fillet
100
AcDbLine
 10
16.5
 20
81.0319
 30
0
 11
15.8072
 21
80.6319
 31
0
  0
LINE
  5
C90
330
A02
100
AcDbEntity
  8
Fillet
100
AcDbLine
 10
3.78732
 20
75.5109
 30
0
 11
3.78732
 21
75.5109
 31
1.5
  0
LINE
  5
C91
330
A02
100
AcDbEntity
  8
Fillet
100
AcDbLine
 10
3.78732
 20
75.5109
 30
1.5
 11
5.7532
 21
76.6459
 31
1.5
  0
LINE
  5
C92
330
A02
100
AcDbEntity
  8
Fillet
100
AcDbLine
 10
5.7532
 20
76.6459
 30
0
 11
5.7532
 21
76.6459
 31
1.5
  0
LINE
  5
C93
330
A02
100
AcDbEntity
  8
Fillet
100
AcDbLine
 10
3.78732
 20
75.5109
 30
0
 11
5.7532
 21
76.6459
 31
0
  0
LINE
  5
C94
330
A02
100
AcDbEntity
  8
Fillet
100
AcDbLine
 10
17.4125
 20
79.4514
 30
0
 11
17.4125
 21
79.4514
 31
1.5
  0
LINE
  5
C95
330
A02
100
AcDbEntity
  8
Fillet
100
AcDbLine
 10
17.4125
 20
79.4514
 30
1.5
 11
16.5
 21
81.0319
 31
1.5
  0
LINE
  5
C96
330
A02
100
AcDbEntity
  8
Fillet
100
AcDbLine
 10
16.5
 20
81.0319
 30
0
 11
16.5
 21
81.0319
 31
1.5
  0
LINE
  5
C97
330
A02
100
AcDbEntity
  8
Fillet
100
AcDbLine
 10
17.4125
 20
79.4514
 30
0
 11
16.5
 21
81.0319
 31
0
  0
LINE
  5
C98
330
A02
100
AcDbEntity
  8
Fillet
100
AcDbLine
 10
5.7532
 20
76.6459
 30
0
 11
5.7532
 21
76.6459
 31
1.5
  0
LINE
  5
C99
330
A02
100
AcDbEntity
  8
Fillet
100
AcDbLine
 10
5.7532
 20
76.6459
 30
1.5
 11
6.5407
 21
75.2819
 31
1.5
  0
LINE
  5
C9A
330
A02
100
AcDbEntity
  8
Fillet
100
AcDbLine
 10
6.5407
 20
75.2819
 30
0
 11
6.5407
 21
75.2819
 31
1.5
  0
LINE
  5
C9B
330
A02
100
AcDbEntity
  8
Fillet
100
AcDbLine
 10
5.7532
 20
76.6459
 30
0
 11
6.5407
 21
75.2819
 31
0
  0
LINE
  5
C9C
330
A02
100
AcDbEntity
  8
Fillet
100
AcDbLine
 10
18.4517
 20
80.0514
 30
0
 11
18.4517
 21
80.0514
 31
1.5
  0
LINE
  5
C9D
330
A02
100
AcDbEntity
  8
Fillet
100
AcDbLine
 10
18.4517
 20
80.0514
 30
1.5
 11
17.4125
 21
79.4514
 31
1.5
  0
LINE
  5
C9E
330
A02
100
AcDbEntity
  8
Fillet
100
AcDbLine
 10
17.4125
 20
79.4514
 30
0
 11
17.4125
 21
79.4514
 31
1.5
  0
LINE
  5
C9F
330
A02
100
AcDbEntity
  8
Fillet
100
AcDbLine
 10
18.4517
 20
80.0514
 30
0
 11
17.4125
 21
79.4514
 31
0
  0
LINE
  5
CA0
330
A02
100
AcDbEntity
  8
Fillet
100
AcDbLine
 10
6.5407
 20
75.2819
 30
0
 11
6.5407
 21
75.2819
 31
1.5
  0
LINE
  5
CA1
330
A02
100
AcDbEntity
  8
Fillet
100
AcDbLine
 10
6.5407
 20
75.2819
 30
1.5
 11
5.84788
 21
74.8819
 31
1.5
  0
LINE
  5
CA2
330
A02
100
AcDbEntity
  8
Fillet
100
AcDbLine
 10
5.84788
 20
74.8819
 30
0
 11
5.84788
 21
74.8819
 31
1.5
  0
LINE
  5
CA3
330
A02
100
AcDbEntity
  8
Fillet
100
AcDbLine
 10
6.5407
 20
75.2819
 30
0
 11
5.84788
 21
74.8819
 31
0
  0
LINE
  5
CA4
330
A02
100
AcDbEntity
  8
Fillet
100
AcDbLine
 10
19.9517
 20
77.4533
 30
0
 11
19.9517
 21
77.4533
 31
1.5
  0
LINE
  5
CA5
330
A02
100
AcDbEntity
  8
Fillet
100
AcDbLine
 10
19.9517
 20
77.4533
 30
1.5
 11
18.4517
 21
80.0514
 31
1.5
  0
LINE
  5
CA6
330
A02
100
AcDbEntity
  8
Fillet
100
AcDbLine
 10
18.4517
 20
80.0514
 30
0
 11
18.4517
 21
80.0514
 31
1.5
  0
LINE
  5
CA7
330
A02
100
AcDbEntity
  8
Fillet
100
AcDbLine
 10
19.9517
 20
77.4533
 30
0
 11
18.4517
 21
80.0514
 31
0
  0
LINE
  5
CA8
330
A02
100
AcDbEntity
  8
Fillet
100
AcDbLine
 10
5.84788
 20
74.8819
 30
0
 11
5.84788
 21
74.8819
 31
1.5
  0
LINE
  5
CA9
330
A02
100
AcDbEntity
  8
Fillet
100
AcDbLine
 10
5.84788
 20
74.8819
 30
1.5
 11
9.17288
 21
69.1228
 31
1.5
  0
LINE
  5
CAA
330
A02
100
AcDbEntity
  8
Fillet
100
AcDbLine
 10
9.17288
 20
69.1228
 30
0
 11
9.17288
 21
69.1228
 31
1.5
  0
LINE
  5
CAB
330
A02
100
AcDbEntity
  8
Fillet
100
AcDbLine
 10
5.84788
 20
74.8819
 30
0
 11
9.17288
 21
69.1228
 31
0
  0
LINE
  5
CAC
330
A02
100
AcDbEntity
  8
Fillet
100
AcDbLine
 10
18.9125
 20
76.8533
 30
0
 11
18.9125
 21
76.8533
 31
1.5
  0
LINE
  5
CAD
330
A02
100
AcDbEntity
  8
Fillet
100
AcDbLine
 10
18.9125
 20
76.8533
 30
1.5
 11
19.9517
 21
77.4533
 31
1.5
  0
LINE
  5
CAE
330
A02
100
AcDbEntity
  8
Fillet
100
AcDbLine
 10
19.9517
 20
77.4533
 30
0
 11
19.9517
 21
77.4533
 31
1.5
  0
LINE
  5
CAF
330
A02
100
AcDbEntity
  8
Fillet
100
AcDbLine
 10
18.9125
 20
76.8533
 30
0
 11
19.9517
 21
77.4533
 31
0
  0
LINE
  5
CB0
330
A02
100
AcDbEntity
  8
Fillet
100
AcDbLine
 10
9.17288
 20
69.1228
 30
0
 11
9.17288
 21
69.1228
 31
1.5
  0
LINE
  5
CB1
330
A02
100
AcDbEntity
  8
Fillet
100
AcDbLine
 10
9.17288
 20
69.1228
 30
1.5
 11
11.9701
 21
70.7378
 31
1.5
  0
LINE
  5
CB2
330
A02
100
AcDbEntity
  8
Fillet
100
AcDbLine
 10
11.9701
 20
70.7378
 30
0
 11
11.9701
 21
70.7378
 31
1.5
  0
LINE
  5
CB3
330
A02
100
AcDbEntity
  8
Fillet
100
AcDbLine
 10
9.17288
 20
69.1228
 30
0
 11
11.9701
 21
70.7378
 31
0
  0
LINE
  5
CB4
330
A02
100
AcDbEntity
  8
Fillet
100
AcDbLine
 10
19.825
 20
75.2728
 30
0
 11
19.825
 21
75.2728
 31
1.5
  0
LINE
  5
CB5
330
A02
100
AcDbEntity
  8
Fillet
100
AcDbLine
 10
19.825
 20
75.2728
 30
1.5
 11
18.9125
 21
76.8533
 31
1.5
  0
LINE
  5
CB6
330
A02
100
AcDbEntity
  8
Fillet
100
AcDbLine
 10
18.9125
 20
76.8533
 30
0
 11
18.9125
 21
76.8533
 31
1.5
  0
LINE
  5
CB7
330
A02
100
AcDbEntity
  8
Fillet
100
AcDbLine
 10
19.825
 20
75.2728
 30
0
 11
18.9125
 21
76.8533
 31
0
  0
LINE
  5
CB8
330
A02
100
AcDbEntity
  8
Fillet
100
AcDbLine
 10
11.9701
 20
70.7378
 30
0
 11
11.9701
 21
70.7378
 31
1.5
  0
LINE
  5
CB9
330
A02
100
AcDbEntity
  8
Fillet
100
AcDbLine
 10
11.9701
 20
70.7378
 30
1.5
 11
12.4076
 21
69.98
 31
1.5
  0
LINE
  5
CBA
330
A02
100
AcDbEntity
  8
Fillet
100
AcDbLine
 10
12.4076
 20
69.98
 30
0
 11
12.4076
 21
69.98
 31
1.5
  0
LINE
  5
CBB
330
A02
100
AcDbEntity
  8
Fillet
100
AcDbLine
 10
11.9701
 20
70.7378
 30
0
 11
12.4076
 21
69.98
 31
0
  0
LINE
  5
CBC
330
A02
100
AcDbEntity
  8
Fillet
100
AcDbLine
 10
14.395
 20
72.1378
 30
0
 11
14.395
 21
72.1378
 31
1.5
  0
LINE
  5
CBD
330
A02
100
AcDbEntity
  8
Fillet
100
AcDbLine
 10
14.395
 20
72.1378
 30
1.5
 11
19.825
 21
75.2728
 31
1.5
  0
LINE
  5
CBE
330
A02
100
AcDbEntity
  8
Fillet
100
AcDbLine
 10
19.825
 20
75.2728
 30
0
 11
19.825
 21
75.2728
 31
1.5
  0
LINE
  5
CBF
330
A02
100
AcDbEntity
  8
Fillet
100
AcDbLine
 10
14.395
 20
72.1378
 30
0
 11
19.825
 21
75.2728
 31
0
  0
LINE
  5
CC0
330
A02
100
AcDbEntity
  8
Fillet
100
AcDbLine
 10
12.4076
 20
69.98
 30
0
 11
12.4076
 21
69.98
 31
1.5
  0
LINE
  5
CC1
330
A02
100
AcDbEntity
  8
Fillet
100
AcDbLine
 10
12.4076
 20
69.98
 30
1.5
 11
14.8325
 21
71.38
 31
1.5
  0
LINE
  5
CC2
330
A02
100
AcDbEntity
  8
Fillet
100
AcDbLine
 10
14.8325
 20
71.38
 30
0
 11
14.8325
 21
71.38
 31
1.5
  0
LINE
  5
CC3
330
A02
100
AcDbEntity
  8
Fillet
100
AcDbLine
 10
12.4076
 20
69.98
 30
0
 11
14.8325
 21
71.38
 31
0
  0
LINE
  5
CC4
330
A02
100
AcDbEntity
  8
Fillet
100
AcDbLine
 10
14.8325
 20
71.38
 30
0
 11
14.8325
 21
71.38
 31
1.5
  0
LINE
  5
CC5
330
A02
100
AcDbEntity
  8
Fillet
100
AcDbLine
 10
14.8325
 20
71.38
 30
1.5
 11
14.395
 21
72.1378
 31
1.5
  0
LINE
  5
CC6
330
A02
100
AcDbEntity
  8
Fillet
100
AcDbLine
 10
14.395
 20
72.1378
 30
0
 11
14.395
 21
72.1378
 31
1.5
  0
LINE
  5
CC7
330
A02
100
AcDbEntity
  8
Fillet
100
AcDbLine
 10
14.8325
 20
71.38
 30
0
 11
14.395
 21
72.1378
 31
0
  0
LINE
  5
CC8
330
A02
100
AcDbEntity
  8
Fillet
100
AcDbLine
 10
22.0125
 20
109.583
 30
0
 11
22.0125
 21
109.583
 31
1.5
  0
LINE
  5
CC9
330
A02
100
AcDbEntity
  8
Fillet
100
AcDbLine
 10
22.0125
 20
109.583
 30
1.5
 11
21.1
 21
111.163
 31
1.5
  0
LINE
  5
CCA
330
A02
100
AcDbEntity
  8
Fillet
100
AcDbLine
 10
21.1
 20
111.163
 30
0
 11
21.1
 21
111.163
 31
1.5
  0
LINE
  5
CCB
330
A02
100
AcDbEntity
  8
Fillet
100
AcDbLine
 10
22.0125
 20
109.583
 30
0
 11
21.1
 21
111.163
 31
0
  0
LINE
  5
CCC
330
A02
100
AcDbEntity
  8
Fillet
100
AcDbLine
 10
23.0517
 20
110.183
 30
0
 11
23.0517
 21
110.183
 31
1.5
  0
LINE
  5
CCD
330
A02
100
AcDbEntity
  8
Fillet
100
AcDbLine
 10
23.0517
 20
110.183
 30
1.5
 11
22.0125
 21
109.583
 31
1.5
  0
LINE
  5
CCE
330
A02
100
AcDbEntity
  8
Fillet
100
AcDbLine
 10
22.0125
 20
109.583
 30
0
 11
22.0125
 21
109.583
 31
1.5
  0
LINE
  5
CCF
330
A02
100
AcDbEntity
  8
Fillet
100
AcDbLine
 10
23.0517
 20
110.183
 30
0
 11
22.0125
 21
109.583
 31
0
  0
LINE
  5
CD0
330
A02
100
AcDbEntity
  8
Fillet
100
AcDbLine
 10
21.1
 20
111.163
 30
0
 11
21.1
 21
111.163
 31
1.5
  0
LINE
  5
CD1
330
A02
100
AcDbEntity
  8
Fillet
100
AcDbLine
 10
21.1
 20
111.163
 30
1.5
 11
15.67
 21
108.028
 31
1.5
  0
LINE
  5
CD2
330
A02
100
AcDbEntity
  8
Fillet
100
AcDbLine
 10
15.67
 20
108.028
 30
0
 11
15.67
 21
108.028
 31
1.5
  0
LINE
  5
CD3
330
A02
100
AcDbEntity
  8
Fillet
100
AcDbLine
 10
21.1
 20
111.163
 30
0
 11
15.67
 21
108.028
 31
0
  0
LINE
  5
CD4
330
A02
100
AcDbEntity
  8
Fillet
100
AcDbLine
 10
24.5517
 20
107.585
 30
0
 11
24.5517
 21
107.585
 31
1.5
  0
LINE
  5
CD5
330
A02
100
AcDbEntity
  8
Fillet
100
AcDbLine
 10
24.5517
 20
107.585
 30
1.5
 11
23.0517
 21
110.183
 31
1.5
  0
LINE
  5
CD6
330
A02
100
AcDbEntity
  8
Fillet
100
AcDbLine
 10
23.0517
 20
110.183
 30
0
 11
23.0517
 21
110.183
 31
1.5
  0
LINE
  5
CD7
330
A02
100
AcDbEntity
  8
Fillet
100
AcDbLine
 10
24.5517
 20
107.585
 30
0
 11
23.0517
 21
110.183
 31
0
  0
LINE
  5
CD8
330
A02
100
AcDbEntity
  8
Fillet
100
AcDbLine
 10
15.67
 20
108.028
 30
0
 11
15.67
 21
108.028
 31
1.5
  0
LINE
  5
CD9
330
A02
100
AcDbEntity
  8
Fillet
100
AcDbLine
 10
15.67
 20
108.028
 30
1.5
 11
15.2325
 21
108.786
 31
1.5
  0
LINE
  5
CDA
330
A02
100
AcDbEntity
  8
Fillet
100
AcDbLine
 10
15.2325
 20
108.786
 30
0
 11
15.2325
 21
108.786
 31
1.5
  0
LINE
  5
CDB
330
A02
100
AcDbEntity
  8
Fillet
100
AcDbLine
 10
15.67
 20
108.028
 30
0
 11
15.2325
 21
108.786
 31
0
  0
LINE
  5
CDC
330
A02
100
AcDbEntity
  8
Fillet
100
AcDbLine
 10
23.5125
 20
106.985
 30
0
 11
23.5125
 21
106.985
 31
1.5
  0
LINE
  5
CDD
330
A02
100
AcDbEntity
  8
Fillet
100
AcDbLine
 10
23.5125
 20
106.985
 30
1.5
 11
24.5517
 21
107.585
 31
1.5
  0
LINE
  5
CDE
330
A02
100
AcDbEntity
  8
Fillet
100
AcDbLine
 10
24.5517
 20
107.585
 30
0
 11
24.5517
 21
107.585
 31
1.5
  0
LINE
  5
CDF
330
A02
100
AcDbEntity
  8
Fillet
100
AcDbLine
 10
23.5125
 20
106.985
 30
0
 11
24.5517
 21
107.585
 31
0
  0
LINE
  5
CE0
330
A02
100
AcDbEntity
  8
Fillet
100
AcDbLine
 10
15.2325
 20
108.786
 30
0
 11
15.2325
 21
108.786
 31
1.5
  0
LINE
  5
CE1
330
A02
100
AcDbEntity
  8
Fillet
100
AcDbLine
 10
15.2325
 20
108.786
 30
1.5
 11
12.8076
 21
107.386
 31
1.5
  0
LINE
  5
CE2
330
A02
100
AcDbEntity
  8
Fillet
100
AcDbLine
 10
12.8076
 20
107.386
 30
0
 11
12.8076
 21
107.386
 31
1.5
  0
LINE
  5
CE3
330
A02
100
AcDbEntity
  8
Fillet
100
AcDbLine
 10
15.2325
 20
108.786
 30
0
 11
12.8076
 21
107.386
 31
0
  0
LINE
  5
CE4
330
A02
100
AcDbEntity
  8
Fillet
100
AcDbLine
 10
24.425
 20
105.404
 30
0
 11
24.425
 21
105.404
 31
1.5
  0
LINE
  5
CE5
330
A02
100
AcDbEntity
  8
Fillet
100
AcDbLine
 10
24.425
 20
105.404
 30
1.5
 11
23.5125
 21
106.985
 31
1.5
  0
LINE
  5
CE6
330
A02
100
AcDbEntity
  8
Fillet
100
AcDbLine
 10
23.5125
 20
106.985
 30
0
 11
23.5125
 21
106.985
 31
1.5
  0
LINE
  5
CE7
330
A02
100
AcDbEntity
  8
Fillet
100
AcDbLine
 10
24.425
 20
105.404
 30
0
 11
23.5125
 21
106.985
 31
0
  0
LINE
  5
CE8
330
A02
100
AcDbEntity
  8
Fillet
100
AcDbLine
 10
12.8076
 20
107.386
 30
0
 11
12.8076
 21
107.386
 31
1.5
  0
LINE
  5
CE9
330
A02
100
AcDbEntity
  8
Fillet
100
AcDbLine
 10
12.8076
 20
107.386
 30
1.5
 11
13.2451
 21
106.628
 31
1.5
  0
LINE
  5
CEA
330
A02
100
AcDbEntity
  8
Fillet
100
AcDbLine
 10
13.2451
 20
106.628
 30
0
 11
13.2451
 21
106.628
 31
1.5
  0
LINE
  5
CEB
330
A02
100
AcDbEntity
  8
Fillet
100
AcDbLine
 10
12.8076
 20
107.386
 30
0
 11
13.2451
 21
106.628
 31
0
  0
LINE
  5
CEC
330
A02
100
AcDbEntity
  8
Fillet
100
AcDbLine
 10
23.7322
 20
105.004
 30
0
 11
23.7322
 21
105.004
 31
1.5
  0
LINE
  5
CED
330
A02
100
AcDbEntity
  8
Fillet
100
AcDbLine
 10
23.7322
 20
105.004
 30
1.5
 11
24.425
 21
105.404
 31
1.5
  0
LINE
  5
CEE
330
A02
100
AcDbEntity
  8
Fillet
100
AcDbLine
 10
24.425
 20
105.404
 30
0
 11
24.425
 21
105.404
 31
1.5
  0
LINE
  5
CEF
330
A02
100
AcDbEntity
  8
Fillet
100
AcDbLine
 10
23.7322
 20
105.004
 30
0
 11
24.425
 21
105.404
 31
0
  0
LINE
  5
CF0
330
A02
100
AcDbEntity
  8
Fillet
100
AcDbLine
 10
13.2451
 20
106.628
 30
0
 11
13.2451
 21
106.628
 31
1.5
  0
LINE
  5
CF1
330
A02
100
AcDbEntity
  8
Fillet
100
AcDbLine
 10
13.2451
 20
106.628
 30
1.5
 11
10.4479
 21
105.013
 31
1.5
  0
LINE
  5
CF2
330
A02
100
AcDbEntity
  8
Fillet
100
AcDbLine
 10
10.4479
 20
105.013
 30
0
 11
10.4479
 21
105.013
 31
1.5
  0
LINE
  5
CF3
330
A02
100
AcDbEntity
  8
Fillet
100
AcDbLine
 10
13.2451
 20
106.628
 30
0
 11
10.4479
 21
105.013
 31
0
  0
LINE
  5
CF4
330
A02
100
AcDbEntity
  8
Fillet
100
AcDbLine
 10
24.5197
 20
103.64
 30
0
 11
24.5197
 21
103.64
 31
1.5
  0
LINE
  5
CF5
330
A02
100
AcDbEntity
  8
Fillet
100
AcDbLine
 10
24.5197
 20
103.64
 30
1.5
 11
23.7322
 21
105.004
 31
1.5
  0
LINE
  5
CF6
330
A02
100
AcDbEntity
  8
Fillet
100
AcDbLine
 10
23.7322
 20
105.004
 30
0
 11
23.7322
 21
105.004
 31
1.5
  0
LINE
  5
CF7
330
A02
100
AcDbEntity
  8
Fillet
100
AcDbLine
 10
24.5197
 20
103.64
 30
0
 11
23.7322
 21
105.004
 31
0
  0
LINE
  5
CF8
330
A02
100
AcDbEntity
  8
Fillet
100
AcDbLine
 10
10.4479
 20
105.013
 30
0
 11
10.4479
 21
105.013
 31
1.5
  0
LINE
  5
CF9
330
A02
100
AcDbEntity
  8
Fillet
100
AcDbLine
 10
10.4479
 20
105.013
 30
1.5
 11
13.7729
 21
99.2542
 31
1.5
  0
LINE
  5
CFA
330
A02
100
AcDbEntity
  8
Fillet
100
AcDbLine
 10
13.7729
 20
99.2542
 30
0
 11
13.7729
 21
99.2542
 31
1.5
  0
LINE
  5
CFB
330
A02
100
AcDbEntity
  8
Fillet
100
AcDbLine
 10
10.4479
 20
105.013
 30
0
 11
13.7729
 21
99.2542
 31
0
  0
LINE
  5
CFC
330
A02
100
AcDbEntity
  8
Fillet
100
AcDbLine
 10
25.4117
 20
104.155
 30
0
 11
25.4117
 21
104.155
 31
1.5
  0
LINE
  5
CFD
330
A02
100
AcDbEntity
  8
Fillet
100
AcDbLine
 10
25.4117
 20
104.155
 30
1.5
 11
24.5197
 21
103.64
 31
1.5
  0
LINE
  5
CFE
330
A02
100
AcDbEntity
  8
Fillet
100
AcDbLine
 10
24.5197
 20
103.64
 30
0
 11
24.5197
 21
103.64
 31
1.5
  0
LINE
  5
CFF
330
A02
100
AcDbEntity
  8
Fillet
100
AcDbLine
 10
25.4117
 20
104.155
 30
0
 11
24.5197
 21
103.64
 31
0
  0
LINE
  5
D00
330
A02
100
AcDbEntity
  8
Fillet
100
AcDbLine
 10
13.7729
 20
99.2542
 30
0
 11
13.7729
 21
99.2542
 31
1.5
  0
LINE
  5
D01
330
A02
100
AcDbEntity
  8
Fillet
100
AcDbLine
 10
13.7729
 20
99.2542
 30
1.5
 11
14.4657
 21
99.6542
 31
1.5
  0
LINE
  5
D02
330
A02
100
AcDbEntity
  8
Fillet
100
AcDbLine
 10
14.4657
 20
99.6542
 30
0
 11
14.4657
 21
99.6542
 31
1.5
  0
LINE
  5
D03
330
A02
100
AcDbEntity
  8
Fillet
100
AcDbLine
 10
13.7729
 20
99.2542
 30
0
 11
14.4657
 21
99.6542
 31
0
  0
LINE
  5
D04
330
A02
100
AcDbEntity
  8
Fillet
100
AcDbLine
 10
32.4117
 20
92.0309
 30
0
 11
32.4117
 21
92.0309
 31
1.5
  0
LINE
  5
D05
330
A02
100
AcDbEntity
  8
Fillet
100
AcDbLine
 10
32.4117
 20
92.0309
 30
1.5
 11
25.4117
 21
104.155
 31
1.5
  0
LINE
  5
D06
330
A02
100
AcDbEntity
  8
Fillet
100
AcDbLine
 10
25.4117
 20
104.155
 30
0
 11
25.4117
 21
104.155
 31
1.5
  0
LINE
  5
D07
330
A02
100
AcDbEntity
  8
Fillet
100
AcDbLine
 10
32.4117
 20
92.0309
 30
0
 11
25.4117
 21
104.155
 31
0
  0
LINE
  5
D08
330
A02
100
AcDbEntity
  8
Fillet
100
AcDbLine
 10
14.4657
 20
99.6542
 30
0
 11
14.4657
 21
99.6542
 31
1.5
  0
LINE
  5
D09
330
A02
100
AcDbEntity
  8
Fillet
100
AcDbLine
 10
14.4657
 20
99.6542
 30
1.5
 11
15.2532
 21
98.2902
 31
1.5
  0
LINE
  5
D0A
330
A02
100
AcDbEntity
  8
Fillet
100
AcDbLine
 10
15.2532
 20
98.2902
 30
0
 11
15.2532
 21
98.2902
 31
1.5
  0
LINE
  5
D0B
330
A02
100
AcDbEntity
  8
Fillet
100
AcDbLine
 10
14.4657
 20
99.6542
 30
0
 11
15.2532
 21
98.2902
 31
0
  0
LINE
  5
D0C
330
A02
100
AcDbEntity
  8
Fillet
100
AcDbLine
 10
31.5197
 20
91.5159
 30
0
 11
31.5197
 21
91.5159
 31
1.5
  0
LINE
  5
D0D
330
A02
100
AcDbEntity
  8
Fillet
100
AcDbLine
 10
31.5197
 20
91.5159
 30
1.5
 11
32.4117
 21
92.0309
 31
1.5
  0
LINE
  5
D0E
330
A02
100
AcDbEntity
  8
Fillet
100
AcDbLine
 10
32.4117
 20
92.0309
 30
0
 11
32.4117
 21
92.0309
 31
1.5
  0
LINE
  5
D0F
330
A02
100
AcDbEntity
  8
Fillet
100
AcDbLine
 10
31.5197
 20
91.5159
 30
0
 11
32.4117
 21
92.0309
 31
0
  0
LINE
  5
D10
330
A02
100
AcDbEntity
  8
Fillet
100
AcDbLine
 10
15.2532
 20
98.2902
 30
0
 11
15.2532
 21
98.2902
 31
1.5
  0
LINE
  5
D11
330
A02
100
AcDbEntity
  8
Fillet
100
AcDbLine
 10
15.2532
 20
98.2902
 30
1.5
 11
13.2873
 21
97.1552
 31
1.5
  0
LINE
  5
D12
330
A02
100
AcDbEntity
  8
Fillet
100
AcDbLine
 10
13.2873
 20
97.1552
 30
0
 11
13.2873
 21
97.1552
 31
1.5
  0
LINE
  5
D13
330
A02
100
AcDbEntity
  8
Fillet
100
AcDbLine
 10
15.2532
 20
98.2902
 30
0
 11
13.2873
 21
97.1552
 31
0
  0
LINE
  5
D14
330
A02
100
AcDbEntity
  8
Fillet
100
AcDbLine
 10
32.3072
 20
90.1519
 30
0
 11
32.3072
 21
90.1519
 31
1.5
  0
LINE
  5
D15
330
A02
100
AcDbEntity
  8
Fillet
100
AcDbLine
 10
32.3072
 20
90.1519
 30
1.5
 11
31.5197
 21
91.5159
 31
1.5
  0
LINE
  5
D16
330
A02
100
AcDbEntity
  8
Fillet
100
AcDbLine
 10
31.5197
 20
91.5159
 30
0
 11
31.5197
 21
91.5159
 31
1.5
  0
LINE
  5
D17
330
A02
100
AcDbEntity
  8
Fillet
100
AcDbLine
 10
32.3072
 20
90.1519
 30
0
 11
31.5197
 21
91.5159
 31
0
  0
LINE
  5
D18
330
A02
100
AcDbEntity
  8
Fillet
100
AcDbLine
 10
13.2873
 20
97.1552
 30
0
 11
13.2873
 21
97.1552
 31
1.5
  0
LINE
  5
D19
330
A02
100
AcDbEntity
  8
Fillet
100
AcDbLine
 10
13.2873
 20
97.1552
 30
1.5
 11
20.2873
 21
85.0309
 31
1.5
  0
LINE
  5
D1A
330
A02
100
AcDbEntity
  8
Fillet
100
AcDbLine
 10
20.2873
 20
85.0309
 30
0
 11
20.2873
 21
85.0309
 31
1.5
  0
LINE
  5
D1B
330
A02
100
AcDbEntity
  8
Fillet
100
AcDbLine
 10
13.2873
 20
97.1552
 30
0
 11
20.2873
 21
85.0309
 31
0
  0
LINE
  5
D1C
330
A02
100
AcDbEntity
  8
Fillet
100
AcDbLine
 10
33
 20
90.5519
 30
0
 11
33
 21
90.5519
 31
1.5
  0
LINE
  5
D1D
330
A02
100
AcDbEntity
  8
Fillet
100
AcDbLine
 10
33
 20
90.5519
 30
1.5
 11
32.3072
 21
90.1519
 31
1.5
  0
LINE
  5
D1E
330
A02
100
AcDbEntity
  8
Fillet
100
AcDbLine
 10
32.3072
 20
90.1519
 30
0
 11
32.3072
 21
90.1519
 31
1.5
  0
LINE
  5
D1F
330
A02
100
AcDbEntity
  8
Fillet
100
AcDbLine
 10
33
 20
90.5519
 30
0
 11
32.3072
 21
90.1519
 31
0
  0
LINE
  5
D20
330
A02
100
AcDbEntity
  8
Fillet
100
AcDbLine
 10
20.2873
 20
85.0309
 30
0
 11
20.2873
 21
85.0309
 31
1.5
  0
LINE
  5
D21
330
A02
100
AcDbEntity
  8
Fillet
100
AcDbLine
 10
20.2873
 20
85.0309
 30
1.5
 11
22.2532
 21
86.1659
 31
1.5
  0
LINE
  5
D22
330
A02
100
AcDbEntity
  8
Fillet
100
AcDbLine
 10
22.2532
 20
86.1659
 30
0
 11
22.2532
 21
86.1659
 31
1.5
  0
LINE
  5
D23
330
A02
100
AcDbEntity
  8
Fillet
100
AcDbLine
 10
20.2873
 20
85.0309
 30
0
 11
22.2532
 21
86.1659
 31
0
  0
LINE
  5
D24
330
A02
100
AcDbEntity
  8
Fillet
100
AcDbLine
 10
33.9125
 20
88.9714
 30
0
 11
33.9125
 21
88.9714
 31
1.5
  0
LINE
  5
D25
330
A02
100
AcDbEntity
  8
Fillet
100
AcDbLine
 10
33.9125
 20
88.9714
 30
1.5
 11
33
 21
90.5519
 31
1.5
  0
LINE
  5
D26
330
A02
100
AcDbEntity
  8
Fillet
100
AcDbLine
 10
33
 20
90.5519
 30
0
 11
33
 21
90.5519
 31
1.5
  0
LINE
  5
D27
330
A02
100
AcDbEntity
  8
Fillet
100
AcDbLine
 10
33.9125
 20
88.9714
 30
0
 11
33
 21
90.5519
 31
0
  0
LINE
  5
D28
330
A02
100
AcDbEntity
  8
Fillet
100
AcDbLine
 10
22.2532
 20
86.1659
 30
0
 11
22.2532
 21
86.1659
 31
1.5
  0
LINE
  5
D29
330
A02
100
AcDbEntity
  8
Fillet
100
AcDbLine
 10
22.2532
 20
86.1659
 30
1.5
 11
23.0407
 21
84.8019
 31
1.5
  0
LINE
  5
D2A
330
A02
100
AcDbEntity
  8
Fillet
100
AcDbLine
 10
23.0407
 20
84.8019
 30
0
 11
23.0407
 21
84.8019
 31
1.5
  0
LINE
  5
D2B
330
A02
100
AcDbEntity
  8
Fillet
100
AcDbLine
 10
22.2532
 20
86.1659
 30
0
 11
23.0407
 21
84.8019
 31
0
  0
LINE
  5
D2C
330
A02
100
AcDbEntity
  8
Fillet
100
AcDbLine
 10
34.9517
 20
89.5714
 30
0
 11
34.9517
 21
89.5714
 31
1.5
  0
LINE
  5
D2D
330
A02
100
AcDbEntity
  8
Fillet
100
AcDbLine
 10
34.9517
 20
89.5714
 30
1.5
 11
33.9125
 21
88.9714
 31
1.5
  0
LINE
  5
D2E
330
A02
100
AcDbEntity
  8
Fillet
100
AcDbLine
 10
33.9125
 20
88.9714
 30
0
 11
33.9125
 21
88.9714
 31
1.5
  0
LINE
  5
D2F
330
A02
100
AcDbEntity
  8
Fillet
100
AcDbLine
 10
34.9517
 20
89.5714
 30
0
 11
33.9125
 21
88.9714
 31
0
  0
LINE
  5
D30
330
A02
100
AcDbEntity
  8
Fillet
100
AcDbLine
 10
23.0407
 20
84.8019
 30
0
 11
23.0407
 21
84.8019
 31
1.5
  0
LINE
  5
D31
330
A02
100
AcDbEntity
  8
Fillet
100
AcDbLine
 10
23.0407
 20
84.8019
 30
1.5
 11
22.3479
 21
84.4019
 31
1.5
  0
LINE
  5
D32
330
A02
100
AcDbEntity
  8
Fillet
100
AcDbLine
 10
22.3479
 20
84.4019
 30
0
 11
22.3479
 21
84.4019
 31
1.5
  0
LINE
  5
D33
330
A02
100
AcDbEntity
  8
Fillet
100
AcDbLine
 10
23.0407
 20
84.8019
 30
0
 11
22.3479
 21
84.4019
 31
0
  0
LINE
  5
D34
330
A02
100
AcDbEntity
  8
Fillet
100
AcDbLine
 10
36.4517
 20
86.9733
 30
0
 11
36.4517
 21
86.9733
 31
1.5
  0
LINE
  5
D35
330
A02
100
AcDbEntity
  8
Fillet
100
AcDbLine
 10
36.4517
 20
86.9733
 30
1.5
 11
34.9517
 21
89.5714
 31
1.5
  0
LINE
  5
D36
330
A02
100
AcDbEntity
  8
Fillet
100
AcDbLine
 10
34.9517
 20
89.5714
 30
0
 11
34.9517
 21
89.5714
 31
1.5
  0
LINE
  5
D37
330
A02
100
AcDbEntity
  8
Fillet
100
AcDbLine
 10
36.4517
 20
86.9733
 30
0
 11
34.9517
 21
89.5714
 31
0
  0
LINE
  5
D38
330
A02
100
AcDbEntity
  8
Fillet
100
AcDbLine
 10
22.3479
 20
84.4019
 30
0
 11
22.3479
 21
84.4019
 31
1.5
  0
LINE
  5
D39
330
A02
100
AcDbEntity
  8
Fillet
100
AcDbLine
 10
22.3479
 20
84.4019
 30
1.5
 11
25.6729
 21
78.6428
 31
1.5
  0
LINE
  5
D3A
330
A02
100
AcDbEntity
  8
Fillet
100
AcDbLine
 10
25.6729
 20
78.6428
 30
0
 11
25.6729
 21
78.6428
 31
1.5
  0
LINE
  5
D3B
330
A02
100
AcDbEntity
  8
Fillet
100
AcDbLine
 10
22.3479
 20
84.4019
 30
0
 11
25.6729
 21
78.6428
 31
0
  0
LINE
  5
D3C
330
A02
100
AcDbEntity
  8
Fillet
100
AcDbLine
 10
35.4125
 20
86.3733
 30
0
 11
35.4125
 21
86.3733
 31
1.5
  0
LINE
  5
D3D
330
A02
100
AcDbEntity
  8
Fillet
100
AcDbLine
 10
35.4125
 20
86.3733
 30
1.5
 11
36.4517
 21
86.9733
 31
1.5
  0
LINE
  5
D3E
330
A02
100
AcDbEntity
  8
Fillet
100
AcDbLine
 10
36.4517
 20
86.9733
 30
0
 11
36.4517
 21
86.9733
 31
1.5
  0
LINE
  5
D3F
330
A02
100
AcDbEntity
  8
Fillet
100
AcDbLine
 10
35.4125
 20
86.3733
 30
0
 11
36.4517
 21
86.9733
 31
0
  0
LINE
  5
D40
330
A02
100
AcDbEntity
  8
Fillet
100
AcDbLine
 10
25.6729
 20
78.6428
 30
0
 11
25.6729
 21
78.6428
 31
1.5
  0
LINE
  5
D41
330
A02
100
AcDbEntity
  8
Fillet
100
AcDbLine
 10
25.6729
 20
78.6428
 30
1.5
 11
28.4701
 21
80.2578
 31
1.5
  0
LINE
  5
D42
330
A02
100
AcDbEntity
  8
Fillet
100
AcDbLine
 10
28.4701
 20
80.2578
 30
0
 11
28.4701
 21
80.2578
 31
1.5
  0
LINE
  5
D43
330
A02
100
AcDbEntity
  8
Fillet
100
AcDbLine
 10
25.6729
 20
78.6428
 30
0
 11
28.4701
 21
80.2578
 31
0
  0
LINE
  5
D44
330
A02
100
AcDbEntity
  8
Fillet
100
AcDbLine
 10
36.325
 20
84.7928
 30
0
 11
36.325
 21
84.7928
 31
1.5
  0
LINE
  5
D45
330
A02
100
AcDbEntity
  8
Fillet
100
AcDbLine
 10
36.325
 20
84.7928
 30
1.5
 11
35.4125
 21
86.3733
 31
1.5
  0
LINE
  5
D46
330
A02
100
AcDbEntity
  8
Fillet
100
AcDbLine
 10
35.4125
 20
86.3733
 30
0
 11
35.4125
 21
86.3733
 31
1.5
  0
LINE
  5
D47
330
A02
100
AcDbEntity
  8
Fillet
100
AcDbLine
 10
36.325
 20
84.7928
 30
0
 11
35.4125
 21
86.3733
 31
0
  0
LINE
  5
D48
330
A02
100
AcDbEntity
  8
Fillet
100
AcDbLine
 10
28.4701
 20
80.2578
 30
0
 11
28.4701
 21
80.2578
 31
1.5
  0
LINE
  5
D49
330
A02
100
AcDbEntity
  8
Fillet
100
AcDbLine
 10
28.4701
 20
80.2578
 30
1.5
 11
28.9076
 21
79.5
 31
1.5
  0
LINE
  5
D4A
330
A02
100
AcDbEntity
  8
Fillet
100
AcDbLine
 10
28.9076
 20
79.5
 30
0
 11
28.9076
 21
79.5
 31
1.5
  0
LINE
  5
D4B
330
A02
100
AcDbEntity
  8
Fillet
100
AcDbLine
 10
28.4701
 20
80.2578
 30
0
 11
28.9076
 21
79.5
 31
0
  0
LINE
  5
D4C
330
A02
100
AcDbEntity
  8
Fillet
100
AcDbLine
 10
30.895
 20
81.6578
 30
0
 11
30.895
 21
81.6578
 31
1.5
  0
LINE
  5
D4D
330
A02
100
AcDbEntity
  8
Fillet
100
AcDbLine
 10
30.895
 20
81.6578
 30
1.5
 11
36.325
 21
84.7928
 31
1.5
  0
LINE
  5
D4E
330
A02
100
AcDbEntity
  8
Fillet
100
AcDbLine
 10
36.325
 20
84.7928
 30
0
 11
36.325
 21
84.7928
 31
1.5
  0
LINE
  5
D4F
330
A02
100
AcDbEntity
  8
Fillet
100
AcDbLine
 10
30.895
 20
81.6578
 30
0
 11
36.325
 21
84.7928
 31
0
  0
LINE
  5
D50
330
A02
100
AcDbEntity
  8
Fillet
100
AcDbLine
 10
28.9076
 20
79.5
 30
0
 11
28.9076
 21
79.5
 31
1.5
  0
LINE
  5
D51
330
A02
100
AcDbEntity
  8
Fillet
100
AcDbLine
 10
28.9076
 20
79.5
 30
1.5
 11
31.3325
 21
80.9
 31
1.5
  0
LINE
  5
D52
330
A02
100
AcDbEntity
  8
Fillet
100
AcDbLine
 10
31.3325
 20
80.9
 30
0
 11
31.3325
 21
80.9
 31
1.5
  0
LINE
  5
D53
330
A02
100
AcDbEntity
  8
Fillet
100
AcDbLine
 10
28.9076
 20
79.5
 30
0
 11
31.3325
 21
80.9
 31
0
  0
LINE
  5
D54
330
A02
100
AcDbEntity
  8
Fillet
100
AcDbLine
 10
31.3325
 20
80.9
 30
0
 11
31.3325
 21
80.9
 31
1.5
  0
LINE
  5
D55
330
A02
100
AcDbEntity
  8
Fillet
100
AcDbLine
 10
31.3325
 20
80.9
 30
1.5
 11
30.895
 21
81.6578
 31
1.5
  0
LINE
  5
D56
330
A02
100
AcDbEntity
  8
Fillet
100
AcDbLine
 10
30.895
 20
81.6578
 30
0
 11
30.895
 21
81.6578
 31
1.5
  0
LINE
  5
D57
330
A02
100
AcDbEntity
  8
Fillet
100
AcDbLine
 10
31.3325
 20
80.9
 30
0
 11
30.895
 21
81.6578
 31
0
  0
LINE
  5
D58
330
A02
100
AcDbEntity
  8
Fillet
100
AcDbLine
 10
46.6678
 20
105.445
 30
0
 11
46.6678
 21
105.445
 31
1.5
  0
LINE
  5
D59
330
A02
100
AcDbEntity
  8
Fillet
100
AcDbLine
 10
46.6678
 20
105.445
 30
1.5
 11
34.5391
 21
98.4383
 31
1.5
  0
LINE
  5
D5A
330
A02
100
AcDbEntity
  8
Fillet
100
AcDbLine
 10
34.5391
 20
98.4383
 30
0
 11
34.5391
 21
98.4383
 31
1.5
  0
LINE
  5
D5B
330
A02
100
AcDbEntity
  8
Fillet
100
AcDbLine
 10
46.6678
 20
105.445
 30
0
 11
34.5391
 21
98.4383
 31
0
  0
LINE
  5
D5C
330
A02
100
AcDbEntity
  8
Fillet
100
AcDbLine
 10
53.6528
 20
93.3161
 30
0
 11
53.6528
 21
93.3161
 31
1.5
  0
LINE
  5
D5D
330
A02
100
AcDbEntity
  8
Fillet
100
AcDbLine
 10
53.6528
 20
93.3161
 30
1.5
 11
46.6678
 21
105.445
 31
1.5
  0
LINE
  5
D5E
330
A02
100
AcDbEntity
  8
Fillet
100
AcDbLine
 10
46.6678
 20
105.445
 30
0
 11
46.6678
 21
105.445
 31
1.5
  0
LINE
  5
D5F
330
A02
100
AcDbEntity
  8
Fillet
100
AcDbLine
 10
53.6528
 20
93.3161
 30
0
 11
46.6678
 21
105.445
 31
0
  0
LINE
  5
D60
330
A02
100
AcDbEntity
  8
Fillet
100
AcDbLine
 10
34.5391
 20
98.4383
 30
0
 11
34.5391
 21
98.4383
 31
1.5
  0
LINE
  5
D61
330
A02
100
AcDbEntity
  8
Fillet
100
AcDbLine
 10
34.5391
 20
98.4383
 30
1.5
 11
41.5453
 21
86.3102
 31
1.5
  0
LINE
  5
D62
330
A02
100
AcDbEntity
  8
Fillet
100
AcDbLine
 10
41.5453
 20
86.3102
 30
0
 11
41.5453
 21
86.3102
 31
1.5
  0
LINE
  5
D63
330
A02
100
AcDbEntity
  8
Fillet
100
AcDbLine
 10
34.5391
 20
98.4383
 30
0
 11
41.5453
 21
86.3102
 31
0
  0
LINE
  5
D64
330
A02
100
AcDbEntity
  8
Fillet
100
AcDbLine
 10
41.5453
 20
86.3102
 30
0
 11
41.5453
 21
86.3102
 31
1.5
  0
LINE
  5
D65
330
A02
100
AcDbEntity
  8
Fillet
100
AcDbLine
 10
41.5453
 20
86.3102
 30
1.5
 11
53.6528
 21
93.3161
 31
1.5
  0
LINE
  5
D66
330
A02
100
AcDbEntity
  8
Fillet
100
AcDbLine
 10
53.6528
 20
93.3161
 30
0
 11
53.6528
 21
93.3161
 31
1.5
  0
LINE
  5
D67
330
A02
100
AcDbEntity
  8
Fillet
100
AcDbLine
 10
41.5453
 20
86.3102
 30
0
 11
53.6528
 21
93.3161
 31
0
  0
LINE
  5
D68
330
A02
100
AcDbEntity
  8
Fillet
100
AcDbLine
 10
5.35344
 20
107.955
 30
0
 11
5.35344
 21
107.955
 31
1.5
  0
CIRCLE
  5
D69
330
A02
100
AcDbEntity
  8
Fillet
100
AcDbCircle
 10
4.15344
 20
107.955
 40
1.2
  0
LINE
  5
D6A
330
A02
100
AcDbEntity
  8
Fillet
100
AcDbLine
 10
5.35344
 20
107.955
 30
0
 11
5.35344
 21
107.955
 31
1.5
  0
CIRCLE
  5
D6B
330
A02
100
AcDbEntity
  8
Fillet
100
AcDbCircle
 10
4.15344
 20
107.955
 40
1.2
  0
LINE
  5
D6C
330
A02
100
AcDbEntity
  8
Fillet
100
AcDbLine
 10
24.1039
 20
119.839
 30
0
 11
24.1039
 21
119.839
 31
1.5
  0
LINE
  5
D6D
330
A02
100
AcDbEntity
  8
Fillet
100
AcDbLine
 10
24.1039
 20
119.839
 30
1.5
 11
24.1039
 21
133.829
 31
1.5
  0
LINE
  5
D6E
330
A02
100
AcDbEntity
  8
Fillet
100
AcDbLine
 10
24.1039
 20
133.829
 30
0
 11
24.1039
 21
133.829
 31
1.5
  0
LINE
  5
D6F
330
A02
100
AcDbEntity
  8
Fillet
100
AcDbLine
 10
24.1039
 20
119.839
 30
0
 11
24.1039
 21
133.829
 31
0
  0
LINE
  5
D70
330
A02
100
AcDbEntity
  8
Fillet
100
AcDbLine
 10
10.0919
 20
119.839
 30
0
 11
10.0919
 21
119.839
 31
1.5
  0
LINE
  5
D71
330
A02
100
AcDbEntity
  8
Fillet
100
AcDbLine
 10
10.0919
 20
119.839
 30
1.5
 11
24.1039
 21
119.839
 31
1.5
  0
LINE
  5
D72
330
A02
100
AcDbEntity
  8
Fillet
100
AcDbLine
 10
24.1039
 20
119.839
 30
0
 11
24.1039
 21
119.839
 31
1.5
  0
LINE
  5
D73
330
A02
100
AcDbEntity
  8
Fillet
100
AcDbLine
 10
10.0919
 20
119.839
 30
0
 11
24.1039
 21
119.839
 31
0
  0
LINE
  5
D74
330
A02
100
AcDbEntity
  8
Fillet
100
AcDbLine
 10
24.1039
 20
133.829
 30
0
 11
24.1039
 21
133.829
 31
1.5
  0
LINE
  5
D75
330
A02
100
AcDbEntity
  8
Fillet
100
AcDbLine
 10
24.1039
 20
133.829
 30
1.5
 11
10.0919
 21
133.829
 31
1.5
  0
LINE
  5
D76
330
A02
100
AcDbEntity
  8
Fillet
100
AcDbLine
 10
10.0919
 20
133.829
 30
0
 11
10.0919
 21
133.829
 31
1.5
  0
LINE
  5
D77
330
A02
100
AcDbEntity
  8
Fillet
100
AcDbLine
 10
24.1039
 20
133.829
 30
0
 11
10.0919
 21
133.829
 31
0
  0
LINE
  5
D78
330
A02
100
AcDbEntity
  8
Fillet
100
AcDbLine
 10
10.0919
 20
133.829
 30
0
 11
10.0919
 21
133.829
 31
1.5
  0
LINE
  5
D79
330
A02
100
AcDbEntity
  8
Fillet
100
AcDbLine
 10
10.0919
 20
133.829
 30
1.5
 11
10.0919
 21
119.839
 31
1.5
  0
LINE
  5
D7A
330
A02
100
AcDbEntity
  8
Fillet
100
AcDbLine
 10
10.0919
 20
119.839
 30
0
 11
10.0919
 21
119.839
 31
1.5
  0
LINE
  5
D7B
330
A02
100
AcDbEntity
  8
Fillet
100
AcDbLine
 10
10.0919
 20
133.829
 30
0
 11
10.0919
 21
119.839
 31
0
  0
LINE
  5
D7C
330
A02
100
AcDbEntity
  8
Fillet
100
AcDbLine
 10
33.7926
 20
105.359
 30
0
 11
33.7926
 21
105.359
 31
1.5
  0
CIRCLE
  5
D7D
330
A02
100
AcDbEntity
  8
Fillet
100
AcDbCircle
 10
32.5926
 20
105.359
 40
1.2
  0
LINE
  5
D7E
330
A02
100
AcDbEntity
  8
Fillet
100
AcDbLine
 10
33.7926
 20
105.359
 30
0
 11
33.7926
 21
105.359
 31
1.5
  0
CIRCLE
  5
D7F
330
A02
100
AcDbEntity
  8
Fillet
100
AcDbCircle
 10
32.5926
 20
105.359
 40
1.2
  0
LINE
  5
D80
330
A02
100
AcDbEntity
  8
Fillet
100
AcDbLine
 10
29.1419
 20
124.305
 30
0
 11
29.1419
 21
124.305
 31
1.5
  0
LINE
  5
D81
330
A02
100
AcDbEntity
  8
Fillet
100
AcDbLine
 10
29.1419
 20
124.305
 30
1.5
 11
43.1539
 21
124.305
 31
1.5
  0
LINE
  5
D82
330
A02
100
AcDbEntity
  8
Fillet
100
AcDbLine
 10
43.1539
 20
124.305
 30
0
 11
43.1539
 21
124.305
 31
1.5
  0
LINE
  5
D83
330
A02
100
AcDbEntity
  8
Fillet
100
AcDbLine
 10
29.1419
 20
124.305
 30
0
 11
43.1539
 21
124.305
 31
0
  0
LINE
  5
D84
330
A02
100
AcDbEntity
  8
Fillet
100
AcDbLine
 10
29.1419
 20
110.313
 30
0
 11
29.1419
 21
110.313
 31
1.5
  0
LINE
  5
D85
330
A02
100
AcDbEntity
  8
Fillet
100
AcDbLine
 10
29.1419
 20
110.313
 30
1.5
 11
29.1419
 21
124.305
 31
1.5
  0
LINE
  5
D86
330
A02
100
AcDbEntity
  8
Fillet
100
AcDbLine
 10
29.1419
 20
124.305
 30
0
 11
29.1419
 21
124.305
 31
1.5
  0
LINE
  5
D87
330
A02
100
AcDbEntity
  8
Fillet
100
AcDbLine
 10
29.1419
 20
110.313
 30
0
 11
29.1419
 21
124.305
 31
0
  0
LINE
  5
D88
330
A02
100
AcDbEntity
  8
Fillet
100
AcDbLine
 10
43.1539
 20
124.305
 30
0
 11
43.1539
 21
124.305
 31
1.5
  0
LINE
  5
D89
330
A02
100
AcDbEntity
  8
Fillet
100
AcDbLine
 10
43.1539
 20
124.305
 30
1.5
 11
43.1539
 21
110.313
 31
1.5
  0
LINE
  5
D8A
330
A02
100
AcDbEntity
  8
Fillet
100
AcDbLine
 10
43.1539
 20
110.313
 30
0
 11
43.1539
 21
110.313
 31
1.5
  0
LINE
  5
D8B
330
A02
100
AcDbEntity
  8
Fillet
100
AcDbLine
 10
43.1539
 20
124.305
 30
0
 11
43.1539
 21
110.313
 31
0
  0
LINE
  5
D8C
330
A02
100
AcDbEntity
  8
Fillet
100
AcDbLine
 10
43.1539
 20
110.313
 30
0
 11
43.1539
 21
110.313
 31
1.5
  0
LINE
  5
D8D
330
A02
100
AcDbEntity
  8
Fillet
100
AcDbLine
 10
43.1539
 20
110.313
 30
1.5
 11
29.1419
 21
110.313
 31
1.5
  0
LINE
  5
D8E
330
A02
100
AcDbEntity
  8
Fillet
100
AcDbLine
 10
29.1419
 20
110.313
 30
0
 11
29.1419
 21
110.313
 31
1.5
  0
LINE
  5
D8F
330
A02
100
AcDbEntity
  8
Fillet
100
AcDbLine
 10
43.1539
 20
110.313
 30
0
 11
29.1419
 21
110.313
 31
0
  0
LINE
  5
D90
330
A02
100
AcDbEntity
  8
Fillet
100
AcDbLine
 10
62.2039
 20
112.684
 30
0
 11
62.2039
 21
112.684
 31
1.5
  0
LINE
  5
D91
330
A02
100
AcDbEntity
  8
Fillet
100
AcDbLine
 10
62.2039
 20
112.684
 30
1.5
 11
62.2039
 21
126.696
 31
1.5
  0
LINE
  5
D92
330
A02
100
AcDbEntity
  8
Fillet
100
AcDbLine
 10
62.2039
 20
126.696
 30
0
 11
62.2039
 21
126.696
 31
1.5
  0
LINE
  5
D93
330
A02
100
AcDbEntity
  8
Fillet
100
AcDbLine
 10
62.2039
 20
112.684
 30
0
 11
62.2039
 21
126.696
 31
0
  0
LINE
  5
D94
330
A02
100
AcDbEntity
  8
Fillet
100
AcDbLine
 10
48.1919
 20
112.684
 30
0
 11
48.1919
 21
112.684
 31
1.5
  0
LINE
  5
D95
330
A02
100
AcDbEntity
  8
Fillet
100
AcDbLine
 10
48.1919
 20
112.684
 30
1.5
 11
62.2039
 21
112.684
 31
1.5
  0
LINE
  5
D96
330
A02
100
AcDbEntity
  8
Fillet
100
AcDbLine
 10
62.2039
 20
112.684
 30
0
 11
62.2039
 21
112.684
 31
1.5
  0
LINE
  5
D97
330
A02
100
AcDbEntity
  8
Fillet
100
AcDbLine
 10
48.1919
 20
112.684
 30
0
 11
62.2039
 21
112.684
 31
0
  0
LINE
  5
D98
330
A02
100
AcDbEntity
  8
Fillet
100
AcDbLine
 10
62.2039
 20
126.696
 30
0
 11
62.2039
 21
126.696
 31
1.5
  0
LINE
  5
D99
330
A02
100
AcDbEntity
  8
Fillet
100
AcDbLine
 10
62.2039
 20
126.696
 30
1.5
 11
48.1919
 21
126.696
 31
1.5
  0
LINE
  5
D9A
330
A02
100
AcDbEntity
  8
Fillet
100
AcDbLine
 10
48.1919
 20
126.696
 30
0
 11
48.1919
 21
126.696
 31
1.5
  0
LINE
  5
D9B
330
A02
100
AcDbEntity
  8
Fillet
100
AcDbLine
 10
62.2039
 20
126.696
 30
0
 11
48.1919
 21
126.696
 31
0
  0
LINE
  5
D9C
330
A02
100
AcDbEntity
  8
Fillet
100
AcDbLine
 10
48.1919
 20
126.696
 30
0
 11
48.1919
 21
126.696
 31
1.5
  0
LINE
  5
D9D
330
A02
100
AcDbEntity
  8
Fillet
100
AcDbLine
 10
48.1919
 20
126.696
 30
1.5
 11
48.1919
 21
112.684
 31
1.5
  0
LINE
  5
D9E
330
A02
100
AcDbEntity
  8
Fillet
100
AcDbLine
 10
48.1919
 20
112.684
 30
0
 11
48.1919
 21
112.684
 31
1.5
  0
LINE
  5
D9F
330
A02
100
AcDbEntity
  8
Fillet
100
AcDbLine
 10
48.1919
 20
126.696
 30
0
 11
48.1919
 21
112.684
 31
0
  0
LINE
  5
DA0
330
A02
100
AcDbEntity
  8
Fillet
100
AcDbLine
 10
119.354
 20
88.8713
 30
0
 11
119.354
 21
88.8713
 31
1.5
  0
LINE
  5
DA1
330
A02
100
AcDbEntity
  8
Fillet
100
AcDbLine
 10
119.354
 20
88.8713
 30
1.5
 11
119.354
 21
102.883
 31
1.5
  0
LINE
  5
DA2
330
A02
100
AcDbEntity
  8
Fillet
100
AcDbLine
 10
119.354
 20
102.883
 30
0
 11
119.354
 21
102.883
 31
1.5
  0
LINE
  5
DA3
330
A02
100
AcDbEntity
  8
Fillet
100
AcDbLine
 10
119.354
 20
88.8713
 30
0
 11
119.354
 21
102.883
 31
0
  0
LINE
  5
DA4
330
A02
100
AcDbEntity
  8
Fillet
100
AcDbLine
 10
105.342
 20
88.8713
 30
0
 11
105.342
 21
88.8713
 31
1.5
  0
LINE
  5
DA5
330
A02
100
AcDbEntity
  8
Fillet
100
AcDbLine
 10
105.342
 20
88.8713
 30
1.5
 11
119.354
 21
88.8713
 31
1.5
  0
LINE
  5
DA6
330
A02
100
AcDbEntity
  8
Fillet
100
AcDbLine
 10
119.354
 20
88.8713
 30
0
 11
119.354
 21
88.8713
 31
1.5
  0
LINE
  5
DA7
330
A02
100
AcDbEntity
  8
Fillet
100
AcDbLine
 10
105.342
 20
88.8713
 30
0
 11
119.354
 21
88.8713
 31
0
  0
LINE
  5
DA8
330
A02
100
AcDbEntity
  8
Fillet
100
AcDbLine
 10
119.354
 20
102.883
 30
0
 11
119.354
 21
102.883
 31
1.5
  0
LINE
  5
DA9
330
A02
100
AcDbEntity
  8
Fillet
100
AcDbLine
 10
119.354
 20
102.883
 30
1.5
 11
105.342
 21
102.883
 31
1.5
  0
LINE
  5
DAA
330
A02
100
AcDbEntity
  8
Fillet
100
AcDbLine
 10
105.342
 20
102.883
 30
0
 11
105.342
 21
102.883
 31
1.5
  0
LINE
  5
DAB
330
A02
100
AcDbEntity
  8
Fillet
100
AcDbLine
 10
119.354
 20
102.883
 30
0
 11
105.342
 21
102.883
 31
0
  0
LINE
  5
DAC
330
A02
100
AcDbEntity
  8
Fillet
100
AcDbLine
 10
105.342
 20
102.883
 30
0
 11
105.342
 21
102.883
 31
1.5
  0
LINE
  5
DAD
330
A02
100
AcDbEntity
  8
Fillet
100
AcDbLine
 10
105.342
 20
102.883
 30
1.5
 11
105.342
 21
88.8713
 31
1.5
  0
LINE
  5
DAE
330
A02
100
AcDbEntity
  8
Fillet
100
AcDbLine
 10
105.342
 20
88.8713
 30
0
 11
105.342
 21
88.8713
 31
1.5
  0
LINE
  5
DAF
330
A02
100
AcDbEntity
  8
Fillet
100
AcDbLine
 10
105.342
 20
102.883
 30
0
 11
105.342
 21
88.8713
 31
0
  0
LINE
  5
DB0
330
A02
100
AcDbEntity
  8
Fillet
100
AcDbLine
 10
138.404
 20
88.8713
 30
0
 11
138.404
 21
88.8713
 31
1.5
  0
LINE
  5
DB1
330
A02
100
AcDbEntity
  8
Fillet
100
AcDbLine
 10
138.404
 20
88.8713
 30
1.5
 11
124.392
 21
88.8713
 31
1.5
  0
LINE
  5
DB2
330
A02
100
AcDbEntity
  8
Fillet
100
AcDbLine
 10
124.392
 20
88.8713
 30
0
 11
124.392
 21
88.8713
 31
1.5
  0
LINE
  5
DB3
330
A02
100
AcDbEntity
  8
Fillet
100
AcDbLine
 10
138.404
 20
88.8713
 30
0
 11
124.392
 21
88.8713
 31
0
  0
LINE
  5
DB4
330
A02
100
AcDbEntity
  8
Fillet
100
AcDbLine
 10
138.404
 20
102.883
 30
0
 11
138.404
 21
102.883
 31
1.5
  0
LINE
  5
DB5
330
A02
100
AcDbEntity
  8
Fillet
100
AcDbLine
 10
138.404
 20
102.883
 30
1.5
 11
138.404
 21
88.8713
 31
1.5
  0
LINE
  5
DB6
330
A02
100
AcDbEntity
  8
Fillet
100
AcDbLine
 10
138.404
 20
88.8713
 30
0
 11
138.404
 21
88.8713
 31
1.5
  0
LINE
  5
DB7
330
A02
100
AcDbEntity
  8
Fillet
100
AcDbLine
 10
138.404
 20
102.883
 30
0
 11
138.404
 21
88.8713
 31
0
  0
LINE
  5
DB8
330
A02
100
AcDbEntity
  8
Fillet
100
AcDbLine
 10
124.392
 20
88.8713
 30
0
 11
124.392
 21
88.8713
 31
1.5
  0
LINE
  5
DB9
330
A02
100
AcDbEntity
  8
Fillet
100
AcDbLine
 10
124.392
 20
88.8713
 30
1.5
 11
124.392
 21
102.883
 31
1.5
  0
LINE
  5
DBA
330
A02
100
AcDbEntity
  8
Fillet
100
AcDbLine
 10
124.392
 20
102.883
 30
0
 11
124.392
 21
102.883
 31
1.5
  0
LINE
  5
DBB
330
A02
100
AcDbEntity
  8
Fillet
100
AcDbLine
 10
124.392
 20
88.8713
 30
0
 11
124.392
 21
102.883
 31
0
  0
LINE
  5
DBC
330
A02
100
AcDbEntity
  8
Fillet
100
AcDbLine
 10
124.392
 20
102.883
 30
0
 11
124.392
 21
102.883
 31
1.5
  0
LINE
  5
DBD
330
A02
100
AcDbEntity
  8
Fillet
100
AcDbLine
 10
124.392
 20
102.883
 30
1.5
 11
138.404
 21
102.883
 31
1.5
  0
LINE
  5
DBE
330
A02
100
AcDbEntity
  8
Fillet
100
AcDbLine
 10
138.404
 20
102.883
 30
0
 11
138.404
 21
102.883
 31
1.5
  0
LINE
  5
DBF
330
A02
100
AcDbEntity
  8
Fillet
100
AcDbLine
 10
124.392
 20
102.883
 30
0
 11
138.404
 21
102.883
 31
0
  0
LINE
  5
DC0
330
A02
100
AcDbEntity
  8
Fillet
100
AcDbLine
 10
73.6342
 20
93.6147
 30
0
 11
73.6342
 21
93.6147
 31
1.5
  0
LINE
  5
DC1
330
A02
100
AcDbEntity
  8
Fillet
100
AcDbLine
 10
73.6342
 20
93.6147
 30
1.5
 11
59.6216
 21
93.6147
 31
1.5
  0
LINE
  5
DC2
330
A02
100
AcDbEntity
  8
Fillet
100
AcDbLine
 10
59.6216
 20
93.6147
 30
0
 11
59.6216
 21
93.6147
 31
1.5
  0
LINE
  5
DC3
330
A02
100
AcDbEntity
  8
Fillet
100
AcDbLine
 10
73.6342
 20
93.6147
 30
0
 11
59.6216
 21
93.6147
 31
0
  0
LINE
  5
DC4
330
A02
100
AcDbEntity
  8
Fillet
100
AcDbLine
 10
73.6342
 20
107.626
 30
0
 11
73.6342
 21
107.626
 31
1.5
  0
LINE
  5
DC5
330
A02
100
AcDbEntity
  8
Fillet
100
AcDbLine
 10
73.6342
 20
107.626
 30
1.5
 11
73.6342
 21
93.6147
 31
1.5
  0
LINE
  5
DC6
330
A02
100
AcDbEntity
  8
Fillet
100
AcDbLine
 10
73.6342
 20
93.6147
 30
0
 11
73.6342
 21
93.6147
 31
1.5
  0
LINE
  5
DC7
330
A02
100
AcDbEntity
  8
Fillet
100
AcDbLine
 10
73.6342
 20
107.626
 30
0
 11
73.6342
 21
93.6147
 31
0
  0
LINE
  5
DC8
330
A02
100
AcDbEntity
  8
Fillet
100
AcDbLine
 10
59.6216
 20
107.626
 30
0
 11
59.6216
 21
107.626
 31
1.5
  0
LINE
  5
DC9
330
A02
100
AcDbEntity
  8
Fillet
100
AcDbLine
 10
59.6216
 20
107.626
 30
1.5
 11
73.6342
 21
107.626
 31
1.5
  0
LINE
  5
DCA
330
A02
100
AcDbEntity
  8
Fillet
100
AcDbLine
 10
73.6342
 20
107.626
 30
0
 11
73.6342
 21
107.626
 31
1.5
  0
LINE
  5
DCB
330
A02
100
AcDbEntity
  8
Fillet
100
AcDbLine
 10
59.6216
 20
107.626
 30
0
 11
73.6342
 21
107.626
 31
0
  0
LINE
  5
DCC
330
A02
100
AcDbEntity
  8
Fillet
100
AcDbLine
 10
59.6216
 20
93.6147
 30
0
 11
59.6216
 21
93.6147
 31
1.5
  0
LINE
  5
DCD
330
A02
100
AcDbEntity
  8
Fillet
100
AcDbLine
 10
59.6216
 20
93.6147
 30
1.5
 11
59.6216
 21
107.626
 31
1.5
  0
LINE
  5
DCE
330
A02
100
AcDbEntity
  8
Fillet
100
AcDbLine
 10
59.6216
 20
107.626
 30
0
 11
59.6216
 21
107.626
 31
1.5
  0
LINE
  5
DCF
330
A02
100
AcDbEntity
  8
Fillet
100
AcDbLine
 10
59.6216
 20
93.6147
 30
0
 11
59.6216
 21
107.626
 31
0
  0
LINE
  5
DD0
330
A02
100
AcDbEntity
  8
Fillet
100
AcDbLine
 10
84.4719
 20
112.721
 30
0
 11
84.4719
 21
112.721
 31
1.5
  0
CIRCLE
  5
DD1
330
A02
100
AcDbEntity
  8
Fillet
100
AcDbCircle
 10
83.2719
 20
112.721
 40
1.2
  0
LINE
  5
DD2
330
A02
100
AcDbEntity
  8
Fillet
100
AcDbLine
 10
84.4719
 20
112.721
 30
0
 11
84.4719
 21
112.721
 31
1.5
  0
CIRCLE
  5
DD3
330
A02
100
AcDbEntity
  8
Fillet
100
AcDbCircle
 10
83.2719
 20
112.721
 40
1.2
  0
LINE
  5
DD4
330
A02
100
AcDbEntity
  8
Fillet
100
AcDbLine
 10
86.2916
 20
107.646
 30
0
 11
86.2916
 21
107.646
 31
1.5
  0
LINE
  5
DD5
330
A02
100
AcDbEntity
  8
Fillet
100
AcDbLine
 10
86.2916
 20
107.646
 30
1.5
 11
100.304
 21
107.646
 31
1.5
  0
LINE
  5
DD6
330
A02
100
AcDbEntity
  8
Fillet
100
AcDbLine
 10
100.304
 20
107.646
 30
0
 11
100.304
 21
107.646
 31
1.5
  0
LINE
  5
DD7
330
A02
100
AcDbEntity
  8
Fillet
100
AcDbLine
 10
86.2916
 20
107.646
 30
0
 11
100.304
 21
107.646
 31
0
  0
LINE
  5
DD8
330
A02
100
AcDbEntity
  8
Fillet
100
AcDbLine
 10
86.2916
 20
93.6337
 30
0
 11
86.2916
 21
93.6337
 31
1.5
  0
LINE
  5
DD9
330
A02
100
AcDbEntity
  8
Fillet
100
AcDbLine
 10
86.2916
 20
93.6337
 30
1.5
 11
86.2916
 21
107.646
 31
1.5
  0
LINE
  5
DDA
330
A02
100
AcDbEntity
  8
Fillet
100
AcDbLine
 10
86.2916
 20
107.646
 30
0
 11
86.2916
 21
107.646
 31
1.5
  0
LINE
  5
DDB
330
A02
100
AcDbEntity
  8
Fillet
100
AcDbLine
 10
86.2916
 20
93.6337
 30
0
 11
86.2916
 21
107.646
 31
0
  0
LINE
  5
DDC
330
A02
100
AcDbEntity
  8
Fillet
100
AcDbLine
 10
100.304
 20
107.646
 30
0
 11
100.304
 21
107.646
 31
1.5
  0
LINE
  5
DDD
330
A02
100
AcDbEntity
  8
Fillet
100
AcDbLine
 10
100.304
 20
107.646
 30
1.5
 11
100.304
 21
93.6337
 31
1.5
  0
LINE
  5
DDE
330
A02
100
AcDbEntity
  8
Fillet
100
AcDbLine
 10
100.304
 20
93.6337
 30
0
 11
100.304
 21
93.6337
 31
1.5
  0
LINE
  5
DDF
330
A02
100
AcDbEntity
  8
Fillet
100
AcDbLine
 10
100.304
 20
107.646
 30
0
 11
100.304
 21
93.6337
 31
0
  0
LINE
  5
DE0
330
A02
100
AcDbEntity
  8
Fillet
100
AcDbLine
 10
100.304
 20
93.6337
 30
0
 11
100.304
 21
93.6337
 31
1.5
  0
LINE
  5
DE1
330
A02
100
AcDbEntity
  8
Fillet
100
AcDbLine
 10
100.304
 20
93.6337
 30
1.5
 11
86.2916
 21
93.6337
 31
1.5
  0
LINE
  5
DE2
330
A02
100
AcDbEntity
  8
Fillet
100
AcDbLine
 10
86.2916
 20
93.6337
 30
0
 11
86.2916
 21
93.6337
 31
1.5
  0
LINE
  5
DE3
330
A02
100
AcDbEntity
  8
Fillet
100
AcDbLine
 10
100.304
 20
93.6337
 30
0
 11
86.2916
 21
93.6337
 31
0
  0
LINE
  5
DE4
330
A02
100
AcDbEntity
  8
Fillet
100
AcDbLine
 10
81.2542
 20
115.076
 30
0
 11
81.2542
 21
115.076
 31
1.5
  0
LINE
  5
DE5
330
A02
100
AcDbEntity
  8
Fillet
100
AcDbLine
 10
81.2542
 20
115.076
 30
1.5
 11
81.2542
 21
129.066
 31
1.5
  0
LINE
  5
DE6
330
A02
100
AcDbEntity
  8
Fillet
100
AcDbLine
 10
81.2542
 20
129.066
 30
0
 11
81.2542
 21
129.066
 31
1.5
  0
LINE
  5
DE7
330
A02
100
AcDbEntity
  8
Fillet
100
AcDbLine
 10
81.2542
 20
115.076
 30
0
 11
81.2542
 21
129.066
 31
0
  0
LINE
  5
DE8
330
A02
100
AcDbEntity
  8
Fillet
100
AcDbLine
 10
67.2419
 20
115.076
 30
0
 11
67.2419
 21
115.076
 31
1.5
  0
LINE
  5
DE9
330
A02
100
AcDbEntity
  8
Fillet
100
AcDbLine
 10
67.2419
 20
115.076
 30
1.5
 11
81.2542
 21
115.076
 31
1.5
  0
LINE
  5
DEA
330
A02
100
AcDbEntity
  8
Fillet
100
AcDbLine
 10
81.2542
 20
115.076
 30
0
 11
81.2542
 21
115.076
 31
1.5
  0
LINE
  5
DEB
330
A02
100
AcDbEntity
  8
Fillet
100
AcDbLine
 10
67.2419
 20
115.076
 30
0
 11
81.2542
 21
115.076
 31
0
  0
LINE
  5
DEC
330
A02
100
AcDbEntity
  8
Fillet
100
AcDbLine
 10
81.2542
 20
129.066
 30
0
 11
81.2542
 21
129.066
 31
1.5
  0
LINE
  5
DED
330
A02
100
AcDbEntity
  8
Fillet
100
AcDbLine
 10
81.2542
 20
129.066
 30
1.5
 11
67.2419
 21
129.066
 31
1.5
  0
LINE
  5
DEE
330
A02
100
AcDbEntity
  8
Fillet
100
AcDbLine
 10
67.2419
 20
129.066
 30
0
 11
67.2419
 21
129.066
 31
1.5
  0
LINE
  5
DEF
330
A02
100
AcDbEntity
  8
Fillet
100
AcDbLine
 10
81.2542
 20
129.066
 30
0
 11
67.2419
 21
129.066
 31
0
  0
LINE
  5
DF0
330
A02
100
AcDbEntity
  8
Fillet
100
AcDbLine
 10
67.2419
 20
129.066
 30
0
 11
67.2419
 21
129.066
 31
1.5
  0
LINE
  5
DF1
330
A02
100
AcDbEntity
  8
Fillet
100
AcDbLine
 10
67.2419
 20
129.066
 30
1.5
 11
67.2419
 21
115.076
 31
1.5
  0
LINE
  5
DF2
330
A02
100
AcDbEntity
  8
Fillet
100
AcDbLine
 10
67.2419
 20
115.076
 30
0
 11
67.2419
 21
115.076
 31
1.5
  0
LINE
  5
DF3
330
A02
100
AcDbEntity
  8
Fillet
100
AcDbLine
 10
67.2419
 20
129.066
 30
0
 11
67.2419
 21
115.076
 31
0
  0
LINE
  5
DF4
330
A02
100
AcDbEntity
  8
Fillet
100
AcDbLine
 10
86.2916
 20
112.684
 30
0
 11
86.2916
 21
112.684
 31
1.5
  0
LINE
  5
DF5
330
A02
100
AcDbEntity
  8
Fillet
100
AcDbLine
 10
86.2916
 20
112.684
 30
1.5
 11
100.304
 21
112.684
 31
1.5
  0
LINE
  5
DF6
330
A02
100
AcDbEntity
  8
Fillet
100
AcDbLine
 10
100.304
 20
112.684
 30
0
 11
100.304
 21
112.684
 31
1.5
  0
LINE
  5
DF7
330
A02
100
AcDbEntity
  8
Fillet
100
AcDbLine
 10
86.2916
 20
112.684
 30
0
 11
100.304
 21
112.684
 31
0
  0
LINE
  5
DF8
330
A02
100
AcDbEntity
  8
Fillet
100
AcDbLine
 10
86.2916
 20
126.696
 30
0
 11
86.2916
 21
126.696
 31
1.5
  0
LINE
  5
DF9
330
A02
100
AcDbEntity
  8
Fillet
100
AcDbLine
 10
86.2916
 20
126.696
 30
1.5
 11
86.2916
 21
112.684
 31
1.5
  0
LINE
  5
DFA
330
A02
100
AcDbEntity
  8
Fillet
100
AcDbLine
 10
86.2916
 20
112.684
 30
0
 11
86.2916
 21
112.684
 31
1.5
  0
LINE
  5
DFB
330
A02
100
AcDbEntity
  8
Fillet
100
AcDbLine
 10
86.2916
 20
126.696
 30
0
 11
86.2916
 21
112.684
 31
0
  0
LINE
  5
DFC
330
A02
100
AcDbEntity
  8
Fillet
100
AcDbLine
 10
100.304
 20
112.684
 30
0
 11
100.304
 21
112.684
 31
1.5
  0
LINE
  5
DFD
330
A02
100
AcDbEntity
  8
Fillet
100
AcDbLine
 10
100.304
 20
112.684
 30
1.5
 11
100.304
 21
126.696
 31
1.5
  0
LINE
  5
DFE
330
A02
100
AcDbEntity
  8
Fillet
100
AcDbLine
 10
100.304
 20
126.696
 30
0
 11
100.304
 21
126.696
 31
1.5
  0
LINE
  5
DFF
330
A02
100
AcDbEntity
  8
Fillet
100
AcDbLine
 10
100.304
 20
112.684
 30
0
 11
100.304
 21
126.696
 31
0
  0
LINE
  5
E00
330
A02
100
AcDbEntity
  8
Fillet
100
AcDbLine
 10
100.304
 20
126.696
 30
0
 11
100.304
 21
126.696
 31
1.5
  0
LINE
  5
E01
330
A02
100
AcDbEntity
  8
Fillet
100
AcDbLine
 10
100.304
 20
126.696
 30
1.5
 11
86.2916
 21
126.696
 31
1.5
  0
LINE
  5
E02
330
A02
100
AcDbEntity
  8
Fillet
100
AcDbLine
 10
86.2916
 20
126.696
 30
0
 11
86.2916
 21
126.696
 31
1.5
  0
LINE
  5
E03
330
A02
100
AcDbEntity
  8
Fillet
100
AcDbLine
 10
100.304
 20
126.696
 30
0
 11
86.2916
 21
126.696
 31
0
  0
LINE
  5
E04
330
A02
100
AcDbEntity
  8
Fillet
100
AcDbLine
 10
123.093
 20
105.113
 30
0
 11
123.093
 21
105.113
 31
1.5
  0
CIRCLE
  5
E05
330
A02
100
AcDbEntity
  8
Fillet
100
AcDbCircle
 10
121.893
 20
105.113
 40
1.2
  0
LINE
  5
E06
330
A02
100
AcDbEntity
  8
Fillet
100
AcDbLine
 10
123.093
 20
105.113
 30
0
 11
123.093
 21
105.113
 31
1.5
  0
CIRCLE
  5
E07
330
A02
100
AcDbEntity
  8
Fillet
100
AcDbCircle
 10
121.893
 20
105.113
 40
1.2
  0
LINE
  5
E08
330
A02
100
AcDbEntity
  8
Fillet
100
AcDbLine
 10
105.342
 20
121.934
 30
0
 11
105.342
 21
121.934
 31
1.5
  0
LINE
  5
E09
330
A02
100
AcDbEntity
  8
Fillet
100
AcDbLine
 10
105.342
 20
121.934
 30
1.5
 11
105.342
 21
107.921
 31
1.5
  0
LINE
  5
E0A
330
A02
100
AcDbEntity
  8
Fillet
100
AcDbLine
 10
105.342
 20
107.921
 30
0
 11
105.342
 21
107.921
 31
1.5
  0
LINE
  5
E0B
330
A02
100
AcDbEntity
  8
Fillet
100
AcDbLine
 10
105.342
 20
121.934
 30
0
 11
105.342
 21
107.921
 31
0
  0
LINE
  5
E0C
330
A02
100
AcDbEntity
  8
Fillet
100
AcDbLine
 10
119.354
 20
121.934
 30
0
 11
119.354
 21
121.934
 31
1.5
  0
LINE
  5
E0D
330
A02
100
AcDbEntity
  8
Fillet
100
AcDbLine
 10
119.354
 20
121.934
 30
1.5
 11
105.342
 21
121.934
 31
1.5
  0
LINE
  5
E0E
330
A02
100
AcDbEntity
  8
Fillet
100
AcDbLine
 10
105.342
 20
121.934
 30
0
 11
105.342
 21
121.934
 31
1.5
  0
LINE
  5
E0F
330
A02
100
AcDbEntity
  8
Fillet
100
AcDbLine
 10
119.354
 20
121.934
 30
0
 11
105.342
 21
121.934
 31
0
  0
LINE
  5
E10
330
A02
100
AcDbEntity
  8
Fillet
100
AcDbLine
 10
105.342
 20
107.921
 30
0
 11
105.342
 21
107.921
 31
1.5
  0
LINE
  5
E11
330
A02
100
AcDbEntity
  8
Fillet
100
AcDbLine
 10
105.342
 20
107.921
 30
1.5
 11
119.354
 21
107.921
 31
1.5
  0
LINE
  5
E12
330
A02
100
AcDbEntity
  8
Fillet
100
AcDbLine
 10
119.354
 20
107.921
 30
0
 11
119.354
 21
107.921
 31
1.5
  0
LINE
  5
E13
330
A02
100
AcDbEntity
  8
Fillet
100
AcDbLine
 10
105.342
 20
107.921
 30
0
 11
119.354
 21
107.921
 31
0
  0
LINE
  5
E14
330
A02
100
AcDbEntity
  8
Fillet
100
AcDbLine
 10
119.354
 20
107.921
 30
0
 11
119.354
 21
107.921
 31
1.5
  0
LINE
  5
E15
330
A02
100
AcDbEntity
  8
Fillet
100
AcDbLine
 10
119.354
 20
107.921
 30
1.5
 11
119.354
 21
121.934
 31
1.5
  0
LINE
  5
E16
330
A02
100
AcDbEntity
  8
Fillet
100
AcDbLine
 10
119.354
 20
121.934
 30
0
 11
119.354
 21
121.934
 31
1.5
  0
LINE
  5
E17
330
A02
100
AcDbEntity
  8
Fillet
100
AcDbLine
 10
119.354
 20
107.921
 30
0
 11
119.354
 21
121.934
 31
0
  0
LINE
  5
E18
330
A02
100
AcDbEntity
  8
Fillet
100
AcDbLine
 10
124.392
 20
121.934
 30
0
 11
124.392
 21
121.934
 31
1.5
  0
LINE
  5
E19
330
A02
100
AcDbEntity
  8
Fillet
100
AcDbLine
 10
124.392
 20
121.934
 30
1.5
 11
138.404
 21
121.934
 31
1.5
  0
LINE
  5
E1A
330
A02
100
AcDbEntity
  8
Fillet
100
AcDbLine
 10
138.404
 20
121.934
 30
0
 11
138.404
 21
121.934
 31
1.5
  0
LINE
  5
E1B
330
A02
100
AcDbEntity
  8
Fillet
100
AcDbLine
 10
124.392
 20
121.934
 30
0
 11
138.404
 21
121.934
 31
0
  0
LINE
  5
E1C
330
A02
100
AcDbEntity
  8
Fillet
100
AcDbLine
 10
124.392
 20
107.921
 30
0
 11
124.392
 21
107.921
 31
1.5
  0
LINE
  5
E1D
330
A02
100
AcDbEntity
  8
Fillet
100
AcDbLine
 10
124.392
 20
107.921
 30
1.5
 11
124.392
 21
121.934
 31
1.5
  0
LINE
  5
E1E
330
A02
100
AcDbEntity
  8
Fillet
100
AcDbLine
 10
124.392
 20
121.934
 30
0
 11
124.392
 21
121.934
 31
1.5
  0
LINE
  5
E1F
330
A02
100
AcDbEntity
  8
Fillet
100
AcDbLine
 10
124.392
 20
107.921
 30
0
 11
124.392
 21
121.934
 31
0
  0
LINE
  5
E20
330
A02
100
AcDbEntity
  8
Fillet
100
AcDbLine
 10
138.404
 20
121.934
 30
0
 11
138.404
 21
121.934
 31
1.5
  0
LINE
  5
E21
330
A02
100
AcDbEntity
  8
Fillet
100
AcDbLine
 10
138.404
 20
121.934
 30
1.5
 11
138.404
 21
107.921
 31
1.5
  0
LINE
  5
E22
330
A02
100
AcDbEntity
  8
Fillet
100
AcDbLine
 10
138.404
 20
107.921
 30
0
 11
138.404
 21
107.921
 31
1.5
  0
LINE
  5
E23
330
A02
100
AcDbEntity
  8
Fillet
100
AcDbLine
 10
138.404
 20
121.934
 30
0
 11
138.404
 21
107.921
 31
0
  0
LINE
  5
E24
330
A02
100
AcDbEntity
  8
Fillet
100
AcDbLine
 10
138.404
 20
107.921
 30
0
 11
138.404
 21
107.921
 31
1.5
  0
LINE
  5
E25
330
A02
100
AcDbEntity
  8
Fillet
100
AcDbLine
 10
138.404
 20
107.921
 30
1.5
 11
124.392
 21
107.921
 31
1.5
  0
LINE
  5
E26
330
A02
100
AcDbEntity
  8
Fillet
100
AcDbLine
 10
124.392
 20
107.921
 30
0
 11
124.392
 21
107.921
 31
1.5
  0
LINE
  5
E27
330
A02
100
AcDbEntity
  8
Fillet
100
AcDbLine
 10
138.404
 20
107.921
 30
0
 11
124.392
 21
107.921
 31
0
  0
LINE
  5
E28
330
A02
100
AcDbEntity
  8
Fillet
100
AcDbLine
 10
24.1039
 20
152.879
 30
0
 11
24.1039
 21
152.879
 31
1.5
  0
LINE
  5
E29
330
A02
100
AcDbEntity
  8
Fillet
100
AcDbLine
 10
24.1039
 20
152.879
 30
1.5
 11
10.0919
 21
152.879
 31
1.5
  0
LINE
  5
E2A
330
A02
100
AcDbEntity
  8
Fillet
100
AcDbLine
 10
10.0919
 20
152.879
 30
0
 11
10.0919
 21
152.879
 31
1.5
  0
LINE
  5
E2B
330
A02
100
AcDbEntity
  8
Fillet
100
AcDbLine
 10
24.1039
 20
152.879
 30
0
 11
10.0919
 21
152.879
 31
0
  0
LINE
  5
E2C
330
A02
100
AcDbEntity
  8
Fillet
100
AcDbLine
 10
24.1039
 20
138.888
 30
0
 11
24.1039
 21
138.888
 31
1.5
  0
LINE
  5
E2D
330
A02
100
AcDbEntity
  8
Fillet
100
AcDbLine
 10
24.1039
 20
138.888
 30
1.5
 11
24.1039
 21
152.879
 31
1.5
  0
LINE
  5
E2E
330
A02
100
AcDbEntity
  8
Fillet
100
AcDbLine
 10
24.1039
 20
152.879
 30
0
 11
24.1039
 21
152.879
 31
1.5
  0
LINE
  5
E2F
330
A02
100
AcDbEntity
  8
Fillet
100
AcDbLine
 10
24.1039
 20
138.888
 30
0
 11
24.1039
 21
152.879
 31
0
  0
LINE
  5
E30
330
A02
100
AcDbEntity
  8
Fillet
100
AcDbLine
 10
10.0919
 20
152.879
 30
0
 11
10.0919
 21
152.879
 31
1.5
  0
LINE
  5
E31
330
A02
100
AcDbEntity
  8
Fillet
100
AcDbLine
 10
10.0919
 20
152.879
 30
1.5
 11
10.0919
 21
138.888
 31
1.5
  0
LINE
  5
E32
330
A02
100
AcDbEntity
  8
Fillet
100
AcDbLine
 10
10.0919
 20
138.888
 30
0
 11
10.0919
 21
138.888
 31
1.5
  0
LINE
  5
E33
330
A02
100
AcDbEntity
  8
Fillet
100
AcDbLine
 10
10.0919
 20
152.879
 30
0
 11
10.0919
 21
138.888
 31
0
  0
LINE
  5
E34
330
A02
100
AcDbEntity
  8
Fillet
100
AcDbLine
 10
10.0919
 20
138.888
 30
0
 11
10.0919
 21
138.888
 31
1.5
  0
LINE
  5
E35
330
A02
100
AcDbEntity
  8
Fillet
100
AcDbLine
 10
10.0919
 20
138.888
 30
1.5
 11
24.1039
 21
138.888
 31
1.5
  0
LINE
  5
E36
330
A02
100
AcDbEntity
  8
Fillet
100
AcDbLine
 10
24.1039
 20
138.888
 30
0
 11
24.1039
 21
138.888
 31
1.5
  0
LINE
  5
E37
330
A02
100
AcDbEntity
  8
Fillet
100
AcDbLine
 10
10.0919
 20
138.888
 30
0
 11
24.1039
 21
138.888
 31
0
  0
LINE
  5
E38
330
A02
100
AcDbEntity
  8
Fillet
100
AcDbLine
 10
29.1419
 20
143.354
 30
0
 11
29.1419
 21
143.354
 31
1.5
  0
LINE
  5
E39
330
A02
100
AcDbEntity
  8
Fillet
100
AcDbLine
 10
29.1419
 20
143.354
 30
1.5
 11
43.1539
 21
143.354
 31
1.5
  0
LINE
  5
E3A
330
A02
100
AcDbEntity
  8
Fillet
100
AcDbLine
 10
43.1539
 20
143.354
 30
0
 11
43.1539
 21
143.354
 31
1.5
  0
LINE
  5
E3B
330
A02
100
AcDbEntity
  8
Fillet
100
AcDbLine
 10
29.1419
 20
143.354
 30
0
 11
43.1539
 21
143.354
 31
0
  0
LINE
  5
E3C
330
A02
100
AcDbEntity
  8
Fillet
100
AcDbLine
 10
29.1419
 20
129.363
 30
0
 11
29.1419
 21
129.363
 31
1.5
  0
LINE
  5
E3D
330
A02
100
AcDbEntity
  8
Fillet
100
AcDbLine
 10
29.1419
 20
129.363
 30
1.5
 11
29.1419
 21
143.354
 31
1.5
  0
LINE
  5
E3E
330
A02
100
AcDbEntity
  8
Fillet
100
AcDbLine
 10
29.1419
 20
143.354
 30
0
 11
29.1419
 21
143.354
 31
1.5
  0
LINE
  5
E3F
330
A02
100
AcDbEntity
  8
Fillet
100
AcDbLine
 10
29.1419
 20
129.363
 30
0
 11
29.1419
 21
143.354
 31
0
  0
LINE
  5
E40
330
A02
100
AcDbEntity
  8
Fillet
100
AcDbLine
 10
43.1539
 20
143.354
 30
0
 11
43.1539
 21
143.354
 31
1.5
  0
LINE
  5
E41
330
A02
100
AcDbEntity
  8
Fillet
100
AcDbLine
 10
43.1539
 20
143.354
 30
1.5
 11
43.1539
 21
129.363
 31
1.5
  0
LINE
  5
E42
330
A02
100
AcDbEntity
  8
Fillet
100
AcDbLine
 10
43.1539
 20
129.363
 30
0
 11
43.1539
 21
129.363
 31
1.5
  0
LINE
  5
E43
330
A02
100
AcDbEntity
  8
Fillet
100
AcDbLine
 10
43.1539
 20
143.354
 30
0
 11
43.1539
 21
129.363
 31
0
  0
LINE
  5
E44
330
A02
100
AcDbEntity
  8
Fillet
100
AcDbLine
 10
43.1539
 20
129.363
 30
0
 11
43.1539
 21
129.363
 31
1.5
  0
LINE
  5
E45
330
A02
100
AcDbEntity
  8
Fillet
100
AcDbLine
 10
43.1539
 20
129.363
 30
1.5
 11
29.1419
 21
129.363
 31
1.5
  0
LINE
  5
E46
330
A02
100
AcDbEntity
  8
Fillet
100
AcDbLine
 10
29.1419
 20
129.363
 30
0
 11
29.1419
 21
129.363
 31
1.5
  0
LINE
  5
E47
330
A02
100
AcDbEntity
  8
Fillet
100
AcDbLine
 10
43.1539
 20
129.363
 30
0
 11
29.1419
 21
129.363
 31
0
  0
LINE
  5
E48
330
A02
100
AcDbEntity
  8
Fillet
100
AcDbLine
 10
62.2039
 20
131.734
 30
0
 11
62.2039
 21
131.734
 31
1.5
  0
LINE
  5
E49
330
A02
100
AcDbEntity
  8
Fillet
100
AcDbLine
 10
62.2039
 20
131.734
 30
1.5
 11
62.2039
 21
145.746
 31
1.5
  0
LINE
  5
E4A
330
A02
100
AcDbEntity
  8
Fillet
100
AcDbLine
 10
62.2039
 20
145.746
 30
0
 11
62.2039
 21
145.746
 31
1.5
  0
LINE
  5
E4B
330
A02
100
AcDbEntity
  8
Fillet
100
AcDbLine
 10
62.2039
 20
131.734
 30
0
 11
62.2039
 21
145.746
 31
0
  0
LINE
  5
E4C
330
A02
100
AcDbEntity
  8
Fillet
100
AcDbLine
 10
48.1919
 20
131.734
 30
0
 11
48.1919
 21
131.734
 31
1.5
  0
LINE
  5
E4D
330
A02
100
AcDbEntity
  8
Fillet
100
AcDbLine
 10
48.1919
 20
131.734
 30
1.5
 11
62.2039
 21
131.734
 31
1.5
  0
LINE
  5
E4E
330
A02
100
AcDbEntity
  8
Fillet
100
AcDbLine
 10
62.2039
 20
131.734
 30
0
 11
62.2039
 21
131.734
 31
1.5
  0
LINE
  5
E4F
330
A02
100
AcDbEntity
  8
Fillet
100
AcDbLine
 10
48.1919
 20
131.734
 30
0
 11
62.2039
 21
131.734
 31
0
  0
LINE
  5
E50
330
A02
100
AcDbEntity
  8
Fillet
100
AcDbLine
 10
62.2039
 20
145.746
 30
0
 11
62.2039
 21
145.746
 31
1.5
  0
LINE
  5
E51
330
A02
100
AcDbEntity
  8
Fillet
100
AcDbLine
 10
62.2039
 20
145.746
 30
1.5
 11
48.1919
 21
145.746
 31
1.5
  0
LINE
  5
E52
330
A02
100
AcDbEntity
  8
Fillet
100
AcDbLine
 10
48.1919
 20
145.746
 30
0
 11
48.1919
 21
145.746
 31
1.5
  0
LINE
  5
E53
330
A02
100
AcDbEntity
  8
Fillet
100
AcDbLine
 10
62.2039
 20
145.746
 30
0
 11
48.1919
 21
145.746
 31
0
  0
LINE
  5
E54
330
A02
100
AcDbEntity
  8
Fillet
100
AcDbLine
 10
48.1919
 20
145.746
 30
0
 11
48.1919
 21
145.746
 31
1.5
  0
LINE
  5
E55
330
A02
100
AcDbEntity
  8
Fillet
100
AcDbLine
 10
48.1919
 20
145.746
 30
1.5
 11
48.1919
 21
131.734
 31
1.5
  0
LINE
  5
E56
330
A02
100
AcDbEntity
  8
Fillet
100
AcDbLine
 10
48.1919
 20
131.734
 30
0
 11
48.1919
 21
131.734
 31
1.5
  0
LINE
  5
E57
330
A02
100
AcDbEntity
  8
Fillet
100
AcDbLine
 10
48.1919
 20
145.746
 30
0
 11
48.1919
 21
131.734
 31
0
  0
LINE
  5
E58
330
A02
100
AcDbEntity
  8
Fillet
100
AcDbLine
 10
29.1419
 20
162.404
 30
0
 11
29.1419
 21
162.404
 31
1.5
  0
LINE
  5
E59
330
A02
100
AcDbEntity
  8
Fillet
100
AcDbLine
 10
29.1419
 20
162.404
 30
1.5
 11
43.1539
 21
162.404
 31
1.5
  0
LINE
  5
E5A
330
A02
100
AcDbEntity
  8
Fillet
100
AcDbLine
 10
43.1539
 20
162.404
 30
0
 11
43.1539
 21
162.404
 31
1.5
  0
LINE
  5
E5B
330
A02
100
AcDbEntity
  8
Fillet
100
AcDbLine
 10
29.1419
 20
162.404
 30
0
 11
43.1539
 21
162.404
 31
0
  0
LINE
  5
E5C
330
A02
100
AcDbEntity
  8
Fillet
100
AcDbLine
 10
29.1419
 20
148.413
 30
0
 11
29.1419
 21
148.413
 31
1.5
  0
LINE
  5
E5D
330
A02
100
AcDbEntity
  8
Fillet
100
AcDbLine
 10
29.1419
 20
148.413
 30
1.5
 11
29.1419
 21
162.404
 31
1.5
  0
LINE
  5
E5E
330
A02
100
AcDbEntity
  8
Fillet
100
AcDbLine
 10
29.1419
 20
162.404
 30
0
 11
29.1419
 21
162.404
 31
1.5
  0
LINE
  5
E5F
330
A02
100
AcDbEntity
  8
Fillet
100
AcDbLine
 10
29.1419
 20
148.413
 30
0
 11
29.1419
 21
162.404
 31
0
  0
LINE
  5
E60
330
A02
100
AcDbEntity
  8
Fillet
100
AcDbLine
 10
43.1539
 20
162.404
 30
0
 11
43.1539
 21
162.404
 31
1.5
  0
LINE
  5
E61
330
A02
100
AcDbEntity
  8
Fillet
100
AcDbLine
 10
43.1539
 20
162.404
 30
1.5
 11
43.1539
 21
148.413
 31
1.5
  0
LINE
  5
E62
330
A02
100
AcDbEntity
  8
Fillet
100
AcDbLine
 10
43.1539
 20
148.413
 30
0
 11
43.1539
 21
148.413
 31
1.5
  0
LINE
  5
E63
330
A02
100
AcDbEntity
  8
Fillet
100
AcDbLine
 10
43.1539
 20
162.404
 30
0
 11
43.1539
 21
148.413
 31
0
  0
LINE
  5
E64
330
A02
100
AcDbEntity
  8
Fillet
100
AcDbLine
 10
43.1539
 20
148.413
 30
0
 11
43.1539
 21
148.413
 31
1.5
  0
LINE
  5
E65
330
A02
100
AcDbEntity
  8
Fillet
100
AcDbLine
 10
43.1539
 20
148.413
 30
1.5
 11
29.1419
 21
148.413
 31
1.5
  0
LINE
  5
E66
330
A02
100
AcDbEntity
  8
Fillet
100
AcDbLine
 10
29.1419
 20
148.413
 30
0
 11
29.1419
 21
148.413
 31
1.5
  0
LINE
  5
E67
330
A02
100
AcDbEntity
  8
Fillet
100
AcDbLine
 10
43.1539
 20
148.413
 30
0
 11
29.1419
 21
148.413
 31
0
  0
LINE
  5
E68
330
A02
100
AcDbEntity
  8
Fillet
100
AcDbLine
 10
48.1919
 20
164.796
 30
0
 11
48.1919
 21
164.796
 31
1.5
  0
LINE
  5
E69
330
A02
100
AcDbEntity
  8
Fillet
100
AcDbLine
 10
48.1919
 20
164.796
 30
1.5
 11
48.1919
 21
150.784
 31
1.5
  0
LINE
  5
E6A
330
A02
100
AcDbEntity
  8
Fillet
100
AcDbLine
 10
48.1919
 20
150.784
 30
0
 11
48.1919
 21
150.784
 31
1.5
  0
LINE
  5
E6B
330
A02
100
AcDbEntity
  8
Fillet
100
AcDbLine
 10
48.1919
 20
164.796
 30
0
 11
48.1919
 21
150.784
 31
0
  0
LINE
  5
E6C
330
A02
100
AcDbEntity
  8
Fillet
100
AcDbLine
 10
62.2039
 20
164.796
 30
0
 11
62.2039
 21
164.796
 31
1.5
  0
LINE
  5
E6D
330
A02
100
AcDbEntity
  8
Fillet
100
AcDbLine
 10
62.2039
 20
164.796
 30
1.5
 11
48.1919
 21
164.796
 31
1.5
  0
LINE
  5
E6E
330
A02
100
AcDbEntity
  8
Fillet
100
AcDbLine
 10
48.1919
 20
164.796
 30
0
 11
48.1919
 21
164.796
 31
1.5
  0
LINE
  5
E6F
330
A02
100
AcDbEntity
  8
Fillet
100
AcDbLine
 10
62.2039
 20
164.796
 30
0
 11
48.1919
 21
164.796
 31
0
  0
LINE
  5
E70
330
A02
100
AcDbEntity
  8
Fillet
100
AcDbLine
 10
48.1919
 20
150.784
 30
0
 11
48.1919
 21
150.784
 31
1.5
  0
LINE
  5
E71
330
A02
100
AcDbEntity
  8
Fillet
100
AcDbLine
 10
48.1919
 20
150.784
 30
1.5
 11
62.2039
 21
150.784
 31
1.5
  0
LINE
  5
E72
330
A02
100
AcDbEntity
  8
Fillet
100
AcDbLine
 10
62.2039
 20
150.784
 30
0
 11
62.2039
 21
150.784
 31
1.5
  0
LINE
  5
E73
330
A02
100
AcDbEntity
  8
Fillet
100
AcDbLine
 10
48.1919
 20
150.784
 30
0
 11
62.2039
 21
150.784
 31
0
  0
LINE
  5
E74
330
A02
100
AcDbEntity
  8
Fillet
100
AcDbLine
 10
62.2039
 20
150.784
 30
0
 11
62.2039
 21
150.784
 31
1.5
  0
LINE
  5
E75
330
A02
100
AcDbEntity
  8
Fillet
100
AcDbLine
 10
62.2039
 20
150.784
 30
1.5
 11
62.2039
 21
164.796
 31
1.5
  0
LINE
  5
E76
330
A02
100
AcDbEntity
  8
Fillet
100
AcDbLine
 10
62.2039
 20
164.796
 30
0
 11
62.2039
 21
164.796
 31
1.5
  0
LINE
  5
E77
330
A02
100
AcDbEntity
  8
Fillet
100
AcDbLine
 10
62.2039
 20
150.784
 30
0
 11
62.2039
 21
164.796
 31
0
  0
LINE
  5
E78
330
A02
100
AcDbEntity
  8
Fillet
100
AcDbLine
 10
10.0919
 20
157.938
 30
0
 11
10.0919
 21
157.938
 31
1.5
  0
LINE
  5
E79
330
A02
100
AcDbEntity
  8
Fillet
100
AcDbLine
 10
10.0919
 20
157.938
 30
1.5
 11
24.1039
 21
157.938
 31
1.5
  0
LINE
  5
E7A
330
A02
100
AcDbEntity
  8
Fillet
100
AcDbLine
 10
24.1039
 20
157.938
 30
0
 11
24.1039
 21
157.938
 31
1.5
  0
LINE
  5
E7B
330
A02
100
AcDbEntity
  8
Fillet
100
AcDbLine
 10
10.0919
 20
157.938
 30
0
 11
24.1039
 21
157.938
 31
0
  0
LINE
  5
E7C
330
A02
100
AcDbEntity
  8
Fillet
100
AcDbLine
 10
10.0919
 20
171.929
 30
0
 11
10.0919
 21
171.929
 31
1.5
  0
LINE
  5
E7D
330
A02
100
AcDbEntity
  8
Fillet
100
AcDbLine
 10
10.0919
 20
171.929
 30
1.5
 11
10.0919
 21
157.938
 31
1.5
  0
LINE
  5
E7E
330
A02
100
AcDbEntity
  8
Fillet
100
AcDbLine
 10
10.0919
 20
157.938
 30
0
 11
10.0919
 21
157.938
 31
1.5
  0
LINE
  5
E7F
330
A02
100
AcDbEntity
  8
Fillet
100
AcDbLine
 10
10.0919
 20
171.929
 30
0
 11
10.0919
 21
157.938
 31
0
  0
LINE
  5
E80
330
A02
100
AcDbEntity
  8
Fillet
100
AcDbLine
 10
24.1039
 20
157.938
 30
0
 11
24.1039
 21
157.938
 31
1.5
  0
LINE
  5
E81
330
A02
100
AcDbEntity
  8
Fillet
100
AcDbLine
 10
24.1039
 20
157.938
 30
1.5
 11
24.1039
 21
171.929
 31
1.5
  0
LINE
  5
E82
330
A02
100
AcDbEntity
  8
Fillet
100
AcDbLine
 10
24.1039
 20
171.929
 30
0
 11
24.1039
 21
171.929
 31
1.5
  0
LINE
  5
E83
330
A02
100
AcDbEntity
  8
Fillet
100
AcDbLine
 10
24.1039
 20
157.938
 30
0
 11
24.1039
 21
171.929
 31
0
  0
LINE
  5
E84
330
A02
100
AcDbEntity
  8
Fillet
100
AcDbLine
 10
24.1039
 20
171.929
 30
0
 11
24.1039
 21
171.929
 31
1.5
  0
LINE
  5
E85
330
A02
100
AcDbEntity
  8
Fillet
100
AcDbLine
 10
24.1039
 20
171.929
 30
1.5
 11
10.0919
 21
171.929
 31
1.5
  0
LINE
  5
E86
330
A02
100
AcDbEntity
  8
Fillet
100
AcDbLine
 10
10.0919
 20
171.929
 30
0
 11
10.0919
 21
171.929
 31
1.5
  0
LINE
  5
E87
330
A02
100
AcDbEntity
  8
Fillet
100
AcDbLine
 10
24.1039
 20
171.929
 30
0
 11
10.0919
 21
171.929
 31
0
  0
LINE
  5
E88
330
A02
100
AcDbEntity
  8
Fillet
100
AcDbLine
 10
27.834
 20
165.045
 30
0
 11
27.834
 21
165.045
 31
1.5
  0
CIRCLE
  5
E89
330
A02
100
AcDbEntity
  8
Fillet
100
AcDbCircle
 10
26.634
 20
165.045
 40
1.2
  0
LINE
  5
E8A
330
A02
100
AcDbEntity
  8
Fillet
100
AcDbLine
 10
27.834
 20
165.045
 30
0
 11
27.834
 21
165.045
 31
1.5
  0
CIRCLE
  5
E8B
330
A02
100
AcDbEntity
  8
Fillet
100
AcDbCircle
 10
26.634
 20
165.045
 40
1.2
  0
LINE
  5
E8C
330
A02
100
AcDbEntity
  8
Fillet
100
AcDbLine
 10
29.1419
 20
181.454
 30
0
 11
29.1419
 21
181.454
 31
1.5
  0
LINE
  5
E8D
330
A02
100
AcDbEntity
  8
Fillet
100
AcDbLine
 10
29.1419
 20
181.454
 30
1.5
 11
29.1419
 21
167.463
 31
1.5
  0
LINE
  5
E8E
330
A02
100
AcDbEntity
  8
Fillet
100
AcDbLine
 10
29.1419
 20
167.463
 30
0
 11
29.1419
 21
167.463
 31
1.5
  0
LINE
  5
E8F
330
A02
100
AcDbEntity
  8
Fillet
100
AcDbLine
 10
29.1419
 20
181.454
 30
0
 11
29.1419
 21
167.463
 31
0
  0
LINE
  5
E90
330
A02
100
AcDbEntity
  8
Fillet
100
AcDbLine
 10
43.1539
 20
181.454
 30
0
 11
43.1539
 21
181.454
 31
1.5
  0
LINE
  5
E91
330
A02
100
AcDbEntity
  8
Fillet
100
AcDbLine
 10
43.1539
 20
181.454
 30
1.5
 11
29.1419
 21
181.454
 31
1.5
  0
LINE
  5
E92
330
A02
100
AcDbEntity
  8
Fillet
100
AcDbLine
 10
29.1419
 20
181.454
 30
0
 11
29.1419
 21
181.454
 31
1.5
  0
LINE
  5
E93
330
A02
100
AcDbEntity
  8
Fillet
100
AcDbLine
 10
43.1539
 20
181.454
 30
0
 11
29.1419
 21
181.454
 31
0
  0
LINE
  5
E94
330
A02
100
AcDbEntity
  8
Fillet
100
AcDbLine
 10
29.1419
 20
167.463
 30
0
 11
29.1419
 21
167.463
 31
1.5
  0
LINE
  5
E95
330
A02
100
AcDbEntity
  8
Fillet
100
AcDbLine
 10
29.1419
 20
167.463
 30
1.5
 11
43.1539
 21
167.463
 31
1.5
  0
LINE
  5
E96
330
A02
100
AcDbEntity
  8
Fillet
100
AcDbLine
 10
43.1539
 20
167.463
 30
0
 11
43.1539
 21
167.463
 31
1.5
  0
LINE
  5
E97
330
A02
100
AcDbEntity
  8
Fillet
100
AcDbLine
 10
29.1419
 20
167.463
 30
0
 11
43.1539
 21
167.463
 31
0
  0
LINE
  5
E98
330
A02
100
AcDbEntity
  8
Fillet
100
AcDbLine
 10
43.1539
 20
167.463
 30
0
 11
43.1539
 21
167.463
 31
1.5
  0
LINE
  5
E99
330
A02
100
AcDbEntity
  8
Fillet
100
AcDbLine
 10
43.1539
 20
167.463
 30
1.5
 11
43.1539
 21
181.454
 31
1.5
  0
LINE
  5
E9A
330
A02
100
AcDbEntity
  8
Fillet
100
AcDbLine
 10
43.1539
 20
181.454
 30
0
 11
43.1539
 21
181.454
 31
1.5
  0
LINE
  5
E9B
330
A02
100
AcDbEntity
  8
Fillet
100
AcDbLine
 10
43.1539
 20
167.463
 30
0
 11
43.1539
 21
181.454
 31
0
  0
LINE
  5
E9C
330
A02
100
AcDbEntity
  8
Fillet
100
AcDbLine
 10
62.2039
 20
183.846
 30
0
 11
62.2039
 21
183.846
 31
1.5
  0
LINE
  5
E9D
330
A02
100
AcDbEntity
  8
Fillet
100
AcDbLine
 10
62.2039
 20
183.846
 30
1.5
 11
48.1919
 21
183.846
 31
1.5
  0
LINE
  5
E9E
330
A02
100
AcDbEntity
  8
Fillet
100
AcDbLine
 10
48.1919
 20
183.846
 30
0
 11
48.1919
 21
183.846
 31
1.5
  0
LINE
  5
E9F
330
A02
100
AcDbEntity
  8
Fillet
100
AcDbLine
 10
62.2039
 20
183.846
 30
0
 11
48.1919
 21
183.846
 31
0
  0
LINE
  5
EA0
330
A02
100
AcDbEntity
  8
Fillet
100
AcDbLine
 10
62.2039
 20
169.834
 30
0
 11
62.2039
 21
169.834
 31
1.5
  0
LINE
  5
EA1
330
A02
100
AcDbEntity
  8
Fillet
100
AcDbLine
 10
62.2039
 20
169.834
 30
1.5
 11
62.2039
 21
183.846
 31
1.5
  0
LINE
  5
EA2
330
A02
100
AcDbEntity
  8
Fillet
100
AcDbLine
 10
62.2039
 20
183.846
 30
0
 11
62.2039
 21
183.846
 31
1.5
  0
LINE
  5
EA3
330
A02
100
AcDbEntity
  8
Fillet
100
AcDbLine
 10
62.2039
 20
169.834
 30
0
 11
62.2039
 21
183.846
 31
0
  0
LINE
  5
EA4
330
A02
100
AcDbEntity
  8
Fillet
100
AcDbLine
 10
48.1919
 20
183.846
 30
0
 11
48.1919
 21
183.846
 31
1.5
  0
LINE
  5
EA5
330
A02
100
AcDbEntity
  8
Fillet
100
AcDbLine
 10
48.1919
 20
183.846
 30
1.5
 11
48.1919
 21
169.834
 31
1.5
  0
LINE
  5
EA6
330
A02
100
AcDbEntity
  8
Fillet
100
AcDbLine
 10
48.1919
 20
169.834
 30
0
 11
48.1919
 21
169.834
 31
1.5
  0
LINE
  5
EA7
330
A02
100
AcDbEntity
  8
Fillet
100
AcDbLine
 10
48.1919
 20
183.846
 30
0
 11
48.1919
 21
169.834
 31
0
  0
LINE
  5
EA8
330
A02
100
AcDbEntity
  8
Fillet
100
AcDbLine
 10
48.1919
 20
169.834
 30
0
 11
48.1919
 21
169.834
 31
1.5
  0
LINE
  5
EA9
330
A02
100
AcDbEntity
  8
Fillet
100
AcDbLine
 10
48.1919
 20
169.834
 30
1.5
 11
62.2039
 21
169.834
 31
1.5
  0
LINE
  5
EAA
330
A02
100
AcDbEntity
  8
Fillet
100
AcDbLine
 10
62.2039
 20
169.834
 30
0
 11
62.2039
 21
169.834
 31
1.5
  0
LINE
  5
EAB
330
A02
100
AcDbEntity
  8
Fillet
100
AcDbLine
 10
48.1919
 20
169.834
 30
0
 11
62.2039
 21
169.834
 31
0
  0
LINE
  5
EAC
330
A02
100
AcDbEntity
  8
Fillet
100
AcDbLine
 10
67.2419
 20
134.125
 30
0
 11
67.2419
 21
134.125
 31
1.5
  0
LINE
  5
EAD
330
A02
100
AcDbEntity
  8
Fillet
100
AcDbLine
 10
67.2419
 20
134.125
 30
1.5
 11
81.2542
 21
134.125
 31
1.5
  0
LINE
  5
EAE
330
A02
100
AcDbEntity
  8
Fillet
100
AcDbLine
 10
81.2542
 20
134.125
 30
0
 11
81.2542
 21
134.125
 31
1.5
  0
LINE
  5
EAF
330
A02
100
AcDbEntity
  8
Fillet
100
AcDbLine
 10
67.2419
 20
134.125
 30
0
 11
81.2542
 21
134.125
 31
0
  0
LINE
  5
EB0
330
A02
100
AcDbEntity
  8
Fillet
100
AcDbLine
 10
67.2419
 20
148.117
 30
0
 11
67.2419
 21
148.117
 31
1.5
  0
LINE
  5
EB1
330
A02
100
AcDbEntity
  8
Fillet
100
AcDbLine
 10
67.2419
 20
148.117
 30
1.5
 11
67.2419
 21
134.125
 31
1.5
  0
LINE
  5
EB2
330
A02
100
AcDbEntity
  8
Fillet
100
AcDbLine
 10
67.2419
 20
134.125
 30
0
 11
67.2419
 21
134.125
 31
1.5
  0
LINE
  5
EB3
330
A02
100
AcDbEntity
  8
Fillet
100
AcDbLine
 10
67.2419
 20
148.117
 30
0
 11
67.2419
 21
134.125
 31
0
  0
LINE
  5
EB4
330
A02
100
AcDbEntity
  8
Fillet
100
AcDbLine
 10
81.2542
 20
134.125
 30
0
 11
81.2542
 21
134.125
 31
1.5
  0
LINE
  5
EB5
330
A02
100
AcDbEntity
  8
Fillet
100
AcDbLine
 10
81.2542
 20
134.125
 30
1.5
 11
81.2542
 21
148.117
 31
1.5
  0
LINE
  5
EB6
330
A02
100
AcDbEntity
  8
Fillet
100
AcDbLine
 10
81.2542
 20
148.117
 30
0
 11
81.2542
 21
148.117
 31
1.5
  0
LINE
  5
EB7
330
A02
100
AcDbEntity
  8
Fillet
100
AcDbLine
 10
81.2542
 20
134.125
 30
0
 11
81.2542
 21
148.117
 31
0
  0
LINE
  5
EB8
330
A02
100
AcDbEntity
  8
Fillet
100
AcDbLine
 10
81.2542
 20
148.117
 30
0
 11
81.2542
 21
148.117
 31
1.5
  0
LINE
  5
EB9
330
A02
100
AcDbEntity
  8
Fillet
100
AcDbLine
 10
81.2542
 20
148.117
 30
1.5
 11
67.2419
 21
148.117
 31
1.5
  0
LINE
  5
EBA
330
A02
100
AcDbEntity
  8
Fillet
100
AcDbLine
 10
67.2419
 20
148.117
 30
0
 11
67.2419
 21
148.117
 31
1.5
  0
LINE
  5
EBB
330
A02
100
AcDbEntity
  8
Fillet
100
AcDbLine
 10
81.2542
 20
148.117
 30
0
 11
67.2419
 21
148.117
 31
0
  0
LINE
  5
EBC
330
A02
100
AcDbEntity
  8
Fillet
100
AcDbLine
 10
100.304
 20
131.734
 30
0
 11
100.304
 21
131.734
 31
1.5
  0
LINE
  5
EBD
330
A02
100
AcDbEntity
  8
Fillet
100
AcDbLine
 10
100.304
 20
131.734
 30
1.5
 11
100.304
 21
145.746
 31
1.5
  0
LINE
  5
EBE
330
A02
100
AcDbEntity
  8
Fillet
100
AcDbLine
 10
100.304
 20
145.746
 30
0
 11
100.304
 21
145.746
 31
1.5
  0
LINE
  5
EBF
330
A02
100
AcDbEntity
  8
Fillet
100
AcDbLine
 10
100.304
 20
131.734
 30
0
 11
100.304
 21
145.746
 31
0
  0
LINE
  5
EC0
330
A02
100
AcDbEntity
  8
Fillet
100
AcDbLine
 10
86.2916
 20
131.734
 30
0
 11
86.2916
 21
131.734
 31
1.5
  0
LINE
  5
EC1
330
A02
100
AcDbEntity
  8
Fillet
100
AcDbLine
 10
86.2916
 20
131.734
 30
1.5
 11
100.304
 21
131.734
 31
1.5
  0
LINE
  5
EC2
330
A02
100
AcDbEntity
  8
Fillet
100
AcDbLine
 10
100.304
 20
131.734
 30
0
 11
100.304
 21
131.734
 31
1.5
  0
LINE
  5
EC3
330
A02
100
AcDbEntity
  8
Fillet
100
AcDbLine
 10
86.2916
 20
131.734
 30
0
 11
100.304
 21
131.734
 31
0
  0
LINE
  5
EC4
330
A02
100
AcDbEntity
  8
Fillet
100
AcDbLine
 10
100.304
 20
145.746
 30
0
 11
100.304
 21
145.746
 31
1.5
  0
LINE
  5
EC5
330
A02
100
AcDbEntity
  8
Fillet
100
AcDbLine
 10
100.304
 20
145.746
 30
1.5
 11
86.2916
 21
145.746
 31
1.5
  0
LINE
  5
EC6
330
A02
100
AcDbEntity
  8
Fillet
100
AcDbLine
 10
86.2916
 20
145.746
 30
0
 11
86.2916
 21
145.746
 31
1.5
  0
LINE
  5
EC7
330
A02
100
AcDbEntity
  8
Fillet
100
AcDbLine
 10
100.304
 20
145.746
 30
0
 11
86.2916
 21
145.746
 31
0
  0
LINE
  5
EC8
330
A02
100
AcDbEntity
  8
Fillet
100
AcDbLine
 10
86.2916
 20
145.746
 30
0
 11
86.2916
 21
145.746
 31
1.5
  0
LINE
  5
EC9
330
A02
100
AcDbEntity
  8
Fillet
100
AcDbLine
 10
86.2916
 20
145.746
 30
1.5
 11
86.2916
 21
131.734
 31
1.5
  0
LINE
  5
ECA
330
A02
100
AcDbEntity
  8
Fillet
100
AcDbLine
 10
86.2916
 20
131.734
 30
0
 11
86.2916
 21
131.734
 31
1.5
  0
LINE
  5
ECB
330
A02
100
AcDbEntity
  8
Fillet
100
AcDbLine
 10
86.2916
 20
145.746
 30
0
 11
86.2916
 21
131.734
 31
0
  0
LINE
  5
ECC
330
A02
100
AcDbEntity
  8
Fillet
100
AcDbLine
 10
84.9882
 20
148.29
 30
0
 11
84.9882
 21
148.29
 31
1.5
  0
CIRCLE
  5
ECD
330
A02
100
AcDbEntity
  8
Fillet
100
AcDbCircle
 10
83.7882
 20
148.29
 40
1.2
  0
LINE
  5
ECE
330
A02
100
AcDbEntity
  8
Fillet
100
AcDbLine
 10
84.9882
 20
148.29
 30
0
 11
84.9882
 21
148.29
 31
1.5
  0
CIRCLE
  5
ECF
330
A02
100
AcDbEntity
  8
Fillet
100
AcDbCircle
 10
83.7882
 20
148.29
 40
1.2
  0
LINE
  5
ED0
330
A02
100
AcDbEntity
  8
Fillet
100
AcDbLine
 10
86.2916
 20
164.796
 30
0
 11
86.2916
 21
164.796
 31
1.5
  0
LINE
  5
ED1
330
A02
100
AcDbEntity
  8
Fillet
100
AcDbLine
 10
86.2916
 20
164.796
 30
1.5
 11
100.304
 21
164.796
 31
1.5
  0
LINE
  5
ED2
330
A02
100
AcDbEntity
  8
Fillet
100
AcDbLine
 10
100.304
 20
164.796
 30
0
 11
100.304
 21
164.796
 31
1.5
  0
LINE
  5
ED3
330
A02
100
AcDbEntity
  8
Fillet
100
AcDbLine
 10
86.2916
 20
164.796
 30
0
 11
100.304
 21
164.796
 31
0
  0
LINE
  5
ED4
330
A02
100
AcDbEntity
  8
Fillet
100
AcDbLine
 10
86.2916
 20
150.784
 30
0
 11
86.2916
 21
150.784
 31
1.5
  0
LINE
  5
ED5
330
A02
100
AcDbEntity
  8
Fillet
100
AcDbLine
 10
86.2916
 20
150.784
 30
1.5
 11
86.2916
 21
164.796
 31
1.5
  0
LINE
  5
ED6
330
A02
100
AcDbEntity
  8
Fillet
100
AcDbLine
 10
86.2916
 20
164.796
 30
0
 11
86.2916
 21
164.796
 31
1.5
  0
LINE
  5
ED7
330
A02
100
AcDbEntity
  8
Fillet
100
AcDbLine
 10
86.2916
 20
150.784
 30
0
 11
86.2916
 21
164.796
 31
0
  0
LINE
  5
ED8
330
A02
100
AcDbEntity
  8
Fillet
100
AcDbLine
 10
100.304
 20
164.796
 30
0
 11
100.304
 21
164.796
 31
1.5
  0
LINE
  5
ED9
330
A02
100
AcDbEntity
  8
Fillet
100
AcDbLine
 10
100.304
 20
164.796
 30
1.5
 11
100.304
 21
150.784
 31
1.5
  0
LINE
  5
EDA
330
A02
100
AcDbEntity
  8
Fillet
100
AcDbLine
 10
100.304
 20
150.784
 30
0
 11
100.304
 21
150.784
 31
1.5
  0
LINE
  5
EDB
330
A02
100
AcDbEntity
  8
Fillet
100
AcDbLine
 10
100.304
 20
164.796
 30
0
 11
100.304
 21
150.784
 31
0
  0
LINE
  5
EDC
330
A02
100
AcDbEntity
  8
Fillet
100
AcDbLine
 10
100.304
 20
150.784
 30
0
 11
100.304
 21
150.784
 31
1.5
  0
LINE
  5
EDD
330
A02
100
AcDbEntity
  8
Fillet
100
AcDbLine
 10
100.304
 20
150.784
 30
1.5
 11
86.2916
 21
150.784
 31
1.5
  0
LINE
  5
EDE
330
A02
100
AcDbEntity
  8
Fillet
100
AcDbLine
 10
86.2916
 20
150.784
 30
0
 11
86.2916
 21
150.784
 31
1.5
  0
LINE
  5
EDF
330
A02
100
AcDbEntity
  8
Fillet
100
AcDbLine
 10
100.304
 20
150.784
 30
0
 11
86.2916
 21
150.784
 31
0
  0
LINE
  5
EE0
330
A02
100
AcDbEntity
  8
Fillet
100
AcDbLine
 10
119.354
 20
140.984
 30
0
 11
119.354
 21
140.984
 31
1.5
  0
LINE
  5
EE1
330
A02
100
AcDbEntity
  8
Fillet
100
AcDbLine
 10
119.354
 20
140.984
 30
1.5
 11
105.342
 21
140.984
 31
1.5
  0
LINE
  5
EE2
330
A02
100
AcDbEntity
  8
Fillet
100
AcDbLine
 10
105.342
 20
140.984
 30
0
 11
105.342
 21
140.984
 31
1.5
  0
LINE
  5
EE3
330
A02
100
AcDbEntity
  8
Fillet
100
AcDbLine
 10
119.354
 20
140.984
 30
0
 11
105.342
 21
140.984
 31
0
  0
LINE
  5
EE4
330
A02
100
AcDbEntity
  8
Fillet
100
AcDbLine
 10
119.354
 20
126.971
 30
0
 11
119.354
 21
126.971
 31
1.5
  0
LINE
  5
EE5
330
A02
100
AcDbEntity
  8
Fillet
100
AcDbLine
 10
119.354
 20
126.971
 30
1.5
 11
119.354
 21
140.984
 31
1.5
  0
LINE
  5
EE6
330
A02
100
AcDbEntity
  8
Fillet
100
AcDbLine
 10
119.354
 20
140.984
 30
0
 11
119.354
 21
140.984
 31
1.5
  0
LINE
  5
EE7
330
A02
100
AcDbEntity
  8
Fillet
100
AcDbLine
 10
119.354
 20
126.971
 30
0
 11
119.354
 21
140.984
 31
0
  0
LINE
  5
EE8
330
A02
100
AcDbEntity
  8
Fillet
100
AcDbLine
 10
105.342
 20
140.984
 30
0
 11
105.342
 21
140.984
 31
1.5
  0
LINE
  5
EE9
330
A02
100
AcDbEntity
  8
Fillet
100
AcDbLine
 10
105.342
 20
140.984
 30
1.5
 11
105.342
 21
126.971
 31
1.5
  0
LINE
  5
EEA
330
A02
100
AcDbEntity
  8
Fillet
100
AcDbLine
 10
105.342
 20
126.971
 30
0
 11
105.342
 21
126.971
 31
1.5
  0
LINE
  5
EEB
330
A02
100
AcDbEntity
  8
Fillet
100
AcDbLine
 10
105.342
 20
140.984
 30
0
 11
105.342
 21
126.971
 31
0
  0
LINE
  5
EEC
330
A02
100
AcDbEntity
  8
Fillet
100
AcDbLine
 10
105.342
 20
126.971
 30
0
 11
105.342
 21
126.971
 31
1.5
  0
LINE
  5
EED
330
A02
100
AcDbEntity
  8
Fillet
100
AcDbLine
 10
105.342
 20
126.971
 30
1.5
 11
119.354
 21
126.971
 31
1.5
  0
LINE
  5
EEE
330
A02
100
AcDbEntity
  8
Fillet
100
AcDbLine
 10
119.354
 20
126.971
 30
0
 11
119.354
 21
126.971
 31
1.5
  0
LINE
  5
EEF
330
A02
100
AcDbEntity
  8
Fillet
100
AcDbLine
 10
105.342
 20
126.971
 30
0
 11
119.354
 21
126.971
 31
0
  0
LINE
  5
EF0
330
A02
100
AcDbEntity
  8
Fillet
100
AcDbLine
 10
124.392
 20
140.984
 30
0
 11
124.392
 21
140.984
 31
1.5
  0
LINE
  5
EF1
330
A02
100
AcDbEntity
  8
Fillet
100
AcDbLine
 10
124.392
 20
140.984
 30
1.5
 11
138.404
 21
140.984
 31
1.5
  0
LINE
  5
EF2
330
A02
100
AcDbEntity
  8
Fillet
100
AcDbLine
 10
138.404
 20
140.984
 30
0
 11
138.404
 21
140.984
 31
1.5
  0
LINE
  5
EF3
330
A02
100
AcDbEntity
  8
Fillet
100
AcDbLine
 10
124.392
 20
140.984
 30
0
 11
138.404
 21
140.984
 31
0
  0
LINE
  5
EF4
330
A02
100
AcDbEntity
  8
Fillet
100
AcDbLine
 10
124.392
 20
126.971
 30
0
 11
124.392
 21
126.971
 31
1.5
  0
LINE
  5
EF5
330
A02
100
AcDbEntity
  8
Fillet
100
AcDbLine
 10
124.392
 20
126.971
 30
1.5
 11
124.392
 21
140.984
 31
1.5
  0
LINE
  5
EF6
330
A02
100
AcDbEntity
  8
Fillet
100
AcDbLine
 10
124.392
 20
140.984
 30
0
 11
124.392
 21
140.984
 31
1.5
  0
LINE
  5
EF7
330
A02
100
AcDbEntity
  8
Fillet
100
AcDbLine
 10
124.392
 20
126.971
 30
0
 11
124.392
 21
140.984
 31
0
  0
LINE
  5
EF8
330
A02
100
AcDbEntity
  8
Fillet
100
AcDbLine
 10
138.404
 20
140.984
 30
0
 11
138.404
 21
140.984
 31
1.5
  0
LINE
  5
EF9
330
A02
100
AcDbEntity
  8
Fillet
100
AcDbLine
 10
138.404
 20
140.984
 30
1.5
 11
138.404
 21
126.971
 31
1.5
  0
LINE
  5
EFA
330
A02
100
AcDbEntity
  8
Fillet
100
AcDbLine
 10
138.404
 20
126.971
 30
0
 11
138.404
 21
126.971
 31
1.5
  0
LINE
  5
EFB
330
A02
100
AcDbEntity
  8
Fillet
100
AcDbLine
 10
138.404
 20
140.984
 30
0
 11
138.404
 21
126.971
 31
0
  0
LINE
  5
EFC
330
A02
100
AcDbEntity
  8
Fillet
100
AcDbLine
 10
138.404
 20
126.971
 30
0
 11
138.404
 21
126.971
 31
1.5
  0
LINE
  5
EFD
330
A02
100
AcDbEntity
  8
Fillet
100
AcDbLine
 10
138.404
 20
126.971
 30
1.5
 11
124.392
 21
126.971
 31
1.5
  0
LINE
  5
EFE
330
A02
100
AcDbEntity
  8
Fillet
100
AcDbLine
 10
124.392
 20
126.971
 30
0
 11
124.392
 21
126.971
 31
1.5
  0
LINE
  5
EFF
330
A02
100
AcDbEntity
  8
Fillet
100
AcDbLine
 10
138.404
 20
126.971
 30
0
 11
124.392
 21
126.971
 31
0
  0
LINE
  5
F00
330
A02
100
AcDbEntity
  8
Fillet
100
AcDbLine
 10
119.354
 20
146.021
 30
0
 11
119.354
 21
146.021
 31
1.5
  0
LINE
  5
F01
330
A02
100
AcDbEntity
  8
Fillet
100
AcDbLine
 10
119.354
 20
146.021
 30
1.5
 11
119.354
 21
160.034
 31
1.5
  0
LINE
  5
F02
330
A02
100
AcDbEntity
  8
Fillet
100
AcDbLine
 10
119.354
 20
160.034
 30
0
 11
119.354
 21
160.034
 31
1.5
  0
LINE
  5
F03
330
A02
100
AcDbEntity
  8
Fillet
100
AcDbLine
 10
119.354
 20
146.021
 30
0
 11
119.354
 21
160.034
 31
0
  0
LINE
  5
F04
330
A02
100
AcDbEntity
  8
Fillet
100
AcDbLine
 10
105.342
 20
146.021
 30
0
 11
105.342
 21
146.021
 31
1.5
  0
LINE
  5
F05
330
A02
100
AcDbEntity
  8
Fillet
100
AcDbLine
 10
105.342
 20
146.021
 30
1.5
 11
119.354
 21
146.021
 31
1.5
  0
LINE
  5
F06
330
A02
100
AcDbEntity
  8
Fillet
100
AcDbLine
 10
119.354
 20
146.021
 30
0
 11
119.354
 21
146.021
 31
1.5
  0
LINE
  5
F07
330
A02
100
AcDbEntity
  8
Fillet
100
AcDbLine
 10
105.342
 20
146.021
 30
0
 11
119.354
 21
146.021
 31
0
  0
LINE
  5
F08
330
A02
100
AcDbEntity
  8
Fillet
100
AcDbLine
 10
119.354
 20
160.034
 30
0
 11
119.354
 21
160.034
 31
1.5
  0
LINE
  5
F09
330
A02
100
AcDbEntity
  8
Fillet
100
AcDbLine
 10
119.354
 20
160.034
 30
1.5
 11
105.342
 21
160.034
 31
1.5
  0
LINE
  5
F0A
330
A02
100
AcDbEntity
  8
Fillet
100
AcDbLine
 10
105.342
 20
160.034
 30
0
 11
105.342
 21
160.034
 31
1.5
  0
LINE
  5
F0B
330
A02
100
AcDbEntity
  8
Fillet
100
AcDbLine
 10
119.354
 20
160.034
 30
0
 11
105.342
 21
160.034
 31
0
  0
LINE
  5
F0C
330
A02
100
AcDbEntity
  8
Fillet
100
AcDbLine
 10
105.342
 20
160.034
 30
0
 11
105.342
 21
160.034
 31
1.5
  0
LINE
  5
F0D
330
A02
100
AcDbEntity
  8
Fillet
100
AcDbLine
 10
105.342
 20
160.034
 30
1.5
 11
105.342
 21
146.021
 31
1.5
  0
LINE
  5
F0E
330
A02
100
AcDbEntity
  8
Fillet
100
AcDbLine
 10
105.342
 20
146.021
 30
0
 11
105.342
 21
146.021
 31
1.5
  0
LINE
  5
F0F
330
A02
100
AcDbEntity
  8
Fillet
100
AcDbLine
 10
105.342
 20
160.034
 30
0
 11
105.342
 21
146.021
 31
0
  0
LINE
  5
F10
330
A02
100
AcDbEntity
  8
Fillet
100
AcDbLine
 10
124.392
 20
160.034
 30
0
 11
124.392
 21
160.034
 31
1.5
  0
LINE
  5
F11
330
A02
100
AcDbEntity
  8
Fillet
100
AcDbLine
 10
124.392
 20
160.034
 30
1.5
 11
138.404
 21
160.034
 31
1.5
  0
LINE
  5
F12
330
A02
100
AcDbEntity
  8
Fillet
100
AcDbLine
 10
138.404
 20
160.034
 30
0
 11
138.404
 21
160.034
 31
1.5
  0
LINE
  5
F13
330
A02
100
AcDbEntity
  8
Fillet
100
AcDbLine
 10
124.392
 20
160.034
 30
0
 11
138.404
 21
160.034
 31
0
  0
LINE
  5
F14
330
A02
100
AcDbEntity
  8
Fillet
100
AcDbLine
 10
124.392
 20
146.021
 30
0
 11
124.392
 21
146.021
 31
1.5
  0
LINE
  5
F15
330
A02
100
AcDbEntity
  8
Fillet
100
AcDbLine
 10
124.392
 20
146.021
 30
1.5
 11
124.392
 21
160.034
 31
1.5
  0
LINE
  5
F16
330
A02
100
AcDbEntity
  8
Fillet
100
AcDbLine
 10
124.392
 20
160.034
 30
0
 11
124.392
 21
160.034
 31
1.5
  0
LINE
  5
F17
330
A02
100
AcDbEntity
  8
Fillet
100
AcDbLine
 10
124.392
 20
146.021
 30
0
 11
124.392
 21
160.034
 31
0
  0
LINE
  5
F18
330
A02
100
AcDbEntity
  8
Fillet
100
AcDbLine
 10
138.404
 20
160.034
 30
0
 11
138.404
 21
160.034
 31
1.5
  0
LINE
  5
F19
330
A02
100
AcDbEntity
  8
Fillet
100
AcDbLine
 10
138.404
 20
160.034
 30
1.5
 11
138.404
 21
146.021
 31
1.5
  0
LINE
  5
F1A
330
A02
100
AcDbEntity
  8
Fillet
100
AcDbLine
 10
138.404
 20
146.021
 30
0
 11
138.404
 21
146.021
 31
1.5
  0
LINE
  5
F1B
330
A02
100
AcDbEntity
  8
Fillet
100
AcDbLine
 10
138.404
 20
160.034
 30
0
 11
138.404
 21
146.021
 31
0
  0
LINE
  5
F1C
330
A02
100
AcDbEntity
  8
Fillet
100
AcDbLine
 10
138.404
 20
146.021
 30
0
 11
138.404
 21
146.021
 31
1.5
  0
LINE
  5
F1D
330
A02
100
AcDbEntity
  8
Fillet
100
AcDbLine
 10
138.404
 20
146.021
 30
1.5
 11
124.392
 21
146.021
 31
1.5
  0
LINE
  5
F1E
330
A02
100
AcDbEntity
  8
Fillet
100
AcDbLine
 10
124.392
 20
146.021
 30
0
 11
124.392
 21
146.021
 31
1.5
  0
LINE
  5
F1F
330
A02
100
AcDbEntity
  8
Fillet
100
AcDbLine
 10
138.404
 20
146.021
 30
0
 11
124.392
 21
146.021
 31
0
  0
LINE
  5
F20
330
A02
100
AcDbEntity
  8
Fillet
100
AcDbLine
 10
81.2542
 20
153.175
 30
0
 11
81.2542
 21
153.175
 31
1.5
  0
LINE
  5
F21
330
A02
100
AcDbEntity
  8
Fillet
100
AcDbLine
 10
81.2542
 20
153.175
 30
1.5
 11
81.2542
 21
167.167
 31
1.5
  0
LINE
  5
F22
330
A02
100
AcDbEntity
  8
Fillet
100
AcDbLine
 10
81.2542
 20
167.167
 30
0
 11
81.2542
 21
167.167
 31
1.5
  0
LINE
  5
F23
330
A02
100
AcDbEntity
  8
Fillet
100
AcDbLine
 10
81.2542
 20
153.175
 30
0
 11
81.2542
 21
167.167
 31
0
  0
LINE
  5
F24
330
A02
100
AcDbEntity
  8
Fillet
100
AcDbLine
 10
67.2419
 20
153.175
 30
0
 11
67.2419
 21
153.175
 31
1.5
  0
LINE
  5
F25
330
A02
100
AcDbEntity
  8
Fillet
100
AcDbLine
 10
67.2419
 20
153.175
 30
1.5
 11
81.2542
 21
153.175
 31
1.5
  0
LINE
  5
F26
330
A02
100
AcDbEntity
  8
Fillet
100
AcDbLine
 10
81.2542
 20
153.175
 30
0
 11
81.2542
 21
153.175
 31
1.5
  0
LINE
  5
F27
330
A02
100
AcDbEntity
  8
Fillet
100
AcDbLine
 10
67.2419
 20
153.175
 30
0
 11
81.2542
 21
153.175
 31
0
  0
LINE
  5
F28
330
A02
100
AcDbEntity
  8
Fillet
100
AcDbLine
 10
81.2542
 20
167.167
 30
0
 11
81.2542
 21
167.167
 31
1.5
  0
LINE
  5
F29
330
A02
100
AcDbEntity
  8
Fillet
100
AcDbLine
 10
81.2542
 20
167.167
 30
1.5
 11
67.2419
 21
167.167
 31
1.5
  0
LINE
  5
F2A
330
A02
100
AcDbEntity
  8
Fillet
100
AcDbLine
 10
67.2419
 20
167.167
 30
0
 11
67.2419
 21
167.167
 31
1.5
  0
LINE
  5
F2B
330
A02
100
AcDbEntity
  8
Fillet
100
AcDbLine
 10
81.2542
 20
167.167
 30
0
 11
67.2419
 21
167.167
 31
0
  0
LINE
  5
F2C
330
A02
100
AcDbEntity
  8
Fillet
100
AcDbLine
 10
67.2419
 20
167.167
 30
0
 11
67.2419
 21
167.167
 31
1.5
  0
LINE
  5
F2D
330
A02
100
AcDbEntity
  8
Fillet
100
AcDbLine
 10
67.2419
 20
167.167
 30
1.5
 11
67.2419
 21
153.175
 31
1.5
  0
LINE
  5
F2E
330
A02
100
AcDbEntity
  8
Fillet
100
AcDbLine
 10
67.2419
 20
153.175
 30
0
 11
67.2419
 21
153.175
 31
1.5
  0
LINE
  5
F2F
330
A02
100
AcDbEntity
  8
Fillet
100
AcDbLine
 10
67.2419
 20
167.167
 30
0
 11
67.2419
 21
153.175
 31
0
  0
LINE
  5
F30
330
A02
100
AcDbEntity
  8
Fillet
100
AcDbLine
 10
81.2542
 20
186.216
 30
0
 11
81.2542
 21
186.216
 31
1.5
  0
LINE
  5
F31
330
A02
100
AcDbEntity
  8
Fillet
100
AcDbLine
 10
81.2542
 20
186.216
 30
1.5
 11
81.2542
 21
172.225
 31
1.5
  0
LINE
  5
F32
330
A02
100
AcDbEntity
  8
Fillet
100
AcDbLine
 10
81.2542
 20
172.225
 30
0
 11
81.2542
 21
172.225
 31
1.5
  0
LINE
  5
F33
330
A02
100
AcDbEntity
  8
Fillet
100
AcDbLine
 10
81.2542
 20
186.216
 30
0
 11
81.2542
 21
172.225
 31
0
  0
LINE
  5
F34
330
A02
100
AcDbEntity
  8
Fillet
100
AcDbLine
 10
67.2419
 20
186.216
 30
0
 11
67.2419
 21
186.216
 31
1.5
  0
LINE
  5
F35
330
A02
100
AcDbEntity
  8
Fillet
100
AcDbLine
 10
67.2419
 20
186.216
 30
1.5
 11
81.2542
 21
186.216
 31
1.5
  0
LINE
  5
F36
330
A02
100
AcDbEntity
  8
Fillet
100
AcDbLine
 10
81.2542
 20
186.216
 30
0
 11
81.2542
 21
186.216
 31
1.5
  0
LINE
  5
F37
330
A02
100
AcDbEntity
  8
Fillet
100
AcDbLine
 10
67.2419
 20
186.216
 30
0
 11
81.2542
 21
186.216
 31
0
  0
LINE
  5
F38
330
A02
100
AcDbEntity
  8
Fillet
100
AcDbLine
 10
81.2542
 20
172.225
 30
0
 11
81.2542
 21
172.225
 31
1.5
  0
LINE
  5
F39
330
A02
100
AcDbEntity
  8
Fillet
100
AcDbLine
 10
81.2542
 20
172.225
 30
1.5
 11
67.2419
 21
172.225
 31
1.5
  0
LINE
  5
F3A
330
A02
100
AcDbEntity
  8
Fillet
100
AcDbLine
 10
67.2419
 20
172.225
 30
0
 11
67.2419
 21
172.225
 31
1.5
  0
LINE
  5
F3B
330
A02
100
AcDbEntity
  8
Fillet
100
AcDbLine
 10
81.2542
 20
172.225
 30
0
 11
67.2419
 21
172.225
 31
0
  0
LINE
  5
F3C
330
A02
100
AcDbEntity
  8
Fillet
100
AcDbLine
 10
67.2419
 20
172.225
 30
0
 11
67.2419
 21
172.225
 31
1.5
  0
LINE
  5
F3D
330
A02
100
AcDbEntity
  8
Fillet
100
AcDbLine
 10
67.2419
 20
172.225
 30
1.5
 11
67.2419
 21
186.216
 31
1.5
  0
LINE
  5
F3E
330
A02
100
AcDbEntity
  8
Fillet
100
AcDbLine
 10
67.2419
 20
186.216
 30
0
 11
67.2419
 21
186.216
 31
1.5
  0
LINE
  5
F3F
330
A02
100
AcDbEntity
  8
Fillet
100
AcDbLine
 10
67.2419
 20
172.225
 30
0
 11
67.2419
 21
186.216
 31
0
  0
LINE
  5
F40
330
A02
100
AcDbEntity
  8
Fillet
100
AcDbLine
 10
100.304
 20
169.834
 30
0
 11
100.304
 21
169.834
 31
1.5
  0
LINE
  5
F41
330
A02
100
AcDbEntity
  8
Fillet
100
AcDbLine
 10
100.304
 20
169.834
 30
1.5
 11
100.304
 21
183.846
 31
1.5
  0
LINE
  5
F42
330
A02
100
AcDbEntity
  8
Fillet
100
AcDbLine
 10
100.304
 20
183.846
 30
0
 11
100.304
 21
183.846
 31
1.5
  0
LINE
  5
F43
330
A02
100
AcDbEntity
  8
Fillet
100
AcDbLine
 10
100.304
 20
169.834
 30
0
 11
100.304
 21
183.846
 31
0
  0
LINE
  5
F44
330
A02
100
AcDbEntity
  8
Fillet
100
AcDbLine
 10
86.2916
 20
169.834
 30
0
 11
86.2916
 21
169.834
 31
1.5
  0
LINE
  5
F45
330
A02
100
AcDbEntity
  8
Fillet
100
AcDbLine
 10
86.2916
 20
169.834
 30
1.5
 11
100.304
 21
169.834
 31
1.5
  0
LINE
  5
F46
330
A02
100
AcDbEntity
  8
Fillet
100
AcDbLine
 10
100.304
 20
169.834
 30
0
 11
100.304
 21
169.834
 31
1.5
  0
LINE
  5
F47
330
A02
100
AcDbEntity
  8
Fillet
100
AcDbLine
 10
86.2916
 20
169.834
 30
0
 11
100.304
 21
169.834
 31
0
  0
LINE
  5
F48
330
A02
100
AcDbEntity
  8
Fillet
100
AcDbLine
 10
100.304
 20
183.846
 30
0
 11
100.304
 21
183.846
 31
1.5
  0
LINE
  5
F49
330
A02
100
AcDbEntity
  8
Fillet
100
AcDbLine
 10
100.304
 20
183.846
 30
1.5
 11
86.2916
 21
183.846
 31
1.5
  0
LINE
  5
F4A
330
A02
100
AcDbEntity
  8
Fillet
100
AcDbLine
 10
86.2916
 20
183.846
 30
0
 11
86.2916
 21
183.846
 31
1.5
  0
LINE
  5
F4B
330
A02
100
AcDbEntity
  8
Fillet
100
AcDbLine
 10
100.304
 20
183.846
 30
0
 11
86.2916
 21
183.846
 31
0
  0
LINE
  5
F4C
330
A02
100
AcDbEntity
  8
Fillet
100
AcDbLine
 10
86.2916
 20
183.846
 30
0
 11
86.2916
 21
183.846
 31
1.5
  0
LINE
  5
F4D
330
A02
100
AcDbEntity
  8
Fillet
100
AcDbLine
 10
86.2916
 20
183.846
 30
1.5
 11
86.2916
 21
169.834
 31
1.5
  0
LINE
  5
F4E
330
A02
100
AcDbEntity
  8
Fillet
100
AcDbLine
 10
86.2916
 20
169.834
 30
0
 11
86.2916
 21
169.834
 31
1.5
  0
LINE
  5
F4F
330
A02
100
AcDbEntity
  8
Fillet
100
AcDbLine
 10
86.2916
 20
183.846
 30
0
 11
86.2916
 21
169.834
 31
0
  0
LINE
  5
F50
330
A02
100
AcDbEntity
  8
Fillet
100
AcDbLine
 10
91.214
 20
187.399
 30
0
 11
91.214
 21
187.399
 31
1.5
  0
CIRCLE
  5
F51
330
A02
100
AcDbEntity
  8
Fillet
100
AcDbCircle
 10
90.014
 20
187.399
 40
1.2
  0
LINE
  5
F52
330
A02
100
AcDbEntity
  8
Fillet
100
AcDbLine
 10
91.214
 20
187.399
 30
0
 11
91.214
 21
187.399
 31
1.5
  0
CIRCLE
  5
F53
330
A02
100
AcDbEntity
  8
Fillet
100
AcDbCircle
 10
90.014
 20
187.399
 40
1.2
  0
LINE
  5
F54
330
A02
100
AcDbEntity
  8
Fillet
100
AcDbLine
 10
105.342
 20
165.071
 30
0
 11
105.342
 21
165.071
 31
1.5
  0
LINE
  5
F55
330
A02
100
AcDbEntity
  8
Fillet
100
AcDbLine
 10
105.342
 20
165.071
 30
1.5
 11
105.342
 21
179.084
 31
1.5
  0
LINE
  5
F56
330
A02
100
AcDbEntity
  8
Fillet
100
AcDbLine
 10
105.342
 20
179.084
 30
0
 11
105.342
 21
179.084
 31
1.5
  0
LINE
  5
F57
330
A02
100
AcDbEntity
  8
Fillet
100
AcDbLine
 10
105.342
 20
165.071
 30
0
 11
105.342
 21
179.084
 31
0
  0
LINE
  5
F58
330
A02
100
AcDbEntity
  8
Fillet
100
AcDbLine
 10
119.354
 20
165.071
 30
0
 11
119.354
 21
165.071
 31
1.5
  0
LINE
  5
F59
330
A02
100
AcDbEntity
  8
Fillet
100
AcDbLine
 10
119.354
 20
165.071
 30
1.5
 11
105.342
 21
165.071
 31
1.5
  0
LINE
  5
F5A
330
A02
100
AcDbEntity
  8
Fillet
100
AcDbLine
 10
105.342
 20
165.071
 30
0
 11
105.342
 21
165.071
 31
1.5
  0
LINE
  5
F5B
330
A02
100
AcDbEntity
  8
Fillet
100
AcDbLine
 10
119.354
 20
165.071
 30
0
 11
105.342
 21
165.071
 31
0
  0
LINE
  5
F5C
330
A02
100
AcDbEntity
  8
Fillet
100
AcDbLine
 10
105.342
 20
179.084
 30
0
 11
105.342
 21
179.084
 31
1.5
  0
LINE
  5
F5D
330
A02
100
AcDbEntity
  8
Fillet
100
AcDbLine
 10
105.342
 20
179.084
 30
1.5
 11
119.354
 21
179.084
 31
1.5
  0
LINE
  5
F5E
330
A02
100
AcDbEntity
  8
Fillet
100
AcDbLine
 10
119.354
 20
179.084
 30
0
 11
119.354
 21
179.084
 31
1.5
  0
LINE
  5
F5F
330
A02
100
AcDbEntity
  8
Fillet
100
AcDbLine
 10
105.342
 20
179.084
 30
0
 11
119.354
 21
179.084
 31
0
  0
LINE
  5
F60
330
A02
100
AcDbEntity
  8
Fillet
100
AcDbLine
 10
119.354
 20
179.084
 30
0
 11
119.354
 21
179.084
 31
1.5
  0
LINE
  5
F61
330
A02
100
AcDbEntity
  8
Fillet
100
AcDbLine
 10
119.354
 20
179.084
 30
1.5
 11
119.354
 21
165.071
 31
1.5
  0
LINE
  5
F62
330
A02
100
AcDbEntity
  8
Fillet
100
AcDbLine
 10
119.354
 20
165.071
 30
0
 11
119.354
 21
165.071
 31
1.5
  0
LINE
  5
F63
330
A02
100
AcDbEntity
  8
Fillet
100
AcDbLine
 10
119.354
 20
179.084
 30
0
 11
119.354
 21
165.071
 31
0
  0
LINE
  5
F64
330
A02
100
AcDbEntity
  8
Fillet
100
AcDbLine
 10
123.083
 20
162.498
 30
0
 11
123.083
 21
162.498
 31
1.5
  0
CIRCLE
  5
F65
330
A02
100
AcDbEntity
  8
Fillet
100
AcDbCircle
 10
121.883
 20
162.498
 40
1.2
  0
LINE
  5
F66
330
A02
100
AcDbEntity
  8
Fillet
100
AcDbLine
 10
123.083
 20
162.498
 30
0
 11
123.083
 21
162.498
 31
1.5
  0
CIRCLE
  5
F67
330
A02
100
AcDbEntity
  8
Fillet
100
AcDbCircle
 10
121.883
 20
162.498
 40
1.2
  0
LINE
  5
F68
330
A02
100
AcDbEntity
  8
Fillet
100
AcDbLine
 10
138.404
 20
179.084
 30
0
 11
138.404
 21
179.084
 31
1.5
  0
LINE
  5
F69
330
A02
100
AcDbEntity
  8
Fillet
100
AcDbLine
 10
138.404
 20
179.084
 30
1.5
 11
138.404
 21
165.071
 31
1.5
  0
LINE
  5
F6A
330
A02
100
AcDbEntity
  8
Fillet
100
AcDbLine
 10
138.404
 20
165.071
 30
0
 11
138.404
 21
165.071
 31
1.5
  0
LINE
  5
F6B
330
A02
100
AcDbEntity
  8
Fillet
100
AcDbLine
 10
138.404
 20
179.084
 30
0
 11
138.404
 21
165.071
 31
0
  0
LINE
  5
F6C
330
A02
100
AcDbEntity
  8
Fillet
100
AcDbLine
 10
124.392
 20
179.084
 30
0
 11
124.392
 21
179.084
 31
1.5
  0
LINE
  5
F6D
330
A02
100
AcDbEntity
  8
Fillet
100
AcDbLine
 10
124.392
 20
179.084
 30
1.5
 11
138.404
 21
179.084
 31
1.5
  0
LINE
  5
F6E
330
A02
100
AcDbEntity
  8
Fillet
100
AcDbLine
 10
138.404
 20
179.084
 30
0
 11
138.404
 21
179.084
 31
1.5
  0
LINE
  5
F6F
330
A02
100
AcDbEntity
  8
Fillet
100
AcDbLine
 10
124.392
 20
179.084
 30
0
 11
138.404
 21
179.084
 31
0
  0
LINE
  5
F70
330
A02
100
AcDbEntity
  8
Fillet
100
AcDbLine
 10
138.404
 20
165.071
 30
0
 11
138.404
 21
165.071
 31
1.5
  0
LINE
  5
F71
330
A02
100
AcDbEntity
  8
Fillet
100
AcDbLine
 10
138.404
 20
165.071
 30
1.5
 11
124.392
 21
165.071
 31
1.5
  0
LINE
  5
F72
330
A02
100
AcDbEntity
  8
Fillet
100
AcDbLine
 10
124.392
 20
165.071
 30
0
 11
124.392
 21
165.071
 31
1.5
  0
LINE
  5
F73
330
A02
100
AcDbEntity
  8
Fillet
100
AcDbLine
 10
138.404
 20
165.071
 30
0
 11
124.392
 21
165.071
 31
0
  0
LINE
  5
F74
330
A02
100
AcDbEntity
  8
Fillet
100
AcDbLine
 10
124.392
 20
165.071
 30
0
 11
124.392
 21
165.071
 31
1.5
  0
LINE
  5
F75
330
A02
100
AcDbEntity
  8
Fillet
100
AcDbLine
 10
124.392
 20
165.071
 30
1.5
 11
124.392
 21
179.084
 31
1.5
  0
LINE
  5
F76
330
A02
100
AcDbEntity
  8
Fillet
100
AcDbLine
 10
124.392
 20
179.084
 30
0
 11
124.392
 21
179.084
 31
1.5
  0
LINE
  5
F77
330
A02
100
AcDbEntity
  8
Fillet
100
AcDbLine
 10
124.392
 20
165.071
 30
0
 11
124.392
 21
179.084
 31
0
  0
ARC
  5
F78
330
A02
100
AcDbEntity
  8
Fillet
100
AcDbCircle
 10
141.209
 20
87.62
 30
1.3
 40
0.2
100
AcDbArc
 50
0
 51
0
  0
LINE
  5
F79
330
A02
100
AcDbEntity
  8
Fillet
100
AcDbLine
 10
141.209
 20
87.62
 30
1.5
 11
141.209
 21
180.619
 31
1.5
  0
ARC
  5
F7A
330
A02
100
AcDbEntity
  8
Fillet
100
AcDbCircle
 10
141.209
 20
180.619
 30
1.3
 40
0.2
100
AcDbArc
 50
0
 51
0
  0
LINE
  5
F7B
330
A02
100
AcDbEntity
  8
Fillet
100
AcDbLine
 10
141.409
 20
87.62
 30
1.3
 11
141.409
 21
180.619
 31
1.3
  0
ARC
  5
F7C
330
A02
100
AcDbEntity
  8
Fillet
100
AcDbCircle
 10
83.6427
 20
194.84
 30
1.3
 40
0.2
100
AcDbArc
 50
0
 51
90
  0
LINE
  5
F7D
330
A02
100
AcDbEntity
  8
Fillet
100
AcDbLine
 10
83.6427
 20
194.84
 30
1.5
 11
46.4104
 21
194.84
 31
1.5
  0
ARC
  5
F7E
330
A02
100
AcDbEntity
  8
Fillet
100
AcDbCircle
 10
46.4104
 20
194.84
 30
1.3
 40
0.2
100
AcDbArc
 50
0
 51
90
  0
LINE
  5
F7F
330
A02
100
AcDbEntity
  8
Fillet
100
AcDbLine
 10
83.6427
 20
195.04
 30
1.3
 11
46.4104
 21
195.04
 31
1.3
  0
ARC
  5
F80
330
A02
100
AcDbEntity
  8
Fillet
100
AcDbCircle
 10
139.909
 20
86.32
 30
1.3
 40
0.2
100
AcDbArc
 50
0
 51
-90
  0
ARC
  5
F81
330
A02
100
AcDbEntity
  8
Fillet
100
AcDbCircle
 10
139.909
 20
87.62
 30
1.3
 40
1.5
100
AcDbArc
 50
-90
 51
0
  0
ARC
  5
F82
330
A02
100
AcDbEntity
  8
Fillet
100
AcDbCircle
 10
141.209
 20
87.62
 30
1.3
 40
0.2
100
AcDbArc
 50
0
 51
0
  0
ARC
  5
F83
330
A02
100
AcDbEntity
  8
Fillet
100
AcDbCircle
 10
139.909
 20
87.62
 30
1.5
 40
1.3
100
AcDbArc
 50
-90
 51
0
  0
ARC
  5
F84
330
A02
100
AcDbEntity
  8
Fillet
100
AcDbCircle
 10
46.4104
 20
194.84
 30
1.3
 40
0.2
100
AcDbArc
 50
0
 51
90
  0
ARC
  5
F85
330
A02
100
AcDbEntity
  8
Fillet
100
AcDbCircle
 10
46.4104
 20
192.54
 30
1.3
 40
2.5
100
AcDbArc
 50
90
 51
124.99
  0
ARC
  5
F86
330
A02
100
AcDbEntity
  8
Fillet
100
AcDbCircle
 10
45.0915
 20
194.424
 30
1.3
 40
0.2
100
AcDbArc
 50
0
 51
124.99
  0
ARC
  5
F87
330
A02
100
AcDbEntity
  8
Fillet
100
AcDbCircle
 10
46.4104
 20
192.54
 30
1.5
 40
2.3
100
AcDbArc
 50
90
 51
124.99
  0
ARC
  5
F88
330
A02
100
AcDbEntity
  8
Fillet
100
AcDbCircle
 10
47.2485
 20
86.32
 30
1.3
 40
0.2
100
AcDbArc
 50
0
 51
-90
  0
LINE
  5
F89
330
A02
100
AcDbEntity
  8
Fillet
100
AcDbLine
 10
47.2485
 20
86.32
 30
1.5
 11
139.909
 21
86.32
 31
1.5
  0
ARC
  5
F8A
330
A02
100
AcDbEntity
  8
Fillet
100
AcDbCircle
 10
139.909
 20
86.32
 30
1.3
 40
0.2
100
AcDbArc
 50
0
 51
-90
  0
LINE
  5
F8B
330
A02
100
AcDbEntity
  8
Fillet
100
AcDbLine
 10
47.2485
 20
86.12
 30
1.3
 11
139.909
 21
86.12
 31
1.3
  0
ARC
  5
F8C
330
A02
100
AcDbEntity
  8
Fillet
100
AcDbCircle
 10
45.0915
 20
194.424
 30
1.3
 40
0.2
100
AcDbArc
 50
0
 51
124.99
  0
LINE
  5
F8D
330
A02
100
AcDbEntity
  8
Fillet
100
AcDbLine
 10
45.0915
 20
194.424
 30
1.5
 11
34.096
 21
186.728
 31
1.5
  0
ARC
  5
F8E
330
A02
100
AcDbEntity
  8
Fillet
100
AcDbCircle
 10
34.096
 20
186.728
 30
1.3
 40
0.2
100
AcDbArc
 50
0
 51
124.99
  0
LINE
  5
F8F
330
A02
100
AcDbEntity
  8
Fillet
100
AcDbLine
 10
44.9768
 20
194.588
 30
1.3
 11
33.9813
 21
186.892
 31
1.3
  0
ARC
  5
F90
330
A02
100
AcDbEntity
  8
Fillet
100
AcDbCircle
 10
45.8985
 20
85.9583
 30
1.3
 40
0.2
100
AcDbArc
 50
-60
 51
0
  0
ARC
  5
F91
330
A02
100
AcDbEntity
  8
Fillet
100
AcDbCircle
 10
47.2485
 20
83.62
 30
1.3
 40
2.5
100
AcDbArc
 50
90
 51
120
  0
ARC
  5
F92
330
A02
100
AcDbEntity
  8
Fillet
100
AcDbCircle
 10
47.2485
 20
86.32
 30
1.3
 40
0.2
100
AcDbArc
 50
0
 51
-90
  0
ARC
  5
F93
330
A02
100
AcDbEntity
  8
Fillet
100
AcDbCircle
 10
47.2485
 20
83.62
 30
1.5
 40
2.7
100
AcDbArc
 50
90
 51
120
  0
ARC
  5
F94
330
A02
100
AcDbEntity
  8
Fillet
100
AcDbCircle
 10
34.096
 20
186.728
 30
1.3
 40
0.2
100
AcDbArc
 50
0
 51
124.99
  0
ARC
  5
F95
330
A02
100
AcDbEntity
  8
Fillet
100
AcDbCircle
 10
32.5477
 20
188.94
 30
1.3
 40
2.5
100
AcDbArc
 50
-90
 51
-55.01
  0
ARC
  5
F96
330
A02
100
AcDbEntity
  8
Fillet
100
AcDbCircle
 10
32.5477
 20
186.24
 30
1.3
 40
0.2
100
AcDbArc
 50
0
 51
90
  0
ARC
  5
F97
330
A02
100
AcDbEntity
  8
Fillet
100
AcDbCircle
 10
32.5477
 20
188.94
 30
1.5
 40
2.7
100
AcDbArc
 50
-90
 51
-55.01
  0
ARC
  5
F98
330
A02
100
AcDbEntity
  8
Fillet
100
AcDbCircle
 10
8.54675
 20
64.3932
 30
1.3
 40
0.2
100
AcDbArc
 50
0
 51
-60
  0
LINE
  5
F99
330
A02
100
AcDbEntity
  8
Fillet
100
AcDbLine
 10
8.54675
 20
64.3932
 30
1.5
 11
45.8985
 21
85.9583
 31
1.5
  0
ARC
  5
F9A
330
A02
100
AcDbEntity
  8
Fillet
100
AcDbCircle
 10
45.8985
 20
85.9583
 30
1.3
 40
0.2
100
AcDbArc
 50
-60
 51
0
  0
LINE
  5
F9B
330
A02
100
AcDbEntity
  8
Fillet
100
AcDbLine
 10
8.64675
 20
64.22
 30
1.3
 11
45.9985
 21
85.7851
 31
1.3
  0
ARC
  5
F9C
330
A02
100
AcDbEntity
  8
Fillet
100
AcDbCircle
 10
32.5477
 20
186.24
 30
1.3
 40
0.2
100
AcDbArc
 50
0
 51
90
  0
LINE
  5
F9D
330
A02
100
AcDbEntity
  8
Fillet
100
AcDbLine
 10
32.5477
 20
186.24
 30
1.5
 11
15.8933
 21
186.24
 31
1.5
  0
ARC
  5
F9E
330
A02
100
AcDbEntity
  8
Fillet
100
AcDbCircle
 10
15.8933
 20
186.24
 30
1.3
 40
0.2
100
AcDbArc
 50
0
 51
90
  0
LINE
  5
F9F
330
A02
100
AcDbEntity
  8
Fillet
100
AcDbLine
 10
32.5477
 20
186.44
 30
1.3
 11
15.8933
 21
186.44
 31
1.3
  0
ARC
  5
FA0
330
A02
100
AcDbEntity
  8
Fillet
100
AcDbCircle
 10
7.45393
 20
64.686
 30
1.3
 40
0.2
100
AcDbArc
 50
-150
 51
0
  0
ARC
  5
FA1
330
A02
100
AcDbEntity
  8
Fillet
100
AcDbCircle
 10
8.14675
 20
65.086
 30
1.3
 40
1
100
AcDbArc
 50
-150
 51
-60
  0
ARC
  5
FA2
330
A02
100
AcDbEntity
  8
Fillet
100
AcDbCircle
 10
8.54675
 20
64.3932
 30
1.3
 40
0.2
100
AcDbArc
 50
0
 51
-60
  0
ARC
  5
FA3
330
A02
100
AcDbEntity
  8
Fillet
100
AcDbCircle
 10
8.14675
 20
65.086
 30
1.5
 40
0.8
100
AcDbArc
 50
-150
 51
-60
  0
ARC
  5
FA4
330
A02
100
AcDbEntity
  8
Fillet
100
AcDbCircle
 10
15.8933
 20
186.24
 30
1.3
 40
0.2
100
AcDbArc
 50
0
 51
90
  0
ARC
  5
FA5
330
A02
100
AcDbEntity
  8
Fillet
100
AcDbCircle
 10
15.8933
 20
185.44
 30
1.3
 40
1
100
AcDbArc
 50
90
 51
146.14
  0
ARC
  5
FA6
330
A02
100
AcDbEntity
  8
Fillet
100
AcDbCircle
 10
15.229
 20
185.886
 30
1.3
 40
0.2
100
AcDbArc
 50
0
 51
146.14
  0
ARC
  5
FA7
330
A02
100
AcDbEntity
  8
Fillet
100
AcDbCircle
 10
15.8933
 20
185.44
 30
1.5
 40
0.8
100
AcDbArc
 50
90
 51
146.14
  0
ARC
  5
FA8
330
A02
100
AcDbEntity
  8
Fillet
100
AcDbCircle
 10
-10.5228
 20
95.8226
 30
1.3
 40
0.2
100
AcDbArc
 50
0
 51
-150
  0
LINE
  5
FA9
330
A02
100
AcDbEntity
  8
Fillet
100
AcDbLine
 10
-10.5228
 20
95.8226
 30
1.5
 11
7.45393
 21
64.686
 31
1.5
  0
ARC
  5
FAA
330
A02
100
AcDbEntity
  8
Fillet
100
AcDbCircle
 10
7.45393
 20
64.686
 30
1.3
 40
0.2
100
AcDbArc
 50
-150
 51
0
  0
LINE
  5
FAB
330
A02
100
AcDbEntity
  8
Fillet
100
AcDbLine
 10
-10.696
 20
95.7226
 30
1.3
 11
7.28072
 21
64.586
 31
1.3
  0
ARC
  5
FAC
330
A02
100
AcDbEntity
  8
Fillet
100
AcDbCircle
 10
15.229
 20
185.886
 30
1.3
 40
0.2
100
AcDbArc
 50
0
 51
146.14
  0
LINE
  5
FAD
330
A02
100
AcDbEntity
  8
Fillet
100
AcDbLine
 10
15.229
 20
185.886
 30
1.5
 11
7.66434
 21
174.611
 31
1.5
  0
ARC
  5
FAE
330
A02
100
AcDbEntity
  8
Fillet
100
AcDbCircle
 10
7.66434
 20
174.611
 30
1.3
 40
0.2
100
AcDbArc
 50
146.14
 51
0
  0
LINE
  5
FAF
330
A02
100
AcDbEntity
  8
Fillet
100
AcDbLine
 10
15.0629
 20
185.997
 30
1.3
 11
7.49826
 21
174.723
 31
1.3
  0
ARC
  5
FB0
330
A02
100
AcDbEntity
  8
Fillet
100
AcDbCircle
 10
-10.3117
 20
97.9158
 30
1.3
 40
0.2
100
AcDbArc
 50
0
 51
138.48
  0
ARC
  5
FB1
330
A02
100
AcDbEntity
  8
Fillet
100
AcDbCircle
 10
-8.96396
 20
96.7226
 30
1.3
 40
2
100
AcDbArc
 50
138.48
 51
-150
  0
ARC
  5
FB2
330
A02
100
AcDbEntity
  8
Fillet
100
AcDbCircle
 10
-10.5228
 20
95.8226
 30
1.3
 40
0.2
100
AcDbArc
 50
0
 51
-150
  0
ARC
  5
FB3
330
A02
100
AcDbEntity
  8
Fillet
100
AcDbCircle
 10
-8.96396
 20
96.7226
 30
1.5
 40
1.8
100
AcDbArc
 50
138.48
 51
-150
  0
ARC
  5
FB4
330
A02
100
AcDbEntity
  8
Fillet
100
AcDbCircle
 10
7.66434
 20
174.611
 30
1.3
 40
0.2
100
AcDbArc
 50
146.14
 51
0
  0
ARC
  5
FB5
330
A02
100
AcDbEntity
  8
Fillet
100
AcDbCircle
 10
8.32866
 20
174.166
 30
1.3
 40
1
100
AcDbArc
 50
146.14
 51
180
  0
ARC
  5
FB6
330
A02
100
AcDbEntity
  8
Fillet
100
AcDbCircle
 10
7.52866
 20
174.166
 30
1.3
 40
0.2
100
AcDbArc
 50
0
 51
180
  0
ARC
  5
FB7
330
A02
100
AcDbEntity
  8
Fillet
100
AcDbCircle
 10
8.32866
 20
174.166
 30
1.5
 40
0.8
100
AcDbArc
 50
146.14
 51
180
  0
ARC
  5
FB8
330
A02
100
AcDbEntity
  8
Fillet
100
AcDbCircle
 10
7.22713
 20
117.726
 30
1.3
 40
0.2
100
AcDbArc
 50
0
 51
138.48
  0
LINE
  5
FB9
330
A02
100
AcDbEntity
  8
Fillet
100
AcDbLine
 10
7.22713
 20
117.726
 30
1.5
 11
-10.3117
 21
97.9158
 31
1.5
  0
ARC
  5
FBA
330
A02
100
AcDbEntity
  8
Fillet
100
AcDbCircle
 10
-10.3117
 20
97.9158
 30
1.3
 40
0.2
100
AcDbArc
 50
0
 51
138.48
  0
LINE
  5
FBB
330
A02
100
AcDbEntity
  8
Fillet
100
AcDbLine
 10
7.07739
 20
117.858
 30
1.3
 11
-10.4614
 21
98.0484
 31
1.3
  0
ARC
  5
FBC
330
A02
100
AcDbEntity
  8
Fillet
100
AcDbCircle
 10
7.52866
 20
174.166
 30
1.3
 40
0.2
100
AcDbArc
 50
0
 51
180
  0
LINE
  5
FBD
330
A02
100
AcDbEntity
  8
Fillet
100
AcDbLine
 10
7.52866
 20
174.166
 30
1.5
 11
7.52866
 21
118.521
 31
1.5
  0
ARC
  5
FBE
330
A02
100
AcDbEntity
  8
Fillet
100
AcDbCircle
 10
7.52866
 20
118.521
 30
1.3
 40
0.2
100
AcDbArc
 50
0
 51
180
  0
LINE
  5
FBF
330
A02
100
AcDbEntity
  8
Fillet
100
AcDbLine
 10
7.32866
 20
174.166
 30
1.3
 11
7.32866
 21
118.521
 31
1.3
  0
ARC
  5
FC0
330
A02
100
AcDbEntity
  8
Fillet
100
AcDbCircle
 10
7.52866
 20
118.521
 30
1.3
 40
0.2
100
AcDbArc
 50
0
 51
180
  0
ARC
  5
FC1
330
A02
100
AcDbEntity
  8
Fillet
100
AcDbCircle
 10
6.32866
 20
118.521
 30
1.3
 40
1
100
AcDbArc
 50
-41.52
 51
0
  0
ARC
  5
FC2
330
A02
100
AcDbEntity
  8
Fillet
100
AcDbCircle
 10
7.22713
 20
117.726
 30
1.3
 40
0.2
100
AcDbArc
 50
0
 51
138.48
  0
ARC
  5
FC3
330
A02
100
AcDbEntity
  8
Fillet
100
AcDbCircle
 10
6.32866
 20
118.521
 30
1.5
 40
1.2
100
AcDbArc
 50
-41.52
 51
0
  0
ENDSEC
  0
SECTION
  2
OBJECTS
  0
DICTIONARY
  5
F000
330
0
100
AcDbDictionary
  3
ACAD_GROUP
350
F001
  0
DICTIONARY
  5
F001
330
F000
100
AcDbDictionary
  0
ENDSEC
  0
EOF