999
FreeCAD v0.20 29410 (Git)
  0
SECTION
  2
HEADER
  9
$ACADVER
  1
AC1014
  9
$ACADMAINTVER
 70
     9
  9
$DWGCODEPAGE
  3
ANSI_1252
  9
$TEXTSTYLE
  7
STANDARD
  9
$DIMSTYLE
  2
STANDARD
  9
$DIMTXSTY
  7
STANDARD
  9
$CMLSTYLE
  2
STANDARD
  9
$LUNITS
 70
2
  9
$INSUNITS
 70
4
  9
$PEXTMAX
 10
50
 20
50
 30
50
  9
$PEXTMIN
 10
0
 20
0
 30
0
  9
$HANDSEED
  5
FFFF
  0
ENDSEC
  0
SECTION
  2
CLASSES
  0
CLASS
  1
ACDBDICTIONARYWDFLT
  2
AcDbDictionaryWithDefault
  3
ObjectDBX Classes
 90
        0
280
     0
281
     0
  0
CLASS
  1
XRECORD
  2
AcDbXrecord
  3
ObjectDBX Classes
 90
        0
280
     0
281
     0
  0
CLASS
  1
LWPOLYLINE
  2
AcDbPolyline
  3
ObjectDBX Classes
 90
        0
280
     0
281
     1
  0
ENDSEC
  0
SECTION
  2
TABLES
  0
TABLE
  2
VPORT
  5
20
330
0
100
AcDbSymbolTable
 70
     1
  0
VPORT
  5
21
330
20
100
AcDbSymbolTableRecord
100
AcDbViewportTableRecord
  2
*ACTIVE
 70
     0
  0
ENDTAB
  0
TABLE
  2
LTYPE
  5
22
330
0
100
AcDbSymbolTable
 70
     1
  0
LTYPE
  5
23
330
21
100
AcDbSymbolTableRecord
100
AcDbLinetypeTableRecord
  2
BYBLOCK
 70
     0
  3

 72
    65
 73
     0
 40
0.0
  0
LTYPE
  5
24
330
21
100
AcDbSymbolTableRecord
100
AcDbLinetypeTableRecord
  2
BYLAYER
 70
     0
  3

 72
    65
 73
     0
 40
0.0
  0
LTYPE
  5
25
330
21
100
AcDbSymbolTableRecord
100
AcDbLinetypeTableRecord
  2
CONTINUOUS
 70
     0
  3
Solid line
 72
    65
 73
     0
 40
0.0
  0
ENDTAB
  0
TABLE
  2
LAYER
  5
AEE
330
0
100
AcDbSymbolTable
 70
3
  0
LAYER
  5
AEF
330
AEE
100
AcDbSymbolTableRecord
100
AcDbLayerTableRecord
  2
0
 70
   0
 62
   7
  6
CONTINUOUS
  0
LAYER
  5
AF0
330
AEE
100
AcDbSymbolTableRecord
100
AcDbLayerTableRecord
  2
none
 70
    0
 62
    7
  6
CONTINUOUS
  0
LAYER
  5
AF1
330
AEE
100
AcDbSymbolTableRecord
100
AcDbLayerTableRecord
  2
Cut044
 70
    0
 62
    7
  6
CONTINUOUS
  0
ENDTAB
  0
TABLE
  2
STYLE
  5
70
330
0
100
AcDbSymbolTable
 70
     2
  0
STYLE
  5
71
330
70
100
AcDbSymbolTableRecord
100
AcDbTextStyleTableRecord
  2
STANDARD
 70
     0
 40
0.0
 41
1.0
 50
0.0
 71
     0
 42
2.5
  3
arial.ttf
  4

  0
STYLE
  5
72
330
70
100
AcDbSymbolTableRecord
100
AcDbTextStyleTableRecord
  2
ANNOTATIVE
 70
     0
 40
0.0
 41
1.0
 50
0.0
 71
     0
 42
2.5
  3
arial.ttf
  4

  0
ENDTAB
  0
TABLE
  2
VIEW
  5
73
330
0
100
AcDbSymbolTable
 70
     0
  0
ENDTAB
  0
TABLE
  2
UCS
  5
74
330
0
100
AcDbSymbolTable
 70
     0
  0
ENDTAB
  0
TABLE
  2
APPID
  5
75
330
0
100
AcDbSymbolTable
 70
     2
  0
APPID
  5
76
330
75
100
AcDbSymbolTableRecord
100
AcDbRegAppTableRecord
  2
ACAD
 70
     0
  0
APPID
  5
77
330
75
100
AcDbSymbolTableRecord
100
AcDbRegAppTableRecord
  2
ACADANNOTATIVE
 70
     0
  0
ENDTAB
  0
TABLE
  2
DIMSTYLE
  5
78
330
0
100
AcDbSymbolTable
 70
     2
  0
DIMSTYLE
105
79
330
78
100
AcDbSymbolTableRecord
100
AcDbDimStyleTableRecord
  2
STANDARD
 70
     0
  3

  4

  5

  6

  7

 40
0.0
 41
2.5
 42
0.625
 43
3.75
 44
1.25
 45
0.0
 46
0.0
 47
0.0
 48
0.0
140
2.5
141
2.5
142
0.0
143
0.03937007874016
144
1.0
145
0.0
146
1.0
147
0.625
 71
     0
 72
     0
 73
     0
 74
     0
 75
     0
 76
     0
 77
     1
 78
     8
170
     0
171
     3
172
     1
173
     0
174
     0
175
     0
176
     0
177
     0
178
     0
270
     2
271
     2
272
     2
273
     2
274
     3
340
71
275
     0
280
     0
281
     0
282
     0
283
     0
284
     8
285
     0
286
     0
287
     3
288
     0
  0
ENDTAB
  0
TABLE
  2
BLOCK_RECORD
  5
A01
330
0
100
AcDbSymbolTable
  70
5
  0
BLOCK_RECORD
  5
A02
330
A01
100
AcDbSymbolTableRecord
100
AcDbBlockTableRecord
  2
*MODEL_SPACE
  0
BLOCK_RECORD
  5
A03
330
A01
100
AcDbSymbolTableRecord
100
AcDbBlockTableRecord
  2
*PAPER_SPACE
  0
ENDTAB
  0
ENDSEC
  0
SECTION
  2
BLOCKS
  0
BLOCK
  5
A04
330
A02
100
AcDbEntity
  8
0
100
AcDbBlockBegin
  2
*MODEL_SPACE
 70
   0
 10
0
 20
0
 30
0
  3
*MODEL_SPACE
  1
 
  0
ENDBLK
  5
A05
330
A02
100
AcDbEntity
  8
0
100
AcDbBlockEnd
  0
BLOCK
  5
A06
330
A03
100
AcDbEntity
 67
1
  8
0
100
AcDbBlockBegin
  2
*PAPER_SPACE
 70
   0
 10
0
 20
0
 30
0
  3
*PAPER_SPACE
  1
 
  0
ENDBLK
  5
A07
330
A03
100
AcDbEntity
 67
    1
  8
0
100
AcDbBlockEnd
  0
ENDSEC
  0
SECTION
  2
ENTITIES
  0
LINE
  5
A08
330
A02
100
AcDbEntity
  8
Cut044
100
AcDbLine
 10
139.846
 20
182.57
 30
0
 11
84.736
 21
194.919
 31
0
  0
ARC
  5
A09
330
A02
100
AcDbEntity
  8
Cut044
100
AcDbCircle
 10
139.409
 20
180.619
 30
0
 40
2
100
AcDbArc
 50
0
 51
77.37
  0
ARC
  5
A0A
330
A02
100
AcDbEntity
  8
Cut044
100
AcDbCircle
 10
83.6427
 20
190.04
 30
0
 40
5
100
AcDbArc
 50
77.37
 51
90
  0
LINE
  5
A0B
330
A02
100
AcDbEntity
  8
Cut044
100
AcDbLine
 10
141.409
 20
87.62
 30
0
 11
141.409
 21
180.619
 31
0
  0
LINE
  5
A0C
330
A02
100
AcDbEntity
  8
Cut044
100
AcDbLine
 10
83.6427
 20
195.04
 30
0
 11
46.4104
 21
195.04
 31
0
  0
ARC
  5
A0D
330
A02
100
AcDbEntity
  8
Cut044
100
AcDbCircle
 10
139.909
 20
87.62
 30
0
 40
1.5
100
AcDbArc
 50
-90
 51
0
  0
ARC
  5
A0E
330
A02
100
AcDbEntity
  8
Cut044
100
AcDbCircle
 10
46.4104
 20
192.54
 30
0
 40
2.5
100
AcDbArc
 50
90
 51
124.99
  0
LINE
  5
A0F
330
A02
100
AcDbEntity
  8
Cut044
100
AcDbLine
 10
47.2485
 20
86.12
 30
0
 11
139.909
 21
86.12
 31
0
  0
LINE
  5
A10
330
A02
100
AcDbEntity
  8
Cut044
100
AcDbLine
 10
44.9768
 20
194.588
 30
0
 11
33.9813
 21
186.892
 31
0
  0
ARC
  5
A11
330
A02
100
AcDbEntity
  8
Cut044
100
AcDbCircle
 10
47.2485
 20
83.62
 30
0
 40
2.5
100
AcDbArc
 50
90
 51
120
  0
ARC
  5
A12
330
A02
100
AcDbEntity
  8
Cut044
100
AcDbCircle
 10
32.5477
 20
188.94
 30
0
 40
2.5
100
AcDbArc
 50
-90
 51
-55.01
  0
LINE
  5
A13
330
A02
100
AcDbEntity
  8
Cut044
100
AcDbLine
 10
8.64675
 20
64.22
 30
0
 11
45.9985
 21
85.7851
 31
0
  0
LINE
  5
A14
330
A02
100
AcDbEntity
  8
Cut044
100
AcDbLine
 10
32.5477
 20
186.44
 30
0
 11
15.8933
 21
186.44
 31
0
  0
ARC
  5
A15
330
A02
100
AcDbEntity
  8
Cut044
100
AcDbCircle
 10
8.14675
 20
65.086
 30
0
 40
1
100
AcDbArc
 50
-150
 51
-60
  0
ARC
  5
A16
330
A02
100
AcDbEntity
  8
Cut044
100
AcDbCircle
 10
15.8933
 20
185.44
 30
0
 40
1
100
AcDbArc
 50
90
 51
146.14
  0
LINE
  5
A17
330
A02
100
AcDbEntity
  8
Cut044
100
AcDbLine
 10
-10.696
 20
95.7226
 30
0
 11
7.28072
 21
64.586
 31
0
  0
LINE
  5
A18
330
A02
100
AcDbEntity
  8
Cut044
100
AcDbLine
 10
15.0629
 20
185.997
 30
0
 11
7.49826
 21
174.723
 31
0
  0
ARC
  5
A19
330
A02
100
AcDbEntity
  8
Cut044
100
AcDbCircle
 10
-8.96396
 20
96.7226
 30
0
 40
2
100
AcDbArc
 50
138.48
 51
-150
  0
ARC
  5
A1A
330
A02
100
AcDbEntity
  8
Cut044
100
AcDbCircle
 10
8.32866
 20
174.166
 30
0
 40
1
100
AcDbArc
 50
146.14
 51
180
  0
LINE
  5
A1B
330
A02
100
AcDbEntity
  8
Cut044
100
AcDbLine
 10
7.07739
 20
117.858
 30
0
 11
-10.4614
 21
98.0484
 31
0
  0
LINE
  5
A1C
330
A02
100
AcDbEntity
  8
Cut044
100
AcDbLine
 10
7.32866
 20
174.166
 30
0
 11
7.32866
 21
118.521
 31
0
  0
ARC
  5
A1D
330
A02
100
AcDbEntity
  8
Cut044
100
AcDbCircle
 10
6.32866
 20
118.521
 30
0
 40
1
100
AcDbArc
 50
-41.52
 51
0
  0
LINE
  5
A1E
330
A02
100
AcDbEntity
  8
Cut044
100
AcDbLine
 10
5.51249
 20
100.063
 30
0
 11
4.59999
 21
101.643
 31
0
  0
LINE
  5
A1F
330
A02
100
AcDbEntity
  8
Cut044
100
AcDbLine
 10
6.55172
 20
100.663
 30
0
 11
5.51249
 21
100.063
 31
0
  0
LINE
  5
A20
330
A02
100
AcDbEntity
  8
Cut044
100
AcDbLine
 10
4.59999
 20
101.643
 30
0
 11
-0.829991
 21
98.5083
 31
0
  0
LINE
  5
A21
330
A02
100
AcDbEntity
  8
Cut044
100
AcDbLine
 10
8.05172
 20
98.0647
 30
0
 11
6.55172
 21
100.663
 31
0
  0
LINE
  5
A22
330
A02
100
AcDbEntity
  8
Cut044
100
AcDbLine
 10
-0.829991
 20
98.5083
 30
0
 11
-1.26749
 21
99.266
 31
0
  0
LINE
  5
A23
330
A02
100
AcDbEntity
  8
Cut044
100
AcDbLine
 10
7.01249
 20
97.4647
 30
0
 11
8.05172
 21
98.0647
 31
0
  0
LINE
  5
A24
330
A02
100
AcDbEntity
  8
Cut044
100
AcDbLine
 10
-1.26749
 20
99.266
 30
0
 11
-3.69236
 21
97.866
 31
0
  0
LINE
  5
A25
330
A02
100
AcDbEntity
  8
Cut044
100
AcDbLine
 10
7.92499
 20
95.8842
 30
0
 11
7.01249
 21
97.4647
 31
0
  0
LINE
  5
A26
330
A02
100
AcDbEntity
  8
Cut044
100
AcDbLine
 10
-3.69236
 20
97.866
 30
0
 11
-3.25486
 21
97.1083
 31
0
  0
LINE
  5
A27
330
A02
100
AcDbEntity
  8
Cut044
100
AcDbLine
 10
7.23217
 20
95.4842
 30
0
 11
7.92499
 21
95.8842
 31
0
  0
LINE
  5
A28
330
A02
100
AcDbEntity
  8
Cut044
100
AcDbLine
 10
-3.25486
 20
97.1083
 30
0
 11
-6.05212
 21
95.4933
 31
0
  0
LINE
  5
A29
330
A02
100
AcDbEntity
  8
Cut044
100
AcDbLine
 10
8.01967
 20
94.1202
 30
0
 11
7.23217
 21
95.4842
 31
0
  0
LINE
  5
A2A
330
A02
100
AcDbEntity
  8
Cut044
100
AcDbLine
 10
-6.05212
 20
95.4933
 30
0
 11
-2.72712
 21
89.7342
 31
0
  0
LINE
  5
A2B
330
A02
100
AcDbEntity
  8
Cut044
100
AcDbLine
 10
8.91167
 20
94.6352
 30
0
 11
8.01967
 21
94.1202
 31
0
  0
LINE
  5
A2C
330
A02
100
AcDbEntity
  8
Cut044
100
AcDbLine
 10
-2.72712
 20
89.7342
 30
0
 11
-2.0343
 21
90.1342
 31
0
  0
LINE
  5
A2D
330
A02
100
AcDbEntity
  8
Cut044
100
AcDbLine
 10
15.9117
 20
82.5109
 30
0
 11
8.91167
 21
94.6352
 31
0
  0
LINE
  5
A2E
330
A02
100
AcDbEntity
  8
Cut044
100
AcDbLine
 10
-2.0343
 20
90.1342
 30
0
 11
-1.2468
 21
88.7702
 31
0
  0
LINE
  5
A2F
330
A02
100
AcDbEntity
  8
Cut044
100
AcDbLine
 10
15.0197
 20
81.9959
 30
0
 11
15.9117
 21
82.5109
 31
0
  0
LINE
  5
A30
330
A02
100
AcDbEntity
  8
Cut044
100
AcDbLine
 10
-1.2468
 20
88.7702
 30
0
 11
-3.21268
 21
87.6352
 31
0
  0
LINE
  5
A31
330
A02
100
AcDbEntity
  8
Cut044
100
AcDbLine
 10
15.8072
 20
80.6319
 30
0
 11
15.0197
 21
81.9959
 31
0
  0
LINE
  5
A32
330
A02
100
AcDbEntity
  8
Cut044
100
AcDbLine
 10
-3.21268
 20
87.6352
 30
0
 11
3.78732
 21
75.5109
 31
0
  0
LINE
  5
A33
330
A02
100
AcDbEntity
  8
Cut044
100
AcDbLine
 10
16.5
 20
81.0319
 30
0
 11
15.8072
 21
80.6319
 31
0
  0
LINE
  5
A34
330
A02
100
AcDbEntity
  8
Cut044
100
AcDbLine
 10
3.78732
 20
75.5109
 30
0
 11
5.7532
 21
76.6459
 31
0
  0
LINE
  5
A35
330
A02
100
AcDbEntity
  8
Cut044
100
AcDbLine
 10
17.4125
 20
79.4514
 30
0
 11
16.5
 21
81.0319
 31
0
  0
LINE
  5
A36
330
A02
100
AcDbEntity
  8
Cut044
100
AcDbLine
 10
5.7532
 20
76.6459
 30
0
 11
6.5407
 21
75.2819
 31
0
  0
LINE
  5
A37
330
A02
100
AcDbEntity
  8
Cut044
100
AcDbLine
 10
18.4517
 20
80.0514
 30
0
 11
17.4125
 21
79.4514
 31
0
  0
LINE
  5
A38
330
A02
100
AcDbEntity
  8
Cut044
100
AcDbLine
 10
6.5407
 20
75.2819
 30
0
 11
5.84788
 21
74.8819
 31
0
  0
LINE
  5
A39
330
A02
100
AcDbEntity
  8
Cut044
100
AcDbLine
 10
19.9517
 20
77.4533
 30
0
 11
18.4517
 21
80.0514
 31
0
  0
LINE
  5
A3A
330
A02
100
AcDbEntity
  8
Cut044
100
AcDbLine
 10
5.84788
 20
74.8819
 30
0
 11
9.17288
 21
69.1228
 31
0
  0
LINE
  5
A3B
330
A02
100
AcDbEntity
  8
Cut044
100
AcDbLine
 10
18.9125
 20
76.8533
 30
0
 11
19.9517
 21
77.4533
 31
0
  0
LINE
  5
A3C
330
A02
100
AcDbEntity
  8
Cut044
100
AcDbLine
 10
9.17288
 20
69.1228
 30
0
 11
11.9701
 21
70.7378
 31
0
  0
LINE
  5
A3D
330
A02
100
AcDbEntity
  8
Cut044
100
AcDbLine
 10
19.825
 20
75.2728
 30
0
 11
18.9125
 21
76.8533
 31
0
  0
LINE
  5
A3E
330
A02
100
AcDbEntity
  8
Cut044
100
AcDbLine
 10
11.9701
 20
70.7378
 30
0
 11
12.4076
 21
69.98
 31
0
  0
LINE
  5
A3F
330
A02
100
AcDbEntity
  8
Cut044
100
AcDbLine
 10
14.395
 20
72.1378
 30
0
 11
19.825
 21
75.2728
 31
0
  0
LINE
  5
A40
330
A02
100
AcDbEntity
  8
Cut044
100
AcDbLine
 10
12.4076
 20
69.98
 30
0
 11
14.8325
 21
71.38
 31
0
  0
LINE
  5
A41
330
A02
100
AcDbEntity
  8
Cut044
100
AcDbLine
 10
14.8325
 20
71.38
 30
0
 11
14.395
 21
72.1378
 31
0
  0
LINE
  5
A42
330
A02
100
AcDbEntity
  8
Cut044
100
AcDbLine
 10
22.0125
 20
109.583
 30
0
 11
21.1
 21
111.163
 31
0
  0
LINE
  5
A43
330
A02
100
AcDbEntity
  8
Cut044
100
AcDbLine
 10
23.0517
 20
110.183
 30
0
 11
22.0125
 21
109.583
 31
0
  0
LINE
  5
A44
330
A02
100
AcDbEntity
  8
Cut044
100
AcDbLine
 10
21.1
 20
111.163
 30
0
 11
15.67
 21
108.028
 31
0
  0
LINE
  5
A45
330
A02
100
AcDbEntity
  8
Cut044
100
AcDbLine
 10
24.5517
 20
107.585
 30
0
 11
23.0517
 21
110.183
 31
0
  0
LINE
  5
A46
330
A02
100
AcDbEntity
  8
Cut044
100
AcDbLine
 10
15.67
 20
108.028
 30
0
 11
15.2325
 21
108.786
 31
0
  0
LINE
  5
A47
330
A02
100
AcDbEntity
  8
Cut044
100
AcDbLine
 10
23.5125
 20
106.985
 30
0
 11
24.5517
 21
107.585
 31
0
  0
LINE
  5
A48
330
A02
100
AcDbEntity
  8
Cut044
100
AcDbLine
 10
15.2325
 20
108.786
 30
0
 11
12.8076
 21
107.386
 31
0
  0
LINE
  5
A49
330
A02
100
AcDbEntity
  8
Cut044
100
AcDbLine
 10
24.425
 20
105.404
 30
0
 11
23.5125
 21
106.985
 31
0
  0
LINE
  5
A4A
330
A02
100
AcDbEntity
  8
Cut044
100
AcDbLine
 10
12.8076
 20
107.386
 30
0
 11
13.2451
 21
106.628
 31
0
  0
LINE
  5
A4B
330
A02
100
AcDbEntity
  8
Cut044
100
AcDbLine
 10
23.7322
 20
105.004
 30
0
 11
24.425
 21
105.404
 31
0
  0
LINE
  5
A4C
330
A02
100
AcDbEntity
  8
Cut044
100
AcDbLine
 10
13.2451
 20
106.628
 30
0
 11
10.4479
 21
105.013
 31
0
  0
LINE
  5
A4D
330
A02
100
AcDbEntity
  8
Cut044
100
AcDbLine
 10
24.5197
 20
103.64
 30
0
 11
23.7322
 21
105.004
 31
0
  0
LINE
  5
A4E
330
A02
100
AcDbEntity
  8
Cut044
100
AcDbLine
 10
10.4479
 20
105.013
 30
0
 11
13.7729
 21
99.2542
 31
0
  0
LINE
  5
A4F
330
A02
100
AcDbEntity
  8
Cut044
100
AcDbLine
 10
25.4117
 20
104.155
 30
0
 11
24.5197
 21
103.64
 31
0
  0
LINE
  5
A50
330
A02
100
AcDbEntity
  8
Cut044
100
AcDbLine
 10
13.7729
 20
99.2542
 30
0
 11
14.4657
 21
99.6542
 31
0
  0
LINE
  5
A51
330
A02
100
AcDbEntity
  8
Cut044
100
AcDbLine
 10
32.4117
 20
92.0309
 30
0
 11
25.4117
 21
104.155
 31
0
  0
LINE
  5
A52
330
A02
100
AcDbEntity
  8
Cut044
100
AcDbLine
 10
14.4657
 20
99.6542
 30
0
 11
15.2532
 21
98.2902
 31
0
  0
LINE
  5
A53
330
A02
100
AcDbEntity
  8
Cut044
100
AcDbLine
 10
31.5197
 20
91.5159
 30
0
 11
32.4117
 21
92.0309
 31
0
  0
LINE
  5
A54
330
A02
100
AcDbEntity
  8
Cut044
100
AcDbLine
 10
15.2532
 20
98.2902
 30
0
 11
13.2873
 21
97.1552
 31
0
  0
LINE
  5
A55
330
A02
100
AcDbEntity
  8
Cut044
100
AcDbLine
 10
32.3072
 20
90.1519
 30
0
 11
31.5197
 21
91.5159
 31
0
  0
LINE
  5
A56
330
A02
100
AcDbEntity
  8
Cut044
100
AcDbLine
 10
13.2873
 20
97.1552
 30
0
 11
20.2873
 21
85.0309
 31
0
  0
LINE
  5
A57
330
A02
100
AcDbEntity
  8
Cut044
100
AcDbLine
 10
33
 20
90.5519
 30
0
 11
32.3072
 21
90.1519
 31
0
  0
LINE
  5
A58
330
A02
100
AcDbEntity
  8
Cut044
100
AcDbLine
 10
20.2873
 20
85.0309
 30
0
 11
22.2532
 21
86.1659
 31
0
  0
LINE
  5
A59
330
A02
100
AcDbEntity
  8
Cut044
100
AcDbLine
 10
33.9125
 20
88.9714
 30
0
 11
33
 21
90.5519
 31
0
  0
LINE
  5
A5A
330
A02
100
AcDbEntity
  8
Cut044
100
AcDbLine
 10
22.2532
 20
86.1659
 30
0
 11
23.0407
 21
84.8019
 31
0
  0
LINE
  5
A5B
330
A02
100
AcDbEntity
  8
Cut044
100
AcDbLine
 10
34.9517
 20
89.5714
 30
0
 11
33.9125
 21
88.9714
 31
0
  0
LINE
  5
A5C
330
A02
100
AcDbEntity
  8
Cut044
100
AcDbLine
 10
23.0407
 20
84.8019
 30
0
 11
22.3479
 21
84.4019
 31
0
  0
LINE
  5
A5D
330
A02
100
AcDbEntity
  8
Cut044
100
AcDbLine
 10
36.4517
 20
86.9733
 30
0
 11
34.9517
 21
89.5714
 31
0
  0
LINE
  5
A5E
330
A02
100
AcDbEntity
  8
Cut044
100
AcDbLine
 10
22.3479
 20
84.4019
 30
0
 11
25.6729
 21
78.6428
 31
0
  0
LINE
  5
A5F
330
A02
100
AcDbEntity
  8
Cut044
100
AcDbLine
 10
35.4125
 20
86.3733
 30
0
 11
36.4517
 21
86.9733
 31
0
  0
LINE
  5
A60
330
A02
100
AcDbEntity
  8
Cut044
100
AcDbLine
 10
25.6729
 20
78.6428
 30
0
 11
28.4701
 21
80.2578
 31
0
  0
LINE
  5
A61
330
A02
100
AcDbEntity
  8
Cut044
100
AcDbLine
 10
36.325
 20
84.7928
 30
0
 11
35.4125
 21
86.3733
 31
0
  0
LINE
  5
A62
330
A02
100
AcDbEntity
  8
Cut044
100
AcDbLine
 10
28.4701
 20
80.2578
 30
0
 11
28.9076
 21
79.5
 31
0
  0
LINE
  5
A63
330
A02
100
AcDbEntity
  8
Cut044
100
AcDbLine
 10
30.895
 20
81.6578
 30
0
 11
36.325
 21
84.7928
 31
0
  0
LINE
  5
A64
330
A02
100
AcDbEntity
  8
Cut044
100
AcDbLine
 10
28.9076
 20
79.5
 30
0
 11
31.3325
 21
80.9
 31
0
  0
LINE
  5
A65
330
A02
100
AcDbEntity
  8
Cut044
100
AcDbLine
 10
31.3325
 20
80.9
 30
0
 11
30.895
 21
81.6578
 31
0
  0
LINE
  5
A66
330
A02
100
AcDbEntity
  8
Cut044
100
AcDbLine
 10
46.6678
 20
105.445
 30
0
 11
34.5391
 21
98.4383
 31
0
  0
LINE
  5
A67
330
A02
100
AcDbEntity
  8
Cut044
100
AcDbLine
 10
53.6528
 20
93.3161
 30
0
 11
46.6678
 21
105.445
 31
0
  0
LINE
  5
A68
330
A02
100
AcDbEntity
  8
Cut044
100
AcDbLine
 10
34.5391
 20
98.4383
 30
0
 11
41.5453
 21
86.3102
 31
0
  0
LINE
  5
A69
330
A02
100
AcDbEntity
  8
Cut044
100
AcDbLine
 10
41.5453
 20
86.3102
 30
0
 11
53.6528
 21
93.3161
 31
0
  0
CIRCLE
  5
A6A
330
A02
100
AcDbEntity
  8
Cut044
100
AcDbCircle
 10
4.15344
 20
107.955
 40
1.2
  0
LINE
  5
A6B
330
A02
100
AcDbEntity
  8
Cut044
100
AcDbLine
 10
24.1039
 20
119.839
 30
0
 11
24.1039
 21
133.829
 31
0
  0
LINE
  5
A6C
330
A02
100
AcDbEntity
  8
Cut044
100
AcDbLine
 10
10.0919
 20
119.839
 30
0
 11
24.1039
 21
119.839
 31
0
  0
LINE
  5
A6D
330
A02
100
AcDbEntity
  8
Cut044
100
AcDbLine
 10
24.1039
 20
133.829
 30
0
 11
10.0919
 21
133.829
 31
0
  0
LINE
  5
A6E
330
A02
100
AcDbEntity
  8
Cut044
100
AcDbLine
 10
10.0919
 20
133.829
 30
0
 11
10.0919
 21
119.839
 31
0
  0
CIRCLE
  5
A6F
330
A02
100
AcDbEntity
  8
Cut044
100
AcDbCircle
 10
32.5926
 20
105.359
 40
1.2
  0
LINE
  5
A70
330
A02
100
AcDbEntity
  8
Cut044
100
AcDbLine
 10
29.1419
 20
124.305
 30
0
 11
43.1539
 21
124.305
 31
0
  0
LINE
  5
A71
330
A02
100
AcDbEntity
  8
Cut044
100
AcDbLine
 10
29.1419
 20
110.313
 30
0
 11
29.1419
 21
124.305
 31
0
  0
LINE
  5
A72
330
A02
100
AcDbEntity
  8
Cut044
100
AcDbLine
 10
43.1539
 20
124.305
 30
0
 11
43.1539
 21
110.313
 31
0
  0
LINE
  5
A73
330
A02
100
AcDbEntity
  8
Cut044
100
AcDbLine
 10
43.1539
 20
110.313
 30
0
 11
29.1419
 21
110.313
 31
0
  0
LINE
  5
A74
330
A02
100
AcDbEntity
  8
Cut044
100
AcDbLine
 10
62.2039
 20
112.684
 30
0
 11
62.2039
 21
126.696
 31
0
  0
LINE
  5
A75
330
A02
100
AcDbEntity
  8
Cut044
100
AcDbLine
 10
48.1919
 20
112.684
 30
0
 11
62.2039
 21
112.684
 31
0
  0
LINE
  5
A76
330
A02
100
AcDbEntity
  8
Cut044
100
AcDbLine
 10
62.2039
 20
126.696
 30
0
 11
48.1919
 21
126.696
 31
0
  0
LINE
  5
A77
330
A02
100
AcDbEntity
  8
Cut044
100
AcDbLine
 10
48.1919
 20
126.696
 30
0
 11
48.1919
 21
112.684
 31
0
  0
LINE
  5
A78
330
A02
100
AcDbEntity
  8
Cut044
100
AcDbLine
 10
119.354
 20
88.8713
 30
0
 11
119.354
 21
102.883
 31
0
  0
LINE
  5
A79
330
A02
100
AcDbEntity
  8
Cut044
100
AcDbLine
 10
105.342
 20
88.8713
 30
0
 11
119.354
 21
88.8713
 31
0
  0
LINE
  5
A7A
330
A02
100
AcDbEntity
  8
Cut044
100
AcDbLine
 10
119.354
 20
102.883
 30
0
 11
105.342
 21
102.883
 31
0
  0
LINE
  5
A7B
330
A02
100
AcDbEntity
  8
Cut044
100
AcDbLine
 10
105.342
 20
102.883
 30
0
 11
105.342
 21
88.8713
 31
0
  0
LINE
  5
A7C
330
A02
100
AcDbEntity
  8
Cut044
100
AcDbLine
 10
138.404
 20
88.8713
 30
0
 11
124.392
 21
88.8713
 31
0
  0
LINE
  5
A7D
330
A02
100
AcDbEntity
  8
Cut044
100
AcDbLine
 10
138.404
 20
102.883
 30
0
 11
138.404
 21
88.8713
 31
0
  0
LINE
  5
A7E
330
A02
100
AcDbEntity
  8
Cut044
100
AcDbLine
 10
124.392
 20
88.8713
 30
0
 11
124.392
 21
102.883
 31
0
  0
LINE
  5
A7F
330
A02
100
AcDbEntity
  8
Cut044
100
AcDbLine
 10
124.392
 20
102.883
 30
0
 11
138.404
 21
102.883
 31
0
  0
LINE
  5
A80
330
A02
100
AcDbEntity
  8
Cut044
100
AcDbLine
 10
73.6342
 20
93.6147
 30
0
 11
59.6216
 21
93.6147
 31
0
  0
LINE
  5
A81
330
A02
100
AcDbEntity
  8
Cut044
100
AcDbLine
 10
73.6342
 20
107.626
 30
0
 11
73.6342
 21
93.6147
 31
0
  0
LINE
  5
A82
330
A02
100
AcDbEntity
  8
Cut044
100
AcDbLine
 10
59.6216
 20
107.626
 30
0
 11
73.6342
 21
107.626
 31
0
  0
LINE
  5
A83
330
A02
100
AcDbEntity
  8
Cut044
100
AcDbLine
 10
59.6216
 20
93.6147
 30
0
 11
59.6216
 21
107.626
 31
0
  0
CIRCLE
  5
A84
330
A02
100
AcDbEntity
  8
Cut044
100
AcDbCircle
 10
83.2719
 20
112.721
 40
1.2
  0
LINE
  5
A85
330
A02
100
AcDbEntity
  8
Cut044
100
AcDbLine
 10
86.2916
 20
107.646
 30
0
 11
100.304
 21
107.646
 31
0
  0
LINE
  5
A86
330
A02
100
AcDbEntity
  8
Cut044
100
AcDbLine
 10
86.2916
 20
93.6337
 30
0
 11
86.2916
 21
107.646
 31
0
  0
LINE
  5
A87
330
A02
100
AcDbEntity
  8
Cut044
100
AcDbLine
 10
100.304
 20
107.646
 30
0
 11
100.304
 21
93.6337
 31
0
  0
LINE
  5
A88
330
A02
100
AcDbEntity
  8
Cut044
100
AcDbLine
 10
100.304
 20
93.6337
 30
0
 11
86.2916
 21
93.6337
 31
0
  0
LINE
  5
A89
330
A02
100
AcDbEntity
  8
Cut044
100
AcDbLine
 10
81.2542
 20
115.076
 30
0
 11
81.2542
 21
129.066
 31
0
  0
LINE
  5
A8A
330
A02
100
AcDbEntity
  8
Cut044
100
AcDbLine
 10
67.2419
 20
115.076
 30
0
 11
81.2542
 21
115.076
 31
0
  0
LINE
  5
A8B
330
A02
100
AcDbEntity
  8
Cut044
100
AcDbLine
 10
81.2542
 20
129.066
 30
0
 11
67.2419
 21
129.066
 31
0
  0
LINE
  5
A8C
330
A02
100
AcDbEntity
  8
Cut044
100
AcDbLine
 10
67.2419
 20
129.066
 30
0
 11
67.2419
 21
115.076
 31
0
  0
LINE
  5
A8D
330
A02
100
AcDbEntity
  8
Cut044
100
AcDbLine
 10
86.2916
 20
112.684
 30
0
 11
100.304
 21
112.684
 31
0
  0
LINE
  5
A8E
330
A02
100
AcDbEntity
  8
Cut044
100
AcDbLine
 10
86.2916
 20
126.696
 30
0
 11
86.2916
 21
112.684
 31
0
  0
LINE
  5
A8F
330
A02
100
AcDbEntity
  8
Cut044
100
AcDbLine
 10
100.304
 20
112.684
 30
0
 11
100.304
 21
126.696
 31
0
  0
LINE
  5
A90
330
A02
100
AcDbEntity
  8
Cut044
100
AcDbLine
 10
100.304
 20
126.696
 30
0
 11
86.2916
 21
126.696
 31
0
  0
CIRCLE
  5
A91
330
A02
100
AcDbEntity
  8
Cut044
100
AcDbCircle
 10
121.893
 20
105.113
 40
1.2
  0
LINE
  5
A92
330
A02
100
AcDbEntity
  8
Cut044
100
AcDbLine
 10
105.342
 20
121.934
 30
0
 11
105.342
 21
107.921
 31
0
  0
LINE
  5
A93
330
A02
100
AcDbEntity
  8
Cut044
100
AcDbLine
 10
119.354
 20
121.934
 30
0
 11
105.342
 21
121.934
 31
0
  0
LINE
  5
A94
330
A02
100
AcDbEntity
  8
Cut044
100
AcDbLine
 10
105.342
 20
107.921
 30
0
 11
119.354
 21
107.921
 31
0
  0
LINE
  5
A95
330
A02
100
AcDbEntity
  8
Cut044
100
AcDbLine
 10
119.354
 20
107.921
 30
0
 11
119.354
 21
121.934
 31
0
  0
LINE
  5
A96
330
A02
100
AcDbEntity
  8
Cut044
100
AcDbLine
 10
124.392
 20
121.934
 30
0
 11
138.404
 21
121.934
 31
0
  0
LINE
  5
A97
330
A02
100
AcDbEntity
  8
Cut044
100
AcDbLine
 10
124.392
 20
107.921
 30
0
 11
124.392
 21
121.934
 31
0
  0
LINE
  5
A98
330
A02
100
AcDbEntity
  8
Cut044
100
AcDbLine
 10
138.404
 20
121.934
 30
0
 11
138.404
 21
107.921
 31
0
  0
LINE
  5
A99
330
A02
100
AcDbEntity
  8
Cut044
100
AcDbLine
 10
138.404
 20
107.921
 30
0
 11
124.392
 21
107.921
 31
0
  0
LINE
  5
A9A
330
A02
100
AcDbEntity
  8
Cut044
100
AcDbLine
 10
24.1039
 20
152.879
 30
0
 11
10.0919
 21
152.879
 31
0
  0
LINE
  5
A9B
330
A02
100
AcDbEntity
  8
Cut044
100
AcDbLine
 10
24.1039
 20
138.888
 30
0
 11
24.1039
 21
152.879
 31
0
  0
LINE
  5
A9C
330
A02
100
AcDbEntity
  8
Cut044
100
AcDbLine
 10
10.0919
 20
152.879
 30
0
 11
10.0919
 21
138.888
 31
0
  0
LINE
  5
A9D
330
A02
100
AcDbEntity
  8
Cut044
100
AcDbLine
 10
10.0919
 20
138.888
 30
0
 11
24.1039
 21
138.888
 31
0
  0
LINE
  5
A9E
330
A02
100
AcDbEntity
  8
Cut044
100
AcDbLine
 10
29.1419
 20
143.354
 30
0
 11
43.1539
 21
143.354
 31
0
  0
LINE
  5
A9F
330
A02
100
AcDbEntity
  8
Cut044
100
AcDbLine
 10
29.1419
 20
129.363
 30
0
 11
29.1419
 21
143.354
 31
0
  0
LINE
  5
AA0
330
A02
100
AcDbEntity
  8
Cut044
100
AcDbLine
 10
43.1539
 20
143.354
 30
0
 11
43.1539
 21
129.363
 31
0
  0
LINE
  5
AA1
330
A02
100
AcDbEntity
  8
Cut044
100
AcDbLine
 10
43.1539
 20
129.363
 30
0
 11
29.1419
 21
129.363
 31
0
  0
LINE
  5
AA2
330
A02
100
AcDbEntity
  8
Cut044
100
AcDbLine
 10
62.2039
 20
131.734
 30
0
 11
62.2039
 21
145.746
 31
0
  0
LINE
  5
AA3
330
A02
100
AcDbEntity
  8
Cut044
100
AcDbLine
 10
48.1919
 20
131.734
 30
0
 11
62.2039
 21
131.734
 31
0
  0
LINE
  5
AA4
330
A02
100
AcDbEntity
  8
Cut044
100
AcDbLine
 10
62.2039
 20
145.746
 30
0
 11
48.1919
 21
145.746
 31
0
  0
LINE
  5
AA5
330
A02
100
AcDbEntity
  8
Cut044
100
AcDbLine
 10
48.1919
 20
145.746
 30
0
 11
48.1919
 21
131.734
 31
0
  0
LINE
  5
AA6
330
A02
100
AcDbEntity
  8
Cut044
100
AcDbLine
 10
29.1419
 20
162.404
 30
0
 11
43.1539
 21
162.404
 31
0
  0
LINE
  5
AA7
330
A02
100
AcDbEntity
  8
Cut044
100
AcDbLine
 10
29.1419
 20
148.413
 30
0
 11
29.1419
 21
162.404
 31
0
  0
LINE
  5
AA8
330
A02
100
AcDbEntity
  8
Cut044
100
AcDbLine
 10
43.1539
 20
162.404
 30
0
 11
43.1539
 21
148.413
 31
0
  0
LINE
  5
AA9
330
A02
100
AcDbEntity
  8
Cut044
100
AcDbLine
 10
43.1539
 20
148.413
 30
0
 11
29.1419
 21
148.413
 31
0
  0
LINE
  5
AAA
330
A02
100
AcDbEntity
  8
Cut044
100
AcDbLine
 10
48.1919
 20
164.796
 30
0
 11
48.1919
 21
150.784
 31
0
  0
LINE
  5
AAB
330
A02
100
AcDbEntity
  8
Cut044
100
AcDbLine
 10
62.2039
 20
164.796
 30
0
 11
48.1919
 21
164.796
 31
0
  0
LINE
  5
AAC
330
A02
100
AcDbEntity
  8
Cut044
100
AcDbLine
 10
48.1919
 20
150.784
 30
0
 11
62.2039
 21
150.784
 31
0
  0
LINE
  5
AAD
330
A02
100
AcDbEntity
  8
Cut044
100
AcDbLine
 10
62.2039
 20
150.784
 30
0
 11
62.2039
 21
164.796
 31
0
  0
LINE
  5
AAE
330
A02
100
AcDbEntity
  8
Cut044
100
AcDbLine
 10
10.0919
 20
157.938
 30
0
 11
24.1039
 21
157.938
 31
0
  0
LINE
  5
AAF
330
A02
100
AcDbEntity
  8
Cut044
100
AcDbLine
 10
10.0919
 20
171.929
 30
0
 11
10.0919
 21
157.938
 31
0
  0
LINE
  5
AB0
330
A02
100
AcDbEntity
  8
Cut044
100
AcDbLine
 10
24.1039
 20
157.938
 30
0
 11
24.1039
 21
171.929
 31
0
  0
LINE
  5
AB1
330
A02
100
AcDbEntity
  8
Cut044
100
AcDbLine
 10
24.1039
 20
171.929
 30
0
 11
10.0919
 21
171.929
 31
0
  0
CIRCLE
  5
AB2
330
A02
100
AcDbEntity
  8
Cut044
100
AcDbCircle
 10
26.634
 20
165.045
 40
1.2
  0
LINE
  5
AB3
330
A02
100
AcDbEntity
  8
Cut044
100
AcDbLine
 10
29.1419
 20
181.454
 30
0
 11
29.1419
 21
167.463
 31
0
  0
LINE
  5
AB4
330
A02
100
AcDbEntity
  8
Cut044
100
AcDbLine
 10
43.1539
 20
181.454
 30
0
 11
29.1419
 21
181.454
 31
0
  0
LINE
  5
AB5
330
A02
100
AcDbEntity
  8
Cut044
100
AcDbLine
 10
29.1419
 20
167.463
 30
0
 11
43.1539
 21
167.463
 31
0
  0
LINE
  5
AB6
330
A02
100
AcDbEntity
  8
Cut044
100
AcDbLine
 10
43.1539
 20
167.463
 30
0
 11
43.1539
 21
181.454
 31
0
  0
LINE
  5
AB7
330
A02
100
AcDbEntity
  8
Cut044
100
AcDbLine
 10
62.2039
 20
183.846
 30
0
 11
48.1919
 21
183.846
 31
0
  0
LINE
  5
AB8
330
A02
100
AcDbEntity
  8
Cut044
100
AcDbLine
 10
62.2039
 20
169.834
 30
0
 11
62.2039
 21
183.846
 31
0
  0
LINE
  5
AB9
330
A02
100
AcDbEntity
  8
Cut044
100
AcDbLine
 10
48.1919
 20
183.846
 30
0
 11
48.1919
 21
169.834
 31
0
  0
LINE
  5
ABA
330
A02
100
AcDbEntity
  8
Cut044
100
AcDbLine
 10
48.1919
 20
169.834
 30
0
 11
62.2039
 21
169.834
 31
0
  0
LINE
  5
ABB
330
A02
100
AcDbEntity
  8
Cut044
100
AcDbLine
 10
67.2419
 20
134.125
 30
0
 11
81.2542
 21
134.125
 31
0
  0
LINE
  5
ABC
330
A02
100
AcDbEntity
  8
Cut044
100
AcDbLine
 10
67.2419
 20
148.117
 30
0
 11
67.2419
 21
134.125
 31
0
  0
LINE
  5
ABD
330
A02
100
AcDbEntity
  8
Cut044
100
AcDbLine
 10
81.2542
 20
134.125
 30
0
 11
81.2542
 21
148.117
 31
0
  0
LINE
  5
ABE
330
A02
100
AcDbEntity
  8
Cut044
100
AcDbLine
 10
81.2542
 20
148.117
 30
0
 11
67.2419
 21
148.117
 31
0
  0
LINE
  5
ABF
330
A02
100
AcDbEntity
  8
Cut044
100
AcDbLine
 10
100.304
 20
131.734
 30
0
 11
100.304
 21
145.746
 31
0
  0
LINE
  5
AC0
330
A02
100
AcDbEntity
  8
Cut044
100
AcDbLine
 10
86.2916
 20
131.734
 30
0
 11
100.304
 21
131.734
 31
0
  0
LINE
  5
AC1
330
A02
100
AcDbEntity
  8
Cut044
100
AcDbLine
 10
100.304
 20
145.746
 30
0
 11
86.2916
 21
145.746
 31
0
  0
LINE
  5
AC2
330
A02
100
AcDbEntity
  8
Cut044
100
AcDbLine
 10
86.2916
 20
145.746
 30
0
 11
86.2916
 21
131.734
 31
0
  0
CIRCLE
  5
AC3
330
A02
100
AcDbEntity
  8
Cut044
100
AcDbCircle
 10
83.7882
 20
148.29
 40
1.2
  0
LINE
  5
AC4
330
A02
100
AcDbEntity
  8
Cut044
100
AcDbLine
 10
86.2916
 20
164.796
 30
0
 11
100.304
 21
164.796
 31
0
  0
LINE
  5
AC5
330
A02
100
AcDbEntity
  8
Cut044
100
AcDbLine
 10
86.2916
 20
150.784
 30
0
 11
86.2916
 21
164.796
 31
0
  0
LINE
  5
AC6
330
A02
100
AcDbEntity
  8
Cut044
100
AcDbLine
 10
100.304
 20
164.796
 30
0
 11
100.304
 21
150.784
 31
0
  0
LINE
  5
AC7
330
A02
100
AcDbEntity
  8
Cut044
100
AcDbLine
 10
100.304
 20
150.784
 30
0
 11
86.2916
 21
150.784
 31
0
  0
LINE
  5
AC8
330
A02
100
AcDbEntity
  8
Cut044
100
AcDbLine
 10
119.354
 20
140.984
 30
0
 11
105.342
 21
140.984
 31
0
  0
LINE
  5
AC9
330
A02
100
AcDbEntity
  8
Cut044
100
AcDbLine
 10
119.354
 20
126.971
 30
0
 11
119.354
 21
140.984
 31
0
  0
LINE
  5
ACA
330
A02
100
AcDbEntity
  8
Cut044
100
AcDbLine
 10
105.342
 20
140.984
 30
0
 11
105.342
 21
126.971
 31
0
  0
LINE
  5
ACB
330
A02
100
AcDbEntity
  8
Cut044
100
AcDbLine
 10
105.342
 20
126.971
 30
0
 11
119.354
 21
126.971
 31
0
  0
LINE
  5
ACC
330
A02
100
AcDbEntity
  8
Cut044
100
AcDbLine
 10
124.392
 20
140.984
 30
0
 11
138.404
 21
140.984
 31
0
  0
LINE
  5
ACD
330
A02
100
AcDbEntity
  8
Cut044
100
AcDbLine
 10
124.392
 20
126.971
 30
0
 11
124.392
 21
140.984
 31
0
  0
LINE
  5
ACE
330
A02
100
AcDbEntity
  8
Cut044
100
AcDbLine
 10
138.404
 20
140.984
 30
0
 11
138.404
 21
126.971
 31
0
  0
LINE
  5
ACF
330
A02
100
AcDbEntity
  8
Cut044
100
AcDbLine
 10
138.404
 20
126.971
 30
0
 11
124.392
 21
126.971
 31
0
  0
LINE
  5
AD0
330
A02
100
AcDbEntity
  8
Cut044
100
AcDbLine
 10
119.354
 20
146.021
 30
0
 11
119.354
 21
160.034
 31
0
  0
LINE
  5
AD1
330
A02
100
AcDbEntity
  8
Cut044
100
AcDbLine
 10
105.342
 20
146.021
 30
0
 11
119.354
 21
146.021
 31
0
  0
LINE
  5
AD2
330
A02
100
AcDbEntity
  8
Cut044
100
AcDbLine
 10
119.354
 20
160.034
 30
0
 11
105.342
 21
160.034
 31
0
  0
LINE
  5
AD3
330
A02
100
AcDbEntity
  8
Cut044
100
AcDbLine
 10
105.342
 20
160.034
 30
0
 11
105.342
 21
146.021
 31
0
  0
LINE
  5
AD4
330
A02
100
AcDbEntity
  8
Cut044
100
AcDbLine
 10
124.392
 20
160.034
 30
0
 11
138.404
 21
160.034
 31
0
  0
LINE
  5
AD5
330
A02
100
AcDbEntity
  8
Cut044
100
AcDbLine
 10
124.392
 20
146.021
 30
0
 11
124.392
 21
160.034
 31
0
  0
LINE
  5
AD6
330
A02
100
AcDbEntity
  8
Cut044
100
AcDbLine
 10
138.404
 20
160.034
 30
0
 11
138.404
 21
146.021
 31
0
  0
LINE
  5
AD7
330
A02
100
AcDbEntity
  8
Cut044
100
AcDbLine
 10
138.404
 20
146.021
 30
0
 11
124.392
 21
146.021
 31
0
  0
LINE
  5
AD8
330
A02
100
AcDbEntity
  8
Cut044
100
AcDbLine
 10
81.2542
 20
153.175
 30
0
 11
81.2542
 21
167.167
 31
0
  0
LINE
  5
AD9
330
A02
100
AcDbEntity
  8
Cut044
100
AcDbLine
 10
67.2419
 20
153.175
 30
0
 11
81.2542
 21
153.175
 31
0
  0
LINE
  5
ADA
330
A02
100
AcDbEntity
  8
Cut044
100
AcDbLine
 10
81.2542
 20
167.167
 30
0
 11
67.2419
 21
167.167
 31
0
  0
LINE
  5
ADB
330
A02
100
AcDbEntity
  8
Cut044
100
AcDbLine
 10
67.2419
 20
167.167
 30
0
 11
67.2419
 21
153.175
 31
0
  0
LINE
  5
ADC
330
A02
100
AcDbEntity
  8
Cut044
100
AcDbLine
 10
81.2542
 20
186.216
 30
0
 11
81.2542
 21
172.225
 31
0
  0
LINE
  5
ADD
330
A02
100
AcDbEntity
  8
Cut044
100
AcDbLine
 10
67.2419
 20
186.216
 30
0
 11
81.2542
 21
186.216
 31
0
  0
LINE
  5
ADE
330
A02
100
AcDbEntity
  8
Cut044
100
AcDbLine
 10
81.2542
 20
172.225
 30
0
 11
67.2419
 21
172.225
 31
0
  0
LINE
  5
ADF
330
A02
100
AcDbEntity
  8
Cut044
100
AcDbLine
 10
67.2419
 20
172.225
 30
0
 11
67.2419
 21
186.216
 31
0
  0
LINE
  5
AE0
330
A02
100
AcDbEntity
  8
Cut044
100
AcDbLine
 10
100.304
 20
169.834
 30
0
 11
100.304
 21
183.846
 31
0
  0
LINE
  5
AE1
330
A02
100
AcDbEntity
  8
Cut044
100
AcDbLine
 10
86.2916
 20
169.834
 30
0
 11
100.304
 21
169.834
 31
0
  0
LINE
  5
AE2
330
A02
100
AcDbEntity
  8
Cut044
100
AcDbLine
 10
100.304
 20
183.846
 30
0
 11
86.2916
 21
183.846
 31
0
  0
LINE
  5
AE3
330
A02
100
AcDbEntity
  8
Cut044
100
AcDbLine
 10
86.2916
 20
183.846
 30
0
 11
86.2916
 21
169.834
 31
0
  0
CIRCLE
  5
AE4
330
A02
100
AcDbEntity
  8
Cut044
100
AcDbCircle
 10
90.014
 20
187.399
 40
1.2
  0
LINE
  5
AE5
330
A02
100
AcDbEntity
  8
Cut044
100
AcDbLine
 10
105.342
 20
165.071
 30
0
 11
105.342
 21
179.084
 31
0
  0
LINE
  5
AE6
330
A02
100
AcDbEntity
  8
Cut044
100
AcDbLine
 10
119.354
 20
165.071
 30
0
 11
105.342
 21
165.071
 31
0
  0
LINE
  5
AE7
330
A02
100
AcDbEntity
  8
Cut044
100
AcDbLine
 10
105.342
 20
179.084
 30
0
 11
119.354
 21
179.084
 31
0
  0
LINE
  5
AE8
330
A02
100
AcDbEntity
  8
Cut044
100
AcDbLine
 10
119.354
 20
179.084
 30
0
 11
119.354
 21
165.071
 31
0
  0
CIRCLE
  5
AE9
330
A02
100
AcDbEntity
  8
Cut044
100
AcDbCircle
 10
121.883
 20
162.498
 40
1.2
  0
LINE
  5
AEA
330
A02
100
AcDbEntity
  8
Cut044
100
AcDbLine
 10
138.404
 20
179.084
 30
0
 11
138.404
 21
165.071
 31
0
  0
LINE
  5
AEB
330
A02
100
AcDbEntity
  8
Cut044
100
AcDbLine
 10
124.392
 20
179.084
 30
0
 11
138.404
 21
179.084
 31
0
  0
LINE
  5
AEC
330
A02
100
AcDbEntity
  8
Cut044
100
AcDbLine
 10
138.404
 20
165.071
 30
0
 11
124.392
 21
165.071
 31
0
  0
LINE
  5
AED
330
A02
100
AcDbEntity
  8
Cut044
100
AcDbLine
 10
124.392
 20
165.071
 30
0
 11
124.392
 21
179.084
 31
0
  0
ENDSEC
  0
SECTION
  2
OBJECTS
  0
DICTIONARY
  5
F000
330
0
100
AcDbDictionary
  3
ACAD_GROUP
350
F001
  0
DICTIONARY
  5
F001
330
F000
100
AcDbDictionary
  0
ENDSEC
  0
EOF