  0
SECTION
  2
HEADER
  9
$ACADVER
  1
AC1009
  9
$INSBASE
 10
0.0
 20
0.0
 30
0.0
  9
$EXTMIN
 10
0.0
 20
0.0
 30
0.0
  9
$EXTMAX
 10
0.0
 20
0.0
 30
0.0
  0
ENDSEC
  0
SECTION
  2
TABLES
  0
TABLE
  2
VPORT
 70
0
  0
ENDTAB
  0
TABLE
  2
LTYPE
 70
1
  0
LTYPE
  2
CONTINUOUS
 70
0
  3
Solid line
 72
65
 73
0
 40
0.0
  0
ENDTAB
  0
TABLE
  2
LAYER
 70
1
  0
LAYER
  2
0
 70
64
 62
7
  6
continuous
  0
ENDTAB
  0
TABLE
  2
STYLE
 70
1
  0
STYLE
  2
STANDARD
 70
0
 40
0
 41
1.0
 50
0.0
 71
0
 42
1
 3
ARIAL.TTF
 4

  0
ENDTAB
  0
TABLE
  2
VIEW
 70
0
  0
ENDTAB
  0
ENDSEC
  0
SECTION
  2
BLOCKS
  0
BLOCK
  8
0
  2
FUSION001
 70
0
 10
0.0
 20
0.0
 30
0.0
  3
FUSION001
  0
LINE
  8
0
 62
0
 10
7.328662626682263
 20
174.16560474754635
 30
0.0
 11
7.3286626266822665
 21
118.52135031393395
 31
0.0
  0
LINE
  8
0
 62
0
 10
48.191900000000004
 20
145.7463
 30
0.0
 11
48.191900000000004
 21
131.7337
 31
0.0
  0
ARC
  8
0
 62
0
 10
8.32866262668226
 20
174.16560474754635
 30
0.0
 40
1.0000000000000013
 50
146.13999999999945
 51
-180.0
  0
LINE
  8
0
 62
0
 10
62.203900000000004
 20
131.7337
 30
0.0
 11
62.203900000000004
 21
145.7463
 31
0.0
  0
LINE
  8
0
 62
0
 10
15.062920578536797
 20
185.9971655152194
 30
0.0
 11
7.498261164345937
 21
174.72277026276575
 31
0.0
  0
LINE
  8
0
 62
0
 10
48.191900000000004
 20
131.7337
 30
0.0
 11
62.203900000000004
 21
131.7337
 31
0.0
  0
LINE
  8
0
 62
0
 10
62.203900000000004
 20
126.69630000000001
 30
0.0
 11
48.191900000000004
 21
126.69630000000001
 31
0.0
  0
LINE
  8
0
 62
0
 10
62.203900000000004
 20
145.7463
 30
0.0
 11
48.191900000000004
 21
145.7463
 31
0.0
  0
LINE
  8
0
 62
0
 10
62.203900000000004
 20
112.68379999999999
 30
0.0
 11
62.203900000000004
 21
126.69630000000001
 31
0.0
  0
LINE
  8
0
 62
0
 10
48.191900000000004
 20
126.69630000000001
 30
0.0
 11
48.191900000000004
 21
112.68379999999999
 31
0.0
  0
LINE
  8
0
 62
0
 10
81.2542
 20
129.0665
 30
0.0
 11
67.24189999999999
 21
129.0665
 31
0.0
  0
LINE
  8
0
 62
0
 10
81.2542
 20
115.076
 30
0.0
 11
81.2542
 21
129.0665
 31
0.0
  0
LINE
  8
0
 62
0
 10
67.24189999999999
 20
129.0665
 30
0.0
 11
67.24189999999999
 21
115.076
 31
0.0
  0
LINE
  8
0
 62
0
 10
67.24189999999999
 20
115.076
 30
0.0
 11
81.2542
 21
115.076
 31
0.0
  0
LINE
  8
0
 62
0
 10
119.35419999999999
 20
140.9838
 30
0.0
 11
105.3416
 21
140.9838
 31
0.0
  0
LINE
  8
0
 62
0
 10
105.3416
 20
140.9838
 30
0.0
 11
105.3416
 21
126.97120000000001
 31
0.0
  0
LINE
  8
0
 62
0
 10
105.3416
 20
126.97120000000001
 30
0.0
 11
119.35419999999999
 21
126.97120000000001
 31
0.0
  0
LINE
  8
0
 62
0
 10
48.191900000000004
 20
112.68379999999999
 30
0.0
 11
62.203900000000004
 21
112.68379999999999
 31
0.0
  0
LINE
  8
0
 62
0
 10
100.30420000000001
 20
145.7463
 30
0.0
 11
86.2916
 21
145.7463
 31
0.0
  0
LINE
  8
0
 62
0
 10
100.3042
 20
131.7337
 30
0.0
 11
100.30420000000001
 21
145.7463
 31
0.0
  0
LINE
  8
0
 62
0
 10
86.2916
 20
145.7463
 30
0.0
 11
86.29159999999999
 21
131.7337
 31
0.0
  0
LINE
  8
0
 62
0
 10
86.29159999999999
 20
131.7337
 30
0.0
 11
100.3042
 21
131.7337
 31
0.0
  0
LINE
  8
0
 62
0
 10
100.30420000000001
 20
126.69630000000001
 30
0.0
 11
86.2916
 21
126.69630000000001
 31
0.0
  0
LINE
  8
0
 62
0
 10
100.3042
 20
112.68379999999999
 30
0.0
 11
100.30420000000001
 21
126.69630000000001
 31
0.0
  0
LINE
  8
0
 62
0
 10
86.2916
 20
126.69630000000001
 30
0.0
 11
86.29159999999999
 21
112.68379999999999
 31
0.0
  0
LINE
  8
0
 62
0
 10
119.35419999999999
 20
126.97120000000001
 30
0.0
 11
119.35419999999999
 21
140.9838
 31
0.0
  0
LINE
  8
0
 62
0
 10
119.35419999999999
 20
179.0838
 30
0.0
 11
119.35419999999999
 21
165.0712
 31
0.0
  0
LINE
  8
0
 62
0
 10
105.3416
 20
179.0838
 30
0.0
 11
119.35419999999999
 21
179.0838
 31
0.0
  0
LINE
  8
0
 62
0
 10
119.35419999999999
 20
165.0712
 30
0.0
 11
105.3416
 21
165.0712
 31
0.0
  0
LINE
  8
0
 62
0
 10
105.3416
 20
165.0712
 30
0.0
 11
105.3416
 21
179.0838
 31
0.0
  0
LINE
  8
0
 62
0
 10
119.35419999999999
 20
160.0338
 30
0.0
 11
105.3416
 21
160.0338
 31
0.0
  0
LINE
  8
0
 62
0
 10
119.35419999999999
 20
146.0212
 30
0.0
 11
119.35419999999999
 21
160.0338
 31
0.0
  0
LINE
  8
0
 62
0
 10
105.3416
 20
160.0338
 30
0.0
 11
105.3416
 21
146.0212
 31
0.0
  0
LINE
  8
0
 62
0
 10
86.29159999999999
 20
112.68379999999999
 30
0.0
 11
100.3042
 21
112.68379999999999
 31
0.0
  0
CIRCLE
  8
0
 62
0
 10
83.78264045715332
 20
148.27745056152344
 30
0.0
 40
1.0
  0
LINE
  8
0
 62
0
 10
86.29159999999999
 20
164.7963
 30
0.0
 11
100.3042
 21
164.7963
 31
0.0
  0
LINE
  8
0
 62
0
 10
86.2916
 20
150.7837
 30
0.0
 11
86.29159999999999
 21
164.7963
 31
0.0
  0
LINE
  8
0
 62
0
 10
100.3042
 20
164.7963
 30
0.0
 11
100.30420000000001
 21
150.7837
 31
0.0
  0
LINE
  8
0
 62
0
 10
100.30420000000001
 20
150.7837
 30
0.0
 11
86.2916
 21
150.7837
 31
0.0
  0
LINE
  8
0
 62
0
 10
62.203900000000004
 20
183.84629999999999
 30
0.0
 11
48.191900000000004
 21
183.84629999999999
 31
0.0
  0
LINE
  8
0
 62
0
 10
62.203900000000004
 20
169.8337
 30
0.0
 11
62.203900000000004
 21
183.84629999999999
 31
0.0
  0
LINE
  8
0
 62
0
 10
105.3416
 20
146.0212
 30
0.0
 11
119.35419999999999
 21
146.0212
 31
0.0
  0
LINE
  8
0
 62
0
 10
48.191900000000004
 20
169.83369999999996
 30
0.0
 11
62.203900000000004
 21
169.8337
 31
0.0
  0
LINE
  8
0
 62
0
 10
29.141900000000007
 20
162.404
 30
0.0
 11
43.15389999999999
 21
162.404
 31
0.0
  0
LINE
  8
0
 62
0
 10
29.141900000000007
 20
148.4128
 30
0.0
 11
29.141900000000007
 21
162.404
 31
0.0
  0
LINE
  8
0
 62
0
 10
43.15389999999999
 20
162.404
 30
0.0
 11
43.15389999999999
 21
148.4128
 31
0.0
  0
LINE
  8
0
 62
0
 10
43.15389999999999
 20
148.4128
 30
0.0
 11
29.141900000000007
 21
148.4128
 31
0.0
  0
LINE
  8
0
 62
0
 10
29.141900000000007
 20
143.354
 30
0.0
 11
43.15389999999999
 21
143.354
 31
0.0
  0
LINE
  8
0
 62
0
 10
29.141900000000007
 20
129.3628
 30
0.0
 11
29.141900000000007
 21
143.354
 31
0.0
  0
LINE
  8
0
 62
0
 10
48.191900000000004
 20
183.84629999999999
 30
0.0
 11
48.191900000000004
 21
169.83369999999996
 31
0.0
  0
LINE
  8
0
 62
0
 10
43.15389999999999
 20
129.3628
 30
0.0
 11
29.141900000000007
 21
129.3628
 31
0.0
  0
LINE
  8
0
 62
0
 10
81.2542
 20
167.1665
 30
0.0
 11
67.24189999999999
 21
167.1665
 31
0.0
  0
LINE
  8
0
 62
0
 10
81.2542
 20
153.1753
 30
0.0
 11
81.2542
 21
167.1665
 31
0.0
  0
LINE
  8
0
 62
0
 10
67.24189999999999
 20
167.1665
 30
0.0
 11
67.24189999999999
 21
153.1753
 31
0.0
  0
LINE
  8
0
 62
0
 10
67.24189999999999
 20
153.1753
 30
0.0
 11
81.2542
 21
153.1753
 31
0.0
  0
LINE
  8
0
 62
0
 10
81.2542
 20
148.1165
 30
0.0
 11
67.24189999999999
 21
148.1165
 31
0.0
  0
LINE
  8
0
 62
0
 10
81.2542
 20
134.1253
 30
0.0
 11
81.2542
 21
148.1165
 31
0.0
  0
LINE
  8
0
 62
0
 10
43.15389999999999
 20
143.354
 30
0.0
 11
43.15389999999999
 21
129.3628
 31
0.0
  0
LINE
  8
0
 62
0
 10
67.24159656677246
 20
96.00469233398437
 30
0.0
 11
67.24159656677246
 21
110.01649233398439
 31
0.0
  0
LINE
  8
0
 62
0
 10
67.24189999999999
 20
134.1253
 30
0.0
 11
81.2542
 21
134.1253
 31
0.0
  0
LINE
  8
0
 62
0
 10
62.203900000000004
 20
164.7963
 30
0.0
 11
48.191900000000004
 21
164.7963
 31
0.0
  0
LINE
  8
0
 62
0
 10
62.203900000000004
 20
150.7837
 30
0.0
 11
62.203900000000004
 21
164.7963
 31
0.0
  0
LINE
  8
0
 62
0
 10
48.191900000000004
 20
164.7963
 30
0.0
 11
48.191900000000004
 21
150.7837
 31
0.0
  0
LINE
  8
0
 62
0
 10
48.191900000000004
 20
150.7837
 30
0.0
 11
62.203900000000004
 21
150.7837
 31
0.0
  0
LINE
  8
0
 62
0
 10
119.35419999999999
 20
102.88310000000001
 30
0.0
 11
105.3416
 21
102.88310000000001
 31
0.0
  0
LINE
  8
0
 62
0
 10
119.35419999999999
 20
88.87129999999999
 30
0.0
 11
119.35419999999999
 21
102.88310000000001
 31
0.0
  0
LINE
  8
0
 62
0
 10
67.24189999999999
 20
148.1165
 30
0.0
 11
67.24189999999999
 21
134.1253
 31
0.0
  0
LINE
  8
0
 62
0
 10
105.3416
 20
88.87129999999999
 30
0.0
 11
119.35419999999999
 21
88.87129999999999
 31
0.0
  0
LINE
  8
0
 62
0
 10
119.35419999999999
 20
121.93379999999999
 30
0.0
 11
105.3416
 21
121.93379999999999
 31
0.0
  0
LINE
  8
0
 62
0
 10
119.35419999999999
 20
107.9212
 30
0.0
 11
119.35419999999999
 21
121.93379999999999
 31
0.0
  0
LINE
  8
0
 62
0
 10
105.3416
 20
121.93379999999999
 30
0.0
 11
105.3416
 21
107.9212
 31
0.0
  0
LINE
  8
0
 62
0
 10
105.3416
 20
107.9212
 30
0.0
 11
119.35419999999999
 21
107.9212
 31
0.0
  0
LINE
  8
0
 62
0
 10
67.24159656677246
 20
110.01649233398439
 30
0.0
 11
81.25419656677246
 21
110.01649233398439
 31
0.0
  0
LINE
  8
0
 62
0
 10
-7.975300000000004
 20
95.8785
 30
0.0
 11
8.5441
 21
67.2664
 31
0.0
  0
LINE
  8
0
 62
0
 10
105.3416
 20
102.88310000000001
 30
0.0
 11
105.3416
 21
88.87129999999999
 31
0.0
  0
LINE
  8
0
 62
0
 10
81.25419656677246
 20
96.00469233398437
 30
0.0
 11
67.24159656677246
 21
96.00469233398437
 31
0.0
  0
LINE
  8
0
 62
0
 10
86.29159999999999
 20
107.6456
 30
0.0
 11
100.3042
 21
107.6456
 31
0.0
  0
LINE
  8
0
 62
0
 10
86.2916
 20
93.6337
 30
0.0
 11
86.29159999999999
 21
107.6456
 31
0.0
  0
LINE
  8
0
 62
0
 10
100.3042
 20
107.6456
 30
0.0
 11
100.30420000000001
 21
93.6337
 31
0.0
  0
LINE
  8
0
 62
0
 10
100.30420000000001
 20
93.6337
 30
0.0
 11
86.2916
 21
93.6337
 31
0.0
  0
CIRCLE
  8
0
 62
0
 10
83.27414989471436
 20
112.71595764160156
 30
0.0
 40
1.0
  0
LINE
  8
0
 62
0
 10
53.65280000000001
 20
93.3161
 30
0.0
 11
46.66780000000001
 21
105.44489999999999
 31
0.0
  0
LINE
  8
0
 62
0
 10
81.25419656677246
 20
110.01649233398439
 30
0.0
 11
81.25419656677246
 21
96.00469233398437
 31
0.0
  0
LINE
  8
0
 62
0
 10
46.66780000000001
 20
105.44489999999999
 30
0.0
 11
34.53909999999999
 21
98.4383
 31
0.0
  0
LINE
  8
0
 62
0
 10
34.53909999999999
 20
98.4383
 30
0.0
 11
41.5453
 21
86.31020000000001
 31
0.0
  0
LINE
  8
0
 62
0
 10
5.633600000000001
 20
100.29929999999999
 30
0.0
 11
4.146100000000004
 21
102.87620000000001
 31
0.0
  0
LINE
  8
0
 62
0
 10
5.634
 20
100.2986
 30
0.0
 11
5.633600000000001
 21
100.29929999999999
 31
0.0
  0
LINE
  8
0
 62
0
 10
4.146100000000004
 20
102.87620000000001
 30
0.0
 11
-7.975300000000004
 21
95.8785
 31
0.0
  0
LINE
  8
0
 62
0
 10
6.287899999999993
 20
100.6762
 30
0.0
 11
5.634
 21
100.2986
 31
0.0
  0
LINE
  8
0
 62
0
 10
23.7838
 20
106.9656
 30
0.0
 11
24.437299999999993
 21
107.3432
 31
0.0
  0
LINE
  8
0
 62
0
 10
41.5453
 20
86.31020000000001
 30
0.0
 11
53.65280000000001
 21
93.3161
 31
0.0
  0
LINE
  8
0
 62
0
 10
8.5441
 20
67.2664
 30
0.0
 11
20.664900000000003
 21
74.2647
 31
0.0
  0
LINE
  8
0
 62
0
 10
7.2841999999999985
 20
97.44059999999999
 30
0.0
 11
7.937700000000007
 21
97.81819999999999
 31
0.0
  0
LINE
  8
0
 62
0
 10
20.664900000000003
 20
74.2647
 30
0.0
 11
19.1836
 21
76.83000000000001
 31
0.0
  0
LINE
  8
0
 62
0
 10
17.534000000000006
 20
79.6873
 30
0.0
 11
7.2841999999999985
 21
97.44059999999999
 31
0.0
  0
LINE
  8
0
 62
0
 10
19.1836
 20
76.83000000000001
 30
0.0
 11
19.183899999999994
 21
76.83000000000001
 31
0.0
  0
LINE
  8
0
 62
0
 10
18.188000000000002
 20
80.0649
 30
0.0
 11
17.534000000000006
 21
79.6873
 31
0.0
  0
LINE
  8
0
 62
0
 10
19.183899999999994
 20
76.83000000000001
 30
0.0
 11
19.837400000000002
 21
77.20750000000001
 31
0.0
  0
LINE
  8
0
 62
0
 10
7.937700000000007
 20
97.81819999999999
 30
0.0
 11
6.287899999999993
 21
100.6762
 31
0.0
  0
CIRCLE
  8
0
 62
0
 10
4.162540435791016
 20
107.93310546875
 30
0.0
 40
1.0
  0
LINE
  8
0
 62
0
 10
22.133200000000002
 20
109.8243
 30
0.0
 11
20.645700000000005
 21
112.40119999999999
 31
0.0
  0
LINE
  8
0
 62
0
 10
22.1336
 20
109.8236
 30
0.0
 11
22.133200000000002
 21
109.8243
 31
0.0
  0
LINE
  8
0
 62
0
 10
20.645700000000005
 20
112.40119999999999
 30
0.0
 11
8.524500000000003
 21
105.40350000000001
 31
0.0
  0
LINE
  8
0
 62
0
 10
22.787499999999994
 20
110.2012
 30
0.0
 11
22.1336
 21
109.8236
 31
0.0
  0
LINE
  8
0
 62
0
 10
8.524500000000003
 20
105.40350000000001
 30
0.0
 11
25.0437
 21
76.79140000000001
 31
0.0
  0
LINE
  8
0
 62
0
 10
24.437299999999993
 20
107.3432
 30
0.0
 11
22.787499999999994
 21
110.2012
 31
0.0
  0
LINE
  8
0
 62
0
 10
19.837400000000002
 20
77.20750000000001
 30
0.0
 11
18.188000000000002
 21
80.0649
 31
0.0
  0
LINE
  8
0
 62
0
 10
10.091899999999995
 20
119.83850000000001
 30
0.0
 11
24.103899999999996
 21
119.83850000000001
 31
0.0
  0
LINE
  8
0
 62
0
 10
37.164500000000004
 20
83.78970000000001
 30
0.0
 11
35.6832
 21
86.35499999999999
 31
0.0
  0
LINE
  8
0
 62
0
 10
23.783500000000004
 20
106.9656
 30
0.0
 11
23.7838
 21
106.9656
 31
0.0
  0
LINE
  8
0
 62
0
 10
35.6832
 20
86.35499999999999
 30
0.0
 11
35.68350000000001
 21
86.35499999999999
 31
0.0
  0
LINE
  8
0
 62
0
 10
34.03360000000001
 20
89.2123
 30
0.0
 11
23.783500000000004
 21
106.9656
 31
0.0
  0
LINE
  8
0
 62
0
 10
35.68350000000001
 20
86.35499999999999
 30
0.0
 11
36.337
 21
86.73249999999999
 31
0.0
  0
LINE
  8
0
 62
0
 10
34.6875
 20
89.5899
 30
0.0
 11
34.03360000000001
 21
89.2123
 31
0.0
  0
LINE
  8
0
 62
0
 10
25.0437
 20
76.79140000000001
 30
0.0
 11
37.164500000000004
 21
83.78970000000001
 31
0.0
  0
LINE
  8
0
 62
0
 10
29.141900000000007
 20
124.3047
 30
0.0
 11
43.15389999999999
 21
124.3047
 31
0.0
  0
LINE
  8
0
 62
0
 10
29.141900000000007
 20
110.31280000000001
 30
0.0
 11
29.141900000000007
 21
124.3047
 31
0.0
  0
LINE
  8
0
 62
0
 10
43.15389999999999
 20
124.3047
 30
0.0
 11
43.15389999999999
 21
110.31280000000001
 31
0.0
  0
LINE
  8
0
 62
0
 10
43.15389999999999
 20
110.31280000000001
 30
0.0
 11
29.141900000000007
 21
110.31280000000001
 31
0.0
  0
CIRCLE
  8
0
 62
0
 10
32.595468521118164
 20
105.34880065917969
 30
0.0
 40
1.0
  0
LINE
  8
0
 62
0
 10
24.103899999999996
 20
152.879
 30
0.0
 11
10.091899999999995
 21
152.879
 31
0.0
  0
LINE
  8
0
 62
0
 10
24.103899999999996
 20
138.8878
 30
0.0
 11
24.103899999999996
 21
152.879
 31
0.0
  0
LINE
  8
0
 62
0
 10
36.337
 20
86.73249999999999
 30
0.0
 11
34.6875
 21
89.5899
 31
0.0
  0
LINE
  8
0
 62
0
 10
10.091899999999995
 20
138.8878
 30
0.0
 11
24.103899999999996
 21
138.8878
 31
0.0
  0
LINE
  8
0
 62
0
 10
24.103899999999996
 20
133.829
 30
0.0
 11
10.091899999999995
 21
133.829
 31
0.0
  0
LINE
  8
0
 62
0
 10
24.103899999999996
 20
119.83850000000001
 30
0.0
 11
24.103899999999996
 21
133.829
 31
0.0
  0
LINE
  8
0
 62
0
 10
10.091899999999995
 20
133.829
 30
0.0
 11
10.091899999999995
 21
119.83850000000001
 31
0.0
  0
LINE
  8
0
 62
0
 10
24.103899999999996
 20
171.929
 30
0.0
 11
10.091899999999995
 21
171.929
 31
0.0
  0
LINE
  8
0
 62
0
 10
24.103899999999996
 20
157.9378
 30
0.0
 11
24.103899999999996
 21
171.929
 31
0.0
  0
LINE
  8
0
 62
0
 10
10.091899999999995
 20
152.879
 30
0.0
 11
10.091899999999995
 21
138.8878
 31
0.0
  0
LINE
  8
0
 62
0
 10
10.091899999999995
 20
157.9378
 30
0.0
 11
24.103899999999996
 21
157.9378
 31
0.0
  0
CIRCLE
  8
0
 62
0
 10
26.63555908203125
 20
165.03663635253906
 30
0.0
 40
1.0
  0
LINE
  8
0
 62
0
 10
43.15389999999999
 20
181.454
 30
0.0
 11
29.141900000000007
 21
181.454
 31
0.0
  0
LINE
  8
0
 62
0
 10
43.15389999999999
 20
167.4628
 30
0.0
 11
43.15389999999999
 21
181.454
 31
0.0
  0
LINE
  8
0
 62
0
 10
29.141900000000007
 20
181.454
 30
0.0
 11
29.141900000000007
 21
167.4628
 31
0.0
  0
LINE
  8
0
 62
0
 10
29.141900000000007
 20
167.4628
 30
0.0
 11
43.15389999999999
 21
167.4628
 31
0.0
  0
CIRCLE
  8
0
 62
0
 10
90.00661611557007
 20
187.38816833496094
 30
0.0
 40
1.0
  0
LINE
  8
0
 62
0
 10
10.091899999999995
 20
171.929
 30
0.0
 11
10.091899999999995
 21
157.9378
 31
0.0
  0
LINE
  8
0
 62
0
 10
86.2916
 20
183.84629999999999
 30
0.0
 11
86.29159999999999
 21
169.83369999999996
 31
0.0
  0
LINE
  8
0
 62
0
 10
100.3042
 20
169.8337
 30
0.0
 11
100.30420000000001
 21
183.84629999999999
 31
0.0
  0
LINE
  8
0
 62
0
 10
100.30420000000001
 20
183.84629999999999
 30
0.0
 11
86.2916
 21
183.84629999999999
 31
0.0
  0
LINE
  8
0
 62
0
 10
81.2542
 20
186.2165
 30
0.0
 11
81.2542
 21
172.2253
 31
0.0
  0
LINE
  8
0
 62
0
 10
67.24189999999999
 20
186.2165
 30
0.0
 11
81.2542
 21
186.2165
 31
0.0
  0
LINE
  8
0
 62
0
 10
81.2542
 20
172.2253
 30
0.0
 11
67.24189999999999
 21
172.2253
 31
0.0
  0
LINE
  8
0
 62
0
 10
67.24189999999999
 20
172.2253
 30
0.0
 11
67.24189999999999
 21
186.2165
 31
0.0
  0
LINE
  8
0
 62
0
 10
86.29159999999999
 20
169.83369999999996
 30
0.0
 11
100.3042
 21
169.8337
 31
0.0
  0
CIRCLE
  8
0
 62
0
 10
121.88408660888672
 20
162.50094604492188
 30
0.0
 40
1.0
  0
LINE
  8
0
 62
0
 10
124.39160000000001
 20
160.0338
 30
0.0
 11
138.4042
 21
160.0338
 31
0.0
  0
LINE
  8
0
 62
0
 10
124.39160000000001
 20
146.0212
 30
0.0
 11
124.39160000000001
 21
160.0338
 31
0.0
  0
LINE
  8
0
 62
0
 10
138.4042
 20
160.0338
 30
0.0
 11
138.4042
 21
146.0212
 31
0.0
  0
LINE
  8
0
 62
0
 10
138.4042
 20
146.0212
 30
0.0
 11
124.39160000000001
 21
146.0212
 31
0.0
  0
LINE
  8
0
 62
0
 10
124.39160000000001
 20
179.0838
 30
0.0
 11
138.4042
 21
179.0838
 31
0.0
  0
LINE
  8
0
 62
0
 10
124.39160000000001
 20
165.0712
 30
0.0
 11
124.39160000000001
 21
179.0838
 31
0.0
  0
CIRCLE
  8
0
 62
0
 10
121.88704681396484
 20
105.10244750976562
 30
0.0
 40
1.0
  0
LINE
  8
0
 62
0
 10
138.4042
 20
165.0712
 30
0.0
 11
124.39160000000001
 21
165.0712
 31
0.0
  0
LINE
  8
0
 62
0
 10
124.39160000000001
 20
140.9838
 30
0.0
 11
138.4042
 21
140.9838
 31
0.0
  0
LINE
  8
0
 62
0
 10
124.39160000000001
 20
126.97120000000001
 30
0.0
 11
124.39160000000001
 21
140.9838
 31
0.0
  0
LINE
  8
0
 62
0
 10
138.4042
 20
140.9838
 30
0.0
 11
138.4042
 21
126.97120000000001
 31
0.0
  0
LINE
  8
0
 62
0
 10
138.4042
 20
126.97120000000001
 30
0.0
 11
124.39160000000001
 21
126.97120000000001
 31
0.0
  0
LINE
  8
0
 62
0
 10
124.39160000000001
 20
102.88310000000001
 30
0.0
 11
138.4042
 21
102.88310000000001
 31
0.0
  0
LINE
  8
0
 62
0
 10
124.39160000000001
 20
88.87129999999999
 30
0.0
 11
124.39160000000001
 21
102.88310000000001
 31
0.0
  0
LINE
  8
0
 62
0
 10
138.4042
 20
179.0838
 30
0.0
 11
138.4042
 21
165.0712
 31
0.0
  0
LINE
  8
0
 62
0
 10
138.4042
 20
88.87129999999999
 30
0.0
 11
124.39160000000001
 21
88.87129999999999
 31
0.0
  0
LINE
  8
0
 62
0
 10
124.39160000000001
 20
121.93379999999999
 30
0.0
 11
138.4042
 21
121.93379999999999
 31
0.0
  0
LINE
  8
0
 62
0
 10
124.39160000000001
 20
107.9212
 30
0.0
 11
124.39160000000001
 21
121.93379999999999
 31
0.0
  0
LINE
  8
0
 62
0
 10
138.4042
 20
121.93379999999999
 30
0.0
 11
138.4042
 21
107.9212
 31
0.0
  0
LINE
  8
0
 62
0
 10
138.4042
 20
107.9212
 30
0.0
 11
124.39160000000001
 21
107.9212
 31
0.0
  0
ARC
  8
0
 62
0
 10
6.3286626266822665
 20
118.52135031393395
 30
0.0
 40
0.9999999999999986
 50
-41.51999999999983
 51
-0.0
  0
LINE
  8
0
 62
0
 10
7.0773870038163516
 20
117.85846887122706
 30
0.0
 11
-10.461407853314498
 21
98.04840569995463
 31
0.0
  0
LINE
  8
0
 62
0
 10
138.4042
 20
102.88310000000001
 30
0.0
 11
138.4042
 21
88.87129999999999
 31
0.0
  0
LINE
  8
0
 62
0
 10
141.4086626266823
 20
87.62
 30
0.0
 11
141.40866262668226
 21
180.618557345637
 31
0.0
  0
LINE
  8
0
 62
0
 10
-10.696009906615188
 20
95.72264281454083
 30
0.0
 11
7.280724537139381
 21
64.58602540378445
 31
0.0
  0
LINE
  8
0
 62
0
 10
139.84597102726673
 20
182.57016216290359
 30
0.0
 11
84.7359505432923
 21
194.9190120431666
 31
0.0
  0
LINE
  8
0
 62
0
 10
83.64267954183117
 20
195.04000000000005
 30
0.0
 11
46.41039130888347
 21
195.04000000000005
 31
0.0
  0
LINE
  8
0
 62
0
 10
32.54774066681671
 20
186.43999999999997
 30
0.0
 11
15.89332204087313
 21
186.43999999999997
 31
0.0
  0
ARC
  8
0
 62
0
 10
15.893322040873123
 20
185.44
 30
0.0
 40
1.0
 50
89.99999999999959
 51
146.13999999999956
  0
ARC
  8
0
 62
0
 10
-8.963959099046328
 20
96.72264281454083
 30
0.0
 40
2.000000000000002
 50
138.47999999999985
 51
-149.99999999999977
  0
LINE
  8
0
 62
0
 10
8.646749940923808
 20
64.22
 30
0.0
 11
45.99853560776009
 21
85.78506350946111
 31
0.0
  0
ARC
  8
0
 62
0
 10
32.5477406668167
 20
188.94
 30
0.0
 40
2.5
 50
-89.99999999999983
 51
-55.00999999999958
  0
ARC
  8
0
 62
0
 10
8.146749940923804
 20
65.08602540378443
 30
0.0
 40
0.999999999999999
 50
-150.00000000000026
 51
-59.99999999999969
  0
LINE
  8
0
 62
0
 10
44.97680766235039
 20
194.5881303494634
 30
0.0
 11
33.98132431334979
 21
186.89186965053665
 31
0.0
  0
ARC
  8
0
 62
0
 10
46.41039130888346
 20
192.54000000000002
 30
0.0
 40
2.5
 50
89.99999999999983
 51
124.98999999999978
  0
ARC
  8
0
 62
0
 10
47.24853560776008
 20
83.62
 30
0.0
 40
2.5
 50
90.0
 51
119.99999999999976
  0
LINE
  8
0
 62
0
 10
47.24853560776008
 20
86.12
 30
0.0
 11
139.9086626266823
 21
86.12
 31
0.0
  0
ARC
  8
0
 62
0
 10
83.64267954183117
 20
190.04000000000002
 30
0.0
 40
5.0
 50
77.37000000000012
 51
90.0
  0
ARC
  8
0
 62
0
 10
139.9086626266823
 20
87.62
 30
0.0
 40
1.5
 50
-90.0
 51
-0.0
  0
ARC
  8
0
 62
0
 10
139.40866262668226
 20
180.61855734563702
 30
0.0
 40
2.0
 50
-0.0
 51
77.3699999999993
  0
ENDBLK
  0
BLOCK
  8
0
  2
PART__MIRRORING001
 70
0
 10
0.0
 20
0.0
 30
0.0
  3
PART__MIRRORING001
  0
LINE
  8
0
 62
0
 10
-33.32866262668226
 20
174.16560474754635
 30
0.0
 11
-33.32866262668227
 21
118.52135031393395
 31
0.0
  0
LINE
  8
0
 62
0
 10
-74.1919
 20
145.7463
 30
0.0
 11
-74.1919
 21
131.7337
 31
0.0
  0
ARC
  8
0
 62
0
 10
-34.32866262668226
 20
174.16560474754635
 30
0.0
 40
1.0000000000000013
 50
-0.0
 51
33.86000000000043
  0
LINE
  8
0
 62
0
 10
-88.2039
 20
131.7337
 30
0.0
 11
-88.2039
 21
145.7463
 31
0.0
  0
LINE
  8
0
 62
0
 10
-41.0629205785368
 20
185.9971655152194
 30
0.0
 11
-33.498261164345934
 21
174.72277026276575
 31
0.0
  0
LINE
  8
0
 62
0
 10
-74.1919
 20
131.7337
 30
0.0
 11
-88.2039
 21
131.7337
 31
0.0
  0
LINE
  8
0
 62
0
 10
-88.2039
 20
126.69630000000001
 30
0.0
 11
-74.1919
 21
126.69630000000001
 31
0.0
  0
LINE
  8
0
 62
0
 10
-88.2039
 20
145.7463
 30
0.0
 11
-74.1919
 21
145.7463
 31
0.0
  0
LINE
  8
0
 62
0
 10
-88.2039
 20
112.68379999999999
 30
0.0
 11
-88.2039
 21
126.69630000000001
 31
0.0
  0
LINE
  8
0
 62
0
 10
-74.1919
 20
126.69630000000001
 30
0.0
 11
-74.1919
 21
112.68379999999999
 31
0.0
  0
LINE
  8
0
 62
0
 10
-107.2542
 20
129.0665
 30
0.0
 11
-93.24189999999999
 21
129.0665
 31
0.0
  0
LINE
  8
0
 62
0
 10
-107.2542
 20
115.076
 30
0.0
 11
-107.2542
 21
129.0665
 31
0.0
  0
LINE
  8
0
 62
0
 10
-93.24189999999999
 20
129.0665
 30
0.0
 11
-93.24189999999999
 21
115.076
 31
0.0
  0
LINE
  8
0
 62
0
 10
-93.24189999999999
 20
115.076
 30
0.0
 11
-107.2542
 21
115.076
 31
0.0
  0
LINE
  8
0
 62
0
 10
-145.3542
 20
140.9838
 30
0.0
 11
-131.3416
 21
140.9838
 31
0.0
  0
LINE
  8
0
 62
0
 10
-131.3416
 20
140.9838
 30
0.0
 11
-131.3416
 21
126.97120000000001
 31
0.0
  0
LINE
  8
0
 62
0
 10
-131.3416
 20
126.97120000000001
 30
0.0
 11
-145.3542
 21
126.97120000000001
 31
0.0
  0
LINE
  8
0
 62
0
 10
-74.1919
 20
112.68379999999999
 30
0.0
 11
-88.2039
 21
112.68379999999999
 31
0.0
  0
LINE
  8
0
 62
0
 10
-126.30420000000001
 20
145.7463
 30
0.0
 11
-112.2916
 21
145.7463
 31
0.0
  0
LINE
  8
0
 62
0
 10
-126.3042
 20
131.7337
 30
0.0
 11
-126.30420000000001
 21
145.7463
 31
0.0
  0
LINE
  8
0
 62
0
 10
-112.2916
 20
145.7463
 30
0.0
 11
-112.29159999999999
 21
131.7337
 31
0.0
  0
LINE
  8
0
 62
0
 10
-112.29159999999999
 20
131.7337
 30
0.0
 11
-126.3042
 21
131.7337
 31
0.0
  0
LINE
  8
0
 62
0
 10
-126.30420000000001
 20
126.69630000000001
 30
0.0
 11
-112.2916
 21
126.69630000000001
 31
0.0
  0
LINE
  8
0
 62
0
 10
-126.3042
 20
112.68379999999999
 30
0.0
 11
-126.30420000000001
 21
126.69630000000001
 31
0.0
  0
LINE
  8
0
 62
0
 10
-112.2916
 20
126.69630000000001
 30
0.0
 11
-112.29159999999999
 21
112.68379999999999
 31
0.0
  0
LINE
  8
0
 62
0
 10
-145.3542
 20
126.97120000000001
 30
0.0
 11
-145.3542
 21
140.9838
 31
0.0
  0
LINE
  8
0
 62
0
 10
-145.3542
 20
179.0838
 30
0.0
 11
-145.3542
 21
165.0712
 31
0.0
  0
LINE
  8
0
 62
0
 10
-131.3416
 20
179.0838
 30
0.0
 11
-145.3542
 21
179.0838
 31
0.0
  0
LINE
  8
0
 62
0
 10
-145.3542
 20
165.0712
 30
0.0
 11
-131.3416
 21
165.0712
 31
0.0
  0
LINE
  8
0
 62
0
 10
-131.3416
 20
165.0712
 30
0.0
 11
-131.3416
 21
179.0838
 31
0.0
  0
LINE
  8
0
 62
0
 10
-145.3542
 20
160.0338
 30
0.0
 11
-131.3416
 21
160.0338
 31
0.0
  0
LINE
  8
0
 62
0
 10
-145.3542
 20
146.0212
 30
0.0
 11
-145.3542
 21
160.0338
 31
0.0
  0
LINE
  8
0
 62
0
 10
-131.3416
 20
160.0338
 30
0.0
 11
-131.3416
 21
146.0212
 31
0.0
  0
LINE
  8
0
 62
0
 10
-112.29159999999999
 20
112.68379999999999
 30
0.0
 11
-126.3042
 21
112.68379999999999
 31
0.0
  0
CIRCLE
  8
0
 62
0
 10
-109.78264045715332
 20
148.27745056152344
 30
0.0
 40
1.0
  0
LINE
  8
0
 62
0
 10
-112.29159999999999
 20
164.7963
 30
0.0
 11
-126.3042
 21
164.7963
 31
0.0
  0
LINE
  8
0
 62
0
 10
-112.2916
 20
150.7837
 30
0.0
 11
-112.29159999999999
 21
164.7963
 31
0.0
  0
LINE
  8
0
 62
0
 10
-126.3042
 20
164.7963
 30
0.0
 11
-126.30420000000001
 21
150.7837
 31
0.0
  0
LINE
  8
0
 62
0
 10
-126.30420000000001
 20
150.7837
 30
0.0
 11
-112.2916
 21
150.7837
 31
0.0
  0
LINE
  8
0
 62
0
 10
-88.2039
 20
183.84629999999999
 30
0.0
 11
-74.1919
 21
183.84629999999999
 31
0.0
  0
LINE
  8
0
 62
0
 10
-88.2039
 20
169.8337
 30
0.0
 11
-88.2039
 21
183.84629999999999
 31
0.0
  0
LINE
  8
0
 62
0
 10
-131.3416
 20
146.0212
 30
0.0
 11
-145.3542
 21
146.0212
 31
0.0
  0
LINE
  8
0
 62
0
 10
-74.1919
 20
169.83369999999996
 30
0.0
 11
-88.2039
 21
169.8337
 31
0.0
  0
LINE
  8
0
 62
0
 10
-55.14190000000001
 20
162.404
 30
0.0
 11
-69.1539
 21
162.404
 31
0.0
  0
LINE
  8
0
 62
0
 10
-55.14190000000001
 20
148.4128
 30
0.0
 11
-55.14190000000001
 21
162.404
 31
0.0
  0
LINE
  8
0
 62
0
 10
-69.1539
 20
162.404
 30
0.0
 11
-69.1539
 21
148.4128
 31
0.0
  0
LINE
  8
0
 62
0
 10
-69.1539
 20
148.4128
 30
0.0
 11
-55.14190000000001
 21
148.4128
 31
0.0
  0
LINE
  8
0
 62
0
 10
-55.14190000000001
 20
143.354
 30
0.0
 11
-69.1539
 21
143.354
 31
0.0
  0
LINE
  8
0
 62
0
 10
-55.14190000000001
 20
129.3628
 30
0.0
 11
-55.14190000000001
 21
143.354
 31
0.0
  0
LINE
  8
0
 62
0
 10
-74.1919
 20
183.84629999999999
 30
0.0
 11
-74.1919
 21
169.83369999999996
 31
0.0
  0
LINE
  8
0
 62
0
 10
-69.1539
 20
129.3628
 30
0.0
 11
-55.14190000000001
 21
129.3628
 31
0.0
  0
LINE
  8
0
 62
0
 10
-107.2542
 20
167.1665
 30
0.0
 11
-93.24189999999999
 21
167.1665
 31
0.0
  0
LINE
  8
0
 62
0
 10
-107.2542
 20
153.1753
 30
0.0
 11
-107.2542
 21
167.1665
 31
0.0
  0
LINE
  8
0
 62
0
 10
-93.24189999999999
 20
167.1665
 30
0.0
 11
-93.24189999999999
 21
153.1753
 31
0.0
  0
LINE
  8
0
 62
0
 10
-93.24189999999999
 20
153.1753
 30
0.0
 11
-107.2542
 21
153.1753
 31
0.0
  0
LINE
  8
0
 62
0
 10
-107.2542
 20
148.1165
 30
0.0
 11
-93.24189999999999
 21
148.1165
 31
0.0
  0
LINE
  8
0
 62
0
 10
-107.2542
 20
134.1253
 30
0.0
 11
-107.2542
 21
148.1165
 31
0.0
  0
LINE
  8
0
 62
0
 10
-69.1539
 20
143.354
 30
0.0
 11
-69.1539
 21
129.3628
 31
0.0
  0
LINE
  8
0
 62
0
 10
-93.24159656677246
 20
96.00469233398437
 30
0.0
 11
-93.24159656677246
 21
110.01649233398439
 31
0.0
  0
LINE
  8
0
 62
0
 10
-93.24189999999999
 20
134.1253
 30
0.0
 11
-107.2542
 21
134.1253
 31
0.0
  0
LINE
  8
0
 62
0
 10
-88.2039
 20
164.7963
 30
0.0
 11
-74.1919
 21
164.7963
 31
0.0
  0
LINE
  8
0
 62
0
 10
-88.2039
 20
150.7837
 30
0.0
 11
-88.2039
 21
164.7963
 31
0.0
  0
LINE
  8
0
 62
0
 10
-74.1919
 20
164.7963
 30
0.0
 11
-74.1919
 21
150.7837
 31
0.0
  0
LINE
  8
0
 62
0
 10
-74.1919
 20
150.7837
 30
0.0
 11
-88.2039
 21
150.7837
 31
0.0
  0
LINE
  8
0
 62
0
 10
-145.3542
 20
102.88310000000001
 30
0.0
 11
-131.3416
 21
102.88310000000001
 31
0.0
  0
LINE
  8
0
 62
0
 10
-145.3542
 20
88.87129999999999
 30
0.0
 11
-145.3542
 21
102.88310000000001
 31
0.0
  0
LINE
  8
0
 62
0
 10
-93.24189999999999
 20
148.1165
 30
0.0
 11
-93.24189999999999
 21
134.1253
 31
0.0
  0
LINE
  8
0
 62
0
 10
-131.3416
 20
88.87129999999999
 30
0.0
 11
-145.3542
 21
88.87129999999999
 31
0.0
  0
LINE
  8
0
 62
0
 10
-145.3542
 20
121.93379999999999
 30
0.0
 11
-131.3416
 21
121.93379999999999
 31
0.0
  0
LINE
  8
0
 62
0
 10
-145.3542
 20
107.9212
 30
0.0
 11
-145.3542
 21
121.93379999999999
 31
0.0
  0
LINE
  8
0
 62
0
 10
-131.3416
 20
121.93379999999999
 30
0.0
 11
-131.3416
 21
107.9212
 31
0.0
  0
LINE
  8
0
 62
0
 10
-131.3416
 20
107.9212
 30
0.0
 11
-145.3542
 21
107.9212
 31
0.0
  0
LINE
  8
0
 62
0
 10
-93.24159656677246
 20
110.01649233398439
 30
0.0
 11
-107.25419656677246
 21
110.01649233398439
 31
0.0
  0
LINE
  8
0
 62
0
 10
-18.024699999999996
 20
95.8785
 30
0.0
 11
-34.5441
 21
67.2664
 31
0.0
  0
LINE
  8
0
 62
0
 10
-131.3416
 20
102.88310000000001
 30
0.0
 11
-131.3416
 21
88.87129999999999
 31
0.0
  0
LINE
  8
0
 62
0
 10
-107.25419656677246
 20
96.00469233398437
 30
0.0
 11
-93.24159656677246
 21
96.00469233398437
 31
0.0
  0
LINE
  8
0
 62
0
 10
-112.29159999999999
 20
107.6456
 30
0.0
 11
-126.3042
 21
107.6456
 31
0.0
  0
LINE
  8
0
 62
0
 10
-112.2916
 20
93.6337
 30
0.0
 11
-112.29159999999999
 21
107.6456
 31
0.0
  0
LINE
  8
0
 62
0
 10
-126.3042
 20
107.6456
 30
0.0
 11
-126.30420000000001
 21
93.6337
 31
0.0
  0
LINE
  8
0
 62
0
 10
-126.30420000000001
 20
93.6337
 30
0.0
 11
-112.2916
 21
93.6337
 31
0.0
  0
CIRCLE
  8
0
 62
0
 10
-109.27414989471436
 20
112.71595764160156
 30
0.0
 40
1.0
  0
LINE
  8
0
 62
0
 10
-79.65280000000001
 20
93.3161
 30
0.0
 11
-72.6678
 21
105.44489999999999
 31
0.0
  0
LINE
  8
0
 62
0
 10
-107.25419656677246
 20
110.01649233398439
 30
0.0
 11
-107.25419656677246
 21
96.00469233398437
 31
0.0
  0
LINE
  8
0
 62
0
 10
-72.6678
 20
105.44489999999999
 30
0.0
 11
-60.53909999999999
 21
98.4383
 31
0.0
  0
LINE
  8
0
 62
0
 10
-60.53909999999999
 20
98.4383
 30
0.0
 11
-67.5453
 21
86.31020000000001
 31
0.0
  0
LINE
  8
0
 62
0
 10
-31.6336
 20
100.29929999999999
 30
0.0
 11
-30.146100000000004
 21
102.87620000000001
 31
0.0
  0
LINE
  8
0
 62
0
 10
-31.634
 20
100.2986
 30
0.0
 11
-31.6336
 21
100.29929999999999
 31
0.0
  0
LINE
  8
0
 62
0
 10
-30.146100000000004
 20
102.87620000000001
 30
0.0
 11
-18.024699999999996
 21
95.8785
 31
0.0
  0
LINE
  8
0
 62
0
 10
-32.28789999999999
 20
100.6762
 30
0.0
 11
-31.634
 21
100.2986
 31
0.0
  0
LINE
  8
0
 62
0
 10
-49.7838
 20
106.9656
 30
0.0
 11
-50.43729999999999
 21
107.3432
 31
0.0
  0
LINE
  8
0
 62
0
 10
-67.5453
 20
86.31020000000001
 30
0.0
 11
-79.65280000000001
 21
93.3161
 31
0.0
  0
LINE
  8
0
 62
0
 10
-34.5441
 20
67.2664
 30
0.0
 11
-46.6649
 21
74.2647
 31
0.0
  0
LINE
  8
0
 62
0
 10
-33.2842
 20
97.44059999999999
 30
0.0
 11
-33.93770000000001
 21
97.81819999999999
 31
0.0
  0
LINE
  8
0
 62
0
 10
-46.6649
 20
74.2647
 30
0.0
 11
-45.1836
 21
76.83000000000001
 31
0.0
  0
LINE
  8
0
 62
0
 10
-43.534000000000006
 20
79.6873
 30
0.0
 11
-33.2842
 21
97.44059999999999
 31
0.0
  0
LINE
  8
0
 62
0
 10
-45.1836
 20
76.83000000000001
 30
0.0
 11
-45.183899999999994
 21
76.83000000000001
 31
0.0
  0
LINE
  8
0
 62
0
 10
-44.188
 20
80.0649
 30
0.0
 11
-43.534000000000006
 21
79.6873
 31
0.0
  0
LINE
  8
0
 62
0
 10
-45.183899999999994
 20
76.83000000000001
 30
0.0
 11
-45.8374
 21
77.20750000000001
 31
0.0
  0
LINE
  8
0
 62
0
 10
-33.93770000000001
 20
97.81819999999999
 30
0.0
 11
-32.28789999999999
 21
100.6762
 31
0.0
  0
CIRCLE
  8
0
 62
0
 10
-30.162540435791016
 20
107.93310546875
 30
0.0
 40
1.0
  0
LINE
  8
0
 62
0
 10
-48.1332
 20
109.8243
 30
0.0
 11
-46.645700000000005
 21
112.40119999999999
 31
0.0
  0
LINE
  8
0
 62
0
 10
-48.1336
 20
109.8236
 30
0.0
 11
-48.1332
 21
109.8243
 31
0.0
  0
LINE
  8
0
 62
0
 10
-46.645700000000005
 20
112.40119999999999
 30
0.0
 11
-34.5245
 21
105.40350000000001
 31
0.0
  0
LINE
  8
0
 62
0
 10
-48.787499999999994
 20
110.2012
 30
0.0
 11
-48.1336
 21
109.8236
 31
0.0
  0
LINE
  8
0
 62
0
 10
-34.5245
 20
105.40350000000001
 30
0.0
 11
-51.0437
 21
76.79140000000001
 31
0.0
  0
LINE
  8
0
 62
0
 10
-50.43729999999999
 20
107.3432
 30
0.0
 11
-48.787499999999994
 21
110.2012
 31
0.0
  0
LINE
  8
0
 62
0
 10
-45.8374
 20
77.20750000000001
 30
0.0
 11
-44.188
 21
80.0649
 31
0.0
  0
LINE
  8
0
 62
0
 10
-36.091899999999995
 20
119.83850000000001
 30
0.0
 11
-50.103899999999996
 21
119.83850000000001
 31
0.0
  0
LINE
  8
0
 62
0
 10
-63.164500000000004
 20
83.78970000000001
 30
0.0
 11
-61.6832
 21
86.35499999999999
 31
0.0
  0
LINE
  8
0
 62
0
 10
-49.783500000000004
 20
106.9656
 30
0.0
 11
-49.7838
 21
106.9656
 31
0.0
  0
LINE
  8
0
 62
0
 10
-61.6832
 20
86.35499999999999
 30
0.0
 11
-61.68350000000001
 21
86.35499999999999
 31
0.0
  0
LINE
  8
0
 62
0
 10
-60.03360000000001
 20
89.2123
 30
0.0
 11
-49.783500000000004
 21
106.9656
 31
0.0
  0
LINE
  8
0
 62
0
 10
-61.68350000000001
 20
86.35499999999999
 30
0.0
 11
-62.337
 21
86.73249999999999
 31
0.0
  0
LINE
  8
0
 62
0
 10
-60.6875
 20
89.5899
 30
0.0
 11
-60.03360000000001
 21
89.2123
 31
0.0
  0
LINE
  8
0
 62
0
 10
-51.0437
 20
76.79140000000001
 30
0.0
 11
-63.164500000000004
 21
83.78970000000001
 31
0.0
  0
LINE
  8
0
 62
0
 10
-55.14190000000001
 20
124.3047
 30
0.0
 11
-69.1539
 21
124.3047
 31
0.0
  0
LINE
  8
0
 62
0
 10
-55.14190000000001
 20
110.31280000000001
 30
0.0
 11
-55.14190000000001
 21
124.3047
 31
0.0
  0
LINE
  8
0
 62
0
 10
-69.1539
 20
124.3047
 30
0.0
 11
-69.1539
 21
110.31280000000001
 31
0.0
  0
LINE
  8
0
 62
0
 10
-69.1539
 20
110.31280000000001
 30
0.0
 11
-55.14190000000001
 21
110.31280000000001
 31
0.0
  0
CIRCLE
  8
0
 62
0
 10
-58.595468521118164
 20
105.34880065917969
 30
0.0
 40
1.0
  0
LINE
  8
0
 62
0
 10
-50.103899999999996
 20
152.879
 30
0.0
 11
-36.091899999999995
 21
152.879
 31
0.0
  0
LINE
  8
0
 62
0
 10
-50.103899999999996
 20
138.8878
 30
0.0
 11
-50.103899999999996
 21
152.879
 31
0.0
  0
LINE
  8
0
 62
0
 10
-62.337
 20
86.73249999999999
 30
0.0
 11
-60.6875
 21
89.5899
 31
0.0
  0
LINE
  8
0
 62
0
 10
-36.091899999999995
 20
138.8878
 30
0.0
 11
-50.103899999999996
 21
138.8878
 31
0.0
  0
LINE
  8
0
 62
0
 10
-50.103899999999996
 20
133.829
 30
0.0
 11
-36.091899999999995
 21
133.829
 31
0.0
  0
LINE
  8
0
 62
0
 10
-50.103899999999996
 20
119.83850000000001
 30
0.0
 11
-50.103899999999996
 21
133.829
 31
0.0
  0
LINE
  8
0
 62
0
 10
-36.091899999999995
 20
133.829
 30
0.0
 11
-36.091899999999995
 21
119.83850000000001
 31
0.0
  0
LINE
  8
0
 62
0
 10
-50.103899999999996
 20
171.929
 30
0.0
 11
-36.091899999999995
 21
171.929
 31
0.0
  0
LINE
  8
0
 62
0
 10
-50.103899999999996
 20
157.9378
 30
0.0
 11
-50.103899999999996
 21
171.929
 31
0.0
  0
LINE
  8
0
 62
0
 10
-36.091899999999995
 20
152.879
 30
0.0
 11
-36.091899999999995
 21
138.8878
 31
0.0
  0
LINE
  8
0
 62
0
 10
-36.091899999999995
 20
157.9378
 30
0.0
 11
-50.103899999999996
 21
157.9378
 31
0.0
  0
CIRCLE
  8
0
 62
0
 10
-52.63555908203125
 20
165.03663635253906
 30
0.0
 40
1.0
  0
LINE
  8
0
 62
0
 10
-69.1539
 20
181.454
 30
0.0
 11
-55.14190000000001
 21
181.454
 31
0.0
  0
LINE
  8
0
 62
0
 10
-69.1539
 20
167.4628
 30
0.0
 11
-69.1539
 21
181.454
 31
0.0
  0
LINE
  8
0
 62
0
 10
-55.14190000000001
 20
181.454
 30
0.0
 11
-55.14190000000001
 21
167.4628
 31
0.0
  0
LINE
  8
0
 62
0
 10
-55.14190000000001
 20
167.4628
 30
0.0
 11
-69.1539
 21
167.4628
 31
0.0
  0
CIRCLE
  8
0
 62
0
 10
-116.00661611557007
 20
187.38816833496094
 30
0.0
 40
1.0
  0
LINE
  8
0
 62
0
 10
-36.091899999999995
 20
171.929
 30
0.0
 11
-36.091899999999995
 21
157.9378
 31
0.0
  0
LINE
  8
0
 62
0
 10
-112.2916
 20
183.84629999999999
 30
0.0
 11
-112.29159999999999
 21
169.83369999999996
 31
0.0
  0
LINE
  8
0
 62
0
 10
-126.3042
 20
169.8337
 30
0.0
 11
-126.30420000000001
 21
183.84629999999999
 31
0.0
  0
LINE
  8
0
 62
0
 10
-126.30420000000001
 20
183.84629999999999
 30
0.0
 11
-112.2916
 21
183.84629999999999
 31
0.0
  0
LINE
  8
0
 62
0
 10
-107.2542
 20
186.2165
 30
0.0
 11
-107.2542
 21
172.2253
 31
0.0
  0
LINE
  8
0
 62
0
 10
-93.24189999999999
 20
186.2165
 30
0.0
 11
-107.2542
 21
186.2165
 31
0.0
  0
LINE
  8
0
 62
0
 10
-107.2542
 20
172.2253
 30
0.0
 11
-93.24189999999999
 21
172.2253
 31
0.0
  0
LINE
  8
0
 62
0
 10
-93.24189999999999
 20
172.2253
 30
0.0
 11
-93.24189999999999
 21
186.2165
 31
0.0
  0
LINE
  8
0
 62
0
 10
-112.29159999999999
 20
169.83369999999996
 30
0.0
 11
-126.3042
 21
169.8337
 31
0.0
  0
CIRCLE
  8
0
 62
0
 10
-147.88408660888672
 20
162.50094604492188
 30
0.0
 40
1.0
  0
LINE
  8
0
 62
0
 10
-150.3916
 20
160.0338
 30
0.0
 11
-164.4042
 21
160.0338
 31
0.0
  0
LINE
  8
0
 62
0
 10
-150.3916
 20
146.0212
 30
0.0
 11
-150.3916
 21
160.0338
 31
0.0
  0
LINE
  8
0
 62
0
 10
-164.4042
 20
160.0338
 30
0.0
 11
-164.4042
 21
146.0212
 31
0.0
  0
LINE
  8
0
 62
0
 10
-164.4042
 20
146.0212
 30
0.0
 11
-150.3916
 21
146.0212
 31
0.0
  0
LINE
  8
0
 62
0
 10
-150.3916
 20
179.0838
 30
0.0
 11
-164.4042
 21
179.0838
 31
0.0
  0
LINE
  8
0
 62
0
 10
-150.3916
 20
165.0712
 30
0.0
 11
-150.3916
 21
179.0838
 31
0.0
  0
CIRCLE
  8
0
 62
0
 10
-147.88704681396484
 20
105.10244750976562
 30
0.0
 40
1.0
  0
LINE
  8
0
 62
0
 10
-164.4042
 20
165.0712
 30
0.0
 11
-150.3916
 21
165.0712
 31
0.0
  0
LINE
  8
0
 62
0
 10
-150.3916
 20
140.9838
 30
0.0
 11
-164.4042
 21
140.9838
 31
0.0
  0
LINE
  8
0
 62
0
 10
-150.3916
 20
126.97120000000001
 30
0.0
 11
-150.3916
 21
140.9838
 31
0.0
  0
LINE
  8
0
 62
0
 10
-164.4042
 20
140.9838
 30
0.0
 11
-164.4042
 21
126.97120000000001
 31
0.0
  0
LINE
  8
0
 62
0
 10
-164.4042
 20
126.97120000000001
 30
0.0
 11
-150.3916
 21
126.97120000000001
 31
0.0
  0
LINE
  8
0
 62
0
 10
-150.3916
 20
102.88310000000001
 30
0.0
 11
-164.4042
 21
102.88310000000001
 31
0.0
  0
LINE
  8
0
 62
0
 10
-150.3916
 20
88.87129999999999
 30
0.0
 11
-150.3916
 21
102.88310000000001
 31
0.0
  0
LINE
  8
0
 62
0
 10
-164.4042
 20
179.0838
 30
0.0
 11
-164.4042
 21
165.0712
 31
0.0
  0
LINE
  8
0
 62
0
 10
-164.4042
 20
88.87129999999999
 30
0.0
 11
-150.3916
 21
88.87129999999999
 31
0.0
  0
LINE
  8
0
 62
0
 10
-150.3916
 20
121.93379999999999
 30
0.0
 11
-164.4042
 21
121.93379999999999
 31
0.0
  0
LINE
  8
0
 62
0
 10
-150.3916
 20
107.9212
 30
0.0
 11
-150.3916
 21
121.93379999999999
 31
0.0
  0
LINE
  8
0
 62
0
 10
-164.4042
 20
121.93379999999999
 30
0.0
 11
-164.4042
 21
107.9212
 31
0.0
  0
LINE
  8
0
 62
0
 10
-164.4042
 20
107.9212
 30
0.0
 11
-150.3916
 21
107.9212
 31
0.0
  0
ARC
  8
0
 62
0
 10
-32.32866262668227
 20
118.52135031393395
 30
0.0
 40
0.9999999999999986
 50
-180.0
 51
-138.48000000000033
  0
LINE
  8
0
 62
0
 10
-33.077387003816355
 20
117.85846887122706
 30
0.0
 11
-15.538592146685502
 21
98.04840569995463
 31
0.0
  0
LINE
  8
0
 62
0
 10
-164.4042
 20
102.88310000000001
 30
0.0
 11
-164.4042
 21
88.87129999999999
 31
0.0
  0
LINE
  8
0
 62
0
 10
-167.4086626266823
 20
87.62
 30
0.0
 11
-167.40866262668226
 21
180.618557345637
 31
0.0
  0
LINE
  8
0
 62
0
 10
-15.303990093384812
 20
95.72264281454083
 30
0.0
 11
-33.28072453713938
 21
64.58602540378445
 31
0.0
  0
LINE
  8
0
 62
0
 10
-165.84597102726673
 20
182.57016216290359
 30
0.0
 11
-110.7359505432923
 21
194.9190120431666
 31
0.0
  0
LINE
  8
0
 62
0
 10
-109.64267954183117
 20
195.04000000000005
 30
0.0
 11
-72.41039130888348
 21
195.04000000000005
 31
0.0
  0
LINE
  8
0
 62
0
 10
-58.54774066681671
 20
186.43999999999997
 30
0.0
 11
-41.89332204087313
 21
186.43999999999997
 31
0.0
  0
ARC
  8
0
 62
0
 10
-41.89332204087312
 20
185.44
 30
0.0
 40
1.0
 50
33.86000000000043
 51
90.00000000000041
  0
ARC
  8
0
 62
0
 10
-17.036040900953672
 20
96.72264281454083
 30
0.0
 40
2.000000000000002
 50
-30.000000000000234
 51
41.52000000000014
  0
LINE
  8
0
 62
0
 10
-34.64674994092381
 20
64.22
 30
0.0
 11
-71.99853560776009
 21
85.78506350946111
 31
0.0
  0
ARC
  8
0
 62
0
 10
-58.5477406668167
 20
188.94
 30
0.0
 40
2.5
 50
-124.99000000000042
 51
-90.00000000000017
  0
ARC
  8
0
 62
0
 10
-34.146749940923804
 20
65.08602540378443
 30
0.0
 40
0.999999999999999
 50
-120.0000000000005
 51
-29.999999999999634
  0
LINE
  8
0
 62
0
 10
-70.97680766235038
 20
194.5881303494634
 30
0.0
 11
-59.98132431334979
 21
186.89186965053665
 31
0.0
  0
ARC
  8
0
 62
0
 10
-72.41039130888346
 20
192.54000000000002
 30
0.0
 40
2.5
 50
55.01000000000009
 51
90.00000000000033
  0
ARC
  8
0
 62
0
 10
-73.24853560776009
 20
83.62
 30
0.0
 40
2.5
 50
60.00000000000011
 51
90.0
  0
LINE
  8
0
 62
0
 10
-73.24853560776009
 20
86.12
 30
0.0
 11
-165.9086626266823
 21
86.12
 31
0.0
  0
ARC
  8
0
 62
0
 10
-109.64267954183117
 20
190.04000000000002
 30
0.0
 40
5.0
 50
90.0
 51
102.62999999999988
  0
ARC
  8
0
 62
0
 10
-165.9086626266823
 20
87.62
 30
0.0
 40
1.5
 50
-180.0
 51
-90.0
  0
ARC
  8
0
 62
0
 10
-165.40866262668226
 20
180.61855734563702
 30
0.0
 40
2.0
 50
102.63000000000072
 51
-180.0
  0
ENDBLK
  0
ENDSEC
  0
SECTION
  2
ENTITIES
  0
INSERT
  2
FUSION001
  8
0
 62
0
 10
0.0
 20
0.0
 30
0.0
  0
INSERT
  2
PART__MIRRORING001
  8
0
 62
0
 10
0.0
 20
0.0
 30
0.0
  0
ENDSEC
  0
EOF
