  0
SECTION
  2
HEADER
  9
$ACADVER
  1
AC1009
  9
$INSBASE
 10
0.0
 20
0.0
 30
0.0
  9
$EXTMIN
 10
0.0
 20
0.0
 30
0.0
  9
$EXTMAX
 10
0.0
 20
0.0
 30
0.0
  0
ENDSEC
  0
SECTION
  2
TABLES
  0
TABLE
  2
VPORT
 70
0
  0
ENDTAB
  0
TABLE
  2
LTYPE
 70
1
  0
LTYPE
  2
CONTINUOUS
 70
0
  3
Solid line
 72
65
 73
0
 40
0.0
  0
ENDTAB
  0
TABLE
  2
LAYER
 70
1
  0
LAYER
  2
0
 70
64
 62
7
  6
continuous
  0
ENDTAB
  0
TABLE
  2
STYLE
 70
1
  0
STYLE
  2
STANDARD
 70
0
 40
0
 41
1.0
 50
0.0
 71
0
 42
1
 3
ARIAL.TTF
 4

  0
ENDTAB
  0
TABLE
  2
VIEW
 70
0
  0
ENDTAB
  0
ENDSEC
  0
SECTION
  2
BLOCKS
  0
BLOCK
  8
0
  2
EXTRUDE001
 70
0
 10
0.0
 20
0.0
 30
0.0
  3
EXTRUDE001
  0
LINE
  8
0
 62
0
 10
-56.63510000000001
 20
-53.310900000000004
 30
0.0
 11
-56.634600000000006
 21
-53.3116
 31
0.0
  0
LINE
  8
0
 62
0
 10
-147.3469
 20
-53.310900000000004
 30
0.0
 11
-56.63510000000001
 21
-53.310900000000004
 31
0.0
  0
LINE
  8
0
 62
0
 10
-56.634600000000006
 20
-53.3116
 30
0.0
 11
-55.534600000000005
 21
-53.3116
 31
0.0
  0
LINE
  8
0
 62
0
 10
-148.4469
 20
-53.310900000000004
 30
0.0
 11
-147.3469
 21
-53.310900000000004
 31
0.0
  0
LINE
  8
0
 62
0
 10
-55.534600000000005
 20
-53.3116
 30
0.0
 11
-53.85510000000001
 21
-53.761499999999984
 31
0.0
  0
LINE
  8
0
 62
0
 10
-149.347
 20
-52.411100000000005
 30
0.0
 11
-148.4469
 21
-53.310900000000004
 31
0.0
  0
LINE
  8
0
 62
0
 10
-53.85510000000001
 20
-53.761499999999984
 30
0.0
 11
-52.90220000000001
 21
-54.3107
 31
0.0
  0
LINE
  8
0
 62
0
 10
-149.347
 20
-51.31100000000001
 30
0.0
 11
-149.347
 21
-52.411100000000005
 31
0.0
  0
LINE
  8
0
 62
0
 10
-52.90220000000001
 20
-54.3107
 30
0.0
 11
-17.508700000000005
 21
-74.7305
 31
0.0
  0
LINE
  8
0
 62
0
 10
-149.347
 20
10.173500000000018
 30
0.0
 11
-149.347
 21
-51.31100000000001
 31
0.0
  0
LINE
  8
0
 62
0
 10
-17.508700000000005
 20
-74.7305
 30
0.0
 11
-16.555800000000005
 21
-75.28029999999998
 31
0.0
  0
LINE
  8
0
 62
0
 10
-149.347
 20
40.7877
 30
0.0
 11
-149.347
 21
10.173500000000018
 31
0.0
  0
LINE
  8
0
 62
0
 10
-16.555800000000005
 20
-75.28029999999998
 30
0.0
 11
-15.32520000000001
 21
-74.951
 31
0.0
  0
LINE
  8
0
 62
0
 10
-149.347
 20
41.88810000000001
 30
0.0
 11
-149.347
 21
40.7877
 31
0.0
  0
LINE
  8
0
 62
0
 10
-15.32520000000001
 20
-74.951
 30
0.0
 11
-14.773900000000012
 21
-73.99940000000001
 31
0.0
  0
LINE
  8
0
 62
0
 10
-148.46880000000002
 20
42.985299999999995
 30
0.0
 11
-149.347
 21
41.88810000000001
 31
0.0
  0
LINE
  8
0
 62
0
 10
-14.773900000000012
 20
-73.99940000000001
 30
0.0
 11
2.4654999999999916
 21
-44.22209999999998
 31
0.0
  0
LINE
  8
0
 62
0
 10
-147.3957
 20
43.2269
 30
0.0
 11
-148.46880000000002
 21
42.985299999999995
 31
0.0
  0
LINE
  8
0
 62
0
 10
2.4654999999999916
 20
-44.22209999999998
 30
0.0
 11
3.016699999999986
 21
-43.269800000000004
 31
0.0
  0
LINE
  8
0
 62
0
 10
-94.2754
 20
55.1682
 30
0.0
 11
-147.3957
 21
43.2269
 31
0.0
  0
LINE
  8
0
 62
0
 10
3.016699999999986
 20
-43.269800000000004
 30
0.0
 11
2.870599999999996
 21
-41.81809999999999
 31
0.0
  0
LINE
  8
0
 62
0
 10
-93.2022
 20
55.409400000000005
 30
0.0
 11
-94.2754
 21
55.1682
 31
0.0
  0
LINE
  8
0
 62
0
 10
2.870599999999996
 20
-41.81809999999999
 30
0.0
 11
2.1402999999999963
 21
-40.99539999999999
 31
0.0
  0
LINE
  8
0
 62
0
 10
-91.42410000000001
 20
55.607200000000006
 30
0.0
 11
-93.2022
 21
55.409400000000005
 31
0.0
  0
LINE
  8
0
 62
0
 10
2.1402999999999963
 20
-40.99539999999999
 30
0.0
 11
-13.939600000000013
 21
-22.873500000000007
 31
0.0
  0
LINE
  8
0
 62
0
 10
-90.32400000000001
 20
55.607200000000006
 30
0.0
 11
-91.42410000000001
 21
55.607200000000006
 31
0.0
  0
LINE
  8
0
 62
0
 10
-13.939600000000013
 20
-22.873500000000007
 30
0.0
 11
-14.401600000000002
 21
-22.352800000000002
 31
0.0
  0
LINE
  8
0
 62
0
 10
-55.49380000000001
 20
55.607200000000006
 30
0.0
 11
-90.32400000000001
 21
55.607200000000006
 31
0.0
  0
LINE
  8
0
 62
0
 10
-14.401600000000002
 20
-22.352800000000002
 30
0.0
 11
-14.810400000000001
 21
-21.5317
 31
0.0
  0
LINE
  8
0
 62
0
 10
-54.39370000000001
 20
55.607200000000006
 30
0.0
 11
-55.49380000000001
 21
55.607200000000006
 31
0.0
  0
LINE
  8
0
 62
0
 10
-14.810400000000001
 20
-21.5317
 30
0.0
 11
-15.0484
 21
-20.720100000000002
 31
0.0
  0
LINE
  8
0
 62
0
 10
-52.75900000000001
 20
55.087
 30
0.0
 11
-54.39370000000001
 21
55.607200000000006
 31
0.0
  0
LINE
  8
0
 62
0
 10
-15.0484
 20
-20.720100000000002
 30
0.0
 11
-15.166200000000003
 21
-20.318399999999997
 31
0.0
  0
LINE
  8
0
 62
0
 10
-51.86110000000001
 20
54.4517
 30
0.0
 11
-52.75900000000001
 21
55.087
 31
0.0
  0
LINE
  8
0
 62
0
 10
-15.166200000000003
 20
-20.318399999999997
 30
0.0
 11
-15.242100000000008
 21
-19.919099999999986
 31
0.0
  0
LINE
  8
0
 62
0
 10
-42.94210000000001
 20
48.14200000000001
 30
0.0
 11
-51.86110000000001
 21
54.4517
 31
0.0
  0
LINE
  8
0
 62
0
 10
-15.242100000000008
 20
-19.919099999999986
 30
0.0
 11
-15.261800000000008
 21
-19.559699999999992
 31
0.0
  0
LINE
  8
0
 62
0
 10
-42.04410000000001
 20
47.50670000000001
 30
0.0
 11
-42.94210000000001
 21
48.14200000000001
 31
0.0
  0
LINE
  8
0
 62
0
 10
-15.261800000000008
 20
-19.559699999999992
 30
0.0
 11
-15.265200000000007
 21
-19.497899999999987
 31
0.0
  0
LINE
  8
0
 62
0
 10
-40.409400000000005
 20
46.9868
 30
0.0
 11
-42.04410000000001
 21
47.50670000000001
 31
0.0
  0
LINE
  8
0
 62
0
 10
-15.265200000000007
 20
-19.497899999999987
 30
0.0
 11
-15.26700000000001
 21
-19.437299999999993
 31
0.0
  0
LINE
  8
0
 62
0
 10
-39.30940000000001
 20
46.9868
 30
0.0
 11
-40.409400000000005
 21
46.9868
 31
0.0
  0
LINE
  8
0
 62
0
 10
-15.26700000000001
 20
-19.437299999999993
 30
0.0
 11
-15.26700000000001
 21
-19.37809999999999
 31
0.0
  0
LINE
  8
0
 62
0
 10
-25.309900000000013
 20
46.9868
 30
0.0
 11
-39.30940000000001
 21
46.9868
 31
0.0
  0
LINE
  8
0
 62
0
 10
-15.26700000000001
 20
-19.37809999999999
 30
0.0
 11
-15.264900000000011
 21
33.048700000000004
 31
0.0
  0
LINE
  8
0
 62
0
 10
-24.209900000000005
 20
46.9868
 30
0.0
 11
-25.309900000000013
 21
46.9868
 31
0.0
  0
LINE
  8
0
 62
0
 10
-15.264900000000011
 20
33.0487
 30
0.0
 11
-15.264900000000011
 21
34.149
 31
0.0
  0
LINE
  8
0
 62
0
 10
-22.806900000000013
 20
46.2406
 30
0.0
 11
-24.209900000000005
 21
46.9868
 31
0.0
  0
LINE
  8
0
 62
0
 10
-15.264900000000011
 20
34.149
 30
0.0
 11
-15.767900000000012
 21
35.79510000000002
 31
0.0
  0
LINE
  8
0
 62
0
 10
-22.19210000000001
 20
45.3283
 30
0.0
 11
-22.806900000000013
 21
46.2406
 31
0.0
  0
LINE
  8
0
 62
0
 10
-15.767900000000012
 20
35.79510000000002
 30
0.0
 11
-16.382700000000014
 21
36.707300000000004
 31
0.0
  0
LINE
  8
0
 62
0
 10
-16.382700000000014
 20
36.707300000000004
 30
0.0
 11
-22.19210000000001
 21
45.3283
 31
0.0
  0
CIRCLE
  8
0
 62
0
 10
-34.82029832458497
 20
25.679152954101568
 30
0.0
 40
1.05
  0
LINE
  8
0
 62
0
 10
-37.327900000000014
 20
23.042
 30
0.0
 11
-51.33990000000001
 21
23.042
 31
0.0
  0
LINE
  8
0
 62
0
 10
-37.327900000000014
 20
9.05080000000001
 30
0.0
 11
-37.327900000000014
 21
23.042
 31
0.0
  0
LINE
  8
0
 62
0
 10
-51.33990000000001
 20
23.042
 30
0.0
 11
-51.33990000000001
 21
9.05080000000001
 31
0.0
  0
LINE
  8
0
 62
0
 10
-51.33990000000001
 20
9.05080000000001
 30
0.0
 11
-37.327900000000014
 21
9.05080000000001
 31
0.0
  0
LINE
  8
0
 62
0
 10
-70.38990000000001
 20
11.421700000000016
 30
0.0
 11
-70.38990000000001
 21
25.434300000000007
 31
0.0
  0
LINE
  8
0
 62
0
 10
-56.377900000000004
 20
11.421700000000016
 30
0.0
 11
-70.38990000000001
 21
11.421700000000016
 31
0.0
  0
LINE
  8
0
 62
0
 10
-70.38990000000001
 20
25.434300000000007
 30
0.0
 11
-56.37790000000001
 21
25.434300000000007
 31
0.0
  0
LINE
  8
0
 62
0
 10
-56.377900000000004
 20
25.434300000000007
 30
0.0
 11
-56.377900000000004
 21
11.421700000000016
 31
0.0
  0
LINE
  8
0
 62
0
 10
-70.38990000000001
 20
-26.678200000000004
 30
0.0
 11
-70.38990000000001
 21
-12.665699999999987
 31
0.0
  0
LINE
  8
0
 62
0
 10
-56.377900000000004
 20
-26.678200000000004
 30
0.0
 11
-70.38990000000001
 21
-26.678200000000004
 31
0.0
  0
LINE
  8
0
 62
0
 10
-70.38990000000001
 20
-12.665699999999987
 30
0.0
 11
-56.37790000000001
 21
-12.665699999999987
 31
0.0
  0
LINE
  8
0
 62
0
 10
-56.377900000000004
 20
-12.665699999999987
 30
0.0
 11
-56.377900000000004
 21
-26.678200000000004
 31
0.0
  0
LINE
  8
0
 62
0
 10
-70.38990000000001
 20
-7.628299999999996
 30
0.0
 11
-70.38990000000001
 21
6.384299999999996
 31
0.0
  0
LINE
  8
0
 62
0
 10
-56.377900000000004
 20
-7.628299999999996
 30
0.0
 11
-70.38990000000001
 21
-7.628299999999996
 31
0.0
  0
LINE
  8
0
 62
0
 10
-70.38990000000001
 20
6.384299999999996
 30
0.0
 11
-56.37790000000001
 21
6.384299999999996
 31
0.0
  0
LINE
  8
0
 62
0
 10
-56.377900000000004
 20
6.384299999999996
 30
0.0
 11
-56.377900000000004
 21
-7.628299999999996
 31
0.0
  0
LINE
  8
0
 62
0
 10
-37.327900000000014
 20
3.9920000000000186
 30
0.0
 11
-51.33990000000001
 21
3.9920000000000186
 31
0.0
  0
LINE
  8
0
 62
0
 10
-37.327900000000014
 20
-9.999200000000002
 30
0.0
 11
-37.327900000000014
 21
3.9920000000000186
 31
0.0
  0
LINE
  8
0
 62
0
 10
-51.33990000000001
 20
3.9920000000000186
 30
0.0
 11
-51.33990000000001
 21
-9.999200000000002
 31
0.0
  0
LINE
  8
0
 62
0
 10
-51.33990000000001
 20
-9.999200000000002
 30
0.0
 11
-37.327900000000014
 21
-9.999200000000002
 31
0.0
  0
LINE
  8
0
 62
0
 10
-89.4402
 20
13.813299999999998
 30
0.0
 11
-89.4402
 21
27.80450000000002
 31
0.0
  0
LINE
  8
0
 62
0
 10
-75.42790000000001
 20
13.813299999999998
 30
0.0
 11
-89.4402
 21
13.813299999999998
 31
0.0
  0
LINE
  8
0
 62
0
 10
-89.4402
 20
27.80450000000002
 30
0.0
 11
-75.42790000000001
 21
27.80450000000002
 31
0.0
  0
LINE
  8
0
 62
0
 10
-75.42790000000001
 20
27.80450000000002
 30
0.0
 11
-75.42790000000001
 21
13.813299999999998
 31
0.0
  0
LINE
  8
0
 62
0
 10
-32.2899
 20
18.575800000000015
 30
0.0
 11
-32.2899
 21
32.56700000000001
 31
0.0
  0
LINE
  8
0
 62
0
 10
-18.277900000000002
 20
18.575800000000015
 30
0.0
 11
-32.2899
 21
18.575800000000015
 31
0.0
  0
LINE
  8
0
 62
0
 10
-32.2899
 20
32.56700000000001
 30
0.0
 11
-18.277900000000002
 21
32.56700000000001
 31
0.0
  0
LINE
  8
0
 62
0
 10
-18.277900000000002
 20
32.56700000000001
 30
0.0
 11
-18.277900000000002
 21
18.575800000000015
 31
0.0
  0
LINE
  8
0
 62
0
 10
-32.2899
 20
-0.4741999999999962
 30
0.0
 11
-32.2899
 21
13.516999999999996
 31
0.0
  0
LINE
  8
0
 62
0
 10
-18.277900000000002
 20
-0.4741999999999962
 30
0.0
 11
-32.2899
 21
-0.4741999999999962
 31
0.0
  0
LINE
  8
0
 62
0
 10
-32.2899
 20
13.516999999999996
 30
0.0
 11
-18.277900000000002
 21
13.516999999999996
 31
0.0
  0
LINE
  8
0
 62
0
 10
-18.277900000000002
 20
13.516999999999996
 30
0.0
 11
-18.277900000000002
 21
-0.4741999999999962
 31
0.0
  0
LINE
  8
0
 62
0
 10
-30.31960000000001
 20
-29.538399999999996
 30
0.0
 11
-30.31920000000001
 21
-29.5377
 31
0.0
  0
LINE
  8
0
 62
0
 10
-30.9735
 20
-29.160799999999995
 30
0.0
 11
-30.31960000000001
 21
-29.538399999999996
 31
0.0
  0
LINE
  8
0
 62
0
 10
-30.31920000000001
 20
-29.5377
 30
0.0
 11
-28.831700000000012
 21
-26.960800000000006
 31
0.0
  0
LINE
  8
0
 62
0
 10
-32.6233
 20
-32.0188
 30
0.0
 11
-30.9735
 21
-29.160799999999995
 31
0.0
  0
LINE
  8
0
 62
0
 10
-28.831700000000012
 20
-26.960800000000006
 30
0.0
 11
-16.71050000000001
 21
-33.95849999999999
 31
0.0
  0
LINE
  8
0
 62
0
 10
-31.969800000000006
 20
-32.3964
 30
0.0
 11
-32.6233
 21
-32.0188
 31
0.0
  0
LINE
  8
0
 62
0
 10
-16.71050000000001
 20
-33.95849999999999
 30
0.0
 11
-33.22970000000001
 21
-62.57059999999999
 31
0.0
  0
LINE
  8
0
 62
0
 10
-31.96950000000001
 20
-32.3964
 30
0.0
 11
-31.969800000000006
 21
-32.3964
 31
0.0
  0
LINE
  8
0
 62
0
 10
-33.22970000000001
 20
-62.570599999999985
 30
0.0
 11
-45.350500000000004
 21
-55.572299999999984
 31
0.0
  0
LINE
  8
0
 62
0
 10
-42.21960000000001
 20
-50.149699999999996
 30
0.0
 11
-31.96950000000001
 21
-32.3964
 31
0.0
  0
LINE
  8
0
 62
0
 10
-45.350500000000004
 20
-55.572299999999984
 30
0.0
 11
-43.869200000000006
 21
-53.007000000000005
 31
0.0
  0
LINE
  8
0
 62
0
 10
-42.87350000000001
 20
-49.772099999999995
 30
0.0
 11
-42.21960000000001
 21
-50.149699999999996
 31
0.0
  0
LINE
  8
0
 62
0
 10
-43.869200000000006
 20
-53.007000000000005
 30
0.0
 11
-43.86950000000001
 21
-53.007000000000005
 31
0.0
  0
LINE
  8
0
 62
0
 10
-44.52300000000001
 20
-52.62950000000001
 30
0.0
 11
-42.87350000000001
 21
-49.772099999999995
 31
0.0
  0
LINE
  8
0
 62
0
 10
-43.86950000000001
 20
-53.007000000000005
 30
0.0
 11
-44.52300000000001
 21
-52.62950000000001
 31
0.0
  0
LINE
  8
0
 62
0
 10
-49.731300000000005
 20
-53.051799999999986
 30
0.0
 11
-61.838800000000006
 21
-46.04589999999999
 31
0.0
  0
LINE
  8
0
 62
0
 10
-42.725100000000005
 20
-40.9237
 30
0.0
 11
-49.731300000000005
 21
-53.051799999999986
 31
0.0
  0
LINE
  8
0
 62
0
 10
-61.838800000000006
 20
-46.04589999999999
 30
0.0
 11
-54.85380000000001
 21
-33.917100000000005
 31
0.0
  0
LINE
  8
0
 62
0
 10
-54.85380000000001
 20
-33.917100000000005
 30
0.0
 11
-42.725100000000005
 21
-40.9237
 31
0.0
  0
LINE
  8
0
 62
0
 10
-13.820000000000007
 20
-39.0634
 30
0.0
 11
-13.819600000000008
 21
-39.06270000000001
 31
0.0
  0
LINE
  8
0
 62
0
 10
-14.4739
 20
-38.6858
 30
0.0
 11
-13.820000000000007
 21
-39.0634
 31
0.0
  0
LINE
  8
0
 62
0
 10
-13.819600000000008
 20
-39.06270000000001
 30
0.0
 11
-12.332100000000011
 21
-36.48579999999998
 31
0.0
  0
LINE
  8
0
 62
0
 10
-16.123700000000014
 20
-41.543800000000005
 30
0.0
 11
-14.4739
 21
-38.6858
 31
0.0
  0
LINE
  8
0
 62
0
 10
-12.332100000000011
 20
-36.48579999999998
 30
0.0
 11
-0.21070000000000277
 21
-43.48349999999999
 31
0.0
  0
LINE
  8
0
 62
0
 10
-15.470200000000006
 20
-41.921400000000006
 30
0.0
 11
-16.123700000000014
 21
-41.543800000000005
 31
0.0
  0
LINE
  8
0
 62
0
 10
-0.21070000000000277
 20
-43.48349999999999
 30
0.0
 11
-16.730100000000007
 21
-72.09559999999999
 31
0.0
  0
LINE
  8
0
 62
0
 10
-25.720000000000013
 20
-59.6747
 30
0.0
 11
-15.470200000000006
 21
-41.921400000000006
 31
0.0
  0
LINE
  8
0
 62
0
 10
-16.730100000000007
 20
-72.09559999999999
 30
0.0
 11
-28.85090000000001
 21
-65.09729999999999
 31
0.0
  0
LINE
  8
0
 62
0
 10
-26.37400000000001
 20
-59.2971
 30
0.0
 11
-25.720000000000013
 21
-59.6747
 31
0.0
  0
LINE
  8
0
 62
0
 10
-28.85090000000001
 20
-65.09729999999999
 30
0.0
 11
-27.369600000000005
 21
-62.53199999999998
 31
0.0
  0
LINE
  8
0
 62
0
 10
-28.02340000000001
 20
-62.154499999999985
 30
0.0
 11
-26.37400000000001
 21
-59.2971
 31
0.0
  0
LINE
  8
0
 62
0
 10
-27.369600000000005
 20
-62.53199999999998
 30
0.0
 11
-27.3699
 21
-62.53199999999998
 31
0.0
  0
LINE
  8
0
 62
0
 10
-27.3699
 20
-62.53199999999998
 30
0.0
 11
-28.02340000000001
 21
-62.154499999999985
 31
0.0
  0
CIRCLE
  8
0
 62
0
 10
-40.78710235214234
 20
-34.01023150634765
 30
0.0
 40
1.05
  0
LINE
  8
0
 62
0
 10
-37.327900000000014
 20
-15.057299999999998
 30
0.0
 11
-51.33990000000001
 21
-15.057299999999998
 31
0.0
  0
LINE
  8
0
 62
0
 10
-37.327900000000014
 20
-29.049199999999985
 30
0.0
 11
-37.327900000000014
 21
-15.057299999999998
 31
0.0
  0
LINE
  8
0
 62
0
 10
-51.33990000000001
 20
-15.057299999999998
 30
0.0
 11
-51.33990000000001
 21
-29.049199999999985
 31
0.0
  0
LINE
  8
0
 62
0
 10
-51.33990000000001
 20
-29.049199999999985
 30
0.0
 11
-37.327900000000014
 21
-29.049199999999985
 31
0.0
  0
LINE
  8
0
 62
0
 10
-32.2899
 20
-19.523499999999984
 30
0.0
 11
-32.2899
 21
-5.532999999999987
 31
0.0
  0
LINE
  8
0
 62
0
 10
-18.277900000000002
 20
-19.523499999999984
 30
0.0
 11
-32.2899
 21
-19.523499999999984
 31
0.0
  0
LINE
  8
0
 62
0
 10
-32.2899
 20
-5.532999999999987
 30
0.0
 11
-18.277900000000002
 21
-5.532999999999987
 31
0.0
  0
LINE
  8
0
 62
0
 10
-18.277900000000002
 20
-5.532999999999987
 30
0.0
 11
-18.277900000000002
 21
-19.523499999999984
 31
0.0
  0
CIRCLE
  8
0
 62
0
 10
-130.06386865234376
 20
-34.26484729003906
 30
0.0
 40
1.05
  0
LINE
  8
0
 62
0
 10
-127.5402
 20
-31.440799999999996
 30
0.0
 11
-127.5402
 21
-17.428200000000004
 31
0.0
  0
LINE
  8
0
 62
0
 10
-113.5276
 20
-31.440799999999996
 30
0.0
 11
-127.5402
 21
-31.440799999999996
 31
0.0
  0
LINE
  8
0
 62
0
 10
-127.5402
 20
-17.428200000000004
 30
0.0
 11
-113.5276
 21
-17.428200000000004
 31
0.0
  0
LINE
  8
0
 62
0
 10
-113.5276
 20
-17.428200000000004
 30
0.0
 11
-113.5276
 21
-31.440799999999996
 31
0.0
  0
LINE
  8
0
 62
0
 10
-108.4902
 20
-26.678200000000004
 30
0.0
 11
-108.4902
 21
-12.665699999999987
 31
0.0
  0
LINE
  8
0
 62
0
 10
-94.47760000000001
 20
-26.678200000000004
 30
0.0
 11
-108.49020000000002
 21
-26.678200000000004
 31
0.0
  0
LINE
  8
0
 62
0
 10
-108.4902
 20
-12.665699999999987
 30
0.0
 11
-94.4776
 21
-12.665699999999987
 31
0.0
  0
LINE
  8
0
 62
0
 10
-94.47760000000001
 20
-12.665699999999987
 30
0.0
 11
-94.47760000000001
 21
-26.678200000000004
 31
0.0
  0
LINE
  8
0
 62
0
 10
-94.47760000000001
 20
-31.716399999999993
 30
0.0
 11
-108.49020000000002
 21
-31.716399999999993
 31
0.0
  0
LINE
  8
0
 62
0
 10
-94.47760000000001
 20
-45.72829999999999
 30
0.0
 11
-94.47760000000001
 21
-31.716399999999993
 31
0.0
  0
LINE
  8
0
 62
0
 10
-108.4902
 20
-31.716399999999993
 30
0.0
 11
-108.4902
 21
-45.72829999999999
 31
0.0
  0
LINE
  8
0
 62
0
 10
-108.4902
 20
-45.72829999999999
 30
0.0
 11
-94.4776
 21
-45.72829999999999
 31
0.0
  0
LINE
  8
0
 62
0
 10
-127.5402
 20
-12.390799999999984
 30
0.0
 11
-127.5402
 21
1.6218000000000075
 31
0.0
  0
LINE
  8
0
 62
0
 10
-113.5276
 20
-12.390799999999984
 30
0.0
 11
-127.5402
 21
-12.390799999999984
 31
0.0
  0
LINE
  8
0
 62
0
 10
-127.5402
 20
1.6218000000000075
 30
0.0
 11
-113.5276
 21
1.6218000000000075
 31
0.0
  0
LINE
  8
0
 62
0
 10
-113.5276
 20
1.6218000000000075
 30
0.0
 11
-113.5276
 21
-12.390799999999984
 31
0.0
  0
LINE
  8
0
 62
0
 10
-89.4402
 20
-5.236699999999985
 30
0.0
 11
-89.4402
 21
8.754500000000007
 31
0.0
  0
LINE
  8
0
 62
0
 10
-75.42790000000001
 20
-5.236699999999985
 30
0.0
 11
-89.4402
 21
-5.236699999999985
 31
0.0
  0
LINE
  8
0
 62
0
 10
-89.4402
 20
8.754500000000007
 30
0.0
 11
-75.42790000000001
 21
8.754500000000007
 31
0.0
  0
LINE
  8
0
 62
0
 10
-75.42790000000001
 20
8.754500000000007
 30
0.0
 11
-75.42790000000001
 21
-5.236699999999985
 31
0.0
  0
CIRCLE
  8
0
 62
0
 10
-91.97100747680665
 20
8.913466918945318
 30
0.0
 40
1.05
  0
LINE
  8
0
 62
0
 10
-108.4902
 20
-7.628299999999996
 30
0.0
 11
-108.4902
 21
6.384299999999996
 31
0.0
  0
LINE
  8
0
 62
0
 10
-94.47760000000001
 20
-7.628299999999996
 30
0.0
 11
-108.49020000000002
 21
-7.628299999999996
 31
0.0
  0
LINE
  8
0
 62
0
 10
-108.4902
 20
6.384299999999996
 30
0.0
 11
-94.4776
 21
6.384299999999996
 31
0.0
  0
LINE
  8
0
 62
0
 10
-94.47760000000001
 20
6.384299999999996
 30
0.0
 11
-94.47760000000001
 21
-7.628299999999996
 31
0.0
  0
LINE
  8
0
 62
0
 10
-89.43893507232667
 20
-43.35835981445311
 30
0.0
 11
-89.43893507232667
 21
-29.345759814453118
 31
0.0
  0
LINE
  8
0
 62
0
 10
-75.42693507232667
 20
-43.35835981445311
 30
0.0
 11
-89.43893507232667
 21
-43.35835981445311
 31
0.0
  0
LINE
  8
0
 62
0
 10
-89.43893507232667
 20
-29.345759814453118
 30
0.0
 11
-75.42693507232667
 21
-29.345759814453118
 31
0.0
  0
LINE
  8
0
 62
0
 10
-75.42693507232667
 20
-29.345759814453118
 30
0.0
 11
-75.42693507232667
 21
-43.35835981445311
 31
0.0
  0
LINE
  8
0
 62
0
 10
-89.4402
 20
-24.286
 30
0.0
 11
-89.4402
 21
-10.295500000000004
 31
0.0
  0
LINE
  8
0
 62
0
 10
-75.42790000000001
 20
-24.286
 30
0.0
 11
-89.4402
 21
-24.286
 31
0.0
  0
LINE
  8
0
 62
0
 10
-89.4402
 20
-10.295500000000004
 30
0.0
 11
-75.42790000000001
 21
-10.295500000000004
 31
0.0
  0
LINE
  8
0
 62
0
 10
-75.42790000000001
 20
-10.295500000000004
 30
0.0
 11
-75.42790000000001
 21
-24.286
 31
0.0
  0
CIRCLE
  8
0
 62
0
 10
-91.45983708953858
 20
-26.644485961914057
 30
0.0
 40
1.05
  0
LINE
  8
0
 62
0
 10
-127.5402
 20
39.7218
 30
0.0
 11
-127.5402
 21
25.70920000000001
 31
0.0
  0
LINE
  8
0
 62
0
 10
-113.5276
 20
39.7218
 30
0.0
 11
-127.5402
 21
39.7218
 31
0.0
  0
LINE
  8
0
 62
0
 10
-127.5402
 20
25.70920000000001
 30
0.0
 11
-113.5276
 21
25.70920000000001
 31
0.0
  0
LINE
  8
0
 62
0
 10
-113.5276
 20
25.70920000000001
 30
0.0
 11
-113.5276
 21
39.7218
 31
0.0
  0
LINE
  8
0
 62
0
 10
-127.5402
 20
6.6591999999999985
 30
0.0
 11
-127.5402
 21
20.67180000000002
 31
0.0
  0
LINE
  8
0
 62
0
 10
-113.5276
 20
6.6591999999999985
 30
0.0
 11
-127.5402
 21
6.6591999999999985
 31
0.0
  0
LINE
  8
0
 62
0
 10
-127.5402
 20
20.67180000000002
 30
0.0
 11
-113.5276
 21
20.67180000000002
 31
0.0
  0
LINE
  8
0
 62
0
 10
-113.5276
 20
20.67180000000002
 30
0.0
 11
-113.5276
 21
6.6591999999999985
 31
0.0
  0
LINE
  8
0
 62
0
 10
-94.47760000000001
 20
25.434300000000007
 30
0.0
 11
-108.49020000000002
 21
25.434300000000007
 31
0.0
  0
LINE
  8
0
 62
0
 10
-94.47760000000001
 20
11.421700000000016
 30
0.0
 11
-94.47760000000001
 21
25.434300000000007
 31
0.0
  0
LINE
  8
0
 62
0
 10
-108.4902
 20
25.434300000000007
 30
0.0
 11
-108.4902
 21
11.421700000000016
 31
0.0
  0
LINE
  8
0
 62
0
 10
-108.4902
 20
11.421700000000016
 30
0.0
 11
-94.4776
 21
11.421700000000016
 31
0.0
  0
CIRCLE
  8
0
 62
0
 10
-130.06386865234376
 20
23.138747680664068
 30
0.0
 40
1.05
  0
CIRCLE
  8
0
 62
0
 10
-98.1892958984375
 20
48.028563964843755
 30
0.0
 40
1.05
  0
LINE
  8
0
 62
0
 10
-94.47760000000001
 20
44.484300000000005
 30
0.0
 11
-94.47760000000001
 21
30.4717
 31
0.0
  0
LINE
  8
0
 62
0
 10
-108.4902
 20
44.484300000000005
 30
0.0
 11
-94.4776
 21
44.484300000000005
 31
0.0
  0
LINE
  8
0
 62
0
 10
-94.47760000000001
 20
30.4717
 30
0.0
 11
-108.49020000000002
 21
30.4717
 31
0.0
  0
LINE
  8
0
 62
0
 10
-108.4902
 20
30.4717
 30
0.0
 11
-108.4902
 21
44.484300000000005
 31
0.0
  0
LINE
  8
0
 62
0
 10
-89.4402
 20
46.8545
 30
0.0
 11
-89.4402
 21
32.86330000000001
 31
0.0
  0
LINE
  8
0
 62
0
 10
-75.42790000000001
 20
46.8545
 30
0.0
 11
-89.4402
 21
46.8545
 31
0.0
  0
LINE
  8
0
 62
0
 10
-89.4402
 20
32.86330000000001
 30
0.0
 11
-75.42790000000001
 21
32.86330000000001
 31
0.0
  0
LINE
  8
0
 62
0
 10
-75.42790000000001
 20
32.86330000000001
 30
0.0
 11
-75.42790000000001
 21
46.8545
 31
0.0
  0
LINE
  8
0
 62
0
 10
-51.33990000000001
 20
28.100799999999992
 30
0.0
 11
-51.33990000000001
 21
42.09200000000001
 31
0.0
  0
LINE
  8
0
 62
0
 10
-37.327900000000014
 20
28.100799999999992
 30
0.0
 11
-51.33990000000001
 21
28.100799999999992
 31
0.0
  0
LINE
  8
0
 62
0
 10
-51.33990000000001
 20
42.09200000000001
 30
0.0
 11
-37.327900000000014
 21
42.09200000000001
 31
0.0
  0
LINE
  8
0
 62
0
 10
-37.327900000000014
 20
42.09200000000001
 30
0.0
 11
-37.327900000000014
 21
28.100799999999992
 31
0.0
  0
LINE
  8
0
 62
0
 10
-70.38990000000001
 20
30.4717
 30
0.0
 11
-70.38990000000001
 21
44.484300000000005
 31
0.0
  0
LINE
  8
0
 62
0
 10
-56.377900000000004
 20
30.4717
 30
0.0
 11
-70.38990000000001
 21
30.4717
 31
0.0
  0
LINE
  8
0
 62
0
 10
-70.38990000000001
 20
44.484300000000005
 30
0.0
 11
-56.37790000000001
 21
44.484300000000005
 31
0.0
  0
LINE
  8
0
 62
0
 10
-56.377900000000004
 20
44.484300000000005
 30
0.0
 11
-56.377900000000004
 21
30.4717
 31
0.0
  0
LINE
  8
0
 62
0
 10
-146.5902
 20
1.6218000000000075
 30
0.0
 11
-146.5902
 21
-12.390799999999984
 31
0.0
  0
LINE
  8
0
 62
0
 10
-132.57760000000002
 20
1.6218000000000075
 30
0.0
 11
-146.5902
 21
1.6218000000000075
 31
0.0
  0
LINE
  8
0
 62
0
 10
-146.5902
 20
-12.390799999999984
 30
0.0
 11
-132.57760000000002
 21
-12.390799999999984
 31
0.0
  0
LINE
  8
0
 62
0
 10
-132.57760000000002
 20
-12.390799999999984
 30
0.0
 11
-132.57760000000002
 21
1.6218000000000075
 31
0.0
  0
LINE
  8
0
 62
0
 10
-146.5902
 20
20.67180000000002
 30
0.0
 11
-146.5902
 21
6.6591999999999985
 31
0.0
  0
LINE
  8
0
 62
0
 10
-132.57760000000002
 20
20.67180000000002
 30
0.0
 11
-146.5902
 21
20.67180000000002
 31
0.0
  0
LINE
  8
0
 62
0
 10
-146.5902
 20
6.6591999999999985
 30
0.0
 11
-132.57760000000002
 21
6.6591999999999985
 31
0.0
  0
LINE
  8
0
 62
0
 10
-132.57760000000002
 20
6.6591999999999985
 30
0.0
 11
-132.57760000000002
 21
20.67180000000002
 31
0.0
  0
LINE
  8
0
 62
0
 10
-132.57760000000002
 20
39.7218
 30
0.0
 11
-146.5902
 21
39.7218
 31
0.0
  0
LINE
  8
0
 62
0
 10
-132.57760000000002
 20
25.70920000000001
 30
0.0
 11
-132.57760000000002
 21
39.7218
 31
0.0
  0
LINE
  8
0
 62
0
 10
-146.5902
 20
39.7218
 30
0.0
 11
-146.5902
 21
25.70920000000001
 31
0.0
  0
LINE
  8
0
 62
0
 10
-146.5902
 20
25.70920000000001
 30
0.0
 11
-132.57760000000002
 21
25.70920000000001
 31
0.0
  0
LINE
  8
0
 62
0
 10
-146.5902
 20
-31.440799999999996
 30
0.0
 11
-132.57760000000002
 21
-31.440799999999996
 31
0.0
  0
LINE
  8
0
 62
0
 10
-146.5902
 20
-17.428200000000004
 30
0.0
 11
-146.5902
 21
-31.440799999999996
 31
0.0
  0
LINE
  8
0
 62
0
 10
-132.57760000000002
 20
-31.440799999999996
 30
0.0
 11
-132.57760000000002
 21
-17.428200000000004
 31
0.0
  0
LINE
  8
0
 62
0
 10
-132.57760000000002
 20
-17.428200000000004
 30
0.0
 11
-146.5902
 21
-17.428200000000004
 31
0.0
  0
LINE
  8
0
 62
0
 10
-146.5902
 20
-36.47889999999998
 30
0.0
 11
-146.5902
 21
-50.490700000000004
 31
0.0
  0
LINE
  8
0
 62
0
 10
-132.57760000000002
 20
-36.47889999999998
 30
0.0
 11
-146.5902
 21
-36.47889999999998
 31
0.0
  0
LINE
  8
0
 62
0
 10
-146.5902
 20
-50.490700000000004
 30
0.0
 11
-132.57760000000002
 21
-50.490700000000004
 31
0.0
  0
LINE
  8
0
 62
0
 10
-132.57760000000002
 20
-50.490700000000004
 30
0.0
 11
-132.57760000000002
 21
-36.47889999999998
 31
0.0
  0
LINE
  8
0
 62
0
 10
-127.5402
 20
-50.490700000000004
 30
0.0
 11
-127.5402
 21
-36.47889999999998
 31
0.0
  0
LINE
  8
0
 62
0
 10
-113.5276
 20
-50.490700000000004
 30
0.0
 11
-127.5402
 21
-50.490700000000004
 31
0.0
  0
LINE
  8
0
 62
0
 10
-127.5402
 20
-36.47889999999998
 30
0.0
 11
-113.5276
 21
-36.47889999999998
 31
0.0
  0
LINE
  8
0
 62
0
 10
-113.5276
 20
-36.47889999999998
 30
0.0
 11
-113.5276
 21
-50.490700000000004
 31
0.0
  0
CIRCLE
  8
0
 62
0
 10
-12.350081573486335
 20
-31.428421508789057
 30
0.0
 40
1.05
  0
ENDBLK
  0
BLOCK
  8
0
  2
PART__MIRRORING
 70
0
 10
0.0
 20
0.0
 30
0.0
  3
PART__MIRRORING
  0
LINE
  8
0
 62
0
 10
65.42410029803057
 20
-53.3879
 30
0.0
 11
65.42360029803056
 21
-53.3886
 31
0.0
  0
LINE
  8
0
 62
0
 10
65.42360029803058
 20
-53.3886
 30
0.0
 11
64.32360029803061
 21
-53.3886
 31
0.0
  0
LINE
  8
0
 62
0
 10
64.32360029803061
 20
-53.3886
 30
0.0
 11
62.644100298030665
 21
-53.83849999999998
 31
0.0
  0
LINE
  8
0
 62
0
 10
62.64410029803065
 20
-53.83849999999998
 30
0.0
 11
61.69120029803068
 21
-54.387699999999995
 31
0.0
  0
LINE
  8
0
 62
0
 10
61.69120029803065
 20
-54.387699999999995
 30
0.0
 11
26.29770029803165
 21
-74.8075
 31
0.0
  0
LINE
  8
0
 62
0
 10
26.297700298031657
 20
-74.8075
 30
0.0
 11
25.344800298031686
 21
-75.35729999999998
 31
0.0
  0
LINE
  8
0
 62
0
 10
25.344800298031714
 20
-75.35729999999998
 30
0.0
 11
24.114200298031754
 21
-75.02799999999999
 31
0.0
  0
LINE
  8
0
 62
0
 10
24.114200298031733
 20
-75.02799999999999
 30
0.0
 11
23.56290029803175
 21
-74.0764
 31
0.0
  0
LINE
  8
0
 62
0
 10
23.562900298031764
 20
-74.0764
 30
0.0
 11
6.323500298032247
 21
-44.29909999999998
 31
0.0
  0
LINE
  8
0
 62
0
 10
6.323500298032229
 20
-44.29909999999998
 30
0.0
 11
5.77230029803225
 21
-43.3468
 31
0.0
  0
LINE
  8
0
 62
0
 10
5.772300298032292
 20
-43.3468
 30
0.0
 11
5.918400298032277
 21
-41.895099999999985
 31
0.0
  0
LINE
  8
0
 62
0
 10
5.918400298032225
 20
-41.895099999999985
 30
0.0
 11
6.648700298032203
 21
-41.07239999999999
 31
0.0
  0
LINE
  8
0
 62
0
 10
6.6487002980322245
 20
-41.07239999999999
 30
0.0
 11
22.728600298031775
 21
-22.950500000000005
 31
0.0
  0
LINE
  8
0
 62
0
 10
22.72860029803178
 20
-22.950500000000005
 30
0.0
 11
23.190600298031754
 21
-22.4298
 31
0.0
  0
LINE
  8
0
 62
0
 10
23.190600298031768
 20
-22.4298
 30
0.0
 11
23.599400298031757
 21
-21.6087
 31
0.0
  0
LINE
  8
0
 62
0
 10
23.599400298031753
 20
-21.6087
 30
0.0
 11
23.837400298031746
 21
-20.7971
 31
0.0
  0
LINE
  8
0
 62
0
 10
23.837400298031753
 20
-20.7971
 30
0.0
 11
23.95520029803175
 21
-20.395399999999995
 31
0.0
  0
LINE
  8
0
 62
0
 10
23.95520029803174
 20
-20.395399999999995
 30
0.0
 11
24.031100298031742
 21
-19.996099999999984
 31
0.0
  0
LINE
  8
0
 62
0
 10
24.03110029803173
 20
-19.996099999999984
 30
0.0
 11
24.05080029803173
 21
-19.63669999999999
 31
0.0
  0
LINE
  8
0
 62
0
 10
24.05080029803173
 20
-19.63669999999999
 30
0.0
 11
24.05420029803173
 21
-19.574899999999985
 31
0.0
  0
LINE
  8
0
 62
0
 10
24.05420029803173
 20
-19.574899999999985
 30
0.0
 11
24.056000298031734
 21
-19.51429999999999
 31
0.0
  0
LINE
  8
0
 62
0
 10
24.056000298031734
 20
-19.51429999999999
 30
0.0
 11
24.056000298031734
 21
-19.455099999999987
 31
0.0
  0
LINE
  8
0
 62
0
 10
24.056000298031734
 20
-19.455099999999987
 30
0.0
 11
24.053900298031735
 21
32.971700000000006
 31
0.0
  0
LINE
  8
0
 62
0
 10
24.05390029803175
 20
32.9717
 30
0.0
 11
24.05390029803175
 21
34.072
 31
0.0
  0
LINE
  8
0
 62
0
 10
24.05390029803175
 20
34.072
 30
0.0
 11
24.556900298031735
 21
35.71810000000002
 31
0.0
  0
LINE
  8
0
 62
0
 10
24.556900298031735
 20
35.71810000000002
 30
0.0
 11
25.17170029803172
 21
36.630300000000005
 31
0.0
  0
LINE
  8
0
 62
0
 10
25.171700298031737
 20
36.630300000000005
 30
0.0
 11
30.98110029803157
 21
45.2513
 31
0.0
  0
LINE
  8
0
 62
0
 10
31.59590029803155
 20
46.1636
 30
0.0
 11
32.9989002980315
 21
46.909800000000004
 31
0.0
  0
LINE
  8
0
 62
0
 10
30.98110029803155
 20
45.2513
 30
0.0
 11
31.595900298031534
 21
46.1636
 31
0.0
  0
LINE
  8
0
 62
0
 10
158.13600029802794
 20
-52.4881
 30
0.0
 11
157.23590029802796
 21
-53.3879
 31
0.0
  0
LINE
  8
0
 62
0
 10
157.25780029802797
 20
42.9083
 30
0.0
 11
158.13600029802794
 21
41.81110000000001
 31
0.0
  0
LINE
  8
0
 62
0
 10
156.184700298028
 20
43.1499
 30
0.0
 11
157.25780029802797
 21
42.9083
 31
0.0
  0
LINE
  8
0
 62
0
 10
103.06440029802951
 20
55.0912
 30
0.0
 11
156.18470029802802
 21
43.1499
 31
0.0
  0
LINE
  8
0
 62
0
 10
101.99120029802953
 20
55.33240000000001
 30
0.0
 11
103.0644002980295
 21
55.0912
 31
0.0
  0
LINE
  8
0
 62
0
 10
100.21310029802959
 20
55.53020000000001
 30
0.0
 11
101.99120029802954
 21
55.33240000000001
 31
0.0
  0
LINE
  8
0
 62
0
 10
61.54800029803067
 20
55.010000000000005
 30
0.0
 11
63.182700298030625
 21
55.53020000000001
 31
0.0
  0
LINE
  8
0
 62
0
 10
60.65010029803068
 20
54.374700000000004
 30
0.0
 11
61.54800029803065
 21
55.010000000000005
 31
0.0
  0
LINE
  8
0
 62
0
 10
51.73110029803098
 20
48.06500000000001
 30
0.0
 11
60.65010029803072
 21
54.374700000000004
 31
0.0
  0
LINE
  8
0
 62
0
 10
50.83310029803101
 20
47.42970000000001
 30
0.0
 11
51.73110029803099
 21
48.06500000000001
 31
0.0
  0
LINE
  8
0
 62
0
 10
49.19840029803106
 20
46.909800000000004
 30
0.0
 11
50.83310029803101
 21
47.42970000000001
 31
0.0
  0
POLYLINE
  8
0
 62
0
 70
0
 66
1
 10
0.0
 20
0.0
 30
0.0
  0
VERTEX
  8
0
 10
42.5592986226162
 20
25.60215295410157
 30
0.0
  0
VERTEX
  8
0
 10
44.659298622616134
 20
25.60215295410157
 30
0.0
  0
VERTEX
  8
0
 10
42.5592986226162
 20
25.60215295410157
 30
0.0
  0
SEQEND
  8
0
  0
LINE
  8
0
 62
0
 10
46.11690029803111
 20
22.965000000000003
 30
0.0
 11
60.12890029803071
 21
22.965000000000003
 31
0.0
  0
LINE
  8
0
 62
0
 10
46.11690029803111
 20
8.973800000000011
 30
0.0
 11
46.11690029803111
 21
22.965000000000003
 31
0.0
  0
LINE
  8
0
 62
0
 10
60.128900298030715
 20
22.965000000000003
 30
0.0
 11
60.128900298030715
 21
8.973800000000011
 31
0.0
  0
LINE
  8
0
 62
0
 10
60.128900298030715
 20
8.973800000000011
 30
0.0
 11
46.11690029803112
 21
8.973800000000011
 31
0.0
  0
LINE
  8
0
 62
0
 10
79.17890029803016
 20
11.344700000000017
 30
0.0
 11
79.17890029803016
 21
25.35730000000001
 31
0.0
  0
LINE
  8
0
 62
0
 10
65.16690029803055
 20
11.344700000000017
 30
0.0
 11
79.17890029803016
 21
11.344700000000017
 31
0.0
  0
LINE
  8
0
 62
0
 10
79.17890029803016
 20
25.35730000000001
 30
0.0
 11
65.16690029803055
 21
25.35730000000001
 31
0.0
  0
LINE
  8
0
 62
0
 10
65.16690029803055
 20
25.35730000000001
 30
0.0
 11
65.16690029803055
 21
11.344700000000017
 31
0.0
  0
LINE
  8
0
 62
0
 10
79.17890029803016
 20
-26.755200000000002
 30
0.0
 11
79.17890029803016
 21
-12.742699999999985
 31
0.0
  0
LINE
  8
0
 62
0
 10
65.16690029803055
 20
-26.755200000000002
 30
0.0
 11
79.17890029803016
 21
-26.755200000000002
 31
0.0
  0
LINE
  8
0
 62
0
 10
79.17890029803016
 20
-12.742699999999985
 30
0.0
 11
65.16690029803055
 21
-12.742699999999985
 31
0.0
  0
LINE
  8
0
 62
0
 10
65.16690029803055
 20
-12.742699999999985
 30
0.0
 11
65.16690029803055
 21
-26.755200000000002
 31
0.0
  0
LINE
  8
0
 62
0
 10
79.17890029803016
 20
-7.705299999999994
 30
0.0
 11
79.17890029803016
 21
6.307299999999998
 31
0.0
  0
LINE
  8
0
 62
0
 10
65.16690029803055
 20
-7.705299999999994
 30
0.0
 11
79.17890029803016
 21
-7.705299999999994
 31
0.0
  0
LINE
  8
0
 62
0
 10
79.17890029803016
 20
6.307299999999998
 30
0.0
 11
65.16690029803055
 21
6.307299999999998
 31
0.0
  0
LINE
  8
0
 62
0
 10
65.16690029803055
 20
6.307299999999998
 30
0.0
 11
65.16690029803055
 21
-7.705299999999994
 31
0.0
  0
LINE
  8
0
 62
0
 10
46.11690029803111
 20
3.9150000000000205
 30
0.0
 11
60.12890029803071
 21
3.9150000000000205
 31
0.0
  0
LINE
  8
0
 62
0
 10
46.11690029803111
 20
-10.0762
 30
0.0
 11
46.11690029803111
 21
3.9150000000000205
 31
0.0
  0
LINE
  8
0
 62
0
 10
60.128900298030715
 20
3.9150000000000205
 30
0.0
 11
60.128900298030715
 21
-10.0762
 31
0.0
  0
LINE
  8
0
 62
0
 10
60.128900298030715
 20
-10.0762
 30
0.0
 11
46.11690029803112
 21
-10.0762
 31
0.0
  0
LINE
  8
0
 62
0
 10
98.22920029802964
 20
13.7363
 30
0.0
 11
98.22920029802964
 21
27.72750000000002
 31
0.0
  0
LINE
  8
0
 62
0
 10
84.21690029803003
 20
13.7363
 30
0.0
 11
98.22920029802962
 21
13.7363
 31
0.0
  0
LINE
  8
0
 62
0
 10
98.22920029802964
 20
27.72750000000002
 30
0.0
 11
84.21690029803004
 21
27.72750000000002
 31
0.0
  0
LINE
  8
0
 62
0
 10
84.21690029803003
 20
27.72750000000002
 30
0.0
 11
84.21690029803003
 21
13.7363
 31
0.0
  0
LINE
  8
0
 62
0
 10
41.07890029803127
 20
18.498800000000017
 30
0.0
 11
41.07890029803127
 21
32.49000000000001
 31
0.0
  0
LINE
  8
0
 62
0
 10
27.06690029803167
 20
18.498800000000017
 30
0.0
 11
41.07890029803127
 21
18.498800000000017
 31
0.0
  0
LINE
  8
0
 62
0
 10
41.07890029803127
 20
32.49000000000001
 30
0.0
 11
27.06690029803167
 21
32.49000000000001
 31
0.0
  0
LINE
  8
0
 62
0
 10
27.06690029803167
 20
32.49000000000001
 30
0.0
 11
27.06690029803167
 21
18.498800000000017
 31
0.0
  0
LINE
  8
0
 62
0
 10
41.07890029803127
 20
-0.5511999999999944
 30
0.0
 11
41.07890029803127
 21
13.439999999999998
 31
0.0
  0
LINE
  8
0
 62
0
 10
27.06690029803167
 20
-0.5511999999999944
 30
0.0
 11
41.07890029803127
 21
-0.5511999999999944
 31
0.0
  0
LINE
  8
0
 62
0
 10
41.07890029803127
 20
13.439999999999998
 30
0.0
 11
27.06690029803167
 21
13.439999999999998
 31
0.0
  0
LINE
  8
0
 62
0
 10
27.06690029803167
 20
13.439999999999998
 30
0.0
 11
27.06690029803167
 21
-0.5511999999999944
 31
0.0
  0
LINE
  8
0
 62
0
 10
39.10860029803132
 20
-29.615399999999994
 30
0.0
 11
39.10820029803132
 21
-29.6147
 31
0.0
  0
LINE
  8
0
 62
0
 10
39.762500298031284
 20
-29.237799999999993
 30
0.0
 11
39.10860029803131
 21
-29.615399999999994
 31
0.0
  0
LINE
  8
0
 62
0
 10
39.108200298031306
 20
-29.6147
 30
0.0
 11
37.62070029803135
 21
-27.037800000000004
 31
0.0
  0
LINE
  8
0
 62
0
 10
41.412300298031255
 20
-32.0958
 30
0.0
 11
39.762500298031306
 21
-29.237799999999993
 31
0.0
  0
LINE
  8
0
 62
0
 10
37.62070029803135
 20
-27.037800000000004
 30
0.0
 11
25.499500298031695
 21
-34.035499999999985
 31
0.0
  0
LINE
  8
0
 62
0
 10
40.75880029803125
 20
-32.4734
 30
0.0
 11
41.41230029803122
 21
-32.0958
 31
0.0
  0
LINE
  8
0
 62
0
 10
25.499500298031705
 20
-34.035499999999985
 30
0.0
 11
42.018700298031234
 21
-62.64759999999998
 31
0.0
  0
LINE
  8
0
 62
0
 10
40.758500298031265
 20
-32.4734
 30
0.0
 11
40.75880029803126
 21
-32.4734
 31
0.0
  0
LINE
  8
0
 62
0
 10
42.01870029803126
 20
-62.64759999999998
 30
0.0
 11
54.13950029803091
 21
-55.64929999999998
 31
0.0
  0
LINE
  8
0
 62
0
 10
51.008600298030956
 20
-50.226699999999994
 30
0.0
 11
40.75850029803125
 21
-32.4734
 31
0.0
  0
LINE
  8
0
 62
0
 10
54.139500298030896
 20
-55.64929999999998
 30
0.0
 11
52.65820029803094
 21
-53.084
 31
0.0
  0
LINE
  8
0
 62
0
 10
51.66250029803098
 20
-49.84909999999999
 30
0.0
 11
51.008600298031
 21
-50.226699999999994
 31
0.0
  0
LINE
  8
0
 62
0
 10
52.65820029803092
 20
-53.084
 30
0.0
 11
52.65850029803092
 21
-53.084
 31
0.0
  0
LINE
  8
0
 62
0
 10
53.31200029803091
 20
-52.706500000000005
 30
0.0
 11
51.662500298030956
 21
-49.84909999999999
 31
0.0
  0
LINE
  8
0
 62
0
 10
52.65850029803096
 20
-53.084
 30
0.0
 11
53.31200029803094
 21
-52.706500000000005
 31
0.0
  0
LINE
  8
0
 62
0
 10
58.52030029803075
 20
-53.128799999999984
 30
0.0
 11
70.62780029803041
 21
-46.12289999999999
 31
0.0
  0
LINE
  8
0
 62
0
 10
51.51410029803094
 20
-41.000699999999995
 30
0.0
 11
58.52030029803074
 21
-53.128799999999984
 31
0.0
  0
LINE
  8
0
 62
0
 10
70.62780029803042
 20
-46.12289999999999
 30
0.0
 11
63.64280029803062
 21
-33.9941
 31
0.0
  0
LINE
  8
0
 62
0
 10
63.642800298030636
 20
-33.9941
 30
0.0
 11
51.51410029803098
 21
-41.000699999999995
 31
0.0
  0
LINE
  8
0
 62
0
 10
22.609000298031788
 20
-39.1404
 30
0.0
 11
22.60860029803179
 21
-39.139700000000005
 31
0.0
  0
LINE
  8
0
 62
0
 10
23.262900298031752
 20
-38.7628
 30
0.0
 11
22.609000298031777
 21
-39.1404
 31
0.0
  0
LINE
  8
0
 62
0
 10
22.608600298031774
 20
-39.139700000000005
 30
0.0
 11
21.12110029803182
 21
-36.56279999999998
 31
0.0
  0
LINE
  8
0
 62
0
 10
24.912700298031723
 20
-41.6208
 30
0.0
 11
23.262900298031756
 21
-38.7628
 31
0.0
  0
LINE
  8
0
 62
0
 10
21.12110029803182
 20
-36.56279999999998
 30
0.0
 11
8.999700298032156
 21
-43.56049999999999
 31
0.0
  0
LINE
  8
0
 62
0
 10
24.259200298031715
 20
-41.998400000000004
 30
0.0
 11
24.912700298031705
 21
-41.6208
 31
0.0
  0
LINE
  8
0
 62
0
 10
8.999700298032167
 20
-43.56049999999999
 30
0.0
 11
25.519100298031702
 21
-72.17259999999999
 31
0.0
  0
LINE
  8
0
 62
0
 10
34.509000298031424
 20
-59.7517
 30
0.0
 11
24.259200298031708
 21
-41.998400000000004
 31
0.0
  0
LINE
  8
0
 62
0
 10
25.51910029803173
 20
-72.17259999999999
 30
0.0
 11
37.63990029803139
 21
-65.17429999999999
 31
0.0
  0
LINE
  8
0
 62
0
 10
35.16300029803142
 20
-59.3741
 30
0.0
 11
34.509000298031445
 21
-59.7517
 31
0.0
  0
LINE
  8
0
 62
0
 10
37.639900298031364
 20
-65.17429999999999
 30
0.0
 11
36.1586002980314
 21
-62.60899999999998
 31
0.0
  0
LINE
  8
0
 62
0
 10
36.81240029803138
 20
-62.23149999999998
 30
0.0
 11
35.16300029803143
 21
-59.3741
 31
0.0
  0
LINE
  8
0
 62
0
 10
36.15860029803139
 20
-62.60899999999998
 30
0.0
 11
36.158900298031384
 21
-62.60899999999998
 31
0.0
  0
LINE
  8
0
 62
0
 10
36.158900298031426
 20
-62.60899999999998
 30
0.0
 11
36.81240029803141
 21
-62.23149999999998
 31
0.0
  0
POLYLINE
  8
0
 62
0
 70
0
 66
1
 10
0.0
 20
0.0
 30
0.0
  0
VERTEX
  8
0
 10
48.52610265017334
 20
-34.08723150634765
 30
0.0
  0
VERTEX
  8
0
 10
50.62610265017328
 20
-34.08723150634765
 30
0.0
  0
VERTEX
  8
0
 10
48.52610265017334
 20
-34.08723150634765
 30
0.0
  0
SEQEND
  8
0
  0
LINE
  8
0
 62
0
 10
46.11690029803111
 20
-15.134299999999996
 30
0.0
 11
60.12890029803071
 21
-15.134299999999996
 31
0.0
  0
LINE
  8
0
 62
0
 10
46.11690029803111
 20
-29.126199999999983
 30
0.0
 11
46.11690029803111
 21
-15.134299999999996
 31
0.0
  0
LINE
  8
0
 62
0
 10
60.128900298030715
 20
-15.134299999999996
 30
0.0
 11
60.128900298030715
 21
-29.126199999999983
 31
0.0
  0
LINE
  8
0
 62
0
 10
60.128900298030715
 20
-29.126199999999983
 30
0.0
 11
46.11690029803112
 21
-29.126199999999983
 31
0.0
  0
LINE
  8
0
 62
0
 10
41.07890029803127
 20
-19.600499999999982
 30
0.0
 11
41.07890029803127
 21
-5.609999999999985
 31
0.0
  0
LINE
  8
0
 62
0
 10
27.06690029803167
 20
-19.600499999999982
 30
0.0
 11
41.07890029803127
 21
-19.600499999999982
 31
0.0
  0
LINE
  8
0
 62
0
 10
41.07890029803127
 20
-5.609999999999985
 30
0.0
 11
27.06690029803167
 21
-5.609999999999985
 31
0.0
  0
LINE
  8
0
 62
0
 10
27.06690029803167
 20
-5.609999999999985
 30
0.0
 11
27.06690029803167
 21
-19.600499999999982
 31
0.0
  0
POLYLINE
  8
0
 62
0
 70
0
 66
1
 10
0.0
 20
0.0
 30
0.0
  0
VERTEX
  8
0
 10
137.80286895037224
 20
-34.341847290039055
 30
0.0
  0
VERTEX
  8
0
 10
139.9028689503722
 20
-34.341847290039055
 30
0.0
  0
VERTEX
  8
0
 10
137.80286895037224
 20
-34.341847290039055
 30
0.0
  0
SEQEND
  8
0
  0
LINE
  8
0
 62
0
 10
136.32920029802855
 20
-31.517799999999994
 30
0.0
 11
136.32920029802855
 21
-17.505200000000002
 31
0.0
  0
LINE
  8
0
 62
0
 10
122.31660029802896
 20
-31.517799999999994
 30
0.0
 11
136.32920029802855
 21
-31.517799999999994
 31
0.0
  0
LINE
  8
0
 62
0
 10
136.32920029802855
 20
-17.505200000000002
 30
0.0
 11
122.31660029802896
 21
-17.505200000000002
 31
0.0
  0
LINE
  8
0
 62
0
 10
122.31660029802896
 20
-17.505200000000002
 30
0.0
 11
122.31660029802896
 21
-31.517799999999994
 31
0.0
  0
LINE
  8
0
 62
0
 10
117.27920029802908
 20
-26.755200000000002
 30
0.0
 11
117.27920029802908
 21
-12.742699999999985
 31
0.0
  0
LINE
  8
0
 62
0
 10
103.26660029802949
 20
-26.755200000000002
 30
0.0
 11
117.27920029802908
 21
-26.755200000000002
 31
0.0
  0
LINE
  8
0
 62
0
 10
117.27920029802908
 20
-12.742699999999985
 30
0.0
 11
103.26660029802949
 21
-12.742699999999985
 31
0.0
  0
LINE
  8
0
 62
0
 10
103.26660029802949
 20
-12.742699999999985
 30
0.0
 11
103.26660029802949
 21
-26.755200000000002
 31
0.0
  0
LINE
  8
0
 62
0
 10
103.26660029802949
 20
-31.79339999999999
 30
0.0
 11
117.27920029802908
 21
-31.79339999999999
 31
0.0
  0
LINE
  8
0
 62
0
 10
103.26660029802949
 20
-45.80529999999999
 30
0.0
 11
103.26660029802949
 21
-31.79339999999999
 31
0.0
  0
LINE
  8
0
 62
0
 10
117.27920029802908
 20
-31.79339999999999
 30
0.0
 11
117.27920029802908
 21
-45.80529999999999
 31
0.0
  0
LINE
  8
0
 62
0
 10
117.27920029802908
 20
-45.80529999999999
 30
0.0
 11
103.26660029802949
 21
-45.80529999999999
 31
0.0
  0
LINE
  8
0
 62
0
 10
136.32920029802855
 20
-12.467799999999983
 30
0.0
 11
136.32920029802855
 21
1.5448000000000093
 31
0.0
  0
LINE
  8
0
 62
0
 10
122.31660029802896
 20
-12.467799999999983
 30
0.0
 11
136.32920029802855
 21
-12.467799999999983
 31
0.0
  0
LINE
  8
0
 62
0
 10
136.32920029802855
 20
1.5448000000000093
 30
0.0
 11
122.31660029802896
 21
1.5448000000000093
 31
0.0
  0
LINE
  8
0
 62
0
 10
122.31660029802896
 20
1.5448000000000093
 30
0.0
 11
122.31660029802896
 21
-12.467799999999983
 31
0.0
  0
LINE
  8
0
 62
0
 10
98.22920029802964
 20
-5.313699999999983
 30
0.0
 11
98.22920029802964
 21
8.677500000000009
 31
0.0
  0
LINE
  8
0
 62
0
 10
84.21690029803003
 20
-5.313699999999983
 30
0.0
 11
98.22920029802962
 21
-5.313699999999983
 31
0.0
  0
LINE
  8
0
 62
0
 10
98.22920029802964
 20
8.677500000000009
 30
0.0
 11
84.21690029803004
 21
8.677500000000009
 31
0.0
  0
LINE
  8
0
 62
0
 10
84.21690029803003
 20
8.677500000000009
 30
0.0
 11
84.21690029803003
 21
-5.313699999999983
 31
0.0
  0
POLYLINE
  8
0
 62
0
 70
0
 66
1
 10
0.0
 20
0.0
 30
0.0
  0
VERTEX
  8
0
 10
99.71000777483623
 20
8.83646691894532
 30
0.0
  0
VERTEX
  8
0
 10
101.81000777483617
 20
8.83646691894532
 30
0.0
  0
VERTEX
  8
0
 10
99.71000777483623
 20
8.83646691894532
 30
0.0
  0
SEQEND
  8
0
  0
LINE
  8
0
 62
0
 10
117.27920029802908
 20
-7.705299999999994
 30
0.0
 11
117.27920029802908
 21
6.307299999999998
 31
0.0
  0
LINE
  8
0
 62
0
 10
103.26660029802949
 20
-7.705299999999994
 30
0.0
 11
117.27920029802908
 21
-7.705299999999994
 31
0.0
  0
LINE
  8
0
 62
0
 10
117.27920029802908
 20
6.307299999999998
 30
0.0
 11
103.26660029802949
 21
6.307299999999998
 31
0.0
  0
LINE
  8
0
 62
0
 10
103.26660029802949
 20
6.307299999999998
 30
0.0
 11
103.26660029802949
 21
-7.705299999999994
 31
0.0
  0
LINE
  8
0
 62
0
 10
98.22793537035625
 20
-43.43535981445311
 30
0.0
 11
98.22793537035625
 21
-29.422759814453116
 31
0.0
  0
LINE
  8
0
 62
0
 10
84.21593537035665
 20
-43.43535981445311
 30
0.0
 11
98.22793537035625
 21
-43.43535981445311
 31
0.0
  0
LINE
  8
0
 62
0
 10
98.22793537035625
 20
-29.422759814453116
 30
0.0
 11
84.21593537035665
 21
-29.422759814453116
 31
0.0
  0
LINE
  8
0
 62
0
 10
84.21593537035665
 20
-29.422759814453116
 30
0.0
 11
84.21593537035665
 21
-43.43535981445311
 31
0.0
  0
LINE
  8
0
 62
0
 10
98.22920029802964
 20
-24.363
 30
0.0
 11
98.22920029802964
 21
-10.372500000000002
 31
0.0
  0
LINE
  8
0
 62
0
 10
84.21690029803003
 20
-24.363
 30
0.0
 11
98.22920029802962
 21
-24.363
 31
0.0
  0
LINE
  8
0
 62
0
 10
98.22920029802964
 20
-10.372500000000002
 30
0.0
 11
84.21690029803004
 21
-10.372500000000002
 31
0.0
  0
LINE
  8
0
 62
0
 10
84.21690029803003
 20
-10.372500000000002
 30
0.0
 11
84.21690029803003
 21
-24.363
 31
0.0
  0
POLYLINE
  8
0
 62
0
 70
0
 66
1
 10
0.0
 20
0.0
 30
0.0
  0
VERTEX
  8
0
 10
99.19883738756816
 20
-26.721485961914055
 30
0.0
  0
VERTEX
  8
0
 10
101.2988373875681
 20
-26.721485961914055
 30
0.0
  0
VERTEX
  8
0
 10
99.19883738756816
 20
-26.721485961914055
 30
0.0
  0
SEQEND
  8
0
  0
LINE
  8
0
 62
0
 10
136.32920029802855
 20
39.644800000000004
 30
0.0
 11
136.32920029802855
 21
25.63220000000001
 31
0.0
  0
LINE
  8
0
 62
0
 10
122.31660029802896
 20
39.644800000000004
 30
0.0
 11
136.32920029802855
 21
39.644800000000004
 31
0.0
  0
LINE
  8
0
 62
0
 10
136.32920029802855
 20
25.63220000000001
 30
0.0
 11
122.31660029802896
 21
25.63220000000001
 31
0.0
  0
LINE
  8
0
 62
0
 10
122.31660029802896
 20
25.63220000000001
 30
0.0
 11
122.31660029802896
 21
39.644800000000004
 31
0.0
  0
LINE
  8
0
 62
0
 10
136.32920029802855
 20
6.5822
 30
0.0
 11
136.32920029802855
 21
20.59480000000002
 31
0.0
  0
LINE
  8
0
 62
0
 10
122.31660029802896
 20
6.5822
 30
0.0
 11
136.32920029802855
 21
6.5822
 31
0.0
  0
LINE
  8
0
 62
0
 10
136.32920029802855
 20
20.59480000000002
 30
0.0
 11
122.31660029802896
 21
20.59480000000002
 31
0.0
  0
LINE
  8
0
 62
0
 10
122.31660029802896
 20
20.59480000000002
 30
0.0
 11
122.31660029802896
 21
6.5822
 31
0.0
  0
LINE
  8
0
 62
0
 10
103.26660029802949
 20
25.35730000000001
 30
0.0
 11
117.27920029802908
 21
25.35730000000001
 31
0.0
  0
LINE
  8
0
 62
0
 10
103.26660029802949
 20
11.344700000000017
 30
0.0
 11
103.26660029802949
 21
25.35730000000001
 31
0.0
  0
LINE
  8
0
 62
0
 10
117.27920029802908
 20
25.35730000000001
 30
0.0
 11
117.27920029802908
 21
11.344700000000017
 31
0.0
  0
LINE
  8
0
 62
0
 10
117.27920029802908
 20
11.344700000000017
 30
0.0
 11
103.26660029802949
 21
11.344700000000017
 31
0.0
  0
POLYLINE
  8
0
 62
0
 70
0
 66
1
 10
0.0
 20
0.0
 30
0.0
  0
VERTEX
  8
0
 10
137.80286895037224
 20
23.06174768066407
 30
0.0
  0
VERTEX
  8
0
 10
139.9028689503722
 20
23.06174768066407
 30
0.0
  0
VERTEX
  8
0
 10
137.80286895037224
 20
23.06174768066407
 30
0.0
  0
SEQEND
  8
0
  0
POLYLINE
  8
0
 62
0
 70
0
 66
1
 10
0.0
 20
0.0
 30
0.0
  0
VERTEX
  8
0
 10
105.92829619646692
 20
47.95156396484376
 30
0.0
  0
VERTEX
  8
0
 10
108.02829619646685
 20
47.95156396484376
 30
0.0
  0
VERTEX
  8
0
 10
105.92829619646692
 20
47.95156396484376
 30
0.0
  0
SEQEND
  8
0
  0
LINE
  8
0
 62
0
 10
103.26660029802949
 20
44.407300000000006
 30
0.0
 11
103.26660029802949
 21
30.3947
 31
0.0
  0
LINE
  8
0
 62
0
 10
117.27920029802908
 20
44.407300000000006
 30
0.0
 11
103.26660029802949
 21
44.407300000000006
 31
0.0
  0
LINE
  8
0
 62
0
 10
103.26660029802949
 20
30.3947
 30
0.0
 11
117.27920029802908
 21
30.3947
 31
0.0
  0
LINE
  8
0
 62
0
 10
117.27920029802908
 20
30.3947
 30
0.0
 11
117.27920029802908
 21
44.407300000000006
 31
0.0
  0
LINE
  8
0
 62
0
 10
98.22920029802964
 20
46.7775
 30
0.0
 11
98.22920029802964
 21
32.78630000000001
 31
0.0
  0
LINE
  8
0
 62
0
 10
84.21690029803003
 20
46.7775
 30
0.0
 11
98.22920029802962
 21
46.7775
 31
0.0
  0
LINE
  8
0
 62
0
 10
98.22920029802964
 20
32.78630000000001
 30
0.0
 11
84.21690029803004
 21
32.78630000000001
 31
0.0
  0
LINE
  8
0
 62
0
 10
84.21690029803003
 20
32.78630000000001
 30
0.0
 11
84.21690029803003
 21
46.7775
 31
0.0
  0
LINE
  8
0
 62
0
 10
60.128900298030715
 20
28.023799999999994
 30
0.0
 11
60.128900298030715
 21
42.015000000000015
 31
0.0
  0
LINE
  8
0
 62
0
 10
46.11690029803111
 20
28.023799999999994
 30
0.0
 11
60.12890029803071
 21
28.023799999999994
 31
0.0
  0
LINE
  8
0
 62
0
 10
60.128900298030715
 20
42.015000000000015
 30
0.0
 11
46.11690029803112
 21
42.015000000000015
 31
0.0
  0
LINE
  8
0
 62
0
 10
46.11690029803111
 20
42.015000000000015
 30
0.0
 11
46.11690029803111
 21
28.023799999999994
 31
0.0
  0
LINE
  8
0
 62
0
 10
79.17890029803016
 20
30.3947
 30
0.0
 11
79.17890029803016
 21
44.407300000000006
 31
0.0
  0
LINE
  8
0
 62
0
 10
65.16690029803055
 20
30.3947
 30
0.0
 11
79.17890029803016
 21
30.3947
 31
0.0
  0
LINE
  8
0
 62
0
 10
79.17890029803016
 20
44.407300000000006
 30
0.0
 11
65.16690029803055
 21
44.407300000000006
 31
0.0
  0
LINE
  8
0
 62
0
 10
65.16690029803055
 20
44.407300000000006
 30
0.0
 11
65.16690029803055
 21
30.3947
 31
0.0
  0
LINE
  8
0
 62
0
 10
155.37920029802802
 20
1.5448000000000093
 30
0.0
 11
155.37920029802802
 21
-12.467799999999983
 31
0.0
  0
LINE
  8
0
 62
0
 10
141.3666002980284
 20
1.5448000000000093
 30
0.0
 11
155.379200298028
 21
1.5448000000000093
 31
0.0
  0
LINE
  8
0
 62
0
 10
155.37920029802802
 20
-12.467799999999983
 30
0.0
 11
141.36660029802843
 21
-12.467799999999983
 31
0.0
  0
LINE
  8
0
 62
0
 10
141.3666002980284
 20
-12.467799999999983
 30
0.0
 11
141.3666002980284
 21
1.5448000000000093
 31
0.0
  0
LINE
  8
0
 62
0
 10
155.37920029802802
 20
20.59480000000002
 30
0.0
 11
155.37920029802802
 21
6.5822
 31
0.0
  0
LINE
  8
0
 62
0
 10
141.3666002980284
 20
20.59480000000002
 30
0.0
 11
155.379200298028
 21
20.59480000000002
 31
0.0
  0
LINE
  8
0
 62
0
 10
155.37920029802802
 20
6.5822
 30
0.0
 11
141.36660029802843
 21
6.5822
 31
0.0
  0
LINE
  8
0
 62
0
 10
141.3666002980284
 20
6.5822
 30
0.0
 11
141.3666002980284
 21
20.59480000000002
 31
0.0
  0
LINE
  8
0
 62
0
 10
141.3666002980284
 20
39.644800000000004
 30
0.0
 11
155.379200298028
 21
39.644800000000004
 31
0.0
  0
LINE
  8
0
 62
0
 10
141.3666002980284
 20
25.63220000000001
 30
0.0
 11
141.3666002980284
 21
39.644800000000004
 31
0.0
  0
LINE
  8
0
 62
0
 10
155.37920029802802
 20
39.644800000000004
 30
0.0
 11
155.37920029802802
 21
25.63220000000001
 31
0.0
  0
LINE
  8
0
 62
0
 10
155.37920029802802
 20
25.63220000000001
 30
0.0
 11
141.36660029802843
 21
25.63220000000001
 31
0.0
  0
LINE
  8
0
 62
0
 10
155.37920029802802
 20
-31.517799999999994
 30
0.0
 11
141.36660029802843
 21
-31.517799999999994
 31
0.0
  0
LINE
  8
0
 62
0
 10
155.37920029802802
 20
-17.505200000000002
 30
0.0
 11
155.37920029802802
 21
-31.517799999999994
 31
0.0
  0
LINE
  8
0
 62
0
 10
141.3666002980284
 20
-31.517799999999994
 30
0.0
 11
141.3666002980284
 21
-17.505200000000002
 31
0.0
  0
LINE
  8
0
 62
0
 10
141.3666002980284
 20
-17.505200000000002
 30
0.0
 11
155.379200298028
 21
-17.505200000000002
 31
0.0
  0
LINE
  8
0
 62
0
 10
155.37920029802802
 20
-36.55589999999998
 30
0.0
 11
155.37920029802802
 21
-50.5677
 31
0.0
  0
LINE
  8
0
 62
0
 10
141.3666002980284
 20
-36.55589999999998
 30
0.0
 11
155.379200298028
 21
-36.55589999999998
 31
0.0
  0
LINE
  8
0
 62
0
 10
155.37920029802802
 20
-50.5677
 30
0.0
 11
141.36660029802843
 21
-50.5677
 31
0.0
  0
LINE
  8
0
 62
0
 10
141.3666002980284
 20
-50.5677
 30
0.0
 11
141.3666002980284
 21
-36.55589999999998
 31
0.0
  0
LINE
  8
0
 62
0
 10
136.32920029802855
 20
-50.5677
 30
0.0
 11
136.32920029802855
 21
-36.55589999999998
 31
0.0
  0
LINE
  8
0
 62
0
 10
122.31660029802896
 20
-50.5677
 30
0.0
 11
136.32920029802855
 21
-50.5677
 31
0.0
  0
LINE
  8
0
 62
0
 10
136.32920029802855
 20
-36.55589999999998
 30
0.0
 11
122.31660029802896
 21
-36.55589999999998
 31
0.0
  0
LINE
  8
0
 62
0
 10
122.31660029802896
 20
-36.55589999999998
 30
0.0
 11
122.31660029802896
 21
-50.5677
 31
0.0
  0
POLYLINE
  8
0
 62
0
 70
0
 66
1
 10
0.0
 20
0.0
 30
0.0
  0
VERTEX
  8
0
 10
20.089081871518246
 20
-31.505421508789055
 30
0.0
  0
VERTEX
  8
0
 10
22.189081871518184
 20
-31.505421508789055
 30
0.0
  0
VERTEX
  8
0
 10
20.089081871518246
 20
-31.505421508789055
 30
0.0
  0
SEQEND
  8
0
  0
LINE
  8
0
 62
0
 10
157.23590029802796
 20
-53.3879
 30
0.0
 11
65.42410029803057
 21
-53.3879
 31
0.0
  0
LINE
  8
0
 62
0
 10
158.1360002980279
 20
41.81110000000001
 30
0.0
 11
158.1360002980279
 21
-52.4881
 31
0.0
  0
LINE
  8
0
 62
0
 10
63.182700298030625
 20
55.53020000000001
 30
0.0
 11
100.21310029802957
 21
55.53020000000001
 31
0.0
  0
LINE
  8
0
 62
0
 10
32.99890029803146
 20
46.909800000000004
 30
0.0
 11
49.198400298031
 21
46.909800000000004
 31
0.0
  0
ENDBLK
  0
ENDSEC
  0
SECTION
  2
ENTITIES
  0
INSERT
  2
EXTRUDE001
  8
0
 62
0
 10
0.0
 20
0.0
 30
0.0
  0
INSERT
  2
PART__MIRRORING
  8
0
 62
0
 10
0.0
 20
0.0
 30
0.0
  0
ENDSEC
  0
EOF
