  0
SECTION
  2
HEADER
  9
$ACADVER
  1
AC1009
  9
$INSBASE
 10
0.0
 20
0.0
 30
0.0
  9
$EXTMIN
 10
0.0
 20
0.0
 30
0.0
  9
$EXTMAX
 10
0.0
 20
0.0
 30
0.0
  0
ENDSEC
  0
SECTION
  2
TABLES
  0
TABLE
  2
VPORT
 70
0
  0
ENDTAB
  0
TABLE
  2
LTYPE
 70
1
  0
LTYPE
  2
CONTINUOUS
 70
0
  3
Solid line
 72
65
 73
0
 40
0.0
  0
ENDTAB
  0
TABLE
  2
LAYER
 70
1
  0
LAYER
  2
0
 70
64
 62
7
  6
continuous
  0
ENDTAB
  0
TABLE
  2
STYLE
 70
1
  0
STYLE
  2
STANDARD
 70
0
 40
0
 41
1.0
 50
0.0
 71
0
 42
1
 3
ARIAL.TTF
 4

  0
ENDTAB
  0
TABLE
  2
VIEW
 70
0
  0
ENDTAB
  0
ENDSEC
  0
SECTION
  2
BLOCKS
  0
BLOCK
  8
0
  2
BODY001
 70
0
 10
0.0
 20
0.0
 30
0.0
  3
BODY001
  0
LINE
  8
0
 62
0
 10
25.671337373317733
 20
174.16560474754635
 30
0.0
 11
25.671337373317733
 21
118.52135031393395
 31
0.0
  0
ARC
  8
0
 62
0
 10
24.67133737331774
 20
174.16560474754635
 30
0.0
 40
1.0
 50
-0.0
 51
33.86000000000032
  0
LINE
  8
0
 62
0
 10
17.937079421463206
 20
185.9971655152194
 30
0.0
 11
25.501738835654052
 21
174.72277026276575
 31
0.0
  0
LINE
  8
0
 62
0
 10
17.937079421463206
 20
185.9971655152194
 30
0.0
 11
25.501738835654052
 21
174.72277026276575
 31
0.0
  0
LINE
  8
0
 62
0
 10
-29.203899999999997
 20
145.7463
 30
0.0
 11
-15.191899999999997
 21
145.7463
 31
0.0
  0
LINE
  8
0
 62
0
 10
-29.203899999999997
 20
131.7337
 30
0.0
 11
-29.203899999999997
 21
145.7463
 31
0.0
  0
LINE
  8
0
 62
0
 10
-15.191899999999997
 20
145.7463
 30
0.0
 11
-15.191899999999997
 21
131.7337
 31
0.0
  0
LINE
  8
0
 62
0
 10
-15.191899999999997
 20
131.7337
 30
0.0
 11
-29.203899999999997
 21
131.7337
 31
0.0
  0
LINE
  8
0
 62
0
 10
-29.203899999999997
 20
126.69630000000001
 30
0.0
 11
-15.191899999999997
 21
126.69630000000001
 31
0.0
  0
LINE
  8
0
 62
0
 10
-29.203899999999997
 20
112.68379999999999
 30
0.0
 11
-29.203899999999997
 21
126.69630000000001
 31
0.0
  0
LINE
  8
0
 62
0
 10
-15.191899999999997
 20
126.69630000000001
 30
0.0
 11
-15.191899999999997
 21
112.68379999999999
 31
0.0
  0
LINE
  8
0
 62
0
 10
-15.191899999999997
 20
112.68379999999999
 30
0.0
 11
-29.203899999999997
 21
112.68379999999999
 31
0.0
  0
LINE
  8
0
 62
0
 10
-48.2542
 20
129.0665
 30
0.0
 11
-34.2419
 21
129.0665
 31
0.0
  0
LINE
  8
0
 62
0
 10
-48.2542
 20
115.076
 30
0.0
 11
-48.2542
 21
129.0665
 31
0.0
  0
LINE
  8
0
 62
0
 10
-34.2419
 20
129.0665
 30
0.0
 11
-34.2419
 21
115.076
 31
0.0
  0
LINE
  8
0
 62
0
 10
-34.2419
 20
115.076
 30
0.0
 11
-48.2542
 21
115.076
 31
0.0
  0
LINE
  8
0
 62
0
 10
-86.35419999999999
 20
140.9838
 30
0.0
 11
-72.3416
 21
140.9838
 31
0.0
  0
LINE
  8
0
 62
0
 10
-72.3416
 20
140.9838
 30
0.0
 11
-72.3416
 21
126.97120000000001
 31
0.0
  0
LINE
  8
0
 62
0
 10
-72.3416
 20
126.97120000000001
 30
0.0
 11
-86.35419999999999
 21
126.97120000000001
 31
0.0
  0
LINE
  8
0
 62
0
 10
-86.35419999999999
 20
126.97120000000001
 30
0.0
 11
-86.35419999999999
 21
140.9838
 31
0.0
  0
LINE
  8
0
 62
0
 10
-67.3042
 20
145.7463
 30
0.0
 11
-53.291599999999995
 21
145.7463
 31
0.0
  0
LINE
  8
0
 62
0
 10
-67.3042
 20
131.7337
 30
0.0
 11
-67.3042
 21
145.7463
 31
0.0
  0
LINE
  8
0
 62
0
 10
-53.2916
 20
145.7463
 30
0.0
 11
-53.2916
 21
131.7337
 31
0.0
  0
LINE
  8
0
 62
0
 10
-53.2916
 20
131.7337
 30
0.0
 11
-67.30420000000001
 21
131.7337
 31
0.0
  0
LINE
  8
0
 62
0
 10
-67.3042
 20
126.69630000000001
 30
0.0
 11
-53.291599999999995
 21
126.69630000000001
 31
0.0
  0
LINE
  8
0
 62
0
 10
-67.3042
 20
112.68379999999999
 30
0.0
 11
-67.3042
 21
126.69630000000001
 31
0.0
  0
LINE
  8
0
 62
0
 10
-53.2916
 20
126.69630000000001
 30
0.0
 11
-53.2916
 21
112.68379999999999
 31
0.0
  0
LINE
  8
0
 62
0
 10
-53.2916
 20
112.68379999999999
 30
0.0
 11
-67.30420000000001
 21
112.68379999999999
 31
0.0
  0
LINE
  8
0
 62
0
 10
-86.35419999999999
 20
179.0838
 30
0.0
 11
-86.35419999999999
 21
165.0712
 31
0.0
  0
LINE
  8
0
 62
0
 10
-72.3416
 20
179.0838
 30
0.0
 11
-86.35419999999999
 21
179.0838
 31
0.0
  0
LINE
  8
0
 62
0
 10
-86.35419999999999
 20
165.0712
 30
0.0
 11
-72.3416
 21
165.0712
 31
0.0
  0
LINE
  8
0
 62
0
 10
-72.3416
 20
165.0712
 30
0.0
 11
-72.3416
 21
179.0838
 31
0.0
  0
LINE
  8
0
 62
0
 10
-86.35419999999999
 20
160.0338
 30
0.0
 11
-72.3416
 21
160.0338
 31
0.0
  0
LINE
  8
0
 62
0
 10
-86.35419999999999
 20
146.0212
 30
0.0
 11
-86.35419999999999
 21
160.0338
 31
0.0
  0
LINE
  8
0
 62
0
 10
-72.3416
 20
160.0338
 30
0.0
 11
-72.3416
 21
146.0212
 31
0.0
  0
LINE
  8
0
 62
0
 10
-72.3416
 20
146.0212
 30
0.0
 11
-86.35419999999999
 21
146.0212
 31
0.0
  0
CIRCLE
  8
0
 62
0
 10
-50.78264045715332
 20
148.27745056152344
 30
0.0
 40
1.0
  0
LINE
  8
0
 62
0
 10
-53.2916
 20
164.7963
 30
0.0
 11
-67.30420000000001
 21
164.7963
 31
0.0
  0
LINE
  8
0
 62
0
 10
-53.2916
 20
150.7837
 30
0.0
 11
-53.2916
 21
164.7963
 31
0.0
  0
LINE
  8
0
 62
0
 10
-67.3042
 20
164.7963
 30
0.0
 11
-67.3042
 21
150.7837
 31
0.0
  0
LINE
  8
0
 62
0
 10
-67.3042
 20
150.7837
 30
0.0
 11
-53.291599999999995
 21
150.7837
 31
0.0
  0
LINE
  8
0
 62
0
 10
-29.203899999999997
 20
183.84629999999999
 30
0.0
 11
-15.191899999999997
 21
183.84629999999999
 31
0.0
  0
LINE
  8
0
 62
0
 10
-29.203899999999997
 20
169.8337
 30
0.0
 11
-29.203899999999997
 21
183.84629999999999
 31
0.0
  0
LINE
  8
0
 62
0
 10
-15.191899999999997
 20
183.84629999999999
 30
0.0
 11
-15.191899999999997
 21
169.83369999999996
 31
0.0
  0
LINE
  8
0
 62
0
 10
-15.191899999999997
 20
169.8337
 30
0.0
 11
-29.203899999999997
 21
169.8337
 31
0.0
  0
LINE
  8
0
 62
0
 10
3.858099999999993
 20
162.404
 30
0.0
 11
-10.1539
 21
162.404
 31
0.0
  0
LINE
  8
0
 62
0
 10
3.858099999999993
 20
148.4128
 30
0.0
 11
3.858099999999993
 21
162.404
 31
0.0
  0
LINE
  8
0
 62
0
 10
-10.1539
 20
162.404
 30
0.0
 11
-10.1539
 21
148.4128
 31
0.0
  0
LINE
  8
0
 62
0
 10
-10.1539
 20
148.4128
 30
0.0
 11
3.858099999999993
 21
148.4128
 31
0.0
  0
LINE
  8
0
 62
0
 10
3.858099999999993
 20
143.354
 30
0.0
 11
-10.1539
 21
143.354
 31
0.0
  0
LINE
  8
0
 62
0
 10
3.858099999999993
 20
129.3628
 30
0.0
 11
3.858099999999993
 21
143.354
 31
0.0
  0
LINE
  8
0
 62
0
 10
-10.1539
 20
143.354
 30
0.0
 11
-10.1539
 21
129.3628
 31
0.0
  0
LINE
  8
0
 62
0
 10
-10.1539
 20
129.3628
 30
0.0
 11
3.858099999999993
 21
129.3628
 31
0.0
  0
LINE
  8
0
 62
0
 10
-48.2542
 20
167.1665
 30
0.0
 11
-34.2419
 21
167.1665
 31
0.0
  0
LINE
  8
0
 62
0
 10
-48.2542
 20
153.1753
 30
0.0
 11
-48.2542
 21
167.1665
 31
0.0
  0
LINE
  8
0
 62
0
 10
-34.2419
 20
167.1665
 30
0.0
 11
-34.2419
 21
153.1753
 31
0.0
  0
LINE
  8
0
 62
0
 10
-34.2419
 20
153.1753
 30
0.0
 11
-48.2542
 21
153.1753
 31
0.0
  0
LINE
  8
0
 62
0
 10
-48.2542
 20
148.1165
 30
0.0
 11
-34.2419
 21
148.1165
 31
0.0
  0
LINE
  8
0
 62
0
 10
-48.2542
 20
134.1253
 30
0.0
 11
-48.2542
 21
148.1165
 31
0.0
  0
LINE
  8
0
 62
0
 10
-34.2419
 20
148.1165
 30
0.0
 11
-34.2419
 21
134.1253
 31
0.0
  0
LINE
  8
0
 62
0
 10
-34.2419
 20
134.1253
 30
0.0
 11
-48.2542
 21
134.1253
 31
0.0
  0
LINE
  8
0
 62
0
 10
-29.203899999999997
 20
164.7963
 30
0.0
 11
-15.191899999999997
 21
164.7963
 31
0.0
  0
LINE
  8
0
 62
0
 10
-29.203899999999997
 20
150.7837
 30
0.0
 11
-29.203899999999997
 21
164.7963
 31
0.0
  0
LINE
  8
0
 62
0
 10
-15.191899999999997
 20
164.7963
 30
0.0
 11
-15.191899999999997
 21
150.7837
 31
0.0
  0
LINE
  8
0
 62
0
 10
-15.191899999999997
 20
150.7837
 30
0.0
 11
-29.203899999999997
 21
150.7837
 31
0.0
  0
LINE
  8
0
 62
0
 10
-86.35419999999999
 20
102.88310000000001
 30
0.0
 11
-72.3416
 21
102.88310000000001
 31
0.0
  0
LINE
  8
0
 62
0
 10
-86.35419999999999
 20
88.87129999999999
 30
0.0
 11
-86.35419999999999
 21
102.88310000000001
 31
0.0
  0
LINE
  8
0
 62
0
 10
-72.3416
 20
102.88310000000001
 30
0.0
 11
-72.3416
 21
88.87129999999999
 31
0.0
  0
LINE
  8
0
 62
0
 10
-72.3416
 20
88.87129999999999
 30
0.0
 11
-86.35419999999999
 21
88.87129999999999
 31
0.0
  0
LINE
  8
0
 62
0
 10
-86.35419999999999
 20
121.93379999999999
 30
0.0
 11
-72.3416
 21
121.93379999999999
 31
0.0
  0
LINE
  8
0
 62
0
 10
-86.35419999999999
 20
107.9212
 30
0.0
 11
-86.35419999999999
 21
121.93379999999999
 31
0.0
  0
LINE
  8
0
 62
0
 10
-72.3416
 20
121.93379999999999
 30
0.0
 11
-72.3416
 21
107.9212
 31
0.0
  0
LINE
  8
0
 62
0
 10
-72.3416
 20
107.9212
 30
0.0
 11
-86.35419999999999
 21
107.9212
 31
0.0
  0
LINE
  8
0
 62
0
 10
-34.24159656677246
 20
110.01649233398439
 30
0.0
 11
-48.254196566772464
 21
110.01649233398439
 31
0.0
  0
LINE
  8
0
 62
0
 10
-34.24159656677246
 20
96.00469233398437
 30
0.0
 11
-34.24159656677246
 21
110.01649233398439
 31
0.0
  0
LINE
  8
0
 62
0
 10
-48.254196566772464
 20
110.01649233398439
 30
0.0
 11
-48.254196566772464
 21
96.00469233398437
 31
0.0
  0
LINE
  8
0
 62
0
 10
-48.254196566772464
 20
96.00469233398437
 30
0.0
 11
-34.24159656677246
 21
96.00469233398437
 31
0.0
  0
LINE
  8
0
 62
0
 10
-53.2916
 20
107.6456
 30
0.0
 11
-67.30420000000001
 21
107.6456
 31
0.0
  0
LINE
  8
0
 62
0
 10
-53.2916
 20
93.6337
 30
0.0
 11
-53.2916
 21
107.6456
 31
0.0
  0
LINE
  8
0
 62
0
 10
-67.3042
 20
107.6456
 30
0.0
 11
-67.3042
 21
93.6337
 31
0.0
  0
LINE
  8
0
 62
0
 10
-67.3042
 20
93.6337
 30
0.0
 11
-53.291599999999995
 21
93.6337
 31
0.0
  0
CIRCLE
  8
0
 62
0
 10
-50.274149894714355
 20
112.71595764160156
 30
0.0
 40
1.0
  0
LINE
  8
0
 62
0
 10
-20.6528
 20
93.3161
 30
0.0
 11
-13.6678
 21
105.44489999999999
 31
0.0
  0
LINE
  8
0
 62
0
 10
-8.545299999999997
 20
86.31020000000001
 30
0.0
 11
-20.6528
 21
93.3161
 31
0.0
  0
LINE
  8
0
 62
0
 10
-13.6678
 20
105.44489999999999
 30
0.0
 11
-1.5390999999999977
 21
98.4383
 31
0.0
  0
LINE
  8
0
 62
0
 10
-1.5390999999999977
 20
98.4383
 30
0.0
 11
-8.545299999999997
 21
86.31020000000001
 31
0.0
  0
LINE
  8
0
 62
0
 10
27.3664
 20
100.29929999999999
 30
0.0
 11
28.853899999999996
 21
102.87620000000001
 31
0.0
  0
LINE
  8
0
 62
0
 10
27.366
 20
100.2986
 30
0.0
 11
27.3664
 21
100.29929999999999
 31
0.0
  0
LINE
  8
0
 62
0
 10
28.853899999999996
 20
102.87620000000001
 30
0.0
 11
40.975300000000004
 21
95.8785
 31
0.0
  0
LINE
  8
0
 62
0
 10
26.712100000000007
 20
100.6762
 30
0.0
 11
27.366
 21
100.2986
 31
0.0
  0
LINE
  8
0
 62
0
 10
40.975300000000004
 20
95.8785
 30
0.0
 11
24.4559
 21
67.2664
 31
0.0
  0
LINE
  8
0
 62
0
 10
25.062299999999993
 20
97.81819999999999
 30
0.0
 11
26.712100000000007
 21
100.6762
 31
0.0
  0
LINE
  8
0
 62
0
 10
24.4559
 20
67.2664
 30
0.0
 11
12.335099999999997
 21
74.2647
 31
0.0
  0
LINE
  8
0
 62
0
 10
25.7158
 20
97.44059999999999
 30
0.0
 11
25.062299999999993
 21
97.81819999999999
 31
0.0
  0
LINE
  8
0
 62
0
 10
12.335099999999997
 20
74.2647
 30
0.0
 11
13.816400000000002
 21
76.83000000000001
 31
0.0
  0
LINE
  8
0
 62
0
 10
15.465999999999994
 20
79.6873
 30
0.0
 11
25.7158
 21
97.44059999999999
 31
0.0
  0
LINE
  8
0
 62
0
 10
13.816400000000002
 20
76.83000000000001
 30
0.0
 11
13.816100000000006
 21
76.83000000000001
 31
0.0
  0
LINE
  8
0
 62
0
 10
14.811999999999998
 20
80.0649
 30
0.0
 11
15.465999999999994
 21
79.6873
 31
0.0
  0
LINE
  8
0
 62
0
 10
13.816100000000006
 20
76.83000000000001
 30
0.0
 11
13.162599999999998
 21
77.20750000000001
 31
0.0
  0
LINE
  8
0
 62
0
 10
13.162599999999998
 20
77.20750000000001
 30
0.0
 11
14.811999999999998
 21
80.0649
 31
0.0
  0
CIRCLE
  8
0
 62
0
 10
28.837459564208984
 20
107.93310546875
 30
0.0
 40
1.0
  0
LINE
  8
0
 62
0
 10
10.866799999999998
 20
109.8243
 30
0.0
 11
12.354299999999995
 21
112.40119999999999
 31
0.0
  0
LINE
  8
0
 62
0
 10
10.866399999999999
 20
109.8236
 30
0.0
 11
10.866799999999998
 21
109.8243
 31
0.0
  0
LINE
  8
0
 62
0
 10
12.354299999999995
 20
112.40119999999999
 30
0.0
 11
24.475499999999997
 21
105.40350000000001
 31
0.0
  0
LINE
  8
0
 62
0
 10
10.212500000000006
 20
110.2012
 30
0.0
 11
10.866399999999999
 21
109.8236
 31
0.0
  0
LINE
  8
0
 62
0
 10
24.475499999999997
 20
105.40350000000001
 30
0.0
 11
7.956299999999995
 21
76.79140000000001
 31
0.0
  0
LINE
  8
0
 62
0
 10
8.562700000000007
 20
107.3432
 30
0.0
 11
10.212500000000006
 21
110.2012
 31
0.0
  0
LINE
  8
0
 62
0
 10
7.956299999999999
 20
76.79140000000001
 30
0.0
 11
-4.164499999999997
 21
83.78970000000001
 31
0.0
  0
LINE
  8
0
 62
0
 10
9.2162
 20
106.9656
 30
0.0
 11
8.562700000000007
 21
107.3432
 31
0.0
  0
LINE
  8
0
 62
0
 10
-4.164499999999997
 20
83.78970000000001
 30
0.0
 11
-2.6831999999999994
 21
86.35499999999999
 31
0.0
  0
LINE
  8
0
 62
0
 10
9.216499999999996
 20
106.9656
 30
0.0
 11
9.2162
 21
106.9656
 31
0.0
  0
LINE
  8
0
 62
0
 10
-2.6831999999999994
 20
86.35499999999999
 30
0.0
 11
-2.683500000000002
 21
86.35499999999999
 31
0.0
  0
LINE
  8
0
 62
0
 10
-1.0335999999999999
 20
89.2123
 30
0.0
 11
9.216499999999998
 21
106.9656
 31
0.0
  0
LINE
  8
0
 62
0
 10
-2.683500000000002
 20
86.35499999999999
 30
0.0
 11
-3.3370000000000033
 21
86.73249999999999
 31
0.0
  0
LINE
  8
0
 62
0
 10
-1.6875
 20
89.5899
 30
0.0
 11
-1.0335999999999996
 21
89.2123
 31
0.0
  0
LINE
  8
0
 62
0
 10
-3.3370000000000033
 20
86.73249999999999
 30
0.0
 11
-1.6874999999999998
 21
89.5899
 31
0.0
  0
LINE
  8
0
 62
0
 10
3.858099999999993
 20
124.3047
 30
0.0
 11
-10.1539
 21
124.3047
 31
0.0
  0
LINE
  8
0
 62
0
 10
3.858099999999993
 20
110.31280000000001
 30
0.0
 11
3.858099999999993
 21
124.3047
 31
0.0
  0
LINE
  8
0
 62
0
 10
-10.1539
 20
124.3047
 30
0.0
 11
-10.1539
 21
110.31280000000001
 31
0.0
  0
LINE
  8
0
 62
0
 10
-10.1539
 20
110.31280000000001
 30
0.0
 11
3.858099999999993
 21
110.31280000000001
 31
0.0
  0
CIRCLE
  8
0
 62
0
 10
0.40453147888183594
 20
105.34880065917969
 30
0.0
 40
1.0
  0
LINE
  8
0
 62
0
 10
8.896100000000004
 20
152.879
 30
0.0
 11
22.908100000000005
 21
152.879
 31
0.0
  0
LINE
  8
0
 62
0
 10
8.896100000000004
 20
138.8878
 30
0.0
 11
8.896100000000004
 21
152.879
 31
0.0
  0
LINE
  8
0
 62
0
 10
22.908100000000005
 20
152.879
 30
0.0
 11
22.908100000000005
 21
138.8878
 31
0.0
  0
LINE
  8
0
 62
0
 10
22.908100000000005
 20
138.8878
 30
0.0
 11
8.896100000000004
 21
138.8878
 31
0.0
  0
LINE
  8
0
 62
0
 10
8.896100000000004
 20
133.829
 30
0.0
 11
22.908100000000005
 21
133.829
 31
0.0
  0
LINE
  8
0
 62
0
 10
8.896100000000004
 20
119.83850000000001
 30
0.0
 11
8.896100000000004
 21
133.829
 31
0.0
  0
LINE
  8
0
 62
0
 10
22.908100000000005
 20
133.829
 30
0.0
 11
22.908100000000005
 21
119.83850000000001
 31
0.0
  0
LINE
  8
0
 62
0
 10
22.908100000000005
 20
119.83850000000001
 30
0.0
 11
8.896100000000004
 21
119.83850000000001
 31
0.0
  0
LINE
  8
0
 62
0
 10
8.896100000000004
 20
171.929
 30
0.0
 11
22.908100000000005
 21
171.929
 31
0.0
  0
LINE
  8
0
 62
0
 10
8.896100000000004
 20
157.9378
 30
0.0
 11
8.896100000000004
 21
171.929
 31
0.0
  0
LINE
  8
0
 62
0
 10
22.908100000000005
 20
171.929
 30
0.0
 11
22.908100000000005
 21
157.9378
 31
0.0
  0
LINE
  8
0
 62
0
 10
22.908100000000005
 20
157.9378
 30
0.0
 11
8.896100000000004
 21
157.9378
 31
0.0
  0
CIRCLE
  8
0
 62
0
 10
6.36444091796875
 20
165.03663635253906
 30
0.0
 40
1.0
  0
LINE
  8
0
 62
0
 10
-10.1539
 20
181.454
 30
0.0
 11
3.858099999999993
 21
181.454
 31
0.0
  0
LINE
  8
0
 62
0
 10
-10.1539
 20
167.4628
 30
0.0
 11
-10.1539
 21
181.454
 31
0.0
  0
LINE
  8
0
 62
0
 10
3.858099999999993
 20
181.454
 30
0.0
 11
3.858099999999993
 21
167.4628
 31
0.0
  0
LINE
  8
0
 62
0
 10
3.858099999999993
 20
167.4628
 30
0.0
 11
-10.1539
 21
167.4628
 31
0.0
  0
CIRCLE
  8
0
 62
0
 10
-57.00661611557007
 20
187.38816833496094
 30
0.0
 40
1.0
  0
LINE
  8
0
 62
0
 10
-53.2916
 20
169.8337
 30
0.0
 11
-67.30420000000001
 21
169.8337
 31
0.0
  0
LINE
  8
0
 62
0
 10
-53.2916
 20
183.84629999999999
 30
0.0
 11
-53.2916
 21
169.83369999999996
 31
0.0
  0
LINE
  8
0
 62
0
 10
-67.3042
 20
169.8337
 30
0.0
 11
-67.3042
 21
183.84629999999999
 31
0.0
  0
LINE
  8
0
 62
0
 10
-67.3042
 20
183.84629999999999
 30
0.0
 11
-53.291599999999995
 21
183.84629999999999
 31
0.0
  0
LINE
  8
0
 62
0
 10
-48.2542
 20
186.2165
 30
0.0
 11
-48.2542
 21
172.2253
 31
0.0
  0
LINE
  8
0
 62
0
 10
-34.2419
 20
186.2165
 30
0.0
 11
-48.2542
 21
186.2165
 31
0.0
  0
LINE
  8
0
 62
0
 10
-48.2542
 20
172.2253
 30
0.0
 11
-34.2419
 21
172.2253
 31
0.0
  0
LINE
  8
0
 62
0
 10
-34.2419
 20
172.2253
 30
0.0
 11
-34.2419
 21
186.2165
 31
0.0
  0
CIRCLE
  8
0
 62
0
 10
-88.88704681396484
 20
105.10244750976562
 30
0.0
 40
1.0
  0
CIRCLE
  8
0
 62
0
 10
-88.88408660888672
 20
162.50094604492188
 30
0.0
 40
1.0
  0
LINE
  8
0
 62
0
 10
-91.3916
 20
160.0338
 30
0.0
 11
-105.4042
 21
160.0338
 31
0.0
  0
LINE
  8
0
 62
0
 10
-91.3916
 20
146.0212
 30
0.0
 11
-91.3916
 21
160.0338
 31
0.0
  0
LINE
  8
0
 62
0
 10
-105.4042
 20
160.0338
 30
0.0
 11
-105.4042
 21
146.0212
 31
0.0
  0
LINE
  8
0
 62
0
 10
-105.4042
 20
146.0212
 30
0.0
 11
-91.3916
 21
146.0212
 31
0.0
  0
LINE
  8
0
 62
0
 10
-91.3916
 20
179.0838
 30
0.0
 11
-105.4042
 21
179.0838
 31
0.0
  0
LINE
  8
0
 62
0
 10
-91.3916
 20
165.0712
 30
0.0
 11
-91.3916
 21
179.0838
 31
0.0
  0
LINE
  8
0
 62
0
 10
-105.4042
 20
179.0838
 30
0.0
 11
-105.4042
 21
165.0712
 31
0.0
  0
LINE
  8
0
 62
0
 10
-105.4042
 20
165.0712
 30
0.0
 11
-91.3916
 21
165.0712
 31
0.0
  0
LINE
  8
0
 62
0
 10
-91.3916
 20
140.9838
 30
0.0
 11
-105.4042
 21
140.9838
 31
0.0
  0
LINE
  8
0
 62
0
 10
-91.3916
 20
126.97120000000001
 30
0.0
 11
-91.3916
 21
140.9838
 31
0.0
  0
LINE
  8
0
 62
0
 10
-105.4042
 20
140.9838
 30
0.0
 11
-105.4042
 21
126.97120000000001
 31
0.0
  0
LINE
  8
0
 62
0
 10
-105.4042
 20
126.97120000000001
 30
0.0
 11
-91.3916
 21
126.97120000000001
 31
0.0
  0
LINE
  8
0
 62
0
 10
-91.3916
 20
102.88310000000001
 30
0.0
 11
-105.4042
 21
102.88310000000001
 31
0.0
  0
LINE
  8
0
 62
0
 10
-91.3916
 20
88.87129999999999
 30
0.0
 11
-91.3916
 21
102.88310000000001
 31
0.0
  0
LINE
  8
0
 62
0
 10
-105.4042
 20
102.88310000000001
 30
0.0
 11
-105.4042
 21
88.87129999999999
 31
0.0
  0
LINE
  8
0
 62
0
 10
-105.4042
 20
88.87129999999999
 30
0.0
 11
-91.3916
 21
88.87129999999999
 31
0.0
  0
LINE
  8
0
 62
0
 10
-91.3916
 20
121.93379999999999
 30
0.0
 11
-105.4042
 21
121.93379999999999
 31
0.0
  0
LINE
  8
0
 62
0
 10
-91.3916
 20
107.9212
 30
0.0
 11
-91.3916
 21
121.93379999999999
 31
0.0
  0
LINE
  8
0
 62
0
 10
-105.4042
 20
121.93379999999999
 30
0.0
 11
-105.4042
 21
107.9212
 31
0.0
  0
LINE
  8
0
 62
0
 10
-105.4042
 20
107.9212
 30
0.0
 11
-91.3916
 21
107.9212
 31
0.0
  0
ARC
  8
0
 62
0
 10
26.671337373317733
 20
118.52135031393395
 30
0.0
 40
1.0
 50
-180.0
 51
-138.48000000000016
  0
LINE
  8
0
 62
0
 10
25.922612996183652
 20
117.85846887122706
 30
0.0
 11
43.4614078533145
 21
98.04840569995463
 31
0.0
  0
LINE
  8
0
 62
0
 10
25.922612996183652
 20
117.85846887122706
 30
0.0
 11
43.4614078533145
 21
98.04840569995463
 31
0.0
  0
LINE
  8
0
 62
0
 10
24.353250059076192
 20
64.22
 30
0.0
 11
-12.99853560776009
 21
85.78506350946111
 31
0.0
  0
LINE
  8
0
 62
0
 10
43.69600990661518
 20
95.72264281454083
 30
0.0
 11
25.719275462860608
 21
64.58602540378445
 31
0.0
  0
LINE
  8
0
 62
0
 10
-106.84597102726673
 20
182.5701621629036
 30
0.0
 11
-51.735950543292304
 21
194.91901204316656
 31
0.0
  0
LINE
  8
0
 62
0
 10
-50.642679541831164
 20
195.04000000000002
 30
0.0
 11
-13.410391308883455
 21
195.04000000000002
 31
0.0
  0
LINE
  8
0
 62
0
 10
0.4522593331832969
 20
186.44
 30
0.0
 11
17.106677959126877
 21
186.44
 31
0.0
  0
ARC
  8
0
 62
0
 10
17.106677959126877
 20
185.44
 30
0.0
 40
1.0
 50
33.86000000000066
 51
90.00000000000081
  0
ARC
  8
0
 62
0
 10
41.96395909904633
 20
96.72264281454083
 30
0.0
 40
2.0
 50
-30.00000000000003
 51
41.52
  0
LINE
  8
0
 62
0
 10
0.4522593331832969
 20
186.44
 30
0.0
 11
17.106677959126877
 21
186.44
 31
0.0
  0
LINE
  8
0
 62
0
 10
43.69600990661518
 20
95.72264281454083
 30
0.0
 11
25.719275462860608
 21
64.58602540378445
 31
0.0
  0
ARC
  8
0
 62
0
 10
0.45225933318329936
 20
188.94
 30
0.0
 40
2.5
 50
-124.99000000000045
 51
-90.00000000000027
  0
ARC
  8
0
 62
0
 10
24.853250059076196
 20
65.08602540378443
 30
0.0
 40
1.0
 50
-120.00000000000033
 51
-30.00000000000003
  0
LINE
  8
0
 62
0
 10
-11.97680766235038
 20
194.5881303494634
 30
0.0
 11
-0.98132431334977
 21
186.89186965053662
 31
0.0
  0
LINE
  8
0
 62
0
 10
24.353250059076192
 20
64.22
 30
0.0
 11
-12.99853560776009
 21
85.78506350946111
 31
0.0
  0
ARC
  8
0
 62
0
 10
-13.410391308883458
 20
192.54000000000002
 30
0.0
 40
2.5
 50
55.01000000000035
 51
90.00000000000033
  0
ARC
  8
0
 62
0
 10
-14.248535607760083
 20
83.62
 30
0.0
 40
2.5
 50
59.99999999999994
 51
89.99999999999996
  0
LINE
  8
0
 62
0
 10
-50.642679541831164
 20
195.04000000000002
 30
0.0
 11
-13.410391308883455
 21
195.04000000000002
 31
0.0
  0
LINE
  8
0
 62
0
 10
-14.248535607760083
 20
86.12
 30
0.0
 11
-106.90866262668229
 21
86.12
 31
0.0
  0
ARC
  8
0
 62
0
 10
-50.642679541831164
 20
190.04000000000002
 30
0.0
 40
5.0
 50
90.0
 51
102.63000000000002
  0
ARC
  8
0
 62
0
 10
-106.90866262668229
 20
87.62
 30
0.0
 40
1.5
 50
-180.0
 51
-90.0
  0
LINE
  8
0
 62
0
 10
-106.84597102726673
 20
182.5701621629036
 30
0.0
 11
-51.735950543292304
 21
194.91901204316656
 31
0.0
  0
LINE
  8
0
 62
0
 10
-108.40866262668229
 20
87.62
 30
0.0
 11
-108.40866262668227
 21
180.618557345637
 31
0.0
  0
ARC
  8
0
 62
0
 10
-106.40866262668226
 20
180.61855734563702
 30
0.0
 40
2.0
 50
102.63000000000054
 51
-180.0
  0
ARC
  8
0
 62
0
 10
24.67133737331774
 20
174.16560474754635
 30
0.0
 40
1.0
 50
-0.0
 51
33.86000000000032
  0
POLYLINE
  8
0
 62
0
 70
0
 66
1
 10
0.0
 20
0.0
 30
0.0
  0
VERTEX
  8
0
 10
25.521337373317735
 20
174.16560474754635
 30
0.0
  0
VERTEX
  8
0
 10
25.671337373317733
 20
174.16560474754635
 30
0.0
  0
SEQEND
  8
0
  0
LINE
  8
0
 62
0
 10
25.521337373317735
 20
174.16560474754635
 30
0.0
 11
25.521337373317735
 21
118.52135031393395
 31
0.0
  0
POLYLINE
  8
0
 62
0
 70
0
 66
1
 10
0.0
 20
0.0
 30
0.0
  0
VERTEX
  8
0
 10
25.521337373317735
 20
118.52135031393395
 30
0.0
  0
VERTEX
  8
0
 10
25.671337373317733
 20
118.52135031393395
 30
0.0
  0
SEQEND
  8
0
  0
ARC
  8
0
 62
0
 10
26.671337373317733
 20
118.52135031393395
 30
0.0
 40
1.0
 50
-180.0
 51
-138.48000000000016
  0
POLYLINE
  8
0
 62
0
 70
0
 66
1
 10
0.0
 20
0.0
 30
0.0
  0
VERTEX
  8
0
 10
25.377178616303603
 20
174.63919543548283
 30
0.0
  0
VERTEX
  8
0
 10
25.501738835654052
 20
174.72277026276575
 30
0.0
  0
SEQEND
  8
0
  0
ARC
  8
0
 62
0
 10
24.67133737331774
 20
174.16560474754635
 30
0.0
 40
0.85
 50
-0.0
 51
33.85999999999993
  0
ARC
  8
0
 62
0
 10
-14.248535607760083
 20
83.62
 30
0.0
 40
2.65
 50
59.99999999999999
 51
89.99999999999996
  0
LINE
  8
0
 62
0
 10
-106.8131728972229
 20
182.42379180160862
 30
0.0
 11
-51.703152413248475
 21
194.77264168187156
 31
0.0
  0
ARC
  8
0
 62
0
 10
26.671337373317733
 20
118.52135031393395
 30
0.0
 40
1.15
 50
-180.0
 51
-138.47999999999985
  0
ARC
  8
0
 62
0
 10
26.671337373317733
 20
118.52135031393395
 30
0.0
 40
1.15
 50
-180.0
 51
-138.47999999999985
  0
LINE
  8
0
 62
0
 10
17.812519202112757
 20
185.91359068793648
 30
0.0
 11
25.377178616303603
 21
174.63919543548283
 31
0.0
  0
LINE
  8
0
 62
0
 10
25.810304339613538
 20
117.75903665482103
 30
0.0
 11
43.34909919674438
 21
97.9489734835486
 31
0.0
  0
ARC
  8
0
 62
0
 10
17.106677959126877
 20
185.44
 30
0.0
 40
0.85
 50
33.8600000000002
 51
90.00000000000097
  0
ARC
  8
0
 62
0
 10
41.96395909904633
 20
96.72264281454083
 30
0.0
 40
1.85
 50
-29.99999999999989
 51
41.51999999999982
  0
LINE
  8
0
 62
0
 10
0.4522593331832969
 20
186.29
 30
0.0
 11
17.106677959126877
 21
186.29
 31
0.0
  0
LINE
  8
0
 62
0
 10
43.56610609604751
 20
95.79764281454084
 30
0.0
 11
25.58937165229294
 21
64.66102540378445
 31
0.0
  0
ARC
  8
0
 62
0
 10
0.45225933318329936
 20
188.94
 30
0.0
 40
2.65
 50
-124.99000000000039
 51
-90.00000000000028
  0
ARC
  8
0
 62
0
 10
24.853250059076196
 20
65.08602540378443
 30
0.0
 40
0.85
 50
-120.0000000000003
 51
-29.99999999999985
  0
LINE
  8
0
 62
0
 10
-12.062822681142364
 20
194.4652425284956
 30
0.0
 11
-1.0673393321417546
 21
186.76898182956882
 31
0.0
  0
LINE
  8
0
 62
0
 10
24.42825005907619
 20
64.34990381056767
 30
0.0
 11
-12.92353560776009
 21
85.91496732002878
 31
0.0
  0
ARC
  8
0
 62
0
 10
-13.410391308883458
 20
192.54000000000002
 30
0.0
 40
2.35
 50
55.0100000000003
 51
90.00000000000036
  0
ARC
  8
0
 62
0
 10
-14.248535607760083
 20
83.62
 30
0.0
 40
2.65
 50
59.99999999999999
 51
89.99999999999996
  0
LINE
  8
0
 62
0
 10
-50.642679541831164
 20
194.89000000000001
 30
0.0
 11
-13.410391308883455
 21
194.89000000000001
 31
0.0
  0
LINE
  8
0
 62
0
 10
-14.248535607760083
 20
86.27000000000001
 30
0.0
 11
-106.90866262668229
 21
86.27000000000001
 31
0.0
  0
ARC
  8
0
 62
0
 10
-50.642679541831164
 20
190.04000000000002
 30
0.0
 40
4.85
 50
90.0
 51
102.63000000000001
  0
ARC
  8
0
 62
0
 10
-106.90866262668229
 20
87.62
 30
0.0
 40
1.35
 50
-180.0
 51
-90.0
  0
LINE
  8
0
 62
0
 10
-106.8131728972229
 20
182.42379180160862
 30
0.0
 11
-51.703152413248475
 21
194.77264168187156
 31
0.0
  0
LINE
  8
0
 62
0
 10
-108.25866262668228
 20
87.62
 30
0.0
 11
-108.25866262668227
 21
180.618557345637
 31
0.0
  0
ARC
  8
0
 62
0
 10
-106.40866262668226
 20
180.61855734563702
 30
0.0
 40
1.85
 50
102.63000000000054
 51
-180.0
  0
POLYLINE
  8
0
 62
0
 70
0
 66
1
 10
0.0
 20
0.0
 30
0.0
  0
VERTEX
  8
0
 10
25.810304339613534
 20
117.75903665482102
 30
0.0
  0
VERTEX
  8
0
 10
25.92261299618365
 20
117.85846887122705
 30
0.0
  0
SEQEND
  8
0
  0
POLYLINE
  8
0
 62
0
 70
0
 66
1
 10
0.0
 20
0.0
 30
0.0
  0
VERTEX
  8
0
 10
17.81251920211275
 20
185.91359068793648
 30
0.0
  0
VERTEX
  8
0
 10
17.9370794214632
 20
185.9971655152194
 30
0.0
  0
SEQEND
  8
0
  0
ARC
  8
0
 62
0
 10
17.106677959126877
 20
185.44
 30
0.0
 40
1.0
 50
33.86000000000066
 51
90.00000000000081
  0
POLYLINE
  8
0
 62
0
 70
0
 66
1
 10
0.0
 20
0.0
 30
0.0
  0
VERTEX
  8
0
 10
43.34909919674438
 20
97.9489734835486
 30
0.0
  0
VERTEX
  8
0
 10
43.4614078533145
 20
98.04840569995463
 30
0.0
  0
SEQEND
  8
0
  0
POLYLINE
  8
0
 62
0
 70
0
 66
1
 10
0.0
 20
0.0
 30
0.0
  0
VERTEX
  8
0
 10
17.106677959126877
 20
186.29
 30
0.0
  0
VERTEX
  8
0
 10
17.106677959126877
 20
186.44
 30
0.0
  0
SEQEND
  8
0
  0
POLYLINE
  8
0
 62
0
 70
0
 66
1
 10
0.0
 20
0.0
 30
0.0
  0
VERTEX
  8
0
 10
43.56610609604754
 20
95.79764281454084
 30
0.0
  0
VERTEX
  8
0
 10
43.69600990661521
 20
95.72264281454083
 30
0.0
  0
SEQEND
  8
0
  0
POLYLINE
  8
0
 62
0
 70
0
 66
1
 10
0.0
 20
0.0
 30
0.0
  0
VERTEX
  8
0
 10
0.45225933318328687
 20
186.29
 30
0.0
  0
VERTEX
  8
0
 10
0.4522593331832876
 20
186.44
 30
0.0
  0
SEQEND
  8
0
  0
POLYLINE
  8
0
 62
0
 70
0
 66
1
 10
0.0
 20
0.0
 30
0.0
  0
VERTEX
  8
0
 10
25.58937165229294
 20
64.66102540378445
 30
0.0
  0
VERTEX
  8
0
 10
25.719275462860605
 20
64.58602540378445
 30
0.0
  0
SEQEND
  8
0
  0
POLYLINE
  8
0
 62
0
 70
0
 66
1
 10
0.0
 20
0.0
 30
0.0
  0
VERTEX
  8
0
 10
-1.0673393321417546
 20
186.76898182956882
 30
0.0
  0
VERTEX
  8
0
 10
-0.9813243133497699
 20
186.89186965053662
 30
0.0
  0
SEQEND
  8
0
  0
POLYLINE
  8
0
 62
0
 70
0
 66
1
 10
0.0
 20
0.0
 30
0.0
  0
VERTEX
  8
0
 10
24.428250059076195
 20
64.34990381056767
 30
0.0
  0
VERTEX
  8
0
 10
24.353250059076196
 20
64.22
 30
0.0
  0
SEQEND
  8
0
  0
POLYLINE
  8
0
 62
0
 70
0
 66
1
 10
0.0
 20
0.0
 30
0.0
  0
VERTEX
  8
0
 10
-12.062822681142375
 20
194.4652425284956
 30
0.0
  0
VERTEX
  8
0
 10
-11.97680766235039
 20
194.5881303494634
 30
0.0
  0
SEQEND
  8
0
  0
POLYLINE
  8
0
 62
0
 70
0
 66
1
 10
0.0
 20
0.0
 30
0.0
  0
VERTEX
  8
0
 10
-12.92353560776009
 20
85.91496732002878
 30
0.0
  0
VERTEX
  8
0
 10
-12.99853560776009
 20
85.78506350946111
 30
0.0
  0
SEQEND
  8
0
  0
POLYLINE
  8
0
 62
0
 70
0
 66
1
 10
0.0
 20
0.0
 30
0.0
  0
VERTEX
  8
0
 10
-13.410391308883455
 20
194.89000000000001
 30
0.0
  0
VERTEX
  8
0
 10
-13.410391308883455
 20
195.04000000000002
 30
0.0
  0
SEQEND
  8
0
  0
POLYLINE
  8
0
 62
0
 70
0
 66
1
 10
0.0
 20
0.0
 30
0.0
  0
VERTEX
  8
0
 10
-14.24853560776008
 20
86.27000000000001
 30
0.0
  0
VERTEX
  8
0
 10
-14.24853560776008
 20
86.12
 30
0.0
  0
SEQEND
  8
0
  0
POLYLINE
  8
0
 62
0
 70
0
 66
1
 10
0.0
 20
0.0
 30
0.0
  0
VERTEX
  8
0
 10
-50.642679541831164
 20
194.89000000000001
 30
0.0
  0
VERTEX
  8
0
 10
-50.642679541831164
 20
195.04000000000002
 30
0.0
  0
SEQEND
  8
0
  0
POLYLINE
  8
0
 62
0
 70
0
 66
1
 10
0.0
 20
0.0
 30
0.0
  0
VERTEX
  8
0
 10
-106.90866262668229
 20
86.27000000000001
 30
0.0
  0
VERTEX
  8
0
 10
-106.90866262668229
 20
86.12
 30
0.0
  0
SEQEND
  8
0
  0
POLYLINE
  8
0
 62
0
 70
0
 66
1
 10
0.0
 20
0.0
 30
0.0
  0
VERTEX
  8
0
 10
-51.703152413248475
 20
194.77264168187156
 30
0.0
  0
VERTEX
  8
0
 10
-51.73595054329231
 20
194.91901204316656
 30
0.0
  0
SEQEND
  8
0
  0
POLYLINE
  8
0
 62
0
 70
0
 66
1
 10
0.0
 20
0.0
 30
0.0
  0
VERTEX
  8
0
 10
-108.25866262668228
 20
87.62
 30
0.0
  0
VERTEX
  8
0
 10
-108.40866262668229
 20
87.62
 30
0.0
  0
SEQEND
  8
0
  0
POLYLINE
  8
0
 62
0
 70
0
 66
1
 10
0.0
 20
0.0
 30
0.0
  0
VERTEX
  8
0
 10
-106.8131728972229
 20
182.42379180160864
 30
0.0
  0
VERTEX
  8
0
 10
-106.84597102726673
 20
182.57016216290364
 30
0.0
  0
SEQEND
  8
0
  0
POLYLINE
  8
0
 62
0
 70
0
 66
1
 10
0.0
 20
0.0
 30
0.0
  0
VERTEX
  8
0
 10
-108.25866262668227
 20
180.618557345637
 30
0.0
  0
VERTEX
  8
0
 10
-108.40866262668227
 20
180.618557345637
 30
0.0
  0
SEQEND
  8
0
  0
ENDBLK
  0
ENDSEC
  0
SECTION
  2
ENTITIES
  0
INSERT
  2
BODY001
  8
0
 62
0
 10
0.0
 20
0.0
 30
0.0
  0
ENDSEC
  0
EOF
