  0
SECTION
  2
HEADER
  9
$ACADVER
  1
AC1009
  9
$INSBASE
 10
0.0
 20
0.0
 30
0.0
  9
$EXTMIN
 10
0.0
 20
0.0
 30
0.0
  9
$EXTMAX
 10
0.0
 20
0.0
 30
0.0
  0
ENDSEC
  0
SECTION
  2
TABLES
  0
TABLE
  2
VPORT
 70
0
  0
ENDTAB
  0
TABLE
  2
LTYPE
 70
1
  0
LTYPE
  2
CONTINUOUS
 70
0
  3
Solid line
 72
65
 73
0
 40
0.0
  0
ENDTAB
  0
TABLE
  2
LAYER
 70
1
  0
LAYER
  2
0
 70
64
 62
7
  6
continuous
  0
ENDTAB
  0
TABLE
  2
STYLE
 70
1
  0
STYLE
  2
STANDARD
 70
0
 40
0
 41
1.0
 50
0.0
 71
0
 42
1
 3
ARIAL.TTF
 4

  0
ENDTAB
  0
TABLE
  2
VIEW
 70
0
  0
ENDTAB
  0
ENDSEC
  0
SECTION
  2
BLOCKS
  0
BLOCK
  8
0
  2
CUT044
 70
0
 10
0.0
 20
0.0
 30
0.0
  3
CUT044
  0
POLYLINE
  8
0
 62
0
 70
1
 66
1
 10
0.0
 20
0.0
 30
0.0
  0
VERTEX
  8
0
 10
7.077387003816352
 20
117.85846887122706
 30
0.0
  0
VERTEX
  8
0
 10
-10.461407853314498
 20
98.04840569995463
 30
0.0
 42
0.3226057612294668
  0
VERTEX
  8
0
 10
-10.696009906615195
 20
95.72264281454082
 30
0.0
  0
VERTEX
  8
0
 10
7.280724537139372
 20
64.58602540378445
 30
0.0
 42
0.414213562373097
  0
VERTEX
  8
0
 10
8.646749940923808
 20
64.22
 30
0.0
  0
VERTEX
  8
0
 10
45.99853560776009
 20
85.78506350946111
 30
0.0
 42
-0.1316524975873948
  0
VERTEX
  8
0
 10
47.24853560776008
 20
86.12
 30
0.0
  0
VERTEX
  8
0
 10
139.9086626266823
 20
86.12
 30
0.0
 42
0.41421356237309503
  0
VERTEX
  8
0
 10
141.4086626266823
 20
87.62
 30
0.0
  0
VERTEX
  8
0
 10
141.40866262668226
 20
180.618557345637
 30
0.0
 42
0.3510279685206858
  0
VERTEX
  8
0
 10
139.84597102726673
 20
182.5701621629036
 30
0.0
  0
VERTEX
  8
0
 10
84.7359505432923
 20
194.91901204316656
 30
0.0
 42
0.055164627003042574
  0
VERTEX
  8
0
 10
83.64267954183117
 20
195.04000000000002
 30
0.0
  0
VERTEX
  8
0
 10
46.41039130888347
 20
195.04000000000002
 30
0.0
 42
0.15387005446850746
  0
VERTEX
  8
0
 10
44.976807662350396
 20
194.5881303494634
 30
0.0
  0
VERTEX
  8
0
 10
33.98132431334979
 20
186.89186965053665
 30
0.0
 42
-0.15387005446851024
  0
VERTEX
  8
0
 10
32.54774066681671
 20
186.44
 30
0.0
  0
VERTEX
  8
0
 10
15.89332204087313
 20
186.44
 30
0.0
 42
0.24997694110255453
  0
VERTEX
  8
0
 10
15.062920578536797
 20
185.9971655152194
 30
0.0
  0
VERTEX
  8
0
 10
7.498261164345935
 20
174.72277026276575
 30
0.0
 42
0.14882654899955863
  0
VERTEX
  8
0
 10
7.32866262668226
 20
174.16560474754635
 30
0.0
  0
VERTEX
  8
0
 10
7.328662626682265
 20
118.52135031393395
 30
0.0
 42
-0.18317354360444602
  0
SEQEND
  8
0
  0
POLYLINE
  8
0
 62
0
 70
1
 66
1
 10
0.0
 20
0.0
 30
0.0
  0
VERTEX
  8
0
 10
29.141900000000007
 20
110.31280000000001
 30
0.0
  0
VERTEX
  8
0
 10
29.141900000000007
 20
124.3047
 30
0.0
  0
VERTEX
  8
0
 10
43.15389999999999
 20
124.3047
 30
0.0
  0
VERTEX
  8
0
 10
43.15389999999999
 20
110.31280000000001
 30
0.0
  0
SEQEND
  8
0
  0
POLYLINE
  8
0
 62
0
 70
1
 66
1
 10
0.0
 20
0.0
 30
0.0
  0
VERTEX
  8
0
 10
48.191900000000004
 20
112.68379999999999
 30
0.0
  0
VERTEX
  8
0
 10
62.203900000000004
 20
112.68379999999999
 30
0.0
  0
VERTEX
  8
0
 10
62.203900000000004
 20
126.69630000000001
 30
0.0
  0
VERTEX
  8
0
 10
48.191900000000004
 20
126.69630000000001
 30
0.0
  0
SEQEND
  8
0
  0
POLYLINE
  8
0
 62
0
 70
1
 66
1
 10
0.0
 20
0.0
 30
0.0
  0
VERTEX
  8
0
 10
53.65280000000001
 20
93.3161
 30
0.0
  0
VERTEX
  8
0
 10
46.66780000000001
 20
105.44489999999999
 30
0.0
  0
VERTEX
  8
0
 10
34.53909999999999
 20
98.4383
 30
0.0
  0
VERTEX
  8
0
 10
41.5453
 20
86.31020000000001
 30
0.0
  0
SEQEND
  8
0
  0
POLYLINE
  8
0
 62
0
 70
1
 66
1
 10
0.0
 20
0.0
 30
0.0
  0
VERTEX
  8
0
 10
67.24159656677246
 20
110.01649233398439
 30
0.0
  0
VERTEX
  8
0
 10
81.25419656677246
 20
110.01649233398439
 30
0.0
  0
VERTEX
  8
0
 10
81.25419656677246
 20
96.00469233398437
 30
0.0
  0
VERTEX
  8
0
 10
67.24159656677246
 20
96.00469233398437
 30
0.0
  0
SEQEND
  8
0
  0
POLYLINE
  8
0
 62
0
 70
1
 66
1
 10
0.0
 20
0.0
 30
0.0
  0
VERTEX
  8
0
 10
67.24189999999999
 20
115.076
 30
0.0
  0
VERTEX
  8
0
 10
81.2542
 20
115.076
 30
0.0
  0
VERTEX
  8
0
 10
81.2542
 20
129.0665
 30
0.0
  0
VERTEX
  8
0
 10
67.24189999999999
 20
129.0665
 30
0.0
  0
SEQEND
  8
0
  0
POLYLINE
  8
0
 62
0
 70
1
 66
1
 10
0.0
 20
0.0
 30
0.0
  0
VERTEX
  8
0
 10
29.141900000000007
 20
148.4128
 30
0.0
  0
VERTEX
  8
0
 10
29.141900000000007
 20
162.404
 30
0.0
  0
VERTEX
  8
0
 10
43.15389999999999
 20
162.404
 30
0.0
  0
VERTEX
  8
0
 10
43.15389999999999
 20
148.4128
 30
0.0
  0
SEQEND
  8
0
  0
POLYLINE
  8
0
 62
0
 70
1
 66
1
 10
0.0
 20
0.0
 30
0.0
  0
VERTEX
  8
0
 10
48.191900000000004
 20
131.7337
 30
0.0
  0
VERTEX
  8
0
 10
62.203900000000004
 20
131.7337
 30
0.0
  0
VERTEX
  8
0
 10
62.203900000000004
 20
145.7463
 30
0.0
  0
VERTEX
  8
0
 10
48.191900000000004
 20
145.7463
 30
0.0
  0
SEQEND
  8
0
  0
POLYLINE
  8
0
 62
0
 70
1
 66
1
 10
0.0
 20
0.0
 30
0.0
  0
VERTEX
  8
0
 10
67.24189999999999
 20
148.1165
 30
0.0
  0
VERTEX
  8
0
 10
67.24189999999999
 20
134.1253
 30
0.0
  0
VERTEX
  8
0
 10
81.2542
 20
134.1253
 30
0.0
  0
VERTEX
  8
0
 10
81.2542
 20
148.1165
 30
0.0
  0
SEQEND
  8
0
  0
POLYLINE
  8
0
 62
0
 70
1
 66
1
 10
0.0
 20
0.0
 30
0.0
  0
VERTEX
  8
0
 10
105.3416
 20
146.0212
 30
0.0
  0
VERTEX
  8
0
 10
119.35419999999999
 20
146.0212
 30
0.0
  0
VERTEX
  8
0
 10
119.35419999999999
 20
160.0338
 30
0.0
  0
VERTEX
  8
0
 10
105.3416
 20
160.0338
 30
0.0
  0
SEQEND
  8
0
  0
POLYLINE
  8
0
 62
0
 70
1
 66
1
 10
0.0
 20
0.0
 30
0.0
  0
VERTEX
  8
0
 10
119.35419999999999
 20
126.97120000000001
 30
0.0
  0
VERTEX
  8
0
 10
119.35419999999999
 20
140.9838
 30
0.0
  0
VERTEX
  8
0
 10
105.3416
 20
140.9838
 30
0.0
  0
VERTEX
  8
0
 10
105.3416
 20
126.97120000000001
 30
0.0
  0
SEQEND
  8
0
  0
POLYLINE
  8
0
 62
0
 70
1
 66
1
 10
0.0
 20
0.0
 30
0.0
  0
VERTEX
  8
0
 10
86.29159999999999
 20
131.7337
 30
0.0
  0
VERTEX
  8
0
 10
100.3042
 20
131.7337
 30
0.0
  0
VERTEX
  8
0
 10
100.30420000000001
 20
145.7463
 30
0.0
  0
VERTEX
  8
0
 10
86.2916
 20
145.7463
 30
0.0
  0
SEQEND
  8
0
  0
POLYLINE
  8
0
 62
0
 70
1
 66
1
 10
0.0
 20
0.0
 30
0.0
  0
VERTEX
  8
0
 10
86.2916
 20
93.6337
 30
0.0
  0
VERTEX
  8
0
 10
86.29159999999999
 20
107.6456
 30
0.0
  0
VERTEX
  8
0
 10
100.3042
 20
107.6456
 30
0.0
  0
VERTEX
  8
0
 10
100.30420000000001
 20
93.6337
 30
0.0
  0
SEQEND
  8
0
  0
POLYLINE
  8
0
 62
0
 70
1
 66
1
 10
0.0
 20
0.0
 30
0.0
  0
VERTEX
  8
0
 10
86.2916
 20
126.69630000000001
 30
0.0
  0
VERTEX
  8
0
 10
86.29159999999999
 20
112.68379999999999
 30
0.0
  0
VERTEX
  8
0
 10
100.3042
 20
112.68379999999999
 30
0.0
  0
VERTEX
  8
0
 10
100.30420000000001
 20
126.69630000000001
 30
0.0
  0
SEQEND
  8
0
  0
POLYLINE
  8
0
 62
0
 70
1
 66
1
 10
0.0
 20
0.0
 30
0.0
  0
VERTEX
  8
0
 10
119.35419999999999
 20
121.93379999999999
 30
0.0
  0
VERTEX
  8
0
 10
105.3416
 20
121.93379999999999
 30
0.0
  0
VERTEX
  8
0
 10
105.3416
 20
107.9212
 30
0.0
  0
VERTEX
  8
0
 10
119.35419999999999
 20
107.9212
 30
0.0
  0
SEQEND
  8
0
  0
POLYLINE
  8
0
 62
0
 70
1
 66
1
 10
0.0
 20
0.0
 30
0.0
  0
VERTEX
  8
0
 10
105.3416
 20
88.87129999999999
 30
0.0
  0
VERTEX
  8
0
 10
119.35419999999999
 20
88.87129999999999
 30
0.0
  0
VERTEX
  8
0
 10
119.35419999999999
 20
102.88310000000001
 30
0.0
  0
VERTEX
  8
0
 10
105.3416
 20
102.88310000000001
 30
0.0
  0
SEQEND
  8
0
  0
CIRCLE
  8
0
 62
0
 10
83.27186525799334
 20
112.72134579718113
 30
0.0
 40
1.1
  0
CIRCLE
  8
0
 62
0
 10
83.78815401531756
 20
148.2902087122202
 30
0.0
 40
1.1
  0
POLYLINE
  8
0
 62
0
 70
1
 66
1
 10
0.0
 20
0.0
 30
0.0
  0
VERTEX
  8
0
 10
119.35419999999999
 20
165.0712
 30
0.0
  0
VERTEX
  8
0
 10
105.3416
 20
165.0712
 30
0.0
  0
VERTEX
  8
0
 10
105.3416
 20
179.0838
 30
0.0
  0
VERTEX
  8
0
 10
119.35419999999999
 20
179.0838
 30
0.0
  0
SEQEND
  8
0
  0
POLYLINE
  8
0
 62
0
 70
1
 66
1
 10
0.0
 20
0.0
 30
0.0
  0
VERTEX
  8
0
 10
14.395008856677377
 20
72.13780090896151
 30
0.0
  0
VERTEX
  8
0
 10
19.824988138405807
 20
75.2728009089615
 30
0.0
  0
VERTEX
  8
0
 10
18.912488138405813
 20
76.8532972708681
 30
0.0
  0
VERTEX
  8
0
 10
19.95171862294714
 20
77.4532972708681
 30
0.0
  0
VERTEX
  8
0
 10
18.451718622947137
 20
80.05137348222142
 30
0.0
  0
VERTEX
  8
0
 10
17.412488138405813
 20
79.45137348222143
 30
0.0
  0
VERTEX
  8
0
 10
16.49998813840581
 20
81.03186984412802
 30
0.0
  0
VERTEX
  8
0
 10
15.807167815378259
 20
80.63186984412802
 30
0.0
  0
VERTEX
  8
0
 10
15.01966781537826
 20
81.99585985508851
 30
0.0
  0
VERTEX
  8
0
 10
15.91167398127623
 20
82.51085985508851
 30
0.0
  0
VERTEX
  8
0
 10
8.911673981276232
 20
94.63521550807067
 30
0.0
  0
VERTEX
  8
0
 10
8.01966781537826
 20
94.12021550807067
 30
0.0
  0
VERTEX
  8
0
 10
7.23216781537826
 20
95.48420551903116
 30
0.0
  0
VERTEX
  8
0
 10
7.924988138405811
 20
95.88420551903116
 30
0.0
  0
VERTEX
  8
0
 10
7.0124881384058115
 20
97.46470188093775
 30
0.0
  0
VERTEX
  8
0
 10
8.051718622947138
 20
98.06470188093776
 30
0.0
  0
VERTEX
  8
0
 10
6.551718622947121
 20
100.6627780922911
 30
0.0
  0
VERTEX
  8
0
 10
5.512488138405796
 20
100.06277809229113
 30
0.0
  0
VERTEX
  8
0
 10
4.599988138405811
 20
101.64327445419768
 30
0.0
  0
VERTEX
  8
0
 10
-0.8299911433226228
 20
98.50827445419768
 30
0.0
  0
VERTEX
  8
0
 10
-1.2674911433226237
 20
99.26604668250907
 30
0.0
  0
VERTEX
  8
0
 10
-3.692362273919054
 20
97.86604668250907
 30
0.0
  0
VERTEX
  8
0
 10
-3.254862273919052
 20
97.10827445419768
 30
0.0
  0
VERTEX
  8
0
 10
-6.052124328142792
 20
95.49327445419769
 30
0.0
  0
VERTEX
  8
0
 10
-2.727124328142793
 20
89.73420551903116
 30
0.0
  0
VERTEX
  8
0
 10
-2.0343040051152403
 20
90.13420551903116
 30
0.0
  0
VERTEX
  8
0
 10
-1.2468040051152407
 20
88.77021550807066
 30
0.0
  0
VERTEX
  8
0
 10
-3.2126816717059157
 20
87.63521550807067
 30
0.0
  0
VERTEX
  8
0
 10
3.787318328294082
 20
75.51085985508851
 30
0.0
  0
VERTEX
  8
0
 10
5.753195994884759
 20
76.64585985508852
 30
0.0
  0
VERTEX
  8
0
 10
6.540695994884759
 20
75.28186984412802
 30
0.0
  0
VERTEX
  8
0
 10
5.847875671857207
 20
74.88186984412802
 30
0.0
  0
VERTEX
  8
0
 10
9.172875671857208
 20
69.12280090896151
 30
0.0
  0
VERTEX
  8
0
 10
11.970137726080946
 20
70.7378009089615
 30
0.0
  0
VERTEX
  8
0
 10
12.407637726080948
 20
69.98002868065012
 30
0.0
  0
VERTEX
  8
0
 10
14.832508856677377
 20
71.38002868065011
 30
0.0
  0
SEQEND
  8
0
  0
POLYLINE
  8
0
 62
0
 70
1
 66
1
 10
0.0
 20
0.0
 30
0.0
  0
VERTEX
  8
0
 10
30.89500885667738
 20
81.6578009089615
 30
0.0
  0
VERTEX
  8
0
 10
36.324988138405814
 20
84.79280090896151
 30
0.0
  0
VERTEX
  8
0
 10
35.412488138405806
 20
86.37329727086811
 30
0.0
  0
VERTEX
  8
0
 10
36.45171862294714
 20
86.9732972708681
 30
0.0
  0
VERTEX
  8
0
 10
34.95171862294714
 20
89.57137348222142
 30
0.0
  0
VERTEX
  8
0
 10
33.912488138405806
 20
88.97137348222142
 30
0.0
  0
VERTEX
  8
0
 10
32.99998813840581
 20
90.55186984412802
 30
0.0
  0
VERTEX
  8
0
 10
32.30716781537826
 20
90.15186984412803
 30
0.0
  0
VERTEX
  8
0
 10
31.519667815378256
 20
91.51585985508852
 30
0.0
  0
VERTEX
  8
0
 10
32.41167398127623
 20
92.03085985508852
 30
0.0
  0
VERTEX
  8
0
 10
25.41167398127623
 20
104.15521550807065
 30
0.0
  0
VERTEX
  8
0
 10
24.51966781537826
 20
103.64021550807067
 30
0.0
  0
VERTEX
  8
0
 10
23.732167815378258
 20
105.00420551903115
 30
0.0
  0
VERTEX
  8
0
 10
24.42498813840581
 20
105.40420551903115
 30
0.0
  0
VERTEX
  8
0
 10
23.51248813840581
 20
106.98470188093775
 30
0.0
  0
VERTEX
  8
0
 10
24.551718622947135
 20
107.58470188093776
 30
0.0
  0
VERTEX
  8
0
 10
23.051718622947128
 20
110.18277809229109
 30
0.0
  0
VERTEX
  8
0
 10
22.012488138405793
 20
109.58277809229112
 30
0.0
  0
VERTEX
  8
0
 10
21.09998813840581
 20
111.16327445419768
 30
0.0
  0
VERTEX
  8
0
 10
15.670008856677377
 20
108.02827445419767
 30
0.0
  0
VERTEX
  8
0
 10
15.232508856677377
 20
108.78604668250905
 30
0.0
  0
VERTEX
  8
0
 10
12.807637726080948
 20
107.38604668250906
 30
0.0
  0
VERTEX
  8
0
 10
13.245137726080948
 20
106.62827445419768
 30
0.0
  0
VERTEX
  8
0
 10
10.447875671857208
 20
105.01327445419767
 30
0.0
  0
VERTEX
  8
0
 10
13.772875671857209
 20
99.25420551903115
 30
0.0
  0
VERTEX
  8
0
 10
14.46569599488476
 20
99.65420551903115
 30
0.0
  0
VERTEX
  8
0
 10
15.25319599488476
 20
98.29021550807066
 30
0.0
  0
VERTEX
  8
0
 10
13.287318328294086
 20
97.15521550807065
 30
0.0
  0
VERTEX
  8
0
 10
20.287318328294084
 20
85.03085985508852
 30
0.0
  0
VERTEX
  8
0
 10
22.25319599488476
 20
86.16585985508851
 30
0.0
  0
VERTEX
  8
0
 10
23.04069599488476
 20
84.80186984412802
 30
0.0
  0
VERTEX
  8
0
 10
22.34787567185721
 20
84.40186984412803
 30
0.0
  0
VERTEX
  8
0
 10
25.67287567185721
 20
78.6428009089615
 30
0.0
  0
VERTEX
  8
0
 10
28.470137726080946
 20
80.2578009089615
 30
0.0
  0
VERTEX
  8
0
 10
28.90763772608095
 20
79.50002868065012
 30
0.0
  0
VERTEX
  8
0
 10
31.33250885667738
 20
80.90002868065012
 30
0.0
  0
SEQEND
  8
0
  0
CIRCLE
  8
0
 62
0
 10
32.59261644817889
 20
105.3593768030405
 30
0.0
 40
1.1
  0
CIRCLE
  8
0
 62
0
 10
4.153440842404962
 20
107.95451535284519
 30
0.0
 40
1.1
  0
POLYLINE
  8
0
 62
0
 70
1
 66
1
 10
0.0
 20
0.0
 30
0.0
  0
VERTEX
  8
0
 10
24.103899999999996
 20
138.8878
 30
0.0
  0
VERTEX
  8
0
 10
24.103899999999996
 20
152.879
 30
0.0
  0
VERTEX
  8
0
 10
10.091899999999995
 20
152.879
 30
0.0
  0
VERTEX
  8
0
 10
10.091899999999995
 20
138.8878
 30
0.0
  0
SEQEND
  8
0
  0
POLYLINE
  8
0
 62
0
 70
1
 66
1
 10
0.0
 20
0.0
 30
0.0
  0
VERTEX
  8
0
 10
10.091899999999995
 20
119.83850000000001
 30
0.0
  0
VERTEX
  8
0
 10
24.103899999999996
 20
119.83850000000001
 30
0.0
  0
VERTEX
  8
0
 10
24.103899999999996
 20
133.829
 30
0.0
  0
VERTEX
  8
0
 10
10.091899999999995
 20
133.829
 30
0.0
  0
SEQEND
  8
0
  0
POLYLINE
  8
0
 62
0
 70
1
 66
1
 10
0.0
 20
0.0
 30
0.0
  0
VERTEX
  8
0
 10
29.141900000000007
 20
129.3628
 30
0.0
  0
VERTEX
  8
0
 10
29.141900000000007
 20
143.354
 30
0.0
  0
VERTEX
  8
0
 10
43.15389999999999
 20
143.354
 30
0.0
  0
VERTEX
  8
0
 10
43.15389999999999
 20
129.3628
 30
0.0
  0
SEQEND
  8
0
  0
POLYLINE
  8
0
 62
0
 70
1
 66
1
 10
0.0
 20
0.0
 30
0.0
  0
VERTEX
  8
0
 10
10.091899999999995
 20
171.929
 30
0.0
  0
VERTEX
  8
0
 10
10.091899999999995
 20
157.9378
 30
0.0
  0
VERTEX
  8
0
 10
24.103899999999996
 20
157.9378
 30
0.0
  0
VERTEX
  8
0
 10
24.103899999999996
 20
171.929
 30
0.0
  0
SEQEND
  8
0
  0
CIRCLE
  8
0
 62
0
 10
90.01397646404803
 20
187.39882077276707
 30
0.0
 40
1.1
  0
POLYLINE
  8
0
 62
0
 70
1
 66
1
 10
0.0
 20
0.0
 30
0.0
  0
VERTEX
  8
0
 10
86.29159999999999
 20
169.83369999999996
 30
0.0
  0
VERTEX
  8
0
 10
100.3042
 20
169.8337
 30
0.0
  0
VERTEX
  8
0
 10
100.30420000000001
 20
183.84629999999999
 30
0.0
  0
VERTEX
  8
0
 10
86.2916
 20
183.84629999999999
 30
0.0
  0
SEQEND
  8
0
  0
POLYLINE
  8
0
 62
0
 70
1
 66
1
 10
0.0
 20
0.0
 30
0.0
  0
VERTEX
  8
0
 10
67.24189999999999
 20
186.2165
 30
0.0
  0
VERTEX
  8
0
 10
81.2542
 20
186.2165
 30
0.0
  0
VERTEX
  8
0
 10
81.2542
 20
172.2253
 30
0.0
  0
VERTEX
  8
0
 10
67.24189999999999
 20
172.2253
 30
0.0
  0
SEQEND
  8
0
  0
POLYLINE
  8
0
 62
0
 70
1
 66
1
 10
0.0
 20
0.0
 30
0.0
  0
VERTEX
  8
0
 10
43.15389999999999
 20
181.454
 30
0.0
  0
VERTEX
  8
0
 10
29.141900000000007
 20
181.454
 30
0.0
  0
VERTEX
  8
0
 10
29.141900000000007
 20
167.4628
 30
0.0
  0
VERTEX
  8
0
 10
43.15389999999999
 20
167.4628
 30
0.0
  0
SEQEND
  8
0
  0
POLYLINE
  8
0
 62
0
 70
1
 66
1
 10
0.0
 20
0.0
 30
0.0
  0
VERTEX
  8
0
 10
62.203900000000004
 20
169.8337
 30
0.0
  0
VERTEX
  8
0
 10
62.203900000000004
 20
183.84629999999999
 30
0.0
  0
VERTEX
  8
0
 10
48.191900000000004
 20
183.84629999999999
 30
0.0
  0
VERTEX
  8
0
 10
48.191900000000004
 20
169.83369999999996
 30
0.0
  0
SEQEND
  8
0
  0
CIRCLE
  8
0
 62
0
 10
26.6339582297951
 20
165.0452135950327
 30
0.0
 40
1.1
  0
POLYLINE
  8
0
 62
0
 70
1
 66
1
 10
0.0
 20
0.0
 30
0.0
  0
VERTEX
  8
0
 10
67.24189999999999
 20
153.1753
 30
0.0
  0
VERTEX
  8
0
 10
81.2542
 20
153.1753
 30
0.0
  0
VERTEX
  8
0
 10
81.2542
 20
167.1665
 30
0.0
  0
VERTEX
  8
0
 10
67.24189999999999
 20
167.1665
 30
0.0
  0
SEQEND
  8
0
  0
POLYLINE
  8
0
 62
0
 70
1
 66
1
 10
0.0
 20
0.0
 30
0.0
  0
VERTEX
  8
0
 10
62.203900000000004
 20
164.7963
 30
0.0
  0
VERTEX
  8
0
 10
48.191900000000004
 20
164.7963
 30
0.0
  0
VERTEX
  8
0
 10
48.191900000000004
 20
150.7837
 30
0.0
  0
VERTEX
  8
0
 10
62.203900000000004
 20
150.7837
 30
0.0
  0
SEQEND
  8
0
  0
POLYLINE
  8
0
 62
0
 70
1
 66
1
 10
0.0
 20
0.0
 30
0.0
  0
VERTEX
  8
0
 10
86.2916
 20
150.7837
 30
0.0
  0
VERTEX
  8
0
 10
86.29159999999999
 20
164.7963
 30
0.0
  0
VERTEX
  8
0
 10
100.3042
 20
164.7963
 30
0.0
  0
VERTEX
  8
0
 10
100.30420000000001
 20
150.7837
 30
0.0
  0
SEQEND
  8
0
  0
CIRCLE
  8
0
 62
0
 10
121.89279116131365
 20
105.11314572393894
 30
0.0
 40
1.1
  0
CIRCLE
  8
0
 62
0
 10
121.88312471844256
 20
162.49803341925144
 30
0.0
 40
1.1
  0
POLYLINE
  8
0
 62
0
 70
1
 66
1
 10
0.0
 20
0.0
 30
0.0
  0
VERTEX
  8
0
 10
124.39160000000001
 20
107.9212
 30
0.0
  0
VERTEX
  8
0
 10
124.39160000000001
 20
121.93379999999999
 30
0.0
  0
VERTEX
  8
0
 10
138.4042
 20
121.93379999999999
 30
0.0
  0
VERTEX
  8
0
 10
138.4042
 20
107.9212
 30
0.0
  0
SEQEND
  8
0
  0
POLYLINE
  8
0
 62
0
 70
1
 66
1
 10
0.0
 20
0.0
 30
0.0
  0
VERTEX
  8
0
 10
138.4042
 20
102.88310000000001
 30
0.0
  0
VERTEX
  8
0
 10
138.4042
 20
88.87129999999999
 30
0.0
  0
VERTEX
  8
0
 10
124.39160000000001
 20
88.87129999999999
 30
0.0
  0
VERTEX
  8
0
 10
124.39160000000001
 20
102.88310000000001
 30
0.0
  0
SEQEND
  8
0
  0
POLYLINE
  8
0
 62
0
 70
1
 66
1
 10
0.0
 20
0.0
 30
0.0
  0
VERTEX
  8
0
 10
124.39160000000001
 20
126.97120000000001
 30
0.0
  0
VERTEX
  8
0
 10
124.39160000000001
 20
140.9838
 30
0.0
  0
VERTEX
  8
0
 10
138.4042
 20
140.9838
 30
0.0
  0
VERTEX
  8
0
 10
138.4042
 20
126.97120000000001
 30
0.0
  0
SEQEND
  8
0
  0
POLYLINE
  8
0
 62
0
 70
1
 66
1
 10
0.0
 20
0.0
 30
0.0
  0
VERTEX
  8
0
 10
124.39160000000001
 20
179.0838
 30
0.0
  0
VERTEX
  8
0
 10
138.4042
 20
179.0838
 30
0.0
  0
VERTEX
  8
0
 10
138.4042
 20
165.0712
 30
0.0
  0
VERTEX
  8
0
 10
124.39160000000001
 20
165.0712
 30
0.0
  0
SEQEND
  8
0
  0
POLYLINE
  8
0
 62
0
 70
1
 66
1
 10
0.0
 20
0.0
 30
0.0
  0
VERTEX
  8
0
 10
124.39160000000001
 20
146.0212
 30
0.0
  0
VERTEX
  8
0
 10
124.39160000000001
 20
160.0338
 30
0.0
  0
VERTEX
  8
0
 10
138.4042
 20
160.0338
 30
0.0
  0
VERTEX
  8
0
 10
138.4042
 20
146.0212
 30
0.0
  0
SEQEND
  8
0
  0
ENDBLK
  0
ENDSEC
  0
SECTION
  2
ENTITIES
  0
INSERT
  2
CUT044
  8
0
 62
0
 10
0.0
 20
0.0
 30
0.0
  0
ENDSEC
  0
EOF
