  0
SECTION
  2
HEADER
  9
$ACADVER
  1
AC1009
  9
$INSBASE
 10
0.0
 20
0.0
 30
0.0
  9
$EXTMIN
 10
0.0
 20
0.0
 30
0.0
  9
$EXTMAX
 10
0.0
 20
0.0
 30
0.0
  0
ENDSEC
  0
SECTION
  2
TABLES
  0
TABLE
  2
VPORT
 70
0
  0
ENDTAB
  0
TABLE
  2
LTYPE
 70
1
  0
LTYPE
  2
CONTINUOUS
 70
0
  3
Solid line
 72
65
 73
0
 40
0.0
  0
ENDTAB
  0
TABLE
  2
LAYER
 70
1
  0
LAYER
  2
0
 70
64
 62
7
  6
continuous
  0
ENDTAB
  0
TABLE
  2
STYLE
 70
1
  0
STYLE
  2
STANDARD
 70
0
 40
0
 41
1.0
 50
0.0
 71
0
 42
1
 3
ARIAL.TTF
 4

  0
ENDTAB
  0
TABLE
  2
VIEW
 70
0
  0
ENDTAB
  0
ENDSEC
  0
SECTION
  2
BLOCKS
  0
BLOCK
  8
0
  2
CUT045
 70
0
 10
0.0
 20
0.0
 30
0.0
  3
CUT045
  0
POLYLINE
  8
0
 62
0
 70
1
 66
1
 10
0.0
 20
0.0
 30
0.0
  0
VERTEX
  8
0
 10
-192.92261299618366
 20
117.85846887122705
 30
0.0
  0
VERTEX
  8
0
 10
-210.46140785331448
 20
98.04840569995461
 30
0.0
 42
0.3226057612294668
  0
VERTEX
  8
0
 10
-210.6960099066152
 20
95.7226428145408
 30
0.0
  0
VERTEX
  8
0
 10
-192.71927546286062
 20
64.58602540378443
 30
0.0
 42
0.414213562373097
  0
VERTEX
  8
0
 10
-191.3532500590762
 20
64.21999999999998
 30
0.0
  0
VERTEX
  8
0
 10
-154.0014643922399
 20
85.7850635094611
 30
0.0
 42
-0.1316524975873948
  0
VERTEX
  8
0
 10
-152.7514643922399
 20
86.11999999999999
 30
0.0
  0
VERTEX
  8
0
 10
-60.091337373317714
 20
86.11999999999999
 30
0.0
 42
0.41421356237309503
  0
VERTEX
  8
0
 10
-58.591337373317714
 20
87.61999999999999
 30
0.0
  0
VERTEX
  8
0
 10
-58.59133737331774
 20
180.618557345637
 30
0.0
 42
0.3510279685206858
  0
VERTEX
  8
0
 10
-60.15402897273327
 20
182.5701621629036
 30
0.0
  0
VERTEX
  8
0
 10
-115.2640494567077
 20
194.91901204316656
 30
0.0
 42
0.055164627003042574
  0
VERTEX
  8
0
 10
-116.35732045816883
 20
195.04000000000002
 30
0.0
  0
VERTEX
  8
0
 10
-153.58960869111652
 20
195.04000000000002
 30
0.0
 42
0.15387005446850746
  0
VERTEX
  8
0
 10
-155.02319233764962
 20
194.5881303494634
 30
0.0
  0
VERTEX
  8
0
 10
-166.01867568665023
 20
186.89186965053665
 30
0.0
 42
-0.15387005446851024
  0
VERTEX
  8
0
 10
-167.4522593331833
 20
186.44
 30
0.0
  0
VERTEX
  8
0
 10
-184.10667795912687
 20
186.44
 30
0.0
 42
0.24997694110255453
  0
VERTEX
  8
0
 10
-184.9370794214632
 20
185.9971655152194
 30
0.0
  0
VERTEX
  8
0
 10
-192.50173883565407
 20
174.72277026276575
 30
0.0
 42
0.14882654899955863
  0
VERTEX
  8
0
 10
-192.67133737331773
 20
174.16560474754635
 30
0.0
  0
VERTEX
  8
0
 10
-192.67133737331773
 20
118.52135031393394
 30
0.0
 42
-0.18317354360444602
  0
SEQEND
  8
0
  0
POLYLINE
  8
0
 62
0
 70
1
 66
1
 10
0.0
 20
0.0
 30
0.0
  0
VERTEX
  8
0
 10
-170.85809999999998
 20
110.3128
 30
0.0
  0
VERTEX
  8
0
 10
-170.85809999999998
 20
124.30469999999998
 30
0.0
  0
VERTEX
  8
0
 10
-156.8461
 20
124.30469999999998
 30
0.0
  0
VERTEX
  8
0
 10
-156.8461
 20
110.3128
 30
0.0
  0
SEQEND
  8
0
  0
POLYLINE
  8
0
 62
0
 70
1
 66
1
 10
0.0
 20
0.0
 30
0.0
  0
VERTEX
  8
0
 10
-151.8081
 20
112.68379999999998
 30
0.0
  0
VERTEX
  8
0
 10
-137.7961
 20
112.68379999999998
 30
0.0
  0
VERTEX
  8
0
 10
-137.7961
 20
126.6963
 30
0.0
  0
VERTEX
  8
0
 10
-151.8081
 20
126.6963
 30
0.0
  0
SEQEND
  8
0
  0
POLYLINE
  8
0
 62
0
 70
1
 66
1
 10
0.0
 20
0.0
 30
0.0
  0
VERTEX
  8
0
 10
-132.7581
 20
115.07599999999998
 30
0.0
  0
VERTEX
  8
0
 10
-118.7458
 20
115.07599999999998
 30
0.0
  0
VERTEX
  8
0
 10
-118.7458
 20
129.0665
 30
0.0
  0
VERTEX
  8
0
 10
-132.7581
 20
129.0665
 30
0.0
  0
SEQEND
  8
0
  0
POLYLINE
  8
0
 62
0
 70
1
 66
1
 10
0.0
 20
0.0
 30
0.0
  0
VERTEX
  8
0
 10
-140.37840343322756
 20
107.62649233398437
 30
0.0
  0
VERTEX
  8
0
 10
-126.36580343322754
 20
107.62649233398437
 30
0.0
  0
VERTEX
  8
0
 10
-126.36580343322754
 20
93.61469233398435
 30
0.0
  0
VERTEX
  8
0
 10
-140.37840343322756
 20
93.61469233398435
 30
0.0
  0
SEQEND
  8
0
  0
POLYLINE
  8
0
 62
0
 70
1
 66
1
 10
0.0
 20
0.0
 30
0.0
  0
VERTEX
  8
0
 10
-146.3472
 20
93.31609999999999
 30
0.0
  0
VERTEX
  8
0
 10
-153.3322
 20
105.44489999999998
 30
0.0
  0
VERTEX
  8
0
 10
-165.4609
 20
98.43829999999998
 30
0.0
  0
VERTEX
  8
0
 10
-158.4547
 20
86.3102
 30
0.0
  0
SEQEND
  8
0
  0
POLYLINE
  8
0
 62
0
 70
1
 66
1
 10
0.0
 20
0.0
 30
0.0
  0
VERTEX
  8
0
 10
-170.85809999999998
 20
148.4128
 30
0.0
  0
VERTEX
  8
0
 10
-170.85809999999998
 20
162.404
 30
0.0
  0
VERTEX
  8
0
 10
-156.8461
 20
162.404
 30
0.0
  0
VERTEX
  8
0
 10
-156.8461
 20
148.4128
 30
0.0
  0
SEQEND
  8
0
  0
POLYLINE
  8
0
 62
0
 70
1
 66
1
 10
0.0
 20
0.0
 30
0.0
  0
VERTEX
  8
0
 10
-151.8081
 20
131.7337
 30
0.0
  0
VERTEX
  8
0
 10
-137.7961
 20
131.7337
 30
0.0
  0
VERTEX
  8
0
 10
-137.7961
 20
145.7463
 30
0.0
  0
VERTEX
  8
0
 10
-151.8081
 20
145.7463
 30
0.0
  0
SEQEND
  8
0
  0
POLYLINE
  8
0
 62
0
 70
1
 66
1
 10
0.0
 20
0.0
 30
0.0
  0
VERTEX
  8
0
 10
-132.7581
 20
148.1165
 30
0.0
  0
VERTEX
  8
0
 10
-132.7581
 20
134.1253
 30
0.0
  0
VERTEX
  8
0
 10
-118.7458
 20
134.1253
 30
0.0
  0
VERTEX
  8
0
 10
-118.7458
 20
148.1165
 30
0.0
  0
SEQEND
  8
0
  0
POLYLINE
  8
0
 62
0
 70
1
 66
1
 10
0.0
 20
0.0
 30
0.0
  0
VERTEX
  8
0
 10
-94.6584
 20
146.0212
 30
0.0
  0
VERTEX
  8
0
 10
-80.64580000000001
 20
146.0212
 30
0.0
  0
VERTEX
  8
0
 10
-80.64580000000001
 20
160.0338
 30
0.0
  0
VERTEX
  8
0
 10
-94.6584
 20
160.0338
 30
0.0
  0
SEQEND
  8
0
  0
POLYLINE
  8
0
 62
0
 70
1
 66
1
 10
0.0
 20
0.0
 30
0.0
  0
VERTEX
  8
0
 10
-80.64580000000001
 20
126.9712
 30
0.0
  0
VERTEX
  8
0
 10
-80.64580000000001
 20
140.9838
 30
0.0
  0
VERTEX
  8
0
 10
-94.6584
 20
140.9838
 30
0.0
  0
VERTEX
  8
0
 10
-94.6584
 20
126.9712
 30
0.0
  0
SEQEND
  8
0
  0
POLYLINE
  8
0
 62
0
 70
1
 66
1
 10
0.0
 20
0.0
 30
0.0
  0
VERTEX
  8
0
 10
-113.70840000000001
 20
131.7337
 30
0.0
  0
VERTEX
  8
0
 10
-99.6958
 20
131.7337
 30
0.0
  0
VERTEX
  8
0
 10
-99.69579999999999
 20
145.7463
 30
0.0
  0
VERTEX
  8
0
 10
-113.7084
 20
145.7463
 30
0.0
  0
SEQEND
  8
0
  0
POLYLINE
  8
0
 62
0
 70
1
 66
1
 10
0.0
 20
0.0
 30
0.0
  0
VERTEX
  8
0
 10
-113.7084
 20
93.63369999999999
 30
0.0
  0
VERTEX
  8
0
 10
-113.70840000000001
 20
107.64559999999999
 30
0.0
  0
VERTEX
  8
0
 10
-99.6958
 20
107.64559999999999
 30
0.0
  0
VERTEX
  8
0
 10
-99.69579999999999
 20
93.63369999999999
 30
0.0
  0
SEQEND
  8
0
  0
POLYLINE
  8
0
 62
0
 70
1
 66
1
 10
0.0
 20
0.0
 30
0.0
  0
VERTEX
  8
0
 10
-113.7084
 20
126.6963
 30
0.0
  0
VERTEX
  8
0
 10
-113.70840000000001
 20
112.68379999999998
 30
0.0
  0
VERTEX
  8
0
 10
-99.6958
 20
112.68379999999998
 30
0.0
  0
VERTEX
  8
0
 10
-99.69579999999999
 20
126.6963
 30
0.0
  0
SEQEND
  8
0
  0
POLYLINE
  8
0
 62
0
 70
1
 66
1
 10
0.0
 20
0.0
 30
0.0
  0
VERTEX
  8
0
 10
-80.64580000000001
 20
121.93379999999998
 30
0.0
  0
VERTEX
  8
0
 10
-94.6584
 20
121.93379999999998
 30
0.0
  0
VERTEX
  8
0
 10
-94.6584
 20
107.92119999999998
 30
0.0
  0
VERTEX
  8
0
 10
-80.64580000000001
 20
107.92119999999998
 30
0.0
  0
SEQEND
  8
0
  0
POLYLINE
  8
0
 62
0
 70
1
 66
1
 10
0.0
 20
0.0
 30
0.0
  0
VERTEX
  8
0
 10
-94.6584
 20
88.87129999999998
 30
0.0
  0
VERTEX
  8
0
 10
-80.64580000000001
 20
88.87129999999998
 30
0.0
  0
VERTEX
  8
0
 10
-80.64580000000001
 20
102.8831
 30
0.0
  0
VERTEX
  8
0
 10
-94.6584
 20
102.8831
 30
0.0
  0
SEQEND
  8
0
  0
CIRCLE
  8
0
 62
0
 10
-116.72813474200666
 20
112.72134579718112
 30
0.0
 40
1.1
  0
CIRCLE
  8
0
 62
0
 10
-116.21184598468244
 20
148.2902087122202
 30
0.0
 40
1.1
  0
POLYLINE
  8
0
 62
0
 70
1
 66
1
 10
0.0
 20
0.0
 30
0.0
  0
VERTEX
  8
0
 10
-80.64580000000001
 20
165.0712
 30
0.0
  0
VERTEX
  8
0
 10
-94.6584
 20
165.0712
 30
0.0
  0
VERTEX
  8
0
 10
-94.6584
 20
179.0838
 30
0.0
  0
VERTEX
  8
0
 10
-80.64580000000001
 20
179.0838
 30
0.0
  0
SEQEND
  8
0
  0
POLYLINE
  8
0
 62
0
 70
1
 66
1
 10
0.0
 20
0.0
 30
0.0
  0
VERTEX
  8
0
 10
-185.60499114332262
 20
72.1378009089615
 30
0.0
  0
VERTEX
  8
0
 10
-180.1750118615942
 20
75.27280090896149
 30
0.0
  0
VERTEX
  8
0
 10
-181.08751186159418
 20
76.8532972708681
 30
0.0
  0
VERTEX
  8
0
 10
-180.04828137705286
 20
77.45329727086809
 30
0.0
  0
VERTEX
  8
0
 10
-181.54828137705286
 20
80.05137348222141
 30
0.0
  0
VERTEX
  8
0
 10
-182.58751186159418
 20
79.45137348222141
 30
0.0
  0
VERTEX
  8
0
 10
-183.5000118615942
 20
81.03186984412801
 30
0.0
  0
VERTEX
  8
0
 10
-184.19283218462175
 20
80.631869844128
 30
0.0
  0
VERTEX
  8
0
 10
-184.98033218462174
 20
81.9958598550885
 30
0.0
  0
VERTEX
  8
0
 10
-184.08832601872376
 20
82.5108598550885
 30
0.0
  0
VERTEX
  8
0
 10
-191.08832601872376
 20
94.63521550807064
 30
0.0
  0
VERTEX
  8
0
 10
-191.98033218462174
 20
94.12021550807066
 30
0.0
  0
VERTEX
  8
0
 10
-192.76783218462174
 20
95.48420551903115
 30
0.0
  0
VERTEX
  8
0
 10
-192.0750118615942
 20
95.88420551903114
 30
0.0
  0
VERTEX
  8
0
 10
-192.9875118615942
 20
97.46470188093775
 30
0.0
  0
VERTEX
  8
0
 10
-191.94828137705287
 20
98.06470188093775
 30
0.0
  0
VERTEX
  8
0
 10
-193.44828137705287
 20
100.66277809229109
 30
0.0
  0
VERTEX
  8
0
 10
-194.48751186159421
 20
100.06277809229111
 30
0.0
  0
VERTEX
  8
0
 10
-195.40001186159418
 20
101.64327445419767
 30
0.0
  0
VERTEX
  8
0
 10
-200.82999114332262
 20
98.50827445419766
 30
0.0
  0
VERTEX
  8
0
 10
-201.26749114332262
 20
99.26604668250906
 30
0.0
  0
VERTEX
  8
0
 10
-203.69236227391906
 20
97.86604668250905
 30
0.0
  0
VERTEX
  8
0
 10
-203.25486227391906
 20
97.10827445419767
 30
0.0
  0
VERTEX
  8
0
 10
-206.05212432814278
 20
95.49327445419766
 30
0.0
  0
VERTEX
  8
0
 10
-202.7271243281428
 20
89.73420551903115
 30
0.0
  0
VERTEX
  8
0
 10
-202.03430400511525
 20
90.13420551903114
 30
0.0
  0
VERTEX
  8
0
 10
-201.24680400511525
 20
88.77021550807065
 30
0.0
  0
VERTEX
  8
0
 10
-203.21268167170592
 20
87.63521550807066
 30
0.0
  0
VERTEX
  8
0
 10
-196.21268167170592
 20
75.51085985508851
 30
0.0
  0
VERTEX
  8
0
 10
-194.24680400511525
 20
76.6458598550885
 30
0.0
  0
VERTEX
  8
0
 10
-193.45930400511523
 20
75.28186984412801
 30
0.0
  0
VERTEX
  8
0
 10
-194.1521243281428
 20
74.881869844128
 30
0.0
  0
VERTEX
  8
0
 10
-190.8271243281428
 20
69.1228009089615
 30
0.0
  0
VERTEX
  8
0
 10
-188.02986227391906
 20
70.73780090896149
 30
0.0
  0
VERTEX
  8
0
 10
-187.59236227391906
 20
69.98002868065011
 30
0.0
  0
VERTEX
  8
0
 10
-185.16749114332262
 20
71.3800286806501
 30
0.0
  0
SEQEND
  8
0
  0
POLYLINE
  8
0
 62
0
 70
1
 66
1
 10
0.0
 20
0.0
 30
0.0
  0
VERTEX
  8
0
 10
-169.10499114332262
 20
81.65780090896149
 30
0.0
  0
VERTEX
  8
0
 10
-163.6750118615942
 20
84.7928009089615
 30
0.0
  0
VERTEX
  8
0
 10
-164.58751186159418
 20
86.3732972708681
 30
0.0
  0
VERTEX
  8
0
 10
-163.54828137705286
 20
86.97329727086809
 30
0.0
  0
VERTEX
  8
0
 10
-165.04828137705286
 20
89.5713734822214
 30
0.0
  0
VERTEX
  8
0
 10
-166.08751186159418
 20
88.97137348222141
 30
0.0
  0
VERTEX
  8
0
 10
-167.0000118615942
 20
90.551869844128
 30
0.0
  0
VERTEX
  8
0
 10
-167.69283218462175
 20
90.15186984412802
 30
0.0
  0
VERTEX
  8
0
 10
-168.48033218462174
 20
91.51585985508851
 30
0.0
  0
VERTEX
  8
0
 10
-167.58832601872376
 20
92.03085985508851
 30
0.0
  0
VERTEX
  8
0
 10
-174.58832601872376
 20
104.15521550807064
 30
0.0
  0
VERTEX
  8
0
 10
-175.48033218462174
 20
103.64021550807064
 30
0.0
  0
VERTEX
  8
0
 10
-176.26783218462174
 20
105.00420551903113
 30
0.0
  0
VERTEX
  8
0
 10
-175.5750118615942
 20
105.40420551903114
 30
0.0
  0
VERTEX
  8
0
 10
-176.4875118615942
 20
106.98470188093773
 30
0.0
  0
VERTEX
  8
0
 10
-175.44828137705287
 20
107.58470188093774
 30
0.0
  0
VERTEX
  8
0
 10
-176.94828137705287
 20
110.18277809229107
 30
0.0
  0
VERTEX
  8
0
 10
-177.98751186159421
 20
109.58277809229111
 30
0.0
  0
VERTEX
  8
0
 10
-178.90001186159418
 20
111.16327445419766
 30
0.0
  0
VERTEX
  8
0
 10
-184.32999114332262
 20
108.02827445419766
 30
0.0
  0
VERTEX
  8
0
 10
-184.76749114332262
 20
108.78604668250904
 30
0.0
  0
VERTEX
  8
0
 10
-187.19236227391906
 20
107.38604668250905
 30
0.0
  0
VERTEX
  8
0
 10
-186.75486227391906
 20
106.62827445419765
 30
0.0
  0
VERTEX
  8
0
 10
-189.55212432814278
 20
105.01327445419766
 30
0.0
  0
VERTEX
  8
0
 10
-186.2271243281428
 20
99.25420551903113
 30
0.0
  0
VERTEX
  8
0
 10
-185.53430400511525
 20
99.65420551903114
 30
0.0
  0
VERTEX
  8
0
 10
-184.74680400511525
 20
98.29021550807065
 30
0.0
  0
VERTEX
  8
0
 10
-186.71268167170592
 20
97.15521550807064
 30
0.0
  0
VERTEX
  8
0
 10
-179.71268167170592
 20
85.03085985508851
 30
0.0
  0
VERTEX
  8
0
 10
-177.74680400511525
 20
86.1658598550885
 30
0.0
  0
VERTEX
  8
0
 10
-176.95930400511523
 20
84.801869844128
 30
0.0
  0
VERTEX
  8
0
 10
-177.6521243281428
 20
84.40186984412802
 30
0.0
  0
VERTEX
  8
0
 10
-174.3271243281428
 20
78.64280090896149
 30
0.0
  0
VERTEX
  8
0
 10
-171.52986227391906
 20
80.25780090896149
 30
0.0
  0
VERTEX
  8
0
 10
-171.09236227391904
 20
79.5000286806501
 30
0.0
  0
VERTEX
  8
0
 10
-168.66749114332262
 20
80.90002868065011
 30
0.0
  0
SEQEND
  8
0
  0
CIRCLE
  8
0
 62
0
 10
-167.4073835518211
 20
105.35937680304049
 30
0.0
 40
1.1
  0
CIRCLE
  8
0
 62
0
 10
-195.84655915759504
 20
107.95451535284518
 30
0.0
 40
1.1
  0
POLYLINE
  8
0
 62
0
 70
1
 66
1
 10
0.0
 20
0.0
 30
0.0
  0
VERTEX
  8
0
 10
-175.8961
 20
138.8878
 30
0.0
  0
VERTEX
  8
0
 10
-175.8961
 20
152.879
 30
0.0
  0
VERTEX
  8
0
 10
-189.9081
 20
152.879
 30
0.0
  0
VERTEX
  8
0
 10
-189.9081
 20
138.8878
 30
0.0
  0
SEQEND
  8
0
  0
POLYLINE
  8
0
 62
0
 70
1
 66
1
 10
0.0
 20
0.0
 30
0.0
  0
VERTEX
  8
0
 10
-189.9081
 20
119.8385
 30
0.0
  0
VERTEX
  8
0
 10
-175.8961
 20
119.8385
 30
0.0
  0
VERTEX
  8
0
 10
-175.8961
 20
133.829
 30
0.0
  0
VERTEX
  8
0
 10
-189.9081
 20
133.829
 30
0.0
  0
SEQEND
  8
0
  0
POLYLINE
  8
0
 62
0
 70
1
 66
1
 10
0.0
 20
0.0
 30
0.0
  0
VERTEX
  8
0
 10
-170.85809999999998
 20
129.3628
 30
0.0
  0
VERTEX
  8
0
 10
-170.85809999999998
 20
143.354
 30
0.0
  0
VERTEX
  8
0
 10
-156.8461
 20
143.354
 30
0.0
  0
VERTEX
  8
0
 10
-156.8461
 20
129.3628
 30
0.0
  0
SEQEND
  8
0
  0
POLYLINE
  8
0
 62
0
 70
1
 66
1
 10
0.0
 20
0.0
 30
0.0
  0
VERTEX
  8
0
 10
-189.9081
 20
171.929
 30
0.0
  0
VERTEX
  8
0
 10
-189.9081
 20
157.9378
 30
0.0
  0
VERTEX
  8
0
 10
-175.8961
 20
157.9378
 30
0.0
  0
VERTEX
  8
0
 10
-175.8961
 20
171.929
 30
0.0
  0
SEQEND
  8
0
  0
CIRCLE
  8
0
 62
0
 10
-109.98602353595197
 20
187.39882077276707
 30
0.0
 40
1.1
  0
POLYLINE
  8
0
 62
0
 70
1
 66
1
 10
0.0
 20
0.0
 30
0.0
  0
VERTEX
  8
0
 10
-113.70840000000001
 20
169.83369999999996
 30
0.0
  0
VERTEX
  8
0
 10
-99.6958
 20
169.8337
 30
0.0
  0
VERTEX
  8
0
 10
-99.69579999999999
 20
183.84629999999999
 30
0.0
  0
VERTEX
  8
0
 10
-113.7084
 20
183.84629999999999
 30
0.0
  0
SEQEND
  8
0
  0
POLYLINE
  8
0
 62
0
 70
1
 66
1
 10
0.0
 20
0.0
 30
0.0
  0
VERTEX
  8
0
 10
-132.7581
 20
186.2165
 30
0.0
  0
VERTEX
  8
0
 10
-118.7458
 20
186.2165
 30
0.0
  0
VERTEX
  8
0
 10
-118.7458
 20
172.2253
 30
0.0
  0
VERTEX
  8
0
 10
-132.7581
 20
172.2253
 30
0.0
  0
SEQEND
  8
0
  0
POLYLINE
  8
0
 62
0
 70
1
 66
1
 10
0.0
 20
0.0
 30
0.0
  0
VERTEX
  8
0
 10
-156.8461
 20
181.454
 30
0.0
  0
VERTEX
  8
0
 10
-170.85809999999998
 20
181.454
 30
0.0
  0
VERTEX
  8
0
 10
-170.85809999999998
 20
167.4628
 30
0.0
  0
VERTEX
  8
0
 10
-156.8461
 20
167.4628
 30
0.0
  0
SEQEND
  8
0
  0
POLYLINE
  8
0
 62
0
 70
1
 66
1
 10
0.0
 20
0.0
 30
0.0
  0
VERTEX
  8
0
 10
-137.7961
 20
169.8337
 30
0.0
  0
VERTEX
  8
0
 10
-137.7961
 20
183.84629999999999
 30
0.0
  0
VERTEX
  8
0
 10
-151.8081
 20
183.84629999999999
 30
0.0
  0
VERTEX
  8
0
 10
-151.8081
 20
169.83369999999996
 30
0.0
  0
SEQEND
  8
0
  0
CIRCLE
  8
0
 62
0
 10
-173.3660417702049
 20
165.0452135950327
 30
0.0
 40
1.1
  0
POLYLINE
  8
0
 62
0
 70
1
 66
1
 10
0.0
 20
0.0
 30
0.0
  0
VERTEX
  8
0
 10
-132.7581
 20
153.1753
 30
0.0
  0
VERTEX
  8
0
 10
-118.7458
 20
153.1753
 30
0.0
  0
VERTEX
  8
0
 10
-118.7458
 20
167.1665
 30
0.0
  0
VERTEX
  8
0
 10
-132.7581
 20
167.1665
 30
0.0
  0
SEQEND
  8
0
  0
POLYLINE
  8
0
 62
0
 70
1
 66
1
 10
0.0
 20
0.0
 30
0.0
  0
VERTEX
  8
0
 10
-137.7961
 20
164.7963
 30
0.0
  0
VERTEX
  8
0
 10
-151.8081
 20
164.7963
 30
0.0
  0
VERTEX
  8
0
 10
-151.8081
 20
150.7837
 30
0.0
  0
VERTEX
  8
0
 10
-137.7961
 20
150.7837
 30
0.0
  0
SEQEND
  8
0
  0
POLYLINE
  8
0
 62
0
 70
1
 66
1
 10
0.0
 20
0.0
 30
0.0
  0
VERTEX
  8
0
 10
-113.7084
 20
150.7837
 30
0.0
  0
VERTEX
  8
0
 10
-113.70840000000001
 20
164.7963
 30
0.0
  0
VERTEX
  8
0
 10
-99.6958
 20
164.7963
 30
0.0
  0
VERTEX
  8
0
 10
-99.69579999999999
 20
150.7837
 30
0.0
  0
SEQEND
  8
0
  0
CIRCLE
  8
0
 62
0
 10
-78.10720883868635
 20
105.11314572393893
 30
0.0
 40
1.1
  0
CIRCLE
  8
0
 62
0
 10
-78.11687528155744
 20
162.49803341925144
 30
0.0
 40
1.1
  0
POLYLINE
  8
0
 62
0
 70
1
 66
1
 10
0.0
 20
0.0
 30
0.0
  0
VERTEX
  8
0
 10
-75.60839999999999
 20
107.92119999999998
 30
0.0
  0
VERTEX
  8
0
 10
-75.60839999999999
 20
121.93379999999998
 30
0.0
  0
VERTEX
  8
0
 10
-61.5958
 20
121.93379999999998
 30
0.0
  0
VERTEX
  8
0
 10
-61.5958
 20
107.92119999999998
 30
0.0
  0
SEQEND
  8
0
  0
POLYLINE
  8
0
 62
0
 70
1
 66
1
 10
0.0
 20
0.0
 30
0.0
  0
VERTEX
  8
0
 10
-61.5958
 20
102.8831
 30
0.0
  0
VERTEX
  8
0
 10
-61.5958
 20
88.87129999999998
 30
0.0
  0
VERTEX
  8
0
 10
-75.60839999999999
 20
88.87129999999998
 30
0.0
  0
VERTEX
  8
0
 10
-75.60839999999999
 20
102.8831
 30
0.0
  0
SEQEND
  8
0
  0
POLYLINE
  8
0
 62
0
 70
1
 66
1
 10
0.0
 20
0.0
 30
0.0
  0
VERTEX
  8
0
 10
-75.60839999999999
 20
126.9712
 30
0.0
  0
VERTEX
  8
0
 10
-75.60839999999999
 20
140.9838
 30
0.0
  0
VERTEX
  8
0
 10
-61.5958
 20
140.9838
 30
0.0
  0
VERTEX
  8
0
 10
-61.5958
 20
126.9712
 30
0.0
  0
SEQEND
  8
0
  0
POLYLINE
  8
0
 62
0
 70
1
 66
1
 10
0.0
 20
0.0
 30
0.0
  0
VERTEX
  8
0
 10
-75.60839999999999
 20
179.0838
 30
0.0
  0
VERTEX
  8
0
 10
-61.5958
 20
179.0838
 30
0.0
  0
VERTEX
  8
0
 10
-61.5958
 20
165.0712
 30
0.0
  0
VERTEX
  8
0
 10
-75.60839999999999
 20
165.0712
 30
0.0
  0
SEQEND
  8
0
  0
POLYLINE
  8
0
 62
0
 70
1
 66
1
 10
0.0
 20
0.0
 30
0.0
  0
VERTEX
  8
0
 10
-75.60839999999999
 20
146.0212
 30
0.0
  0
VERTEX
  8
0
 10
-75.60839999999999
 20
160.0338
 30
0.0
  0
VERTEX
  8
0
 10
-61.5958
 20
160.0338
 30
0.0
  0
VERTEX
  8
0
 10
-61.5958
 20
146.0212
 30
0.0
  0
SEQEND
  8
0
  0
ENDBLK
  0
ENDSEC
  0
SECTION
  2
ENTITIES
  0
INSERT
  2
CUT045
  8
0
 62
0
 10
0.0
 20
0.0
 30
0.0
  0
ENDSEC
  0
EOF
