  0
SECTION
  2
HEADER
  9
$ACADVER
  1
AC1009
  9
$INSBASE
 10
0.0
 20
0.0
 30
0.0
  9
$EXTMIN
 10
0.0
 20
0.0
 30
0.0
  9
$EXTMAX
 10
0.0
 20
0.0
 30
0.0
  0
ENDSEC
  0
SECTION
  2
TABLES
  0
TABLE
  2
VPORT
 70
0
  0
ENDTAB
  0
TABLE
  2
LTYPE
 70
1
  0
LTYPE
  2
CONTINUOUS
 70
0
  3
Solid line
 72
65
 73
0
 40
0.0
  0
ENDTAB
  0
TABLE
  2
LAYER
 70
1
  0
LAYER
  2
0
 70
64
 62
7
  6
continuous
  0
ENDTAB
  0
TABLE
  2
STYLE
 70
1
  0
STYLE
  2
STANDARD
 70
0
 40
0
 41
1.0
 50
0.0
 71
0
 42
1
 3
ARIAL.TTF
 4

  0
ENDTAB
  0
TABLE
  2
VIEW
 70
0
  0
ENDTAB
  0
ENDSEC
  0
SECTION
  2
BLOCKS
  0
BLOCK
  8
0
  2
BODY001
 70
0
 10
0.0
 20
0.0
 30
0.0
  3
BODY001
  0
LINE
  8
0
 62
0
 10
-23.328662626682267
 20
174.16560474754635
 30
0.0
 11
-23.328662626682267
 21
118.52135031393395
 31
0.0
  0
ARC
  8
0
 62
0
 10
-24.32866262668226
 20
174.16560474754635
 30
0.0
 40
1.0
 50
-0.0
 51
33.86000000000032
  0
LINE
  8
0
 62
0
 10
-31.062920578536794
 20
185.9971655152194
 30
0.0
 11
-23.498261164345948
 21
174.72277026276575
 31
0.0
  0
LINE
  8
0
 62
0
 10
-31.062920578536794
 20
185.9971655152194
 30
0.0
 11
-23.498261164345948
 21
174.72277026276575
 31
0.0
  0
LINE
  8
0
 62
0
 10
-78.2039
 20
145.7463
 30
0.0
 11
-64.1919
 21
145.7463
 31
0.0
  0
LINE
  8
0
 62
0
 10
-78.2039
 20
131.7337
 30
0.0
 11
-78.2039
 21
145.7463
 31
0.0
  0
LINE
  8
0
 62
0
 10
-64.1919
 20
145.7463
 30
0.0
 11
-64.1919
 21
131.7337
 31
0.0
  0
LINE
  8
0
 62
0
 10
-64.1919
 20
131.7337
 30
0.0
 11
-78.2039
 21
131.7337
 31
0.0
  0
LINE
  8
0
 62
0
 10
-78.2039
 20
126.69630000000001
 30
0.0
 11
-64.1919
 21
126.69630000000001
 31
0.0
  0
LINE
  8
0
 62
0
 10
-78.2039
 20
112.68379999999999
 30
0.0
 11
-78.2039
 21
126.69630000000001
 31
0.0
  0
LINE
  8
0
 62
0
 10
-64.1919
 20
126.69630000000001
 30
0.0
 11
-64.1919
 21
112.68379999999999
 31
0.0
  0
LINE
  8
0
 62
0
 10
-64.1919
 20
112.68379999999999
 30
0.0
 11
-78.2039
 21
112.68379999999999
 31
0.0
  0
LINE
  8
0
 62
0
 10
-97.2542
 20
129.0665
 30
0.0
 11
-83.2419
 21
129.0665
 31
0.0
  0
LINE
  8
0
 62
0
 10
-97.2542
 20
115.076
 30
0.0
 11
-97.2542
 21
129.0665
 31
0.0
  0
LINE
  8
0
 62
0
 10
-83.2419
 20
129.0665
 30
0.0
 11
-83.2419
 21
115.076
 31
0.0
  0
LINE
  8
0
 62
0
 10
-83.2419
 20
115.076
 30
0.0
 11
-97.2542
 21
115.076
 31
0.0
  0
LINE
  8
0
 62
0
 10
-135.3542
 20
140.9838
 30
0.0
 11
-121.3416
 21
140.9838
 31
0.0
  0
LINE
  8
0
 62
0
 10
-121.3416
 20
140.9838
 30
0.0
 11
-121.3416
 21
126.97120000000001
 31
0.0
  0
LINE
  8
0
 62
0
 10
-121.3416
 20
126.97120000000001
 30
0.0
 11
-135.3542
 21
126.97120000000001
 31
0.0
  0
LINE
  8
0
 62
0
 10
-135.3542
 20
126.97120000000001
 30
0.0
 11
-135.3542
 21
140.9838
 31
0.0
  0
LINE
  8
0
 62
0
 10
-116.3042
 20
145.7463
 30
0.0
 11
-102.29159999999999
 21
145.7463
 31
0.0
  0
LINE
  8
0
 62
0
 10
-116.3042
 20
131.7337
 30
0.0
 11
-116.3042
 21
145.7463
 31
0.0
  0
LINE
  8
0
 62
0
 10
-102.2916
 20
145.7463
 30
0.0
 11
-102.2916
 21
131.7337
 31
0.0
  0
LINE
  8
0
 62
0
 10
-102.2916
 20
131.7337
 30
0.0
 11
-116.30420000000001
 21
131.7337
 31
0.0
  0
LINE
  8
0
 62
0
 10
-116.3042
 20
126.69630000000001
 30
0.0
 11
-102.29159999999999
 21
126.69630000000001
 31
0.0
  0
LINE
  8
0
 62
0
 10
-116.3042
 20
112.68379999999999
 30
0.0
 11
-116.3042
 21
126.69630000000001
 31
0.0
  0
LINE
  8
0
 62
0
 10
-102.2916
 20
126.69630000000001
 30
0.0
 11
-102.2916
 21
112.68379999999999
 31
0.0
  0
LINE
  8
0
 62
0
 10
-102.2916
 20
112.68379999999999
 30
0.0
 11
-116.30420000000001
 21
112.68379999999999
 31
0.0
  0
LINE
  8
0
 62
0
 10
-135.3542
 20
179.0838
 30
0.0
 11
-135.3542
 21
165.0712
 31
0.0
  0
LINE
  8
0
 62
0
 10
-121.3416
 20
179.0838
 30
0.0
 11
-135.3542
 21
179.0838
 31
0.0
  0
LINE
  8
0
 62
0
 10
-135.3542
 20
165.0712
 30
0.0
 11
-121.3416
 21
165.0712
 31
0.0
  0
LINE
  8
0
 62
0
 10
-121.3416
 20
165.0712
 30
0.0
 11
-121.3416
 21
179.0838
 31
0.0
  0
LINE
  8
0
 62
0
 10
-135.3542
 20
160.0338
 30
0.0
 11
-121.3416
 21
160.0338
 31
0.0
  0
LINE
  8
0
 62
0
 10
-135.3542
 20
146.0212
 30
0.0
 11
-135.3542
 21
160.0338
 31
0.0
  0
LINE
  8
0
 62
0
 10
-121.3416
 20
160.0338
 30
0.0
 11
-121.3416
 21
146.0212
 31
0.0
  0
LINE
  8
0
 62
0
 10
-121.3416
 20
146.0212
 30
0.0
 11
-135.3542
 21
146.0212
 31
0.0
  0
CIRCLE
  8
0
 62
0
 10
-99.78264045715332
 20
148.27745056152344
 30
0.0
 40
1.0
  0
LINE
  8
0
 62
0
 10
-102.2916
 20
164.7963
 30
0.0
 11
-116.30420000000001
 21
164.7963
 31
0.0
  0
LINE
  8
0
 62
0
 10
-102.2916
 20
150.7837
 30
0.0
 11
-102.2916
 21
164.7963
 31
0.0
  0
LINE
  8
0
 62
0
 10
-116.3042
 20
164.7963
 30
0.0
 11
-116.3042
 21
150.7837
 31
0.0
  0
LINE
  8
0
 62
0
 10
-116.3042
 20
150.7837
 30
0.0
 11
-102.29159999999999
 21
150.7837
 31
0.0
  0
LINE
  8
0
 62
0
 10
-78.2039
 20
183.84629999999999
 30
0.0
 11
-64.1919
 21
183.84629999999999
 31
0.0
  0
LINE
  8
0
 62
0
 10
-78.2039
 20
169.8337
 30
0.0
 11
-78.2039
 21
183.84629999999999
 31
0.0
  0
LINE
  8
0
 62
0
 10
-64.1919
 20
183.84629999999999
 30
0.0
 11
-64.1919
 21
169.83369999999996
 31
0.0
  0
LINE
  8
0
 62
0
 10
-64.1919
 20
169.8337
 30
0.0
 11
-78.2039
 21
169.8337
 31
0.0
  0
LINE
  8
0
 62
0
 10
-45.14190000000001
 20
162.404
 30
0.0
 11
-59.1539
 21
162.404
 31
0.0
  0
LINE
  8
0
 62
0
 10
-45.14190000000001
 20
148.4128
 30
0.0
 11
-45.14190000000001
 21
162.404
 31
0.0
  0
LINE
  8
0
 62
0
 10
-59.1539
 20
162.404
 30
0.0
 11
-59.1539
 21
148.4128
 31
0.0
  0
LINE
  8
0
 62
0
 10
-59.1539
 20
148.4128
 30
0.0
 11
-45.14190000000001
 21
148.4128
 31
0.0
  0
LINE
  8
0
 62
0
 10
-45.14190000000001
 20
143.354
 30
0.0
 11
-59.1539
 21
143.354
 31
0.0
  0
LINE
  8
0
 62
0
 10
-45.14190000000001
 20
129.3628
 30
0.0
 11
-45.14190000000001
 21
143.354
 31
0.0
  0
LINE
  8
0
 62
0
 10
-59.1539
 20
143.354
 30
0.0
 11
-59.1539
 21
129.3628
 31
0.0
  0
LINE
  8
0
 62
0
 10
-59.1539
 20
129.3628
 30
0.0
 11
-45.14190000000001
 21
129.3628
 31
0.0
  0
LINE
  8
0
 62
0
 10
-97.2542
 20
167.1665
 30
0.0
 11
-83.2419
 21
167.1665
 31
0.0
  0
LINE
  8
0
 62
0
 10
-97.2542
 20
153.1753
 30
0.0
 11
-97.2542
 21
167.1665
 31
0.0
  0
LINE
  8
0
 62
0
 10
-83.2419
 20
167.1665
 30
0.0
 11
-83.2419
 21
153.1753
 31
0.0
  0
LINE
  8
0
 62
0
 10
-83.2419
 20
153.1753
 30
0.0
 11
-97.2542
 21
153.1753
 31
0.0
  0
LINE
  8
0
 62
0
 10
-97.2542
 20
148.1165
 30
0.0
 11
-83.2419
 21
148.1165
 31
0.0
  0
LINE
  8
0
 62
0
 10
-97.2542
 20
134.1253
 30
0.0
 11
-97.2542
 21
148.1165
 31
0.0
  0
LINE
  8
0
 62
0
 10
-83.2419
 20
148.1165
 30
0.0
 11
-83.2419
 21
134.1253
 31
0.0
  0
LINE
  8
0
 62
0
 10
-83.2419
 20
134.1253
 30
0.0
 11
-97.2542
 21
134.1253
 31
0.0
  0
LINE
  8
0
 62
0
 10
-78.2039
 20
164.7963
 30
0.0
 11
-64.1919
 21
164.7963
 31
0.0
  0
LINE
  8
0
 62
0
 10
-78.2039
 20
150.7837
 30
0.0
 11
-78.2039
 21
164.7963
 31
0.0
  0
LINE
  8
0
 62
0
 10
-64.1919
 20
164.7963
 30
0.0
 11
-64.1919
 21
150.7837
 31
0.0
  0
LINE
  8
0
 62
0
 10
-64.1919
 20
150.7837
 30
0.0
 11
-78.2039
 21
150.7837
 31
0.0
  0
LINE
  8
0
 62
0
 10
-135.3542
 20
102.88310000000001
 30
0.0
 11
-121.3416
 21
102.88310000000001
 31
0.0
  0
LINE
  8
0
 62
0
 10
-135.3542
 20
88.87129999999999
 30
0.0
 11
-135.3542
 21
102.88310000000001
 31
0.0
  0
LINE
  8
0
 62
0
 10
-121.3416
 20
102.88310000000001
 30
0.0
 11
-121.3416
 21
88.87129999999999
 31
0.0
  0
LINE
  8
0
 62
0
 10
-121.3416
 20
88.87129999999999
 30
0.0
 11
-135.3542
 21
88.87129999999999
 31
0.0
  0
LINE
  8
0
 62
0
 10
-135.3542
 20
121.93379999999999
 30
0.0
 11
-121.3416
 21
121.93379999999999
 31
0.0
  0
LINE
  8
0
 62
0
 10
-135.3542
 20
107.9212
 30
0.0
 11
-135.3542
 21
121.93379999999999
 31
0.0
  0
LINE
  8
0
 62
0
 10
-121.3416
 20
121.93379999999999
 30
0.0
 11
-121.3416
 21
107.9212
 31
0.0
  0
LINE
  8
0
 62
0
 10
-121.3416
 20
107.9212
 30
0.0
 11
-135.3542
 21
107.9212
 31
0.0
  0
LINE
  8
0
 62
0
 10
-83.24159656677246
 20
110.01649233398439
 30
0.0
 11
-97.25419656677246
 21
110.01649233398439
 31
0.0
  0
LINE
  8
0
 62
0
 10
-83.24159656677246
 20
96.00469233398437
 30
0.0
 11
-83.24159656677246
 21
110.01649233398439
 31
0.0
  0
LINE
  8
0
 62
0
 10
-97.25419656677246
 20
110.01649233398439
 30
0.0
 11
-97.25419656677246
 21
96.00469233398437
 31
0.0
  0
LINE
  8
0
 62
0
 10
-97.25419656677246
 20
96.00469233398437
 30
0.0
 11
-83.24159656677246
 21
96.00469233398437
 31
0.0
  0
LINE
  8
0
 62
0
 10
-102.2916
 20
107.6456
 30
0.0
 11
-116.30420000000001
 21
107.6456
 31
0.0
  0
LINE
  8
0
 62
0
 10
-102.2916
 20
93.6337
 30
0.0
 11
-102.2916
 21
107.6456
 31
0.0
  0
LINE
  8
0
 62
0
 10
-116.3042
 20
107.6456
 30
0.0
 11
-116.3042
 21
93.6337
 31
0.0
  0
LINE
  8
0
 62
0
 10
-116.3042
 20
93.6337
 30
0.0
 11
-102.29159999999999
 21
93.6337
 31
0.0
  0
CIRCLE
  8
0
 62
0
 10
-99.27414989471436
 20
112.71595764160156
 30
0.0
 40
1.0
  0
LINE
  8
0
 62
0
 10
-69.6528
 20
93.3161
 30
0.0
 11
-62.6678
 21
105.44489999999999
 31
0.0
  0
LINE
  8
0
 62
0
 10
-57.5453
 20
86.31020000000001
 30
0.0
 11
-69.6528
 21
93.3161
 31
0.0
  0
LINE
  8
0
 62
0
 10
-62.6678
 20
105.44489999999999
 30
0.0
 11
-50.5391
 21
98.4383
 31
0.0
  0
LINE
  8
0
 62
0
 10
-50.5391
 20
98.4383
 30
0.0
 11
-57.5453
 21
86.31020000000001
 31
0.0
  0
LINE
  8
0
 62
0
 10
-21.6336
 20
100.29929999999999
 30
0.0
 11
-20.146100000000004
 21
102.87620000000001
 31
0.0
  0
LINE
  8
0
 62
0
 10
-21.634
 20
100.2986
 30
0.0
 11
-21.6336
 21
100.29929999999999
 31
0.0
  0
LINE
  8
0
 62
0
 10
-20.146100000000004
 20
102.87620000000001
 30
0.0
 11
-8.024699999999996
 21
95.8785
 31
0.0
  0
LINE
  8
0
 62
0
 10
-22.287899999999993
 20
100.6762
 30
0.0
 11
-21.634
 21
100.2986
 31
0.0
  0
LINE
  8
0
 62
0
 10
-8.024699999999996
 20
95.8785
 30
0.0
 11
-24.5441
 21
67.2664
 31
0.0
  0
LINE
  8
0
 62
0
 10
-23.937700000000007
 20
97.81819999999999
 30
0.0
 11
-22.287899999999993
 21
100.6762
 31
0.0
  0
LINE
  8
0
 62
0
 10
-24.5441
 20
67.2664
 30
0.0
 11
-36.6649
 21
74.2647
 31
0.0
  0
LINE
  8
0
 62
0
 10
-23.2842
 20
97.44059999999999
 30
0.0
 11
-23.937700000000007
 21
97.81819999999999
 31
0.0
  0
LINE
  8
0
 62
0
 10
-36.6649
 20
74.2647
 30
0.0
 11
-35.1836
 21
76.83000000000001
 31
0.0
  0
LINE
  8
0
 62
0
 10
-33.534000000000006
 20
79.6873
 30
0.0
 11
-23.2842
 21
97.44059999999999
 31
0.0
  0
LINE
  8
0
 62
0
 10
-35.1836
 20
76.83000000000001
 30
0.0
 11
-35.183899999999994
 21
76.83000000000001
 31
0.0
  0
LINE
  8
0
 62
0
 10
-34.188
 20
80.0649
 30
0.0
 11
-33.534000000000006
 21
79.6873
 31
0.0
  0
LINE
  8
0
 62
0
 10
-35.183899999999994
 20
76.83000000000001
 30
0.0
 11
-35.8374
 21
77.20750000000001
 31
0.0
  0
LINE
  8
0
 62
0
 10
-35.8374
 20
77.20750000000001
 30
0.0
 11
-34.188
 21
80.0649
 31
0.0
  0
CIRCLE
  8
0
 62
0
 10
-20.162540435791016
 20
107.93310546875
 30
0.0
 40
1.0
  0
LINE
  8
0
 62
0
 10
-38.1332
 20
109.8243
 30
0.0
 11
-36.645700000000005
 21
112.40119999999999
 31
0.0
  0
LINE
  8
0
 62
0
 10
-38.1336
 20
109.8236
 30
0.0
 11
-38.1332
 21
109.8243
 31
0.0
  0
LINE
  8
0
 62
0
 10
-36.645700000000005
 20
112.40119999999999
 30
0.0
 11
-24.524500000000003
 21
105.40350000000001
 31
0.0
  0
LINE
  8
0
 62
0
 10
-38.787499999999994
 20
110.2012
 30
0.0
 11
-38.1336
 21
109.8236
 31
0.0
  0
LINE
  8
0
 62
0
 10
-24.524500000000003
 20
105.40350000000001
 30
0.0
 11
-41.0437
 21
76.79140000000001
 31
0.0
  0
LINE
  8
0
 62
0
 10
-40.43729999999999
 20
107.3432
 30
0.0
 11
-38.787499999999994
 21
110.2012
 31
0.0
  0
LINE
  8
0
 62
0
 10
-41.0437
 20
76.79140000000001
 30
0.0
 11
-53.1645
 21
83.78970000000001
 31
0.0
  0
LINE
  8
0
 62
0
 10
-39.7838
 20
106.9656
 30
0.0
 11
-40.43729999999999
 21
107.3432
 31
0.0
  0
LINE
  8
0
 62
0
 10
-53.1645
 20
83.78970000000001
 30
0.0
 11
-51.6832
 21
86.35499999999999
 31
0.0
  0
LINE
  8
0
 62
0
 10
-39.783500000000004
 20
106.9656
 30
0.0
 11
-39.7838
 21
106.9656
 31
0.0
  0
LINE
  8
0
 62
0
 10
-51.6832
 20
86.35499999999999
 30
0.0
 11
-51.6835
 21
86.35499999999999
 31
0.0
  0
LINE
  8
0
 62
0
 10
-50.0336
 20
89.2123
 30
0.0
 11
-39.783500000000004
 21
106.9656
 31
0.0
  0
LINE
  8
0
 62
0
 10
-51.6835
 20
86.35499999999999
 30
0.0
 11
-52.337
 21
86.73249999999999
 31
0.0
  0
LINE
  8
0
 62
0
 10
-50.6875
 20
89.5899
 30
0.0
 11
-50.0336
 21
89.2123
 31
0.0
  0
LINE
  8
0
 62
0
 10
-52.337
 20
86.73249999999999
 30
0.0
 11
-50.6875
 21
89.5899
 31
0.0
  0
LINE
  8
0
 62
0
 10
-45.14190000000001
 20
124.3047
 30
0.0
 11
-59.1539
 21
124.3047
 31
0.0
  0
LINE
  8
0
 62
0
 10
-45.14190000000001
 20
110.31280000000001
 30
0.0
 11
-45.14190000000001
 21
124.3047
 31
0.0
  0
LINE
  8
0
 62
0
 10
-59.1539
 20
124.3047
 30
0.0
 11
-59.1539
 21
110.31280000000001
 31
0.0
  0
LINE
  8
0
 62
0
 10
-59.1539
 20
110.31280000000001
 30
0.0
 11
-45.14190000000001
 21
110.31280000000001
 31
0.0
  0
CIRCLE
  8
0
 62
0
 10
-48.595468521118164
 20
105.34880065917969
 30
0.0
 40
1.0
  0
LINE
  8
0
 62
0
 10
-40.103899999999996
 20
152.879
 30
0.0
 11
-26.091899999999995
 21
152.879
 31
0.0
  0
LINE
  8
0
 62
0
 10
-40.103899999999996
 20
138.8878
 30
0.0
 11
-40.103899999999996
 21
152.879
 31
0.0
  0
LINE
  8
0
 62
0
 10
-26.091899999999995
 20
152.879
 30
0.0
 11
-26.091899999999995
 21
138.8878
 31
0.0
  0
LINE
  8
0
 62
0
 10
-26.091899999999995
 20
138.8878
 30
0.0
 11
-40.103899999999996
 21
138.8878
 31
0.0
  0
LINE
  8
0
 62
0
 10
-40.103899999999996
 20
133.829
 30
0.0
 11
-26.091899999999995
 21
133.829
 31
0.0
  0
LINE
  8
0
 62
0
 10
-40.103899999999996
 20
119.83850000000001
 30
0.0
 11
-40.103899999999996
 21
133.829
 31
0.0
  0
LINE
  8
0
 62
0
 10
-26.091899999999995
 20
133.829
 30
0.0
 11
-26.091899999999995
 21
119.83850000000001
 31
0.0
  0
LINE
  8
0
 62
0
 10
-26.091899999999995
 20
119.83850000000001
 30
0.0
 11
-40.103899999999996
 21
119.83850000000001
 31
0.0
  0
LINE
  8
0
 62
0
 10
-40.103899999999996
 20
171.929
 30
0.0
 11
-26.091899999999995
 21
171.929
 31
0.0
  0
LINE
  8
0
 62
0
 10
-40.103899999999996
 20
157.9378
 30
0.0
 11
-40.103899999999996
 21
171.929
 31
0.0
  0
LINE
  8
0
 62
0
 10
-26.091899999999995
 20
171.929
 30
0.0
 11
-26.091899999999995
 21
157.9378
 31
0.0
  0
LINE
  8
0
 62
0
 10
-26.091899999999995
 20
157.9378
 30
0.0
 11
-40.103899999999996
 21
157.9378
 31
0.0
  0
CIRCLE
  8
0
 62
0
 10
-42.63555908203125
 20
165.03663635253906
 30
0.0
 40
1.0
  0
LINE
  8
0
 62
0
 10
-59.1539
 20
181.454
 30
0.0
 11
-45.14190000000001
 21
181.454
 31
0.0
  0
LINE
  8
0
 62
0
 10
-59.1539
 20
167.4628
 30
0.0
 11
-59.1539
 21
181.454
 31
0.0
  0
LINE
  8
0
 62
0
 10
-45.14190000000001
 20
181.454
 30
0.0
 11
-45.14190000000001
 21
167.4628
 31
0.0
  0
LINE
  8
0
 62
0
 10
-45.14190000000001
 20
167.4628
 30
0.0
 11
-59.1539
 21
167.4628
 31
0.0
  0
CIRCLE
  8
0
 62
0
 10
-106.00661611557007
 20
187.38816833496094
 30
0.0
 40
1.0
  0
LINE
  8
0
 62
0
 10
-102.2916
 20
169.8337
 30
0.0
 11
-116.30420000000001
 21
169.8337
 31
0.0
  0
LINE
  8
0
 62
0
 10
-102.2916
 20
183.84629999999999
 30
0.0
 11
-102.2916
 21
169.83369999999996
 31
0.0
  0
LINE
  8
0
 62
0
 10
-116.3042
 20
169.8337
 30
0.0
 11
-116.3042
 21
183.84629999999999
 31
0.0
  0
LINE
  8
0
 62
0
 10
-116.3042
 20
183.84629999999999
 30
0.0
 11
-102.29159999999999
 21
183.84629999999999
 31
0.0
  0
LINE
  8
0
 62
0
 10
-97.2542
 20
186.2165
 30
0.0
 11
-97.2542
 21
172.2253
 31
0.0
  0
LINE
  8
0
 62
0
 10
-83.2419
 20
186.2165
 30
0.0
 11
-97.2542
 21
186.2165
 31
0.0
  0
LINE
  8
0
 62
0
 10
-97.2542
 20
172.2253
 30
0.0
 11
-83.2419
 21
172.2253
 31
0.0
  0
LINE
  8
0
 62
0
 10
-83.2419
 20
172.2253
 30
0.0
 11
-83.2419
 21
186.2165
 31
0.0
  0
CIRCLE
  8
0
 62
0
 10
-137.88704681396484
 20
105.10244750976562
 30
0.0
 40
1.0
  0
CIRCLE
  8
0
 62
0
 10
-137.88408660888672
 20
162.50094604492188
 30
0.0
 40
1.0
  0
LINE
  8
0
 62
0
 10
-140.3916
 20
160.0338
 30
0.0
 11
-154.4042
 21
160.0338
 31
0.0
  0
LINE
  8
0
 62
0
 10
-140.3916
 20
146.0212
 30
0.0
 11
-140.3916
 21
160.0338
 31
0.0
  0
LINE
  8
0
 62
0
 10
-154.4042
 20
160.0338
 30
0.0
 11
-154.4042
 21
146.0212
 31
0.0
  0
LINE
  8
0
 62
0
 10
-154.4042
 20
146.0212
 30
0.0
 11
-140.3916
 21
146.0212
 31
0.0
  0
LINE
  8
0
 62
0
 10
-140.3916
 20
179.0838
 30
0.0
 11
-154.4042
 21
179.0838
 31
0.0
  0
LINE
  8
0
 62
0
 10
-140.3916
 20
165.0712
 30
0.0
 11
-140.3916
 21
179.0838
 31
0.0
  0
LINE
  8
0
 62
0
 10
-154.4042
 20
179.0838
 30
0.0
 11
-154.4042
 21
165.0712
 31
0.0
  0
LINE
  8
0
 62
0
 10
-154.4042
 20
165.0712
 30
0.0
 11
-140.3916
 21
165.0712
 31
0.0
  0
LINE
  8
0
 62
0
 10
-140.3916
 20
140.9838
 30
0.0
 11
-154.4042
 21
140.9838
 31
0.0
  0
LINE
  8
0
 62
0
 10
-140.3916
 20
126.97120000000001
 30
0.0
 11
-140.3916
 21
140.9838
 31
0.0
  0
LINE
  8
0
 62
0
 10
-154.4042
 20
140.9838
 30
0.0
 11
-154.4042
 21
126.97120000000001
 31
0.0
  0
LINE
  8
0
 62
0
 10
-154.4042
 20
126.97120000000001
 30
0.0
 11
-140.3916
 21
126.97120000000001
 31
0.0
  0
LINE
  8
0
 62
0
 10
-140.3916
 20
102.88310000000001
 30
0.0
 11
-154.4042
 21
102.88310000000001
 31
0.0
  0
LINE
  8
0
 62
0
 10
-140.3916
 20
88.87129999999999
 30
0.0
 11
-140.3916
 21
102.88310000000001
 31
0.0
  0
LINE
  8
0
 62
0
 10
-154.4042
 20
102.88310000000001
 30
0.0
 11
-154.4042
 21
88.87129999999999
 31
0.0
  0
LINE
  8
0
 62
0
 10
-154.4042
 20
88.87129999999999
 30
0.0
 11
-140.3916
 21
88.87129999999999
 31
0.0
  0
LINE
  8
0
 62
0
 10
-140.3916
 20
121.93379999999999
 30
0.0
 11
-154.4042
 21
121.93379999999999
 31
0.0
  0
LINE
  8
0
 62
0
 10
-140.3916
 20
107.9212
 30
0.0
 11
-140.3916
 21
121.93379999999999
 31
0.0
  0
LINE
  8
0
 62
0
 10
-154.4042
 20
121.93379999999999
 30
0.0
 11
-154.4042
 21
107.9212
 31
0.0
  0
LINE
  8
0
 62
0
 10
-154.4042
 20
107.9212
 30
0.0
 11
-140.3916
 21
107.9212
 31
0.0
  0
ARC
  8
0
 62
0
 10
-22.328662626682267
 20
118.52135031393395
 30
0.0
 40
1.0
 50
-180.0
 51
-138.48000000000016
  0
LINE
  8
0
 62
0
 10
-23.077387003816348
 20
117.85846887122706
 30
0.0
 11
-5.538592146685502
 21
98.04840569995463
 31
0.0
  0
LINE
  8
0
 62
0
 10
-23.077387003816348
 20
117.85846887122706
 30
0.0
 11
-5.538592146685502
 21
98.04840569995463
 31
0.0
  0
LINE
  8
0
 62
0
 10
-24.646749940923808
 20
64.22
 30
0.0
 11
-61.99853560776009
 21
85.78506350946111
 31
0.0
  0
LINE
  8
0
 62
0
 10
-157.4086626266823
 20
87.62
 30
0.0
 11
-157.4086626266823
 21
180.618557345637
 31
0.0
  0
LINE
  8
0
 62
0
 10
-5.303990093384819
 20
95.72264281454083
 30
0.0
 11
-23.280724537139392
 21
64.58602540378445
 31
0.0
  0
LINE
  8
0
 62
0
 10
-155.84597102726673
 20
182.5701621629036
 30
0.0
 11
-100.7359505432923
 21
194.91901204316656
 31
0.0
  0
LINE
  8
0
 62
0
 10
-99.64267954183117
 20
195.04000000000002
 30
0.0
 11
-62.41039130888346
 21
195.04000000000002
 31
0.0
  0
LINE
  8
0
 62
0
 10
-48.5477406668167
 20
186.44
 30
0.0
 11
-31.893322040873123
 21
186.44
 31
0.0
  0
ARC
  8
0
 62
0
 10
-31.893322040873123
 20
185.44
 30
0.0
 40
1.0
 50
33.86000000000066
 51
90.00000000000081
  0
ARC
  8
0
 62
0
 10
-7.036040900953672
 20
96.72264281454083
 30
0.0
 40
2.0
 50
-30.000000000000018
 51
41.52000000000005
  0
LINE
  8
0
 62
0
 10
-48.5477406668167
 20
186.44
 30
0.0
 11
-31.893322040873123
 21
186.44
 31
0.0
  0
LINE
  8
0
 62
0
 10
-5.303990093384819
 20
95.72264281454083
 30
0.0
 11
-23.280724537139392
 21
64.58602540378445
 31
0.0
  0
ARC
  8
0
 62
0
 10
-48.5477406668167
 20
188.94
 30
0.0
 40
2.5
 50
-124.99000000000042
 51
-90.00000000000033
  0
ARC
  8
0
 62
0
 10
-24.146749940923804
 20
65.08602540378443
 30
0.0
 40
1.0
 50
-120.00000000000033
 51
-30.00000000000003
  0
LINE
  8
0
 62
0
 10
-60.97680766235038
 20
194.5881303494634
 30
0.0
 11
-49.98132431334977
 21
186.89186965053662
 31
0.0
  0
LINE
  8
0
 62
0
 10
-24.646749940923808
 20
64.22
 30
0.0
 11
-61.99853560776009
 21
85.78506350946111
 31
0.0
  0
ARC
  8
0
 62
0
 10
-62.41039130888346
 20
192.54000000000002
 30
0.0
 40
2.5
 50
55.01000000000035
 51
90.00000000000033
  0
ARC
  8
0
 62
0
 10
-63.24853560776008
 20
83.62
 30
0.0
 40
2.5
 50
59.99999999999994
 51
90.0
  0
LINE
  8
0
 62
0
 10
-99.64267954183117
 20
195.04000000000002
 30
0.0
 11
-62.41039130888346
 21
195.04000000000002
 31
0.0
  0
LINE
  8
0
 62
0
 10
-63.24853560776008
 20
86.12
 30
0.0
 11
-155.9086626266823
 21
86.12
 31
0.0
  0
ARC
  8
0
 62
0
 10
-99.64267954183117
 20
190.04000000000002
 30
0.0
 40
5.0
 50
90.0
 51
102.63000000000011
  0
ARC
  8
0
 62
0
 10
-155.9086626266823
 20
87.62
 30
0.0
 40
1.5
 50
-180.0
 51
-90.0
  0
LINE
  8
0
 62
0
 10
-155.84597102726673
 20
182.5701621629036
 30
0.0
 11
-100.7359505432923
 21
194.91901204316656
 31
0.0
  0
LINE
  8
0
 62
0
 10
-157.4086626266823
 20
87.62
 30
0.0
 11
-157.4086626266823
 21
180.618557345637
 31
0.0
  0
ARC
  8
0
 62
0
 10
-155.40866262668226
 20
180.61855734563702
 30
0.0
 40
2.0
 50
102.63000000000054
 51
-180.0
  0
ARC
  8
0
 62
0
 10
-24.32866262668226
 20
174.16560474754635
 30
0.0
 40
1.0
 50
-0.0
 51
33.86000000000032
  0
POLYLINE
  8
0
 62
0
 70
0
 66
1
 10
0.0
 20
0.0
 30
0.0
  0
VERTEX
  8
0
 10
-23.478662626682265
 20
174.16560474754635
 30
0.0
  0
VERTEX
  8
0
 10
-23.328662626682267
 20
174.16560474754635
 30
0.0
  0
SEQEND
  8
0
  0
LINE
  8
0
 62
0
 10
-23.478662626682265
 20
174.16560474754635
 30
0.0
 11
-23.478662626682265
 21
118.52135031393395
 31
0.0
  0
POLYLINE
  8
0
 62
0
 70
0
 66
1
 10
0.0
 20
0.0
 30
0.0
  0
VERTEX
  8
0
 10
-23.478662626682265
 20
118.52135031393395
 30
0.0
  0
VERTEX
  8
0
 10
-23.328662626682267
 20
118.52135031393395
 30
0.0
  0
SEQEND
  8
0
  0
ARC
  8
0
 62
0
 10
-22.328662626682267
 20
118.52135031393395
 30
0.0
 40
1.0
 50
-180.0
 51
-138.48000000000016
  0
POLYLINE
  8
0
 62
0
 70
0
 66
1
 10
0.0
 20
0.0
 30
0.0
  0
VERTEX
  8
0
 10
-23.622821383696397
 20
174.63919543548283
 30
0.0
  0
VERTEX
  8
0
 10
-23.498261164345948
 20
174.72277026276575
 30
0.0
  0
SEQEND
  8
0
  0
ARC
  8
0
 62
0
 10
-24.32866262668226
 20
174.16560474754635
 30
0.0
 40
0.85
 50
-0.0
 51
33.85999999999993
  0
LINE
  8
0
 62
0
 10
-155.8131728972229
 20
182.42379180160862
 30
0.0
 11
-100.70315241324847
 21
194.77264168187156
 31
0.0
  0
ARC
  8
0
 62
0
 10
-22.328662626682267
 20
118.52135031393395
 30
0.0
 40
1.15
 50
-180.0
 51
-138.47999999999985
  0
ARC
  8
0
 62
0
 10
-22.328662626682267
 20
118.52135031393395
 30
0.0
 40
1.15
 50
-180.0
 51
-138.47999999999985
  0
LINE
  8
0
 62
0
 10
-31.187480797887243
 20
185.91359068793648
 30
0.0
 11
-23.622821383696397
 21
174.63919543548283
 31
0.0
  0
LINE
  8
0
 62
0
 10
-23.189695660386462
 20
117.75903665482103
 30
0.0
 11
-5.650900803255617
 21
97.9489734835486
 31
0.0
  0
ARC
  8
0
 62
0
 10
-31.893322040873123
 20
185.44
 30
0.0
 40
0.85
 50
33.8600000000002
 51
90.00000000000097
  0
ARC
  8
0
 62
0
 10
-7.036040900953672
 20
96.72264281454083
 30
0.0
 40
1.85
 50
-29.999999999999954
 51
41.51999999999986
  0
LINE
  8
0
 62
0
 10
-48.5477406668167
 20
186.29
 30
0.0
 11
-31.893322040873123
 21
186.29
 31
0.0
  0
LINE
  8
0
 62
0
 10
-5.433893903952487
 20
95.79764281454084
 30
0.0
 11
-23.41062834770706
 21
64.66102540378445
 31
0.0
  0
ARC
  8
0
 62
0
 10
-48.5477406668167
 20
188.94
 30
0.0
 40
2.65
 50
-124.99000000000034
 51
-90.0000000000003
  0
ARC
  8
0
 62
0
 10
-24.146749940923804
 20
65.08602540378443
 30
0.0
 40
0.85
 50
-120.0000000000003
 51
-29.99999999999985
  0
LINE
  8
0
 62
0
 10
-61.062822681142364
 20
194.4652425284956
 30
0.0
 11
-50.067339332141756
 21
186.76898182956882
 31
0.0
  0
LINE
  8
0
 62
0
 10
-24.57174994092381
 20
64.34990381056767
 30
0.0
 11
-61.92353560776009
 21
85.91496732002878
 31
0.0
  0
ARC
  8
0
 62
0
 10
-62.41039130888346
 20
192.54000000000002
 30
0.0
 40
2.35
 50
55.0100000000003
 51
90.00000000000036
  0
ARC
  8
0
 62
0
 10
-63.24853560776008
 20
83.62
 30
0.0
 40
2.65
 50
59.99999999999993
 51
90.0
  0
LINE
  8
0
 62
0
 10
-99.64267954183117
 20
194.89000000000001
 30
0.0
 11
-62.41039130888346
 21
194.89000000000001
 31
0.0
  0
LINE
  8
0
 62
0
 10
-63.24853560776008
 20
86.27000000000001
 30
0.0
 11
-155.9086626266823
 21
86.27000000000001
 31
0.0
  0
ARC
  8
0
 62
0
 10
-99.64267954183117
 20
190.04000000000002
 30
0.0
 40
4.85
 50
90.0
 51
102.63000000000001
  0
ARC
  8
0
 62
0
 10
-155.9086626266823
 20
87.62
 30
0.0
 40
1.35
 50
-180.0
 51
-90.0
  0
LINE
  8
0
 62
0
 10
-155.8131728972229
 20
182.42379180160862
 30
0.0
 11
-100.70315241324847
 21
194.77264168187156
 31
0.0
  0
LINE
  8
0
 62
0
 10
-157.25866262668228
 20
87.62
 30
0.0
 11
-157.25866262668228
 21
180.618557345637
 31
0.0
  0
ARC
  8
0
 62
0
 10
-155.40866262668226
 20
180.61855734563702
 30
0.0
 40
1.85
 50
102.63000000000054
 51
-180.0
  0
POLYLINE
  8
0
 62
0
 70
0
 66
1
 10
0.0
 20
0.0
 30
0.0
  0
VERTEX
  8
0
 10
-23.189695660386466
 20
117.75903665482102
 30
0.0
  0
VERTEX
  8
0
 10
-23.07738700381635
 20
117.85846887122705
 30
0.0
  0
SEQEND
  8
0
  0
POLYLINE
  8
0
 62
0
 70
0
 66
1
 10
0.0
 20
0.0
 30
0.0
  0
VERTEX
  8
0
 10
-31.18748079788725
 20
185.91359068793648
 30
0.0
  0
VERTEX
  8
0
 10
-31.0629205785368
 20
185.9971655152194
 30
0.0
  0
SEQEND
  8
0
  0
ARC
  8
0
 62
0
 10
-31.893322040873123
 20
185.44
 30
0.0
 40
1.0
 50
33.86000000000066
 51
90.00000000000081
  0
POLYLINE
  8
0
 62
0
 70
0
 66
1
 10
0.0
 20
0.0
 30
0.0
  0
VERTEX
  8
0
 10
-5.650900803255617
 20
97.9489734835486
 30
0.0
  0
VERTEX
  8
0
 10
-5.538592146685502
 20
98.04840569995463
 30
0.0
  0
SEQEND
  8
0
  0
POLYLINE
  8
0
 62
0
 70
0
 66
1
 10
0.0
 20
0.0
 30
0.0
  0
VERTEX
  8
0
 10
-31.893322040873123
 20
186.29
 30
0.0
  0
VERTEX
  8
0
 10
-31.893322040873123
 20
186.44
 30
0.0
  0
SEQEND
  8
0
  0
POLYLINE
  8
0
 62
0
 70
0
 66
1
 10
0.0
 20
0.0
 30
0.0
  0
VERTEX
  8
0
 10
-5.433893903952459
 20
95.79764281454084
 30
0.0
  0
VERTEX
  8
0
 10
-5.30399009338479
 20
95.72264281454083
 30
0.0
  0
SEQEND
  8
0
  0
POLYLINE
  8
0
 62
0
 70
0
 66
1
 10
0.0
 20
0.0
 30
0.0
  0
VERTEX
  8
0
 10
-48.547740666816715
 20
186.29
 30
0.0
  0
VERTEX
  8
0
 10
-48.547740666816715
 20
186.44
 30
0.0
  0
SEQEND
  8
0
  0
POLYLINE
  8
0
 62
0
 70
0
 66
1
 10
0.0
 20
0.0
 30
0.0
  0
VERTEX
  8
0
 10
-23.41062834770706
 20
64.66102540378445
 30
0.0
  0
VERTEX
  8
0
 10
-23.280724537139395
 20
64.58602540378445
 30
0.0
  0
SEQEND
  8
0
  0
POLYLINE
  8
0
 62
0
 70
0
 66
1
 10
0.0
 20
0.0
 30
0.0
  0
VERTEX
  8
0
 10
-50.067339332141756
 20
186.76898182956882
 30
0.0
  0
VERTEX
  8
0
 10
-49.981324313349766
 20
186.89186965053662
 30
0.0
  0
SEQEND
  8
0
  0
POLYLINE
  8
0
 62
0
 70
0
 66
1
 10
0.0
 20
0.0
 30
0.0
  0
VERTEX
  8
0
 10
-24.571749940923805
 20
64.34990381056767
 30
0.0
  0
VERTEX
  8
0
 10
-24.646749940923804
 20
64.22
 30
0.0
  0
SEQEND
  8
0
  0
POLYLINE
  8
0
 62
0
 70
0
 66
1
 10
0.0
 20
0.0
 30
0.0
  0
VERTEX
  8
0
 10
-61.06282268114238
 20
194.4652425284956
 30
0.0
  0
VERTEX
  8
0
 10
-60.97680766235039
 20
194.5881303494634
 30
0.0
  0
SEQEND
  8
0
  0
POLYLINE
  8
0
 62
0
 70
0
 66
1
 10
0.0
 20
0.0
 30
0.0
  0
VERTEX
  8
0
 10
-61.92353560776009
 20
85.91496732002878
 30
0.0
  0
VERTEX
  8
0
 10
-61.99853560776009
 20
85.78506350946111
 30
0.0
  0
SEQEND
  8
0
  0
POLYLINE
  8
0
 62
0
 70
0
 66
1
 10
0.0
 20
0.0
 30
0.0
  0
VERTEX
  8
0
 10
-62.410391308883455
 20
194.89000000000001
 30
0.0
  0
VERTEX
  8
0
 10
-62.410391308883455
 20
195.04000000000002
 30
0.0
  0
SEQEND
  8
0
  0
POLYLINE
  8
0
 62
0
 70
0
 66
1
 10
0.0
 20
0.0
 30
0.0
  0
VERTEX
  8
0
 10
-63.24853560776008
 20
86.27000000000001
 30
0.0
  0
VERTEX
  8
0
 10
-63.24853560776008
 20
86.12
 30
0.0
  0
SEQEND
  8
0
  0
POLYLINE
  8
0
 62
0
 70
0
 66
1
 10
0.0
 20
0.0
 30
0.0
  0
VERTEX
  8
0
 10
-99.64267954183117
 20
194.89000000000001
 30
0.0
  0
VERTEX
  8
0
 10
-99.64267954183117
 20
195.04000000000002
 30
0.0
  0
SEQEND
  8
0
  0
POLYLINE
  8
0
 62
0
 70
0
 66
1
 10
0.0
 20
0.0
 30
0.0
  0
VERTEX
  8
0
 10
-155.9086626266823
 20
86.27000000000001
 30
0.0
  0
VERTEX
  8
0
 10
-155.9086626266823
 20
86.12
 30
0.0
  0
SEQEND
  8
0
  0
POLYLINE
  8
0
 62
0
 70
0
 66
1
 10
0.0
 20
0.0
 30
0.0
  0
VERTEX
  8
0
 10
-100.70315241324847
 20
194.77264168187156
 30
0.0
  0
VERTEX
  8
0
 10
-100.73595054329232
 20
194.91901204316656
 30
0.0
  0
SEQEND
  8
0
  0
POLYLINE
  8
0
 62
0
 70
0
 66
1
 10
0.0
 20
0.0
 30
0.0
  0
VERTEX
  8
0
 10
-157.25866262668228
 20
87.62
 30
0.0
  0
VERTEX
  8
0
 10
-157.4086626266823
 20
87.62
 30
0.0
  0
SEQEND
  8
0
  0
POLYLINE
  8
0
 62
0
 70
0
 66
1
 10
0.0
 20
0.0
 30
0.0
  0
VERTEX
  8
0
 10
-155.8131728972229
 20
182.42379180160864
 30
0.0
  0
VERTEX
  8
0
 10
-155.84597102726673
 20
182.57016216290364
 30
0.0
  0
SEQEND
  8
0
  0
POLYLINE
  8
0
 62
0
 70
0
 66
1
 10
0.0
 20
0.0
 30
0.0
  0
VERTEX
  8
0
 10
-157.25866262668228
 20
180.618557345637
 30
0.0
  0
VERTEX
  8
0
 10
-157.40866262668226
 20
180.618557345637
 30
0.0
  0
SEQEND
  8
0
  0
ENDBLK
  0
BLOCK
  8
0
  2
PART__MIRRORING
 70
0
 10
0.0
 20
0.0
 30
0.0
  3
PART__MIRRORING
  0
LINE
  8
0
 62
0
 10
23.328662626682267
 20
174.16560474754635
 30
0.0
 11
23.328662626682267
 21
118.52135031393395
 31
0.0
  0
ARC
  8
0
 62
0
 10
24.32866262668226
 20
174.16560474754635
 30
0.0
 40
1.0
 50
146.1399999999997
 51
-180.0
  0
LINE
  8
0
 62
0
 10
31.062920578536794
 20
185.9971655152194
 30
0.0
 11
23.498261164345948
 21
174.72277026276575
 31
0.0
  0
LINE
  8
0
 62
0
 10
31.062920578536794
 20
185.9971655152194
 30
0.0
 11
23.498261164345948
 21
174.72277026276575
 31
0.0
  0
LINE
  8
0
 62
0
 10
78.2039
 20
145.7463
 30
0.0
 11
64.1919
 21
145.7463
 31
0.0
  0
LINE
  8
0
 62
0
 10
78.2039
 20
131.7337
 30
0.0
 11
78.2039
 21
145.7463
 31
0.0
  0
LINE
  8
0
 62
0
 10
64.1919
 20
145.7463
 30
0.0
 11
64.1919
 21
131.7337
 31
0.0
  0
LINE
  8
0
 62
0
 10
64.1919
 20
131.7337
 30
0.0
 11
78.2039
 21
131.7337
 31
0.0
  0
LINE
  8
0
 62
0
 10
78.2039
 20
126.69630000000001
 30
0.0
 11
64.1919
 21
126.69630000000001
 31
0.0
  0
LINE
  8
0
 62
0
 10
78.2039
 20
112.68379999999999
 30
0.0
 11
78.2039
 21
126.69630000000001
 31
0.0
  0
LINE
  8
0
 62
0
 10
64.1919
 20
126.69630000000001
 30
0.0
 11
64.1919
 21
112.68379999999999
 31
0.0
  0
LINE
  8
0
 62
0
 10
64.1919
 20
112.68379999999999
 30
0.0
 11
78.2039
 21
112.68379999999999
 31
0.0
  0
LINE
  8
0
 62
0
 10
97.2542
 20
129.0665
 30
0.0
 11
83.2419
 21
129.0665
 31
0.0
  0
LINE
  8
0
 62
0
 10
97.2542
 20
115.076
 30
0.0
 11
97.2542
 21
129.0665
 31
0.0
  0
LINE
  8
0
 62
0
 10
83.24189999999999
 20
129.0665
 30
0.0
 11
83.24189999999999
 21
115.076
 31
0.0
  0
LINE
  8
0
 62
0
 10
83.24189999999999
 20
115.076
 30
0.0
 11
97.25419999999998
 21
115.076
 31
0.0
  0
LINE
  8
0
 62
0
 10
135.3542
 20
140.9838
 30
0.0
 11
121.3416
 21
140.9838
 31
0.0
  0
LINE
  8
0
 62
0
 10
121.3416
 20
140.9838
 30
0.0
 11
121.3416
 21
126.97120000000001
 31
0.0
  0
LINE
  8
0
 62
0
 10
121.3416
 20
126.97120000000001
 30
0.0
 11
135.3542
 21
126.97120000000001
 31
0.0
  0
LINE
  8
0
 62
0
 10
135.3542
 20
126.97120000000001
 30
0.0
 11
135.3542
 21
140.9838
 31
0.0
  0
LINE
  8
0
 62
0
 10
116.30420000000001
 20
145.7463
 30
0.0
 11
102.29160000000002
 21
145.7463
 31
0.0
  0
LINE
  8
0
 62
0
 10
116.30420000000001
 20
131.7337
 30
0.0
 11
116.30420000000001
 21
145.7463
 31
0.0
  0
LINE
  8
0
 62
0
 10
102.29159999999999
 20
145.7463
 30
0.0
 11
102.29159999999999
 21
131.7337
 31
0.0
  0
LINE
  8
0
 62
0
 10
102.29159999999999
 20
131.7337
 30
0.0
 11
116.30419999999998
 21
131.7337
 31
0.0
  0
LINE
  8
0
 62
0
 10
116.30420000000001
 20
126.69630000000001
 30
0.0
 11
102.29160000000002
 21
126.69630000000001
 31
0.0
  0
LINE
  8
0
 62
0
 10
116.30420000000001
 20
112.68379999999999
 30
0.0
 11
116.30420000000001
 21
126.69630000000001
 31
0.0
  0
LINE
  8
0
 62
0
 10
102.29159999999999
 20
126.69630000000001
 30
0.0
 11
102.29159999999999
 21
112.68379999999999
 31
0.0
  0
LINE
  8
0
 62
0
 10
102.29159999999999
 20
112.68379999999999
 30
0.0
 11
116.30419999999998
 21
112.68379999999999
 31
0.0
  0
LINE
  8
0
 62
0
 10
135.3542
 20
179.0838
 30
0.0
 11
135.3542
 21
165.0712
 31
0.0
  0
LINE
  8
0
 62
0
 10
121.3416
 20
179.0838
 30
0.0
 11
135.3542
 21
179.0838
 31
0.0
  0
LINE
  8
0
 62
0
 10
135.3542
 20
165.0712
 30
0.0
 11
121.3416
 21
165.0712
 31
0.0
  0
LINE
  8
0
 62
0
 10
121.3416
 20
165.0712
 30
0.0
 11
121.3416
 21
179.0838
 31
0.0
  0
LINE
  8
0
 62
0
 10
135.3542
 20
160.0338
 30
0.0
 11
121.3416
 21
160.0338
 31
0.0
  0
LINE
  8
0
 62
0
 10
135.3542
 20
146.0212
 30
0.0
 11
135.3542
 21
160.0338
 31
0.0
  0
LINE
  8
0
 62
0
 10
121.3416
 20
160.0338
 30
0.0
 11
121.3416
 21
146.0212
 31
0.0
  0
LINE
  8
0
 62
0
 10
121.3416
 20
146.0212
 30
0.0
 11
135.3542
 21
146.0212
 31
0.0
  0
CIRCLE
  8
0
 62
0
 10
99.78264045715332
 20
148.27745056152344
 30
0.0
 40
1.0
  0
LINE
  8
0
 62
0
 10
102.29159999999999
 20
164.7963
 30
0.0
 11
116.30419999999998
 21
164.7963
 31
0.0
  0
LINE
  8
0
 62
0
 10
102.29159999999999
 20
150.7837
 30
0.0
 11
102.29159999999999
 21
164.7963
 31
0.0
  0
LINE
  8
0
 62
0
 10
116.30420000000001
 20
164.7963
 30
0.0
 11
116.30420000000001
 21
150.7837
 31
0.0
  0
LINE
  8
0
 62
0
 10
116.30420000000001
 20
150.7837
 30
0.0
 11
102.29160000000002
 21
150.7837
 31
0.0
  0
LINE
  8
0
 62
0
 10
78.2039
 20
183.84629999999999
 30
0.0
 11
64.1919
 21
183.84629999999999
 31
0.0
  0
LINE
  8
0
 62
0
 10
78.2039
 20
169.8337
 30
0.0
 11
78.2039
 21
183.84629999999999
 31
0.0
  0
LINE
  8
0
 62
0
 10
64.1919
 20
183.84629999999999
 30
0.0
 11
64.1919
 21
169.83369999999996
 31
0.0
  0
LINE
  8
0
 62
0
 10
64.1919
 20
169.8337
 30
0.0
 11
78.2039
 21
169.8337
 31
0.0
  0
LINE
  8
0
 62
0
 10
45.14190000000001
 20
162.404
 30
0.0
 11
59.1539
 21
162.404
 31
0.0
  0
LINE
  8
0
 62
0
 10
45.14190000000001
 20
148.4128
 30
0.0
 11
45.14190000000001
 21
162.404
 31
0.0
  0
LINE
  8
0
 62
0
 10
59.15389999999999
 20
162.404
 30
0.0
 11
59.15389999999999
 21
148.4128
 31
0.0
  0
LINE
  8
0
 62
0
 10
59.15389999999999
 20
148.4128
 30
0.0
 11
45.1419
 21
148.4128
 31
0.0
  0
LINE
  8
0
 62
0
 10
45.14190000000001
 20
143.354
 30
0.0
 11
59.1539
 21
143.354
 31
0.0
  0
LINE
  8
0
 62
0
 10
45.14190000000001
 20
129.3628
 30
0.0
 11
45.14190000000001
 21
143.354
 31
0.0
  0
LINE
  8
0
 62
0
 10
59.15389999999999
 20
143.354
 30
0.0
 11
59.15389999999999
 21
129.3628
 31
0.0
  0
LINE
  8
0
 62
0
 10
59.15389999999999
 20
129.3628
 30
0.0
 11
45.1419
 21
129.3628
 31
0.0
  0
LINE
  8
0
 62
0
 10
97.2542
 20
167.1665
 30
0.0
 11
83.2419
 21
167.1665
 31
0.0
  0
LINE
  8
0
 62
0
 10
97.2542
 20
153.1753
 30
0.0
 11
97.2542
 21
167.1665
 31
0.0
  0
LINE
  8
0
 62
0
 10
83.24189999999999
 20
167.1665
 30
0.0
 11
83.24189999999999
 21
153.1753
 31
0.0
  0
LINE
  8
0
 62
0
 10
83.24189999999999
 20
153.1753
 30
0.0
 11
97.25419999999998
 21
153.1753
 31
0.0
  0
LINE
  8
0
 62
0
 10
97.2542
 20
148.1165
 30
0.0
 11
83.2419
 21
148.1165
 31
0.0
  0
LINE
  8
0
 62
0
 10
97.2542
 20
134.1253
 30
0.0
 11
97.2542
 21
148.1165
 31
0.0
  0
LINE
  8
0
 62
0
 10
83.24189999999999
 20
148.1165
 30
0.0
 11
83.24189999999999
 21
134.1253
 31
0.0
  0
LINE
  8
0
 62
0
 10
83.24189999999999
 20
134.1253
 30
0.0
 11
97.25419999999998
 21
134.1253
 31
0.0
  0
LINE
  8
0
 62
0
 10
78.2039
 20
164.7963
 30
0.0
 11
64.1919
 21
164.7963
 31
0.0
  0
LINE
  8
0
 62
0
 10
78.2039
 20
150.7837
 30
0.0
 11
78.2039
 21
164.7963
 31
0.0
  0
LINE
  8
0
 62
0
 10
64.1919
 20
164.7963
 30
0.0
 11
64.1919
 21
150.7837
 31
0.0
  0
LINE
  8
0
 62
0
 10
64.1919
 20
150.7837
 30
0.0
 11
78.2039
 21
150.7837
 31
0.0
  0
LINE
  8
0
 62
0
 10
135.3542
 20
102.88310000000001
 30
0.0
 11
121.3416
 21
102.88310000000001
 31
0.0
  0
LINE
  8
0
 62
0
 10
135.3542
 20
88.87129999999999
 30
0.0
 11
135.3542
 21
102.88310000000001
 31
0.0
  0
LINE
  8
0
 62
0
 10
121.3416
 20
102.88310000000001
 30
0.0
 11
121.3416
 21
88.87129999999999
 31
0.0
  0
LINE
  8
0
 62
0
 10
121.3416
 20
88.87129999999999
 30
0.0
 11
135.3542
 21
88.87129999999999
 31
0.0
  0
LINE
  8
0
 62
0
 10
135.3542
 20
121.93379999999999
 30
0.0
 11
121.3416
 21
121.93379999999999
 31
0.0
  0
LINE
  8
0
 62
0
 10
135.3542
 20
107.9212
 30
0.0
 11
135.3542
 21
121.93379999999999
 31
0.0
  0
LINE
  8
0
 62
0
 10
121.3416
 20
121.93379999999999
 30
0.0
 11
121.3416
 21
107.9212
 31
0.0
  0
LINE
  8
0
 62
0
 10
121.3416
 20
107.9212
 30
0.0
 11
135.3542
 21
107.9212
 31
0.0
  0
LINE
  8
0
 62
0
 10
83.24159656677246
 20
110.01649233398439
 30
0.0
 11
97.25419656677246
 21
110.01649233398439
 31
0.0
  0
LINE
  8
0
 62
0
 10
83.24159656677246
 20
96.00469233398437
 30
0.0
 11
83.24159656677246
 21
110.01649233398439
 31
0.0
  0
LINE
  8
0
 62
0
 10
97.25419656677246
 20
110.01649233398439
 30
0.0
 11
97.25419656677246
 21
96.00469233398437
 31
0.0
  0
LINE
  8
0
 62
0
 10
97.25419656677246
 20
96.00469233398437
 30
0.0
 11
83.24159656677246
 21
96.00469233398437
 31
0.0
  0
LINE
  8
0
 62
0
 10
102.29159999999999
 20
107.6456
 30
0.0
 11
116.30419999999998
 21
107.6456
 31
0.0
  0
LINE
  8
0
 62
0
 10
102.29159999999999
 20
93.6337
 30
0.0
 11
102.29159999999999
 21
107.6456
 31
0.0
  0
LINE
  8
0
 62
0
 10
116.30420000000001
 20
107.6456
 30
0.0
 11
116.30420000000001
 21
93.6337
 31
0.0
  0
LINE
  8
0
 62
0
 10
116.30420000000001
 20
93.6337
 30
0.0
 11
102.29160000000002
 21
93.6337
 31
0.0
  0
CIRCLE
  8
0
 62
0
 10
99.27414989471436
 20
112.71595764160156
 30
0.0
 40
1.0
  0
LINE
  8
0
 62
0
 10
69.65280000000001
 20
93.3161
 30
0.0
 11
62.667800000000014
 21
105.44489999999999
 31
0.0
  0
LINE
  8
0
 62
0
 10
57.5453
 20
86.31020000000001
 30
0.0
 11
69.6528
 21
93.3161
 31
0.0
  0
LINE
  8
0
 62
0
 10
62.6678
 20
105.44489999999999
 30
0.0
 11
50.5391
 21
98.4383
 31
0.0
  0
LINE
  8
0
 62
0
 10
50.53909999999999
 20
98.4383
 30
0.0
 11
57.54529999999999
 21
86.31020000000001
 31
0.0
  0
LINE
  8
0
 62
0
 10
21.6336
 20
100.29929999999999
 30
0.0
 11
20.146100000000004
 21
102.87620000000001
 31
0.0
  0
LINE
  8
0
 62
0
 10
21.634
 20
100.2986
 30
0.0
 11
21.6336
 21
100.29929999999999
 31
0.0
  0
LINE
  8
0
 62
0
 10
20.146100000000004
 20
102.87620000000001
 30
0.0
 11
8.024699999999996
 21
95.8785
 31
0.0
  0
LINE
  8
0
 62
0
 10
22.287899999999993
 20
100.6762
 30
0.0
 11
21.634
 21
100.2986
 31
0.0
  0
LINE
  8
0
 62
0
 10
8.024699999999996
 20
95.8785
 30
0.0
 11
24.5441
 21
67.2664
 31
0.0
  0
LINE
  8
0
 62
0
 10
23.937700000000007
 20
97.81819999999999
 30
0.0
 11
22.287899999999993
 21
100.6762
 31
0.0
  0
LINE
  8
0
 62
0
 10
24.5441
 20
67.2664
 30
0.0
 11
36.6649
 21
74.2647
 31
0.0
  0
LINE
  8
0
 62
0
 10
23.2842
 20
97.44059999999999
 30
0.0
 11
23.937700000000007
 21
97.81819999999999
 31
0.0
  0
LINE
  8
0
 62
0
 10
36.6649
 20
74.2647
 30
0.0
 11
35.1836
 21
76.83000000000001
 31
0.0
  0
LINE
  8
0
 62
0
 10
33.534000000000006
 20
79.6873
 30
0.0
 11
23.2842
 21
97.44059999999999
 31
0.0
  0
LINE
  8
0
 62
0
 10
35.1836
 20
76.83000000000001
 30
0.0
 11
35.183899999999994
 21
76.83000000000001
 31
0.0
  0
LINE
  8
0
 62
0
 10
34.188
 20
80.0649
 30
0.0
 11
33.534000000000006
 21
79.6873
 31
0.0
  0
LINE
  8
0
 62
0
 10
35.183899999999994
 20
76.83000000000001
 30
0.0
 11
35.8374
 21
77.20750000000001
 31
0.0
  0
LINE
  8
0
 62
0
 10
35.8374
 20
77.20750000000001
 30
0.0
 11
34.188
 21
80.0649
 31
0.0
  0
CIRCLE
  8
0
 62
0
 10
20.162540435791016
 20
107.93310546875
 30
0.0
 40
1.0
  0
LINE
  8
0
 62
0
 10
38.1332
 20
109.8243
 30
0.0
 11
36.645700000000005
 21
112.40119999999999
 31
0.0
  0
LINE
  8
0
 62
0
 10
38.1336
 20
109.8236
 30
0.0
 11
38.1332
 21
109.8243
 31
0.0
  0
LINE
  8
0
 62
0
 10
36.645700000000005
 20
112.40119999999999
 30
0.0
 11
24.524500000000003
 21
105.40350000000001
 31
0.0
  0
LINE
  8
0
 62
0
 10
38.787499999999994
 20
110.2012
 30
0.0
 11
38.1336
 21
109.8236
 31
0.0
  0
LINE
  8
0
 62
0
 10
24.524500000000003
 20
105.40350000000001
 30
0.0
 11
41.0437
 21
76.79140000000001
 31
0.0
  0
LINE
  8
0
 62
0
 10
40.43729999999999
 20
107.3432
 30
0.0
 11
38.787499999999994
 21
110.2012
 31
0.0
  0
LINE
  8
0
 62
0
 10
41.0437
 20
76.79140000000001
 30
0.0
 11
53.1645
 21
83.78970000000001
 31
0.0
  0
LINE
  8
0
 62
0
 10
39.7838
 20
106.9656
 30
0.0
 11
40.43729999999999
 21
107.3432
 31
0.0
  0
LINE
  8
0
 62
0
 10
53.164500000000004
 20
83.78970000000001
 30
0.0
 11
51.68320000000001
 21
86.35499999999999
 31
0.0
  0
LINE
  8
0
 62
0
 10
39.783500000000004
 20
106.9656
 30
0.0
 11
39.7838
 21
106.9656
 31
0.0
  0
LINE
  8
0
 62
0
 10
51.6832
 20
86.35499999999999
 30
0.0
 11
51.6835
 21
86.35499999999999
 31
0.0
  0
LINE
  8
0
 62
0
 10
50.03360000000001
 20
89.2123
 30
0.0
 11
39.78350000000001
 21
106.9656
 31
0.0
  0
LINE
  8
0
 62
0
 10
51.68350000000001
 20
86.35499999999999
 30
0.0
 11
52.33700000000001
 21
86.73249999999999
 31
0.0
  0
LINE
  8
0
 62
0
 10
50.6875
 20
89.5899
 30
0.0
 11
50.0336
 21
89.2123
 31
0.0
  0
LINE
  8
0
 62
0
 10
52.337
 20
86.73249999999999
 30
0.0
 11
50.6875
 21
89.5899
 31
0.0
  0
LINE
  8
0
 62
0
 10
45.14190000000001
 20
124.3047
 30
0.0
 11
59.1539
 21
124.3047
 31
0.0
  0
LINE
  8
0
 62
0
 10
45.14190000000001
 20
110.31280000000001
 30
0.0
 11
45.14190000000001
 21
124.3047
 31
0.0
  0
LINE
  8
0
 62
0
 10
59.15389999999999
 20
124.3047
 30
0.0
 11
59.15389999999999
 21
110.31280000000001
 31
0.0
  0
LINE
  8
0
 62
0
 10
59.15389999999999
 20
110.31280000000001
 30
0.0
 11
45.1419
 21
110.31280000000001
 31
0.0
  0
CIRCLE
  8
0
 62
0
 10
48.595468521118164
 20
105.34880065917969
 30
0.0
 40
1.0
  0
LINE
  8
0
 62
0
 10
40.103899999999996
 20
152.879
 30
0.0
 11
26.091899999999995
 21
152.879
 31
0.0
  0
LINE
  8
0
 62
0
 10
40.103899999999996
 20
138.8878
 30
0.0
 11
40.103899999999996
 21
152.879
 31
0.0
  0
LINE
  8
0
 62
0
 10
26.091899999999995
 20
152.879
 30
0.0
 11
26.091899999999995
 21
138.8878
 31
0.0
  0
LINE
  8
0
 62
0
 10
26.091899999999995
 20
138.8878
 30
0.0
 11
40.103899999999996
 21
138.8878
 31
0.0
  0
LINE
  8
0
 62
0
 10
40.103899999999996
 20
133.829
 30
0.0
 11
26.091899999999995
 21
133.829
 31
0.0
  0
LINE
  8
0
 62
0
 10
40.103899999999996
 20
119.83850000000001
 30
0.0
 11
40.103899999999996
 21
133.829
 31
0.0
  0
LINE
  8
0
 62
0
 10
26.091899999999995
 20
133.829
 30
0.0
 11
26.091899999999995
 21
119.83850000000001
 31
0.0
  0
LINE
  8
0
 62
0
 10
26.091899999999995
 20
119.83850000000001
 30
0.0
 11
40.103899999999996
 21
119.83850000000001
 31
0.0
  0
LINE
  8
0
 62
0
 10
40.103899999999996
 20
171.929
 30
0.0
 11
26.091899999999995
 21
171.929
 31
0.0
  0
LINE
  8
0
 62
0
 10
40.103899999999996
 20
157.9378
 30
0.0
 11
40.103899999999996
 21
171.929
 31
0.0
  0
LINE
  8
0
 62
0
 10
26.091899999999995
 20
171.929
 30
0.0
 11
26.091899999999995
 21
157.9378
 31
0.0
  0
LINE
  8
0
 62
0
 10
26.091899999999995
 20
157.9378
 30
0.0
 11
40.103899999999996
 21
157.9378
 31
0.0
  0
CIRCLE
  8
0
 62
0
 10
42.63555908203125
 20
165.03663635253906
 30
0.0
 40
1.0
  0
LINE
  8
0
 62
0
 10
59.15389999999999
 20
181.454
 30
0.0
 11
45.1419
 21
181.454
 31
0.0
  0
LINE
  8
0
 62
0
 10
59.15389999999999
 20
167.4628
 30
0.0
 11
59.15389999999999
 21
181.454
 31
0.0
  0
LINE
  8
0
 62
0
 10
45.14190000000001
 20
181.454
 30
0.0
 11
45.14190000000001
 21
167.4628
 31
0.0
  0
LINE
  8
0
 62
0
 10
45.14190000000001
 20
167.4628
 30
0.0
 11
59.1539
 21
167.4628
 31
0.0
  0
CIRCLE
  8
0
 62
0
 10
106.00661611557007
 20
187.38816833496094
 30
0.0
 40
1.0
  0
LINE
  8
0
 62
0
 10
102.29159999999999
 20
169.8337
 30
0.0
 11
116.30419999999998
 21
169.8337
 31
0.0
  0
LINE
  8
0
 62
0
 10
102.29159999999999
 20
183.84629999999999
 30
0.0
 11
102.29159999999999
 21
169.83369999999996
 31
0.0
  0
LINE
  8
0
 62
0
 10
116.30420000000001
 20
169.8337
 30
0.0
 11
116.30420000000001
 21
183.84629999999999
 31
0.0
  0
LINE
  8
0
 62
0
 10
116.30420000000001
 20
183.84629999999999
 30
0.0
 11
102.29160000000002
 21
183.84629999999999
 31
0.0
  0
LINE
  8
0
 62
0
 10
97.2542
 20
186.2165
 30
0.0
 11
97.2542
 21
172.2253
 31
0.0
  0
LINE
  8
0
 62
0
 10
83.24189999999999
 20
186.2165
 30
0.0
 11
97.25419999999998
 21
186.2165
 31
0.0
  0
LINE
  8
0
 62
0
 10
97.2542
 20
172.2253
 30
0.0
 11
83.2419
 21
172.2253
 31
0.0
  0
LINE
  8
0
 62
0
 10
83.24189999999999
 20
172.2253
 30
0.0
 11
83.24189999999999
 21
186.2165
 31
0.0
  0
CIRCLE
  8
0
 62
0
 10
137.88704681396484
 20
105.10244750976562
 30
0.0
 40
1.0
  0
CIRCLE
  8
0
 62
0
 10
137.88408660888672
 20
162.50094604492188
 30
0.0
 40
1.0
  0
LINE
  8
0
 62
0
 10
140.3916
 20
160.0338
 30
0.0
 11
154.4042
 21
160.0338
 31
0.0
  0
LINE
  8
0
 62
0
 10
140.3916
 20
146.0212
 30
0.0
 11
140.3916
 21
160.0338
 31
0.0
  0
LINE
  8
0
 62
0
 10
154.4042
 20
160.0338
 30
0.0
 11
154.4042
 21
146.0212
 31
0.0
  0
LINE
  8
0
 62
0
 10
154.4042
 20
146.0212
 30
0.0
 11
140.3916
 21
146.0212
 31
0.0
  0
LINE
  8
0
 62
0
 10
140.3916
 20
179.0838
 30
0.0
 11
154.4042
 21
179.0838
 31
0.0
  0
LINE
  8
0
 62
0
 10
140.3916
 20
165.0712
 30
0.0
 11
140.3916
 21
179.0838
 31
0.0
  0
LINE
  8
0
 62
0
 10
154.4042
 20
179.0838
 30
0.0
 11
154.4042
 21
165.0712
 31
0.0
  0
LINE
  8
0
 62
0
 10
154.4042
 20
165.0712
 30
0.0
 11
140.3916
 21
165.0712
 31
0.0
  0
LINE
  8
0
 62
0
 10
140.3916
 20
140.9838
 30
0.0
 11
154.4042
 21
140.9838
 31
0.0
  0
LINE
  8
0
 62
0
 10
140.3916
 20
126.97120000000001
 30
0.0
 11
140.3916
 21
140.9838
 31
0.0
  0
LINE
  8
0
 62
0
 10
154.4042
 20
140.9838
 30
0.0
 11
154.4042
 21
126.97120000000001
 31
0.0
  0
LINE
  8
0
 62
0
 10
154.4042
 20
126.97120000000001
 30
0.0
 11
140.3916
 21
126.97120000000001
 31
0.0
  0
LINE
  8
0
 62
0
 10
140.3916
 20
102.88310000000001
 30
0.0
 11
154.4042
 21
102.88310000000001
 31
0.0
  0
LINE
  8
0
 62
0
 10
140.3916
 20
88.87129999999999
 30
0.0
 11
140.3916
 21
102.88310000000001
 31
0.0
  0
LINE
  8
0
 62
0
 10
154.4042
 20
102.88310000000001
 30
0.0
 11
154.4042
 21
88.87129999999999
 31
0.0
  0
LINE
  8
0
 62
0
 10
154.4042
 20
88.87129999999999
 30
0.0
 11
140.3916
 21
88.87129999999999
 31
0.0
  0
LINE
  8
0
 62
0
 10
140.3916
 20
121.93379999999999
 30
0.0
 11
154.4042
 21
121.93379999999999
 31
0.0
  0
LINE
  8
0
 62
0
 10
140.3916
 20
107.9212
 30
0.0
 11
140.3916
 21
121.93379999999999
 31
0.0
  0
LINE
  8
0
 62
0
 10
154.4042
 20
121.93379999999999
 30
0.0
 11
154.4042
 21
107.9212
 31
0.0
  0
LINE
  8
0
 62
0
 10
154.4042
 20
107.9212
 30
0.0
 11
140.3916
 21
107.9212
 31
0.0
  0
ARC
  8
0
 62
0
 10
22.328662626682267
 20
118.52135031393395
 30
0.0
 40
1.0
 50
-41.51999999999983
 51
-0.0
  0
LINE
  8
0
 62
0
 10
23.077387003816348
 20
117.85846887122706
 30
0.0
 11
5.538592146685502
 21
98.04840569995463
 31
0.0
  0
LINE
  8
0
 62
0
 10
23.077387003816348
 20
117.85846887122706
 30
0.0
 11
5.538592146685502
 21
98.04840569995463
 31
0.0
  0
LINE
  8
0
 62
0
 10
24.646749940923808
 20
64.22
 30
0.0
 11
61.99853560776009
 21
85.78506350946111
 31
0.0
  0
LINE
  8
0
 62
0
 10
5.303990093384819
 20
95.72264281454083
 30
0.0
 11
23.280724537139392
 21
64.58602540378445
 31
0.0
  0
LINE
  8
0
 62
0
 10
155.84597102726673
 20
182.5701621629036
 30
0.0
 11
100.7359505432923
 21
194.91901204316656
 31
0.0
  0
LINE
  8
0
 62
0
 10
99.64267954183117
 20
195.04000000000002
 30
0.0
 11
62.41039130888346
 21
195.04000000000002
 31
0.0
  0
LINE
  8
0
 62
0
 10
48.5477406668167
 20
186.44
 30
0.0
 11
31.893322040873123
 21
186.44
 31
0.0
  0
ARC
  8
0
 62
0
 10
31.893322040873123
 20
185.44
 30
0.0
 40
1.0
 50
89.99999999999919
 51
146.13999999999933
  0
ARC
  8
0
 62
0
 10
7.036040900953672
 20
96.72264281454083
 30
0.0
 40
2.0
 50
138.47999999999996
 51
-149.99999999999997
  0
LINE
  8
0
 62
0
 10
48.5477406668167
 20
186.44
 30
0.0
 11
31.893322040873123
 21
186.44
 31
0.0
  0
LINE
  8
0
 62
0
 10
5.303990093384819
 20
95.72264281454083
 30
0.0
 11
23.280724537139392
 21
64.58602540378445
 31
0.0
  0
ARC
  8
0
 62
0
 10
48.5477406668167
 20
188.94
 30
0.0
 40
2.5
 50
-89.99999999999969
 51
-55.00999999999958
  0
ARC
  8
0
 62
0
 10
24.146749940923804
 20
65.08602540378443
 30
0.0
 40
1.0
 50
-149.99999999999997
 51
-59.99999999999969
  0
LINE
  8
0
 62
0
 10
60.97680766235038
 20
194.5881303494634
 30
0.0
 11
49.98132431334977
 21
186.89186965053662
 31
0.0
  0
LINE
  8
0
 62
0
 10
24.646749940923808
 20
64.22
 30
0.0
 11
61.99853560776009
 21
85.78506350946111
 31
0.0
  0
ARC
  8
0
 62
0
 10
62.41039130888346
 20
192.54000000000002
 30
0.0
 40
2.5
 50
89.99999999999969
 51
124.98999999999965
  0
ARC
  8
0
 62
0
 10
63.24853560776008
 20
83.62
 30
0.0
 40
2.5
 50
90.0
 51
120.00000000000007
  0
LINE
  8
0
 62
0
 10
99.64267954183117
 20
195.04000000000002
 30
0.0
 11
62.41039130888346
 21
195.04000000000002
 31
0.0
  0
LINE
  8
0
 62
0
 10
63.24853560776008
 20
86.12
 30
0.0
 11
155.9086626266823
 21
86.12
 31
0.0
  0
ARC
  8
0
 62
0
 10
99.64267954183117
 20
190.04000000000002
 30
0.0
 40
5.0
 50
77.36999999999989
 51
90.0
  0
ARC
  8
0
 62
0
 10
155.9086626266823
 20
87.62
 30
0.0
 40
1.5
 50
-90.0
 51
-0.0
  0
LINE
  8
0
 62
0
 10
155.84597102726673
 20
182.5701621629036
 30
0.0
 11
100.7359505432923
 21
194.91901204316656
 31
0.0
  0
LINE
  8
0
 62
0
 10
157.4086626266823
 20
87.62
 30
0.0
 11
157.4086626266823
 21
180.618557345637
 31
0.0
  0
ARC
  8
0
 62
0
 10
155.40866262668226
 20
180.61855734563702
 30
0.0
 40
2.0
 50
-0.0
 51
77.36999999999948
  0
ARC
  8
0
 62
0
 10
24.32866262668226
 20
174.16560474754635
 30
0.0
 40
1.0
 50
146.1399999999997
 51
-180.0
  0
POLYLINE
  8
0
 62
0
 70
0
 66
1
 10
0.0
 20
0.0
 30
0.0
  0
VERTEX
  8
0
 10
23.478662626682265
 20
174.16560474754635
 30
0.0
  0
VERTEX
  8
0
 10
23.328662626682267
 20
174.16560474754635
 30
0.0
  0
SEQEND
  8
0
  0
LINE
  8
0
 62
0
 10
23.478662626682265
 20
174.16560474754635
 30
0.0
 11
23.478662626682265
 21
118.52135031393395
 31
0.0
  0
POLYLINE
  8
0
 62
0
 70
0
 66
1
 10
0.0
 20
0.0
 30
0.0
  0
VERTEX
  8
0
 10
23.478662626682265
 20
118.52135031393395
 30
0.0
  0
VERTEX
  8
0
 10
23.328662626682267
 20
118.52135031393395
 30
0.0
  0
SEQEND
  8
0
  0
ARC
  8
0
 62
0
 10
22.328662626682267
 20
118.52135031393395
 30
0.0
 40
1.0
 50
-41.51999999999983
 51
-0.0
  0
POLYLINE
  8
0
 62
0
 70
0
 66
1
 10
0.0
 20
0.0
 30
0.0
  0
VERTEX
  8
0
 10
23.622821383696397
 20
174.63919543548283
 30
0.0
  0
VERTEX
  8
0
 10
23.498261164345948
 20
174.72277026276575
 30
0.0
  0
SEQEND
  8
0
  0
ARC
  8
0
 62
0
 10
24.32866262668226
 20
174.16560474754635
 30
0.0
 40
0.85
 50
146.14000000000007
 51
-180.0
  0
LINE
  8
0
 62
0
 10
155.8131728972229
 20
182.42379180160862
 30
0.0
 11
100.70315241324847
 21
194.77264168187156
 31
0.0
  0
ARC
  8
0
 62
0
 10
22.328662626682267
 20
118.52135031393395
 30
0.0
 40
1.15
 50
-41.520000000000145
 51
-0.0
  0
ARC
  8
0
 62
0
 10
22.328662626682267
 20
118.52135031393395
 30
0.0
 40
1.15
 50
-41.520000000000145
 51
-0.0
  0
LINE
  8
0
 62
0
 10
31.187480797887243
 20
185.91359068793648
 30
0.0
 11
23.622821383696397
 21
174.63919543548283
 31
0.0
  0
LINE
  8
0
 62
0
 10
23.189695660386462
 20
117.75903665482103
 30
0.0
 11
5.650900803255617
 21
97.9489734835486
 31
0.0
  0
ARC
  8
0
 62
0
 10
31.893322040873123
 20
185.44
 30
0.0
 40
0.85
 50
89.99999999999905
 51
146.13999999999982
  0
ARC
  8
0
 62
0
 10
7.036040900953672
 20
96.72264281454083
 30
0.0
 40
1.85
 50
138.48000000000013
 51
-150.00000000000006
  0
LINE
  8
0
 62
0
 10
48.5477406668167
 20
186.29
 30
0.0
 11
31.893322040873123
 21
186.29
 31
0.0
  0
LINE
  8
0
 62
0
 10
5.433893903952487
 20
95.79764281454084
 30
0.0
 11
23.41062834770706
 21
64.66102540378445
 31
0.0
  0
ARC
  8
0
 62
0
 10
48.5477406668167
 20
188.94
 30
0.0
 40
2.65
 50
-89.99999999999969
 51
-55.009999999999664
  0
ARC
  8
0
 62
0
 10
24.146749940923804
 20
65.08602540378443
 30
0.0
 40
0.85
 50
-150.00000000000017
 51
-59.9999999999997
  0
LINE
  8
0
 62
0
 10
61.062822681142364
 20
194.4652425284956
 30
0.0
 11
50.067339332141756
 21
186.76898182956882
 31
0.0
  0
LINE
  8
0
 62
0
 10
24.57174994092381
 20
64.34990381056767
 30
0.0
 11
61.92353560776009
 21
85.91496732002878
 31
0.0
  0
ARC
  8
0
 62
0
 10
62.41039130888346
 20
192.54000000000002
 30
0.0
 40
2.35
 50
89.99999999999966
 51
124.98999999999971
  0
ARC
  8
0
 62
0
 10
63.24853560776008
 20
83.62
 30
0.0
 40
2.65
 50
90.0
 51
120.00000000000007
  0
LINE
  8
0
 62
0
 10
99.64267954183117
 20
194.89000000000001
 30
0.0
 11
62.41039130888346
 21
194.89000000000001
 31
0.0
  0
LINE
  8
0
 62
0
 10
63.24853560776008
 20
86.27000000000001
 30
0.0
 11
155.9086626266823
 21
86.27000000000001
 31
0.0
  0
ARC
  8
0
 62
0
 10
99.64267954183117
 20
190.04000000000002
 30
0.0
 40
4.85
 50
77.36999999999999
 51
90.0
  0
ARC
  8
0
 62
0
 10
155.9086626266823
 20
87.62
 30
0.0
 40
1.35
 50
-90.0
 51
-0.0
  0
LINE
  8
0
 62
0
 10
155.8131728972229
 20
182.42379180160862
 30
0.0
 11
100.70315241324847
 21
194.77264168187156
 31
0.0
  0
LINE
  8
0
 62
0
 10
157.25866262668228
 20
87.62
 30
0.0
 11
157.25866262668228
 21
180.618557345637
 31
0.0
  0
ARC
  8
0
 62
0
 10
155.40866262668226
 20
180.61855734563702
 30
0.0
 40
1.85
 50
-0.0
 51
77.36999999999948
  0
POLYLINE
  8
0
 62
0
 70
0
 66
1
 10
0.0
 20
0.0
 30
0.0
  0
VERTEX
  8
0
 10
23.189695660386466
 20
117.75903665482102
 30
0.0
  0
VERTEX
  8
0
 10
23.07738700381635
 20
117.85846887122705
 30
0.0
  0
SEQEND
  8
0
  0
POLYLINE
  8
0
 62
0
 70
0
 66
1
 10
0.0
 20
0.0
 30
0.0
  0
VERTEX
  8
0
 10
31.18748079788725
 20
185.91359068793648
 30
0.0
  0
VERTEX
  8
0
 10
31.0629205785368
 20
185.9971655152194
 30
0.0
  0
SEQEND
  8
0
  0
ARC
  8
0
 62
0
 10
31.893322040873123
 20
185.44
 30
0.0
 40
1.0
 50
89.99999999999919
 51
146.13999999999933
  0
POLYLINE
  8
0
 62
0
 70
0
 66
1
 10
0.0
 20
0.0
 30
0.0
  0
VERTEX
  8
0
 10
5.650900803255617
 20
97.9489734835486
 30
0.0
  0
VERTEX
  8
0
 10
5.538592146685504
 20
98.04840569995463
 30
0.0
  0
SEQEND
  8
0
  0
POLYLINE
  8
0
 62
0
 70
0
 66
1
 10
0.0
 20
0.0
 30
0.0
  0
VERTEX
  8
0
 10
31.893322040873123
 20
186.29
 30
0.0
  0
VERTEX
  8
0
 10
31.893322040873123
 20
186.44
 30
0.0
  0
SEQEND
  8
0
  0
POLYLINE
  8
0
 62
0
 70
0
 66
1
 10
0.0
 20
0.0
 30
0.0
  0
VERTEX
  8
0
 10
5.433893903952459
 20
95.79764281454084
 30
0.0
  0
VERTEX
  8
0
 10
5.303990093384793
 20
95.72264281454083
 30
0.0
  0
SEQEND
  8
0
  0
POLYLINE
  8
0
 62
0
 70
0
 66
1
 10
0.0
 20
0.0
 30
0.0
  0
VERTEX
  8
0
 10
48.547740666816715
 20
186.29
 30
0.0
  0
VERTEX
  8
0
 10
48.547740666816715
 20
186.44
 30
0.0
  0
SEQEND
  8
0
  0
POLYLINE
  8
0
 62
0
 70
0
 66
1
 10
0.0
 20
0.0
 30
0.0
  0
VERTEX
  8
0
 10
23.41062834770706
 20
64.66102540378445
 30
0.0
  0
VERTEX
  8
0
 10
23.280724537139395
 20
64.58602540378445
 30
0.0
  0
SEQEND
  8
0
  0
POLYLINE
  8
0
 62
0
 70
0
 66
1
 10
0.0
 20
0.0
 30
0.0
  0
VERTEX
  8
0
 10
50.067339332141756
 20
186.76898182956882
 30
0.0
  0
VERTEX
  8
0
 10
49.98132431334977
 20
186.89186965053662
 30
0.0
  0
SEQEND
  8
0
  0
POLYLINE
  8
0
 62
0
 70
0
 66
1
 10
0.0
 20
0.0
 30
0.0
  0
VERTEX
  8
0
 10
24.571749940923805
 20
64.34990381056767
 30
0.0
  0
VERTEX
  8
0
 10
24.646749940923804
 20
64.22
 30
0.0
  0
SEQEND
  8
0
  0
POLYLINE
  8
0
 62
0
 70
0
 66
1
 10
0.0
 20
0.0
 30
0.0
  0
VERTEX
  8
0
 10
61.06282268114238
 20
194.4652425284956
 30
0.0
  0
VERTEX
  8
0
 10
60.976807662350396
 20
194.5881303494634
 30
0.0
  0
SEQEND
  8
0
  0
POLYLINE
  8
0
 62
0
 70
0
 66
1
 10
0.0
 20
0.0
 30
0.0
  0
VERTEX
  8
0
 10
61.92353560776009
 20
85.91496732002878
 30
0.0
  0
VERTEX
  8
0
 10
61.99853560776009
 20
85.78506350946111
 30
0.0
  0
SEQEND
  8
0
  0
POLYLINE
  8
0
 62
0
 70
0
 66
1
 10
0.0
 20
0.0
 30
0.0
  0
VERTEX
  8
0
 10
62.410391308883455
 20
194.89000000000001
 30
0.0
  0
VERTEX
  8
0
 10
62.410391308883455
 20
195.04000000000002
 30
0.0
  0
SEQEND
  8
0
  0
POLYLINE
  8
0
 62
0
 70
0
 66
1
 10
0.0
 20
0.0
 30
0.0
  0
VERTEX
  8
0
 10
63.24853560776008
 20
86.27000000000001
 30
0.0
  0
VERTEX
  8
0
 10
63.24853560776008
 20
86.12
 30
0.0
  0
SEQEND
  8
0
  0
POLYLINE
  8
0
 62
0
 70
0
 66
1
 10
0.0
 20
0.0
 30
0.0
  0
VERTEX
  8
0
 10
99.64267954183117
 20
194.89000000000001
 30
0.0
  0
VERTEX
  8
0
 10
99.64267954183117
 20
195.04000000000002
 30
0.0
  0
SEQEND
  8
0
  0
POLYLINE
  8
0
 62
0
 70
0
 66
1
 10
0.0
 20
0.0
 30
0.0
  0
VERTEX
  8
0
 10
155.9086626266823
 20
86.27000000000001
 30
0.0
  0
VERTEX
  8
0
 10
155.9086626266823
 20
86.12
 30
0.0
  0
SEQEND
  8
0
  0
POLYLINE
  8
0
 62
0
 70
0
 66
1
 10
0.0
 20
0.0
 30
0.0
  0
VERTEX
  8
0
 10
100.70315241324847
 20
194.77264168187156
 30
0.0
  0
VERTEX
  8
0
 10
100.7359505432923
 20
194.91901204316656
 30
0.0
  0
SEQEND
  8
0
  0
POLYLINE
  8
0
 62
0
 70
0
 66
1
 10
0.0
 20
0.0
 30
0.0
  0
VERTEX
  8
0
 10
157.25866262668228
 20
87.62
 30
0.0
  0
VERTEX
  8
0
 10
157.4086626266823
 20
87.62
 30
0.0
  0
SEQEND
  8
0
  0
POLYLINE
  8
0
 62
0
 70
0
 66
1
 10
0.0
 20
0.0
 30
0.0
  0
VERTEX
  8
0
 10
155.8131728972229
 20
182.42379180160864
 30
0.0
  0
VERTEX
  8
0
 10
155.84597102726673
 20
182.57016216290364
 30
0.0
  0
SEQEND
  8
0
  0
POLYLINE
  8
0
 62
0
 70
0
 66
1
 10
0.0
 20
0.0
 30
0.0
  0
VERTEX
  8
0
 10
157.25866262668228
 20
180.618557345637
 30
0.0
  0
VERTEX
  8
0
 10
157.4086626266823
 20
180.618557345637
 30
0.0
  0
SEQEND
  8
0
  0
ENDBLK
  0
ENDSEC
  0
SECTION
  2
ENTITIES
  0
INSERT
  2
BODY001
  8
0
 62
0
 10
0.0
 20
0.0
 30
0.0
  0
INSERT
  2
PART__MIRRORING
  8
0
 62
0
 10
0.0
 20
0.0
 30
0.0
  0
ENDSEC
  0
EOF
